<svg id="undraw_co-working_re_w93t" xmlns="http://www.w3.org/2000/svg" xmlns:xlink="http://www.w3.org/1999/xlink" width="1500" height="1500" viewBox="0 0 1500 1500">
  <defs>
    <clipPath id="clip-path">
      <rect id="Rectangle_2421" data-name="Rectangle 2421" width="1085" height="986" transform="translate(207 257)" fill="#fff"/>
    </clipPath>
  </defs>
  <g id="undraw_co-working_re_w93t-2" data-name="undraw_co-working_re_w93t">
    <rect id="Rectangle_2420" data-name="Rectangle 2420" width="1500" height="1500" fill="#fff" opacity="0"/>
    <g id="Group_531" data-name="Group 531" clip-path="url(#clip-path)">
      <path id="Path_20186" data-name="Path 20186" d="M1292,750a490.991,490.991,0,0,1-41.97,199.413q-1.35,3.043-2.73,6.049c-.46,1.008-.92,2-1.39,3.012s-.93,2-1.41,3c-.62,1.291-1.23,2.569-1.86,3.848q-1.155,2.415-2.37,4.807-.15.331-.33.664c-.68,1.352-1.35,2.7-2.05,4.057-.15.3-.3.59-.46.873-.8,1.573-1.62,3.147-2.46,4.708v.013q-1.32,2.489-2.66,4.967-3.315,6.121-6.82,12.134c-.7,1.192-1.39,2.385-2.1,3.565-.65,1.11-1.31,2.2-1.97,3.3-.45.76-.91,1.51-1.37,2.26-.74,1.21-1.49,2.43-2.25,3.65-.02.01-.02.01-.02.02-1.68,2.71-3.4,5.4-5.13,8.07h-.01q-1.2,1.86-2.42,3.7v.01q-3.675,5.535-7.49,10.96v.01c-.01,0-.02,0-.02.01v.01l-.03.03q-3.015,4.335-6.17,8.59v.01c-1.33,1.82-2.69,3.64-4.05,5.44q-1.68,2.2-3.39,4.41c-.23.32-.48.63-.74.95v.01c-.31.41-.61.8-.94,1.2v.02q-7.29,9.315-15.01,18.25h-.01c-.27.34-.55.66-.84.97-.27.32-.56.64-.84.98h-.02c-.43.5-.87,1-1.31,1.51s-.88,1.01-1.34,1.51v.01a493.483,493.483,0,0,1-90.68,80.04q-6.675,4.59-13.52,8.94c-1.13.72-2.26,1.43-3.4,2.15-.34.23-.69.44-1.03.65-.6.38-1.22.76-1.83,1.14s-1.22.75-1.83,1.12c-2.45,1.5-4.92,2.98-7.39,4.43-.61.37-1.24.72-1.87,1.09-.61.36-1.24.71-1.86,1.07-.01.01-.02.03-.03.03s-.03.02-.05.02l-.02.01-.03.03h-.01c-3.09,1.78-6.2,3.54-9.35,5.23q-8.445,4.62-17.05,8.89c-1.43.72-2.87,1.42-4.3,2.12-1.2.58-2.4,1.15-3.59,1.72-.33.16-.65.32-.98.47-1,.46-2,.93-2.99,1.39-1.08.51-2.18,1-3.26,1.5-1.21.55-2.42,1.09-3.634,1.63-4.57,2.04-9.19,4.01-13.823,5.9a479.573,479.573,0,0,1-50.66,17.53c-.8.24-1.61.47-2.421.69q-11.04,3.1-22.24,5.67-19.555,4.5-39.467,7.39c-.024,0-.061.01-.086.01-1.585.23-3.182.46-4.767.68-.135.02-.283.05-.43.06-.012.01-.025.01-.049,0,0,0,0,.01-.013,0-1.757.23-3.514.47-5.283.69-.123.02-.246.03-.369.05-1.646.19-3.3.39-4.964.57-1.781.2-3.563.39-5.357.57-1.364.13-2.728.27-4.092.39a1.524,1.524,0,0,1-.368.04c-1.241.11-2.482.22-3.723.32-.049,0-.111.01-.16.01-1.081.1-2.163.17-3.244.26q-19.075,1.515-38.521,1.5-21.1,0-41.776-1.76c-.049,0-.1-.01-.148-.01q-4.4-.375-8.8-.81l-2.31-.24c-.148-.01-.295-.02-.443-.04-.233-.03-.467-.05-.712-.08a2.484,2.484,0,0,1-.381-.05c-1.02-.11-2.04-.22-3.072-.34-1.143-.14-2.3-.27-3.441-.42s-2.3-.28-3.44-.44c-.246-.03-.5-.05-.75-.1-.835-.1-1.671-.21-2.494-.33-.405-.05-.8-.11-1.192-.17-.8-.12-1.585-.23-2.384-.35-.024,0-.061-.01-.085-.01a485.34,485.34,0,0,1-74.081-16.71h-.012c-1.315-.4-2.629-.82-3.944-1.24-.393-.11-.786-.23-1.18-.37q-5.123-1.635-10.186-3.39-6.985-2.4-13.872-5.02c-1.253-.48-2.494-.96-3.748-1.44-2.494-.98-4.976-1.96-7.446-2.97q-6.321-2.58-12.557-5.33h-.013v-.01q-5.823-2.565-11.562-5.28a1.727,1.727,0,0,1-.32-.15c-.012,0-.012-.01-.024-.01-.848-.4-1.7-.8-2.544-1.21l-.024-.01a487.151,487.151,0,0,1-60.81-34.75q-9.345-6.24-18.369-12.92-7.281-5.355-14.352-11a493.553,493.553,0,0,1-64.926-62.07h-.012v-.02c-1.389-1.58-2.74-3.16-4.116-4.75v-.02c-.2-.22-.381-.44-.566-.66-.872-1.02-1.72-2.03-2.568-3.06v-.01q-1.732-2.055-3.391-4.11c-.246-.3-.479-.58-.713-.87h-.012v-.02c-.909-1.1-1.806-2.22-2.691-3.34-.454-.55-.9-1.12-1.339-1.68h-.012v-.02q-4.018-5.07-7.877-10.24v-.01c-.712-.95-1.413-1.89-2.1-2.85h-.012q-4.939-6.675-9.621-13.51v-.02c-1.179-1.7-2.347-3.43-3.5-5.16s-2.3-3.47-3.428-5.21h-.012q-1.751-2.7-3.465-5.41c-.062-.1-.123-.19-.172-.27q-1.7-2.67-3.342-5.39-1.328-2.145-2.605-4.3c-.59-.97-1.168-1.93-1.733-2.91-.209-.335-.393-.667-.577-.987-1.3-2.225-2.581-4.45-3.858-6.688-1.487-2.631-2.962-5.286-4.4-7.942-.59-1.094-1.18-2.2-1.757-3.307-.209-.357-.394-.713-.578-1.082-.688-1.3-1.376-2.606-2.052-3.922s-1.351-2.619-2.015-3.934-1.327-2.631-1.978-3.959c-.492-1-.983-2-1.462-3a2.639,2.639,0,0,1-.136-.258c-.221-.467-.454-.922-.663-1.389a.838.838,0,0,1-.111-.234c-.5-1.032-.995-2.053-1.474-3.085-.639-1.328-1.253-2.668-1.868-4.008-.442-.935-.86-1.881-1.29-2.828q-.921-1.992-1.806-4.02c-.627-1.39-1.229-2.791-1.831-4.193-.16-.356-.307-.7-.455-1.057-.282-.639-.553-1.279-.823-1.918-.725-1.7-1.438-3.418-2.138-5.127q-1.2-2.895-2.335-5.8-1.088-2.712-2.113-5.435l-.258-.663v-.013a491.083,491.083,0,0,1-24.132-86.625v-.012a491.66,491.66,0,0,1-6.537-51c-.074-.934-.135-1.869-.2-2.8Q306.535,767.489,306.56,750q0-7.764.245-15.454A490.888,490.888,0,0,1,415.523,440.762q4.441-5.514,9.044-10.892C514.927,324.065,649.276,257,799.279,257c175.377,0,329.361,91.678,416.661,229.755q6.825,10.732,13.05,21.859A490.9,490.9,0,0,1,1292,750Z" fill="#f2f2f2"/>
      <path id="Path_20187" data-name="Path 20187" d="M1037.87,1136.96q-2.655,7.335-5.29,14.68c-.33.93-.68,1.86-1.01,2.79l-13.5,37.41c-1.43.72-2.87,1.42-4.3,2.12-1.2.57-2.4,1.15-3.59,1.72-.33.16-.65.32-.98.47-1,.46-2,.93-2.99,1.38-1.08.52-2.18,1.01-3.26,1.5-1.21.56-2.42,1.1-3.634,1.64a16.379,16.379,0,0,1-1.069-5.15,30.34,30.34,0,0,1,.971-8.21c1.072-4.43,2.762-8.77,3.882-13.21.06-.21.11-.43.16-.64a48.426,48.426,0,0,0-3.268-31.58c-2.777-5.88-6.758-11.23-8.49-17.5a25.243,25.243,0,0,1,1.88-17.55,28.207,28.207,0,0,1,3.772-5.88c.356-.45.737-.88,1.13-1.31a24.863,24.863,0,0,1,13.686-7.69c10.09-1.79,20.63,3.58,26.27,12.01a24.094,24.094,0,0,1,4.09,11.4C1042.95,1122.75,1040.39,1129.99,1037.87,1136.96Z" fill="#e4e4e4"/>
      <path id="Path_20188" data-name="Path 20188" d="M1010.02,1186.9c-2.31-4.27-6.18-8-6.92-12.8-2.4-15.39-8.17-26.43-17.742-32.69-2.777-1.81-3.219-5.8-4.927-8.68-.762-1.29-1.536-2.58-2.335-3.85q-1.935-3.15-4.03-6.18a100.668,100.668,0,0,0-8.736-11.12c-1.315-1.46-2.7-2.87-4.141-4.21l-.012-.01c-.9-.87-1.807-1.69-2.753-2.49q-.552-.48-1.142-.96l-.025-.02a57.755,57.755,0,0,0-5.21-4.03c-4.165-2.82-8.871-4.77-13.7-3.21a29.663,29.663,0,0,0-5.456,2.51c-.884.5-1.757,1.03-2.629,1.56q-.885.525-1.77,1.08c-.479.28-.958.56-1.437.83q-5.566,3.21-11.182,6.3c-.54.31-1.081.6-1.634.9h-.012c-.381.22-.774.43-1.167.64-.75.41-1.512.83-2.261,1.24-2.249,1.21-4.5,2.42-6.758,3.61-1.155.62-2.322,1.21-3.49,1.8-.54.27-1.081.54-1.609.82h-.013c-.2.1-.381.2-.577.3-1.6.82-3.17,1.67-4.694,2.59a38.577,38.577,0,0,0-11.292,10.36c-.59.82-1.155,1.65-1.671,2.51a36.444,36.444,0,0,0-1.843,3.44c-.381.8-.737,1.6-1.057,2.41v.02a38.577,38.577,0,0,0-1.2,24.34v.01c.147.55.307,1.1.491,1.64.3.91.627,1.82,1,2.7a29.624,29.624,0,0,0,1.376,2.89v.01a54.68,54.68,0,0,0,10.125,12.57l.122.12c.492.48,1,.97,1.487,1.45.27.26.553.52.848.76,4.251,3.65,11.12,6.42,15,10.17,2.076,2,3.293,4.28,2.814,7.12-1.278,7.54-1,12.42.307,15.55,3.538,8.56,14.646,4.21,22.252,5.89.811-.22,1.622-.45,2.421-.69a481.932,481.932,0,0,0,50.66-17.53c4.632-1.89,9.252-3.86,13.823-5.9,1.214-.54,2.424-1.08,3.634-1.64,1.08-.49,2.18-.98,3.26-1.5.99-.45,1.99-.92,2.99-1.39.33-.14.65-.3.98-.46,1.19-.57,2.39-1.15,3.59-1.72C1012.55,1191.58,1011.28,1189.24,1010.02,1186.9Z" fill="#e4e4e4"/>
      <path id="Path_20189" data-name="Path 20189" d="M920.12,1067.54c2.582-7.8-.97-12.95-10.108-15.68a2.469,2.469,0,0,0-1.1-.59,2.5,2.5,0,0,0-1.244.02,2.534,2.534,0,0,0-1.085.61,2.491,2.491,0,0,0-.661,1.05l-7.979,23.66c-8.346-2.14-14.468-.67-15.8,7.59,3.294-8.42.2-13.69-9.071-15.95a2.556,2.556,0,0,0-2.336-.67,2.5,2.5,0,0,0-1.117.57,2.609,2.609,0,0,0-.7,1.05l-5.247,21.3a54.041,54.041,0,1,0,56.445-22.96Z" fill="#e4e4e4"/>
      <path id="Path_20190" data-name="Path 20190" d="M915.04,1134.96a4.613,4.613,0,0,1-6.247-1.89.651.651,0,0,1-.049-.5.705.705,0,0,1,.319-.39.657.657,0,0,1,.891.27,3.282,3.282,0,0,0,1.953,1.59,3.225,3.225,0,0,0,2.507-.25,3.3,3.3,0,0,0,1.348-4.46.659.659,0,0,1,.27-.89.658.658,0,0,1,.891.27,4.626,4.626,0,0,1-1.883,6.25Z" fill="#fff"/>
      <path id="Path_20191" data-name="Path 20191" d="M910.212,1125.26c2.566-1.38,4.217-3.3,3.687-4.29s-3.039-.67-5.6.71-4.217,3.3-3.687,4.28S907.646,1126.63,910.212,1125.26Z" fill="#fff"/>
      <path id="Path_20192" data-name="Path 20192" d="M882.938,1126.93a11.714,11.714,0,0,1,5.945-7.97,11.718,11.718,0,0,1,9.927-.55,13.035,13.035,0,1,0-16.451,8.35h0C882.55,1126.82,882.744,1126.88,882.938,1126.93Z" fill="#fff"/>
      <path id="Path_20193" data-name="Path 20193" d="M886.835,1122.19a4.49,4.49,0,1,0-4.487-4.49A4.488,4.488,0,0,0,886.835,1122.19Z" fill="#3f3d56"/>
      <path id="Path_20194" data-name="Path 20194" d="M914,1110.77a11.765,11.765,0,0,1,5.944-7.97,11.721,11.721,0,0,1,9.928-.55,13.043,13.043,0,1,0-16.452,8.35h0C913.608,1110.66,913.8,1110.72,914,1110.77Z" fill="#fff"/>
      <path id="Path_20195" data-name="Path 20195" d="M919.54,1105.79a4.49,4.49,0,1,0-4.487-4.49A4.488,4.488,0,0,0,919.54,1105.79Z" fill="#3f3d56"/>
      <path id="Path_20196" data-name="Path 20196" d="M942.056,1100.99l-15.32,15.62,1.547,1.51L943.6,1102.5Z" fill="#fff"/>
      <path id="Path_20197" data-name="Path 20197" d="M946.923,1108.54l-18.509,11.66,1.154,1.84,18.51-11.66Z" fill="#fff"/>
      <path id="Path_20198" data-name="Path 20198" d="M893.871,1134.25l-21.477,4.14.41,2.13,21.477-4.14Z" fill="#fff"/>
      <path id="Path_20199" data-name="Path 20199" d="M895.94,1137.64,876,1146.63l.89,1.98,19.943-8.99Z" fill="#fff"/>
      <path id="Path_20200" data-name="Path 20200" d="M263.464,804.2c-42.011-37.831-67.449-97.991-51.816-152.336A260.4,260.4,0,0,0,358.291,754.2c22.938,5.982,49.072,10.246,63.027,29.418,8.684,11.929,10.7,27.693,8.645,42.306s-7.8,28.414-13.494,42.029l.3,3.672C361.291,860.825,305.474,842.034,263.464,804.2Z" fill="#e6e6e6"/>
      <path id="Path_20201" data-name="Path 20201" d="M212.821,652.039c10.678,45.067,35.814,87.013,71.084,117.116,7.625,6.509,15.926,12.447,25.238,16.286a54.953,54.953,0,0,0,28.736,3.376c9.079-1.182,18.229-3.442,27.437-2.4,9.7,1.1,17.814,6.546,23.478,14.381,6.931,9.587,10.006,21.093,12.621,32.451,2.9,12.609,5.722,25.753,14.043,36.059,1.008,1.249-.987,2.741-1.994,1.494-14.476-17.93-12.5-42.75-22.98-62.563-4.893-9.246-12.6-17.072-23.213-19.014-9.282-1.7-18.72.625-27.9,1.9-9.642,1.34-18.97,1.016-28.22-2.253-9.462-3.344-18.013-8.97-25.771-15.254a216.052,216.052,0,0,1-44.8-50.508,226.728,226.728,0,0,1-30.233-70.793c-.369-1.556,2.109-1.829,2.475-.283Z" fill="#fff"/>
      <path id="Path_20202" data-name="Path 20202" d="M271.925,759.975a33.379,33.379,0,0,1-43.234.835c-1.238-1.018.286-2.991,1.526-1.971a30.908,30.908,0,0,0,40.214-.859c1.2-1.067,2.683.934,1.494,1.995Z" fill="#fff"/>
      <path id="Path_20203" data-name="Path 20203" d="M333.354,790.023a64.424,64.424,0,0,0-13.959-44.807c-1-1.252.992-2.745,1.994-1.494a67.01,67.01,0,0,1,14.431,46.655C335.7,791.98,333.236,791.617,333.354,790.023Z" fill="#fff"/>
      <path id="Path_20204" data-name="Path 20204" d="M229.8,700.871a18.913,18.913,0,0,0,9.5-15.221c.1-1.6,2.563-1.239,2.466.354a21.2,21.2,0,0,1-10.475,16.862,1.289,1.289,0,0,1-1.744-.251,1.253,1.253,0,0,1,.25-1.744Z" fill="#fff"/>
      <path id="Path_20205" data-name="Path 20205" d="M387.094,575.414c-.033,1-.066,2.006-.082,3.022a249.2,249.2,0,0,0,2.172,40.345c.123,1.036.265,2.083.418,3.114a262.689,262.689,0,0,0,31.381,91.433,255.11,255.11,0,0,0,21.637,32.133c11.071,14.011,24.19,28.322,29.823,44.693a43.762,43.762,0,0,1,1.5,5.2l-52.719,75.62c-.206.111-.4.236-.6.348l-1.967,3.116c-.45-.494-.906-1.017-1.356-1.511-.262-.286-.513-.588-.775-.874-.171-.2-.342-.393-.507-.559-.058-.065-.114-.131-.154-.184-.166-.167-.3-.34-.45-.495q-3.836-4.37-7.624-8.808c-.017-.013-.017-.013-.023-.041-19.184-22.6-36.651-47-49.861-73.273-.4-.791-.812-1.593-1.185-2.418a243.423,243.423,0,0,1-14.678-36.893,215.375,215.375,0,0,1-5.241-21.125,178.99,178.99,0,0,1-1.89-55.9c4.6-37.111,21-72.338,49.954-95.221C385.606,576.556,386.335,575.987,387.094,575.414Z" fill="#e6e6e6"/>
      <path id="Path_20206" data-name="Path 20206" d="M387.935,576.254c-18.593,42.416-23.764,91.049-13.716,136.332,2.172,9.79,5.227,19.532,10.352,28.207A54.989,54.989,0,0,0,405.483,760.8c7.96,4.526,16.626,8.233,23.348,14.617,7.085,6.728,10.284,15.957,10.093,25.626-.235,11.829-4.7,22.869-9.449,33.513-5.269,11.818-10.928,24.009-10.486,37.25.053,1.6-2.438,1.594-2.491-.008-.77-23.037,15.746-41.661,19.3-63.8,1.657-10.329.213-21.22-7.093-29.165-6.389-6.947-15.322-10.778-23.421-15.291-8.5-4.739-15.758-10.617-21.176-18.8-5.543-8.37-8.985-18.013-11.4-27.705a216.185,216.185,0,0,1-5.378-67.314,226.781,226.781,0,0,1,18.459-74.737c.642-1.465,2.784-.191,2.146,1.265Z" fill="#fff"/>
      <path id="Path_20207" data-name="Path 20207" d="M370.177,698.038a33.4,33.4,0,0,1-35.022-25.377c-.376-1.559,2.028-2.216,2.4-.655a30.925,30.925,0,0,0,32.626,23.54C371.782,695.414,371.765,697.907,370.177,698.038Z" fill="#fff"/>
      <path id="Path_20208" data-name="Path 20208" d="M401.145,759.036a64.427,64.427,0,0,0,15.816-44.185c-.048-1.605,2.443-1.594,2.491.008A67.01,67.01,0,0,1,402.9,760.8c-1.059,1.208-2.809-.567-1.756-1.768Z" fill="#fff"/>
      <path id="Path_20209" data-name="Path 20209" d="M372.107,625.468a18.892,18.892,0,0,0,16.746-6.429c1.043-1.221,2.792.555,1.756,1.769a21.173,21.173,0,0,1-18.51,7.152,1.286,1.286,0,0,1-1.241-1.25,1.251,1.251,0,0,1,1.249-1.242Z" fill="#fff"/>
      <path id="Path_20210" data-name="Path 20210" d="M868.7,580.456c7.323-40.528-4.848-86.515-38.072-110.827a189.832,189.832,0,0,1-38.811,124.358c-10.54,13.68-23.685,27.8-23.174,45.063.318,10.743,6.184,20.719,13.881,28.215s17.157,12.877,26.5,18.175l1.464,2.249C837.613,656.712,861.372,620.984,868.7,580.456Z" fill="#e6e6e6"/>
      <path id="Path_20211" data-name="Path 20211" d="M830.024,470.253A162.272,162.272,0,0,1,841.3,569.4a69.9,69.9,0,0,1-7.271,20.639,40.053,40.053,0,0,1-15.039,14.767c-5.754,3.371-12.029,6.153-16.864,10.865a24.543,24.543,0,0,0-7.107,18.757c.283,8.613,3.642,16.61,7.2,24.316,3.948,8.556,8.185,17.38,7.989,27.026-.024,1.169,1.79,1.138,1.813-.029.342-16.783-11.861-30.189-14.657-46.275-1.3-7.506-.356-15.451,4.889-21.306,4.587-5.119,11.056-7.994,16.911-11.357a42.729,42.729,0,0,0,15.242-13.891,64.575,64.575,0,0,0,8.038-20.283,157.431,157.431,0,0,0,3.278-49.07,165.125,165.125,0,0,0-14.15-54.249c-.481-1.061-2.029-.113-1.551.941Z" fill="#fff"/>
      <path id="Path_20212" data-name="Path 20212" d="M844.11,558.767a24.322,24.322,0,0,0,25.263-18.812c.258-1.139-1.5-1.6-1.757-.454a22.522,22.522,0,0,1-23.536,17.451c-1.164-.081-1.128,1.735.03,1.815Z" fill="#fff"/>
      <path id="Path_20213" data-name="Path 20213" d="M822.136,603.481A46.917,46.917,0,0,1,810.2,571.455c.02-1.169-1.794-1.138-1.814.03a48.8,48.8,0,0,0,12.489,33.3c.782.87,2.039-.439,1.261-1.3Z" fill="#fff"/>
      <path id="Path_20214" data-name="Path 20214" d="M842.016,505.943a13.764,13.764,0,0,1-12.255-4.523c-.771-.879-2.028.431-1.262,1.3a15.427,15.427,0,0,0,13.547,5.033.937.937,0,0,0,.892-.923.91.91,0,0,0-.921-.892Z" fill="#fff"/>
      <path id="Path_20215" data-name="Path 20215" d="M695.534,503.9c.466.563.932,1.126,1.394,1.7a181.358,181.358,0,0,1,16.734,24.2c.39.652.776,1.318,1.147,1.98a191.314,191.314,0,0,1,22.69,66.645,185.972,185.972,0,0,1,1.866,28.155c-.129,13.008-1.3,27.1,2.752,39.04a31.929,31.929,0,0,0,1.455,3.665l64.06,20.01c.168-.028.333-.041.5-.068l2.521.916c.039-.486.068-.99.107-1.475.024-.282.033-.568.057-.849.011-.19.021-.379.042-.549,0-.063.007-.126.007-.174.021-.17.022-.33.039-.486q.26-4.227.462-8.474c.005-.014.005-.014-.005-.033.972-21.572.152-43.413-3.955-64.437-.124-.632-.242-1.279-.4-1.921a177.35,177.35,0,0,0-7.995-27.79,156.753,156.753,0,0,0-6.4-14.5,130.28,130.28,0,0,0-23.828-33.025c-19.189-19.315-44.337-32.274-71.205-32.53C696.9,503.9,696.226,503.9,695.534,503.9Z" fill="#e6e6e6"/>
      <path id="Path_20216" data-name="Path 20216" d="M695.424,504.766a162.147,162.147,0,0,1,68.667,72.37,69.891,69.891,0,0,1,6.614,20.859,40.081,40.081,0,0,1-3.123,20.85c-2.565,6.158-5.9,12.16-6.926,18.835a24.53,24.53,0,0,0,5.612,19.257c5.408,6.706,12.9,11.068,20.378,15.078,8.3,4.453,16.994,8.946,22.642,16.767.684.948,2.114-.17,1.43-1.116-9.825-13.607-27.636-16.959-39.548-28.118-5.558-5.208-9.581-12.122-8.916-19.957.582-6.851,4.017-13.043,6.668-19.255a42.76,42.76,0,0,0,3.812-20.274,64.584,64.584,0,0,0-5.787-21.036,157.348,157.348,0,0,0-26.91-41.155A164.986,164.986,0,0,0,696.1,503.08c-1.023-.557-1.688,1.133-.672,1.686Z" fill="#fff"/>
      <path id="Path_20217" data-name="Path 20217" d="M759.934,566.954a24.34,24.34,0,0,0,8.851-30.239c-.479-1.065-2.155-.371-1.676.7a22.54,22.54,0,0,1-8.291,28.112c-.978.637.143,2.065,1.116,1.431Z" fill="#fff"/>
      <path id="Path_20218" data-name="Path 20218" d="M769.294,615.891a46.875,46.875,0,0,1-28.8-18.38c-.688-.945-2.118.172-1.431,1.116a48.761,48.761,0,0,0,30.009,19.066c1.149.223,1.365-1.58.223-1.8Z" fill="#fff"/>
      <path id="Path_20219" data-name="Path 20219" d="M726.474,526.038a13.764,13.764,0,0,1-12.506,3.772c-1.145-.238-1.36,1.565-.223,1.8a15.417,15.417,0,0,0,13.845-4.142.94.94,0,0,0,.157-1.274.912.912,0,0,0-1.273-.157Z" fill="#fff"/>
      <path id="Path_20220" data-name="Path 20220" d="M368.3,721.746A33.449,33.449,0,0,1,401.74,755.2h0A33.46,33.46,0,0,1,374.7,788.043v54.723H353.36V721.746Z" fill="#3f3d56"/>
      <path id="Path_20221" data-name="Path 20221" d="M1187.39,1042.3v11.46q-7.275,9.315-15,18.26c-.56.65-1.12,1.29-1.7,1.94-.87,1.02-1.77,2.03-2.67,3.04v-34.7Z" fill="#cacaca"/>
      <path id="Path_20222" data-name="Path 20222" d="M1130.57,1018.4a16.166,16.166,0,0,0-16.14,16.16v23.25a16.166,16.166,0,0,0,16.14,16.15h40.12c.58-.65,1.14-1.29,1.7-1.94q7.71-8.955,15-18.26c.32-.41.64-.81.94-1.22q4.17-5.325,8.19-10.8,3.135-4.29,6.19-8.63c.01-.02.03-.02.03-.03q5.085-7.23,9.91-14.68Z" fill="#3f3d56"/>
      <path id="Path_20223" data-name="Path 20223" d="M1233.87,819.408a23.3,23.3,0,0,0-7.67-1.279h-6.59a23.851,23.851,0,0,0-23.82,23.839V1035.91c0,.72.04,1.44.1,2.14a23.13,23.13,0,0,0,.63,3.69q3.135-4.29,6.19-8.63c.01-.02.03-.02.03-.03q5.085-7.23,9.91-14.68,2.595-4.005,5.14-8.06a490.213,490.213,0,0,0,32.24-60.933V841.967a23.845,23.845,0,0,0-16.16-22.559Z" fill="#3f3d56"/>
      <path id="Path_20224" data-name="Path 20224" d="M420.625,1042.3v23.15q-8.293-9.915-16.034-20.28c-.713-.95-1.413-1.91-2.114-2.87Z" fill="#cacaca"/>
      <path id="Path_20225" data-name="Path 20225" d="M458.077,1018.4H385.914q3.41,5.265,6.942,10.39,4.682,6.84,9.621,13.51c.7.96,1.4,1.92,2.113,2.87q7.76,10.365,16.035,20.28c1.033,1.26,2.077,2.5,3.134,3.74q2.026,2.4,4.116,4.77h30.2a16.161,16.161,0,0,0,16.133-16.15v-23.25a16.161,16.161,0,0,0-16.133-16.16Z" fill="#3f3d56"/>
      <path id="Path_20226" data-name="Path 20226" d="M380.041,820.821a23.963,23.963,0,0,0-11.01-2.692h-6.586a23.561,23.561,0,0,0-9.08,1.807,23.864,23.864,0,0,0-14.745,22.032v83.318a490.408,490.408,0,0,0,47.294,93.114q3.41,5.265,6.942,10.39V841.968a23.878,23.878,0,0,0-12.815-21.147Z" fill="#3f3d56"/>
      <path id="Path_20227" data-name="Path 20227" d="M648.473,1180.9l21.646-4.97-8.854-85.9-31.947,7.33Z" fill="#9e616a"/>
      <path id="Path_20228" data-name="Path 20228" d="M668.165,1106.37a25.2,25.2,0,0,1-.9-4.64,28.552,28.552,0,0,0-1.081-5.47,29.023,29.023,0,0,0-2.273-4.67c-.43-.78-.885-1.57-1.291-2.37a20.13,20.13,0,0,1-1.056-2.47c-12.668-37.44-30.35-88.312-42.613-118.088-7.212-17.52-51.569-23.347-93.42-24.835-5.1-.184-10.161-.307-15.113-.369-1.708-.024-3.4-.049-5.087-.061-4.3-.025-8.491-.025-12.521.025-.528,0-1.057,0-1.585.012q-4.4.036-8.54.123c-18.947.369-32.868,1.229-35.35,1.389l-22.105-13.9-4.313-2.717-.454,2.717-3.478,20.728-5.934,35.371,14.88,4.18,9.657,2.705,57.222,16.055,12.165,3.42.073.02,20.483-.03,56.006-.1,2.7,7.17a12.637,12.637,0,0,0-1.532,10.29,12.769,12.769,0,0,0,2.5,4.7,12.586,12.586,0,0,0,4.208,3.25l2.1,1,25.594,67.76a30.684,30.684,0,0,0,5.493,17.13c.43.63.9,1.24,1.388,1.84l.565.68,9.843,19.26,5.861-1.35,24.943-5.72.123-.24c.012-.04.331-.71.8-1.89v-.04C668.079,1132.35,672.4,1119.01,668.165,1106.37Z" fill="#2f2e41"/>
      <path id="Path_20229" data-name="Path 20229" d="M728.975,1186.62a32.067,32.067,0,0,0-38.57-24.2l-17.288-7.81-4.841,3.41L648.2,1172.11l-1.659.38-5.381,1.23,7.433,32.42,80.63-18.5Z" fill="#2f2e41"/>
      <path id="Path_20230" data-name="Path 20230" d="M622.026,1136.62l-7.311,59.31-.245,1.95-1.082,8.83c-4.214-1.72-8.416-3.5-12.57-5.33q-5.823-2.565-11.562-5.29v-59.45Z" fill="#9e616a"/>
      <path id="Path_20231" data-name="Path 20231" d="M463.38,728.91a44.349,44.349,0,1,0-44.324-44.35A44.337,44.337,0,0,0,463.38,728.91Z" fill="#9e616a"/>
      <path id="Path_20232" data-name="Path 20232" d="M626.732,1159.26c-1.228-1.69-2.506-3.45-2.58-5.13-.283-5.94-.578-11.81-.885-17.57-.221-4.02-.442-7.99-.663-11.87-.025-.5-.062-.99-.086-1.47-.381-6.43,1.523-13.21,3.354-19.79.6-2.15,1.2-4.33,1.745-6.5a47.292,47.292,0,0,0,1.683-14.92c-3.145-39.82-17.2-77.27-23.505-83.574-9.584-9.59-52.922-31.744-80.261-45.218-4.853-2.4-9.2-4.512-12.766-6.233-3.158-1.537-5.7-2.754-7.434-3.59-1.327-.627-2.187-1.033-2.482-1.181l-.148-.073-9.891,1.106-1.585.185-8.724.983-56.755,6.369-8.761.983-12.4,1.4L393.4,954.423l-.418.037-.074.417c0,.013-.024.1-.049.259a117.248,117.248,0,0,0,0,36.686c1.45,8.248,4.19,16.638,9.056,23.688.663.96,1.351,1.88,2.089,2.77a.334.334,0,0,0,.1.12c.16.2.319.4.492.59v.01a40.431,40.431,0,0,0,21.343,13c1.228.33,2.482.6,3.772.82,13.749,2.44,29.28,4.67,44.5,6.64,6.3.81,12.558,1.58,18.6,2.29,12.1,1.42,23.407,2.63,32.721,3.59,13.049,1.33,22.216,2.15,24.255,2.32l22.793,106.4a15.6,15.6,0,0,0,2.63,19.19l1.867,1.81,2.163,10.13,7.127,9.54.9,1.2h31.443l.172-.21c.11-.15,11.169-14.36,10.419-31.29C629.227,1162.69,628.01,1161.03,626.732,1159.26Z" fill="#2f2e41"/>
      <path id="Path_20233" data-name="Path 20233" d="M625.874,802.684A16.887,16.887,0,0,0,604.6,817.457l-36.828,11.517,1.536,24.1,51.78-17a16.987,16.987,0,0,0,4.781-33.394Z" fill="#9e616a"/>
      <path id="Path_20234" data-name="Path 20234" d="M601.845,842.563,574.32,852.987l-.7,1.366a13.883,13.883,0,0,1-18.706,5.984h0l-61.866,23.429s-27.629-27.664-47.3-52.352l6.7-41.259A79.075,79.075,0,0,1,462.184,763c40.341,8.851,63.5,65.276,63.5,65.276l72.7-13.88Z" fill="#ff639d"/>
      <path id="Path_20235" data-name="Path 20235" d="M457.081,726.537c-11.1,3-23.33-.988-31.99-8.55s-14.076-18.278-17.2-29.346c-2.286-8.107-3.369-17.1.238-24.715s13.316-12.745,20.806-8.9c-4.621-5.386-2.312-14.3,3.084-18.9s12.807-5.929,19.865-6.651c10.242-1.048,20.822-1.166,30.569,2.154s18.6,10.579,21.653,20.419a15.528,15.528,0,0,0,18.525-4.185,14.084,14.084,0,0,1-7.753,15.266l14.933-4.844c2.569,5.439-1.932,12.171-7.686,13.913s-11.967-.162-17.428-2.679-10.754-5.7-16.686-6.679-12.9.925-15.643,6.278c-1.437,2.8-1.512,6.087-2.346,9.126s-2.948,6.188-6.088,6.436c-1.983.158-3.925-.9-5.9-.683a6.36,6.36,0,0,0-4.981,4.87,18.681,18.681,0,0,0-.018,7.352l3.793,29.012Z" fill="#2f2e41"/>
      <path id="Path_20236" data-name="Path 20236" d="M512.768,946.985l-2.347-3.528-17.129-25.708-.344-.5,5.3-27.49,1.647-8.581,3.6-18.675-1.045-42.747-.749-30.244-.111-4.746-3.8-11.581a41.7,41.7,0,0,0-22.118-24.724l-25.557-11.7a12.459,12.459,0,0,0-16.5,6.182q-.171.376-.317.765c-3.5.479-18.7,3.036-31.591,13.044a48.022,48.022,0,0,0-17.792,27.809c-.025.086-.037.173-.061.259-1.708,7.634-2.986,19.683-3.809,36.009q-.829,16.193-1.045,37.941a551.853,551.853,0,0,0,4.067,72.314c.283,2.287.578,4.562.885,6.848.258,1.918,2.1,3.75,3.883,5.508,1.634,1.611,3.317,3.283,3.551,4.795.209,1.328-.639,2.717-1.647,4.168-.123.184-.258.369-.381.553-1.253,1.783-2.543,3.639-2.211,5.594.774,4.4,1.228,8.876,1.658,13.2a140.006,140.006,0,0,0,2.581,17.728q.645,2.692,1.474,5.41c1.29,4.241,2.851,8.466,4.374,12.606,1.315,3.59,2.679,7.27,3.834,10.91.221.68.43,1.34.627,2.01l.1.34.356.06h.025a13.811,13.811,0,0,1,1.72-2.41.523.523,0,0,1,.111-.12q.258-.315.59-.66c2.69-2.94,8.539-8.22,21.343-17.11,2.863-1.975,6.069-4.126,9.657-6.487,13.16-8.618,31.542-19.843,57.222-34.338q9.659-5.458,20.729-11.544Z" fill="#ff639d"/>
      <path id="Path_20237" data-name="Path 20237" d="M650.594,1217.44a31.946,31.946,0,0,0-22.768-9.43l-13.356-10.13-1.758-1.34-11.894,4.84c4.153,1.83,8.356,3.61,12.57,5.33q19.777,8.085,40.389,14.44a31.574,31.574,0,0,0-3.183-3.71Z" fill="#2f2e41"/>
      <path id="Path_20238" data-name="Path 20238" d="M947.247,1180.06l-16.728-8L953.5,1102.1l24.689,11.81Z" fill="#ffb6b6"/>
      <path id="Path_20239" data-name="Path 20239" d="M1059.39,1168.79q-7.29,4.545-14.78,8.85v.04l-.07.01-.03.01-1.89.47-2.72-7.18-6.26-16.56-17.08-45.12,26.55-6.56,1.5,6.09,11.23,45.57,3.22,13.04Z" fill="#ffb6b6"/>
      <path id="Path_20240" data-name="Path 20240" d="M991.671,875.986a17.429,17.429,0,0,0,23.619,5.93,16.089,16.089,0,0,0,2.25-1.625l52.88,30.367-2.3-31.172-49.86-24.058a17.371,17.371,0,0,0-21.079-2.747,16.736,16.736,0,0,0-5.727,22.954C991.525,875.753,991.6,875.87,991.671,875.986Z" fill="#ffb6b6"/>
      <path id="Path_20241" data-name="Path 20241" d="M1047.68,899.222l9.35,5.7,41.99,25.617a24.742,24.742,0,0,0,34.11-7.86l.02-.022a24.246,24.246,0,0,0,3.09-17.109l-18.66-93.28a25.867,25.867,0,0,0-33.96-19.642,24.651,24.651,0,0,0-15.54,29.937l19.51,66.2-29.91-13.953Z" fill="#ff639d"/>
      <path id="Path_20242" data-name="Path 20242" d="M1219.84,991.2c-.01-.037-.04-.172-.07-.381l-.04-.135-.3-1.476a329.856,329.856,0,0,0-9.64-36.846,113.262,113.262,0,0,0-9.18-21.318c-.12-.221-.26-.442-.39-.664l-.46-.737-3.82,1.4-.15.049L1137.7,952.4l-16.8,6.16-.53.2-2.86,11.68-40.17-5.2-32.73-4.241-9.4-1.217a30.967,30.967,0,0,0-23.09,6.319,32.257,32.257,0,0,0-12.248,21.687c-.123.935-.2,1.881-.233,2.816L996.8,1096.54v.13l1.314,2.63,27.465,55.13h19.03l11.23-.01h9.13l-18.98-48.06.43-.65a21.131,21.131,0,0,0,2.17-18.73l2.14-6.19c4.44-12.8,2.33-18.95-.32-26.72a66.178,66.178,0,0,1-4.15-19.71l-.45-8.76c11.15,1.95,21.53,4.13,31.53,6.32q5.025,1.08,9.93,2.2c9.33,2.07,18.33,4.08,27.16,5.75,17.86,3.41,34.98,5.48,52.56,4.19.35-.02.69-.05,1.03-.08,4.28-.35,8.58-.9,12.93-1.67,2.45-.45,4.9-.95,7.38-1.54.69-.17,1.39-.35,2.08-.52a23.627,23.627,0,0,0,5.48-2.2,35.61,35.61,0,0,0,6.82-4.94c.01-.01.03-.01.03-.03q5.085-7.215,9.91-14.67c1.73-2.67,3.45-5.37,5.14-8.07C1220.24,1003.59,1221.18,996.78,1219.84,991.2Z" fill="#2f2e41"/>
      <path id="Path_20243" data-name="Path 20243" d="M1220.24,971.293c-.18-.787-.41-1.586-.66-2.36a166.678,166.678,0,0,0-6.81-17.237c-2.9-6.393-6.37-13.241-10.51-20.654q-3.015-5.385-6.47-11.2-1.725-2.914-3.6-5.938a2.958,2.958,0,0,0-.16-.271l-.35-.59-57.48,7.7-21.41,2.865-1.28,10.671-.3,2.643c-.01,0-.01,0,0,.013l-.86,7.2v.013l-1.15,9.515-.09-.012-31.77-4.119-32.73-4.241-17.58-2.275a30.973,30.973,0,0,0-23.09,6.32,32.225,32.225,0,0,0-12.251,21.687c-.11.86-.184,1.746-.221,2.618L974.88,1012.97a253.876,253.876,0,0,0-18.75,73.82l-12.165,38.91,1.733.16,25.779,2.39,6.807.64,14.99-21.89c1.708-2.5,3.33-5.07,4.841-7.7a117.247,117.247,0,0,0,6.625-13.33l32.42-77.2q3.765.645,7.45,1.23,17.055,2.76,32.73,4.51c34,3.8,63.44,4.09,89.65.87q11.04-1.35,21.34-3.54,3.78-.8,7.46-1.71.87-.2,1.71-.42a31.313,31.313,0,0,0,21.93-20.5,31.949,31.949,0,0,0,.81-17.913Z" fill="#2f2e41"/>
      <path id="Path_20244" data-name="Path 20244" d="M1098.02,739.092c21.96,0,39.76-18.208,39.76-40.669s-17.8-40.669-39.76-40.669-39.76,18.208-39.76,40.669S1076.06,739.092,1098.02,739.092Z" fill="#ffb6b6"/>
      <path id="Path_20245" data-name="Path 20245" d="M1192.43,915.266c-.07-.455-.14-.909-.24-1.364-.94-4.992-3.4-9.885-5.77-14.63-2.26-4.525-4.41-8.8-5.3-13.057-.87-4.192-.35-8.4.15-12.454.54-4.4,1.11-8.95-.16-13.364a328.152,328.152,0,0,0-26.29-64.987,49.389,49.389,0,0,0-40.98-34.5,11.675,11.675,0,0,0,1.31-6.713,11.356,11.356,0,0,0-4.19-7.708,10.96,10.96,0,0,0-8.1-2.361l-18.48,2.078a11.333,11.333,0,0,0-9.84,12.552,12.333,12.333,0,0,0,.62,2.681c-17.16,21.859-25.97,41.775-26.78,60.61v.013a64.619,64.619,0,0,0,.04,6.528,65.281,65.281,0,0,0,4.52,20.494,87.577,87.577,0,0,0,12.24,21.06q1.545,1.956,3.21,3.836,1.545,1.845,3.46,3.873l3.23,5.065,3.01,4.733,16.1,37.166,8.2-.27,1.14,8.175.27,1.906,5.31,19.019.39,1.426,7.26-3.454,43.33-20.581,32.39-15.392Z" fill="#ff639d"/>
      <path id="Path_20246" data-name="Path 20246" d="M1053.43,848.892a87.006,87.006,0,0,0,15.36,24.745c1.11,1.325,2.28,2.626,3.5,3.93l6.29,9.874c23.19-17.388,41.97-85.853,41.97-85.853l-26.16-5.092Z" opacity="0.2"/>
      <path id="Path_20247" data-name="Path 20247" d="M1037.59,742.892a17.5,17.5,0,0,1-5.9,23.667,17.185,17.185,0,0,1-2.49,1.222l1.85,60.983-26.39-16.624,2.29-55.363a17.445,17.445,0,0,1,7.5-19.922,16.681,16.681,0,0,1,22.91,5.642C1037.44,742.627,1037.51,742.759,1037.59,742.892Z" fill="#ffb6b6"/>
      <path id="Path_20248" data-name="Path 20248" d="M1033.37,805.743l-29.02,4.13,1.24,60.141a25.2,25.2,0,0,0,12.3,21.206h0a24.079,24.079,0,0,0,28.78-3.27L1115.2,822a26.009,26.009,0,0,0,1.91-35.7,24.623,24.623,0,0,0-34.72-2.923c-.2.165-.39.333-.58.5a25.187,25.187,0,0,0-1.93,1.923l-45.25,52.083Z" fill="#ff639d"/>
      <path id="Path_20249" data-name="Path 20249" d="M1060.13,1167.25l-1.07.2-14.45,2.66-4.71.88-7.4,1.36,2.62,10.61c3.16-1.71,6.28-3.46,9.39-5.26l.03-.01.07-.01v-.04q7.485-4.275,14.78-8.85c.35-.21.69-.42,1.03-.65Z" fill="#2f2e41"/>
      <path id="Path_20250" data-name="Path 20250" d="M952.591,1168.64l-18.1-8.68-2.838-1.37-4.534,11.14-31.652,6.97a7.517,7.517,0,0,0-1.229,14.3l30.927,12.63,9.817-8.84-2.408,11.86,11.648,4.76,12.767-40.66Z" fill="#2f2e41"/>
      <path id="Path_20251" data-name="Path 20251" d="M1204.41,680.783c-6.76-7.885-9.97-18.348-15.37-27.3s-14.81-16.969-24.74-14.885c-6.85,1.437-12.14,7.482-14.82,14.222s-3.18,14.172-3.65,21.453c.17-14.963-9.69-29.469-23.26-34.244s-29.81.551-38.34,12.573a20.72,20.72,0,0,0-27.53-.579c-7.62,6.822-9.31,19.806-3.7,28.508s17.76,11.942,26.67,7.117l3.15,2.9c-1.77,6.208,1.67,13.542,7.45,15.88,4.69,1.895,11.32,1.58,13.07,6.5,1.23,3.441-1.07,7.114-3.5,9.758s-5.34,5.374-5.63,9.033c-.44,5.521,5.26,9.388,10.44,10.553,12.5,2.808,26.37-2.982,33.57-14.018q.21-.319.45-.64a48.278,48.278,0,0,0,9.71-36.923c-.4-2.551,0-4.448,1.76-5.052,7.6-2.611,28.88,2.869,35.32,7.821s11.6,11.507,17.81,16.779,14.11,9.339,21.99,7.9c6.31-1.149,11.68-5.733,15.29-11.261s5.68-11.973,7.54-18.377C1234.14,696.571,1215.05,693.2,1204.41,680.783Z" fill="#2f2e41"/>
      <path id="Path_20252" data-name="Path 20252" d="M1077.34,923.2V1157.04q-6.675,4.59-13.52,8.94V938.706c0-6.59-2.21-11.938-4.92-11.95H854.325c-2.728.012-4.927,5.36-4.94,11.95V1240.48c-2.727.27-5.455.53-8.183.75-1.13.1-2.273.19-3.4.27-.651-1.2-1.29-2.42-1.929-3.65V923.2c0-1.82.074-3.651.2-5.459,1.106-15.343,6.6-26.555,13.024-26.58h215.03a5.71,5.71,0,0,1,2.26.48c5.38,2.286,9.63,12.318,10.7,25.289C1077.25,919,1077.35,921.1,1077.34,923.2Z" fill="#e4e4e4"/>
      <path id="Path_20253" data-name="Path 20253" d="M749.109,923.2V1239.55c-.184.29-.369.57-.553.87q-6.93-.705-13.8-1.61v-300.1c0-6.59-2.347-11.938-5.234-11.95H512.394c-2.887.012-5.234,5.36-5.234,11.95V1147.04q-7.279-5.355-14.352-11V923.2c0-1.82.074-3.651.209-5.459,1.168-15.343,7-26.555,13.836-26.58H735.065a6.3,6.3,0,0,1,2.4.48c5.713,2.286,10.235,12.318,11.378,25.289C749.023,919,749.109,921.1,749.109,923.2Z" fill="#e4e4e4"/>
      <path id="Path_20254" data-name="Path 20254" d="M676.342,818.075l14.23,62.646,9.093,9.966h6.56l-27.036-113.9-1.338,19.35v.014Z" fill="#3f3d56"/>
      <path id="Path_20255" data-name="Path 20255" d="M723.728,893.887a1.165,1.165,0,0,0-.16-.27,2.465,2.465,0,0,0-.553-.787l-1.658-1.66-8.724-8.741a3.448,3.448,0,0,0-2.4-.984H710.2l-6.156.037-5.3.037-7.4.049-50.378.32-33.114.209a3.423,3.423,0,0,0-3.379,3.405,3.555,3.555,0,0,0,.32,1.439l.639,1.365,1.339,2.864,1.745,3.75.86,1.844a3.41,3.41,0,0,0,3.084,1.967h108.14a3.472,3.472,0,0,0,3.121-4.844Z" fill="#3f3d56"/>
      <path id="Path_20256" data-name="Path 20256" d="M608.524,894.917l.854,1.851a3.438,3.438,0,0,0,3.088,1.964H720.611a3.465,3.465,0,0,0,3.116-4.84,1.02,1.02,0,0,0-.157-.271Z" opacity="0.17"/>
      <path id="Path_20257" data-name="Path 20257" d="M677.851,796.135v.014L701,890.687h5.222l-27.036-113.9Z" opacity="0.17"/>
      <path id="Path_20258" data-name="Path 20258" d="M714.168,531.575l-3.391-.455a3.551,3.551,0,0,0-2.617.7l-2.027,1.562-22.572,28.252a3.555,3.555,0,0,0-1.352,2.361l-1.265,9.614-31.5,239.848a3.6,3.6,0,0,0,.627,2.521l14.843,40.94.442.639.958,1.365a3.612,3.612,0,0,0,2.04,1.4l2.151.541a3.587,3.587,0,0,0,3.907-1.592,3.507,3.507,0,0,0,.491-1.408l3.846-29.235v-.013l2.458-18.761,2.076-15.822v-.013L717.24,535.558a3.547,3.547,0,0,0-3.054-3.981Z" fill="#3f3d56"/>
      <path id="Path_20259" data-name="Path 20259" d="M706.128,533.383l-41.222,323.54.448.633.955,1.361a3.6,3.6,0,0,0,2.041,1.4l2.153.542a3.571,3.571,0,0,0,4.4-3l42.336-322.3a3.559,3.559,0,0,0-3.064-3.992l-3.4-.448a3.509,3.509,0,0,0-2.618.7Z" opacity="0.17"/>
      <path id="Path_20260" data-name="Path 20260" d="M704.913,542.637l-21.875,31.241-26,197.939,14.1,27.98Z" fill="#ff639d"/>
      <path id="Path_20261" data-name="Path 20261" d="M918,818.075l-14.229,62.646-9.093,9.966h-6.56l27.037-113.9,1.337,19.35v.014Z" fill="#3f3d56"/>
      <path id="Path_20262" data-name="Path 20262" d="M986.479,882.1,903,881.568l-7.409-.049-5.283-.037-6.156-.037H884.1a3.4,3.4,0,0,0-2.384.984l-10.4,10.4a2.675,2.675,0,0,0-.553.787,1.165,1.165,0,0,0-.16.27,3.472,3.472,0,0,0,3.121,4.844h108.14a3.441,3.441,0,0,0,3.1-1.967l.848-1.844,1.744-3.75,1.979-4.229a3.371,3.371,0,0,0,.319-1.439,3.421,3.421,0,0,0-3.379-3.405Z" fill="#3f3d56"/>
      <path id="Path_20263" data-name="Path 20263" d="M985.816,894.917l-.854,1.851a3.438,3.438,0,0,1-3.088,1.964H873.729a3.465,3.465,0,0,1-3.116-4.84,1.02,1.02,0,0,1,.157-.271Z" opacity="0.17"/>
      <path id="Path_20264" data-name="Path 20264" d="M916.489,796.135v.014l-23.152,94.538h-5.222l27.037-113.9Z" opacity="0.17"/>
      <path id="Path_20265" data-name="Path 20265" d="M944.9,813.457l-32.77-249.463a3.557,3.557,0,0,0-1.352-2.361l-22.559-28.252-2.027-1.561a3.6,3.6,0,0,0-2.63-.7l-3.391.455a3.556,3.556,0,0,0-3.072,3.983h0L911.06,794.032v.012l2.077,15.811,2.469,18.773v.025l3.834,29.211a3.482,3.482,0,0,0,1.536,2.483,3.526,3.526,0,0,0,2.863.516l2.15-.54a3.616,3.616,0,0,0,2.04-1.4l.958-1.365.442-.639,14.843-40.94a3.537,3.537,0,0,0,.627-2.52Z" fill="#3f3d56"/>
      <path id="Path_20266" data-name="Path 20266" d="M888.212,533.383l41.221,323.54-.447.633-.956,1.361a3.591,3.591,0,0,1-2.04,1.4l-2.153.542a3.571,3.571,0,0,1-4.4-3L877.1,535.561a3.559,3.559,0,0,1,3.064-3.992l3.4-.448a3.509,3.509,0,0,1,2.618.7Z" opacity="0.17"/>
      <path id="Path_20267" data-name="Path 20267" d="M889.427,542.637,911.3,573.878l26,197.939-14.1,27.98Z" fill="#ff639d"/>
      <path id="Path_20268" data-name="Path 20268" d="M482.848,941.711a10.007,10.007,0,0,1-.16,1.844c-.049.295-.11.577-.184.86a10.681,10.681,0,0,1-10.333,7.979H425.934V1062.74a10.623,10.623,0,0,1-2.175,6.45c-1.057-1.24-2.1-2.48-3.134-3.74q-8.293-9.915-16.034-20.28V952.394H383.948a10.678,10.678,0,0,1-.885-21.318q.443-.037.885-.037h88.223a10.676,10.676,0,0,1,10.677,10.672Z" fill="#3f3d56"/>
      <path id="Path_20269" data-name="Path 20269" d="M1219.63,941.711a10.691,10.691,0,0,1-6.86,9.982,10.339,10.339,0,0,1-2.98.664c-.27.025-.55.037-.82.037h-20.64V1052.54c-.3.41-.62.81-.94,1.22q-7.275,9.315-15,18.26a10.624,10.624,0,0,1-5.4-9.28V952.394h-46.25a10.466,10.466,0,0,1-3.98-.774,10.649,10.649,0,0,1-6.41-7.475v-.013a10.512,10.512,0,0,1,.86-7.2c-.01-.012-.01-.012,0-.012a10.393,10.393,0,0,1,1.89-2.656,10.7,10.7,0,0,1,7.64-3.221h88.23a10.659,10.659,0,0,1,10.66,10.668Z" fill="#3f3d56"/>
      <path id="Path_20270" data-name="Path 20270" d="M1218.92,735.984a33.469,33.469,0,0,0-33.44,33.459h0a33.482,33.482,0,0,0,27.04,32.839V857h21.35V735.984Z" fill="#3f3d56"/>
      <path id="Path_20271" data-name="Path 20271" d="M635.095,858.157a16.882,16.882,0,0,0-24.384,8.709l-38.556,1.5-5.2,17.969,54.813,2.808a16.986,16.986,0,0,0,13.322-30.99Z" fill="#9e616a"/>
      <path id="Path_20272" data-name="Path 20272" d="M603.424,891.085l-39.6-.494-5.013-.068-80.577-1.016S456.348,868.62,437.3,847.116l2.671-19.327A78.977,78.977,0,0,1,466.427,778.9c27.288,18.245,43.114,54.358,43.114,54.358l26.534,11.88a116.119,116.119,0,0,1,53.044,15.544l8.726,5.058Z" fill="#ff639d"/>
      <path id="Path_20273" data-name="Path 20273" d="M727.857,1237.86H870.709q-14.616,2.13-29.5,3.38H757.358Q742.466,1240,727.857,1237.86Z" fill="#ccc"/>
      <path id="Path_20274" data-name="Path 20274" d="M756.577,1165.9c2.765-24.97,17.875-49.73,41.524-58.16a115.785,115.785,0,0,0,1.067,79.45c3.783,9.83,9.013,20.37,5.712,30.37-2.054,6.23-7.217,11.04-13.02,14.08s-12.268,4.54-18.652,6.01l-1.247,1.06C761.49,1215.88,753.812,1190.86,756.577,1165.9Z" fill="#ccc"/>
      <path id="Path_20275" data-name="Path 20275" d="M798.343,1108.21a98.963,98.963,0,0,0-23.831,56,42.636,42.636,0,0,0,.662,13.33,24.5,24.5,0,0,0,6.224,11.25c2.777,2.97,5.962,5.69,7.969,9.28a14.969,14.969,0,0,1,.893,12.2c-1.662,4.99-5.016,9.08-8.435,12.96-3.8,4.32-7.806,8.74-9.369,14.41-.189.69-1.244.36-1.055-.33,2.718-9.87,12.183-15.58,16.613-24.5,2.068-4.16,2.9-8.97.847-13.3-1.792-3.8-5.073-6.6-7.911-9.59a26.008,26.008,0,0,1-6.5-10.77,39.416,39.416,0,0,1-1.172-13.26,96.006,96.006,0,0,1,6.615-29.25,100.69,100.69,0,0,1,17.7-29.25c.466-.54,1.206.29.743.82Z" fill="#fff"/>
      <path id="Path_20276" data-name="Path 20276" d="M774.72,1157.5a14.832,14.832,0,0,1-11.5-15.39.52.52,0,0,1,.182-.37.568.568,0,0,1,.39-.15.6.6,0,0,1,.379.17.57.57,0,0,1,.155.39,13.749,13.749,0,0,0,10.724,14.3c.694.15.358,1.21-.333,1.05Z" fill="#fff"/>
      <path id="Path_20277" data-name="Path 20277" d="M779.791,1187.46a28.589,28.589,0,0,0,12.546-16.64c.191-.69,1.246-.35,1.055.33a29.735,29.735,0,0,1-13.09,17.29C779.694,1188.82,779.186,1187.83,779.791,1187.46Z" fill="#fff"/>
      <path id="Path_20278" data-name="Path 20278" d="M785.128,1126.98a8.38,8.38,0,0,0,7.95-.51c.6-.38,1.111.61.511.98a9.4,9.4,0,0,1-8.794.59.58.58,0,0,1-.361-.7.562.562,0,0,1,.694-.36Z" fill="#fff"/>
      <path id="Path_20279" data-name="Path 20279" d="M871.11,1151.29c-.37.25-.74.49-1.111.75a111.353,111.353,0,0,0-13.989,11.23c-.341.32-.682.64-1.014.96a116.59,116.59,0,0,0-24.85,35.01,113.291,113.291,0,0,0-5.986,16.13c-2.186,7.63-3.951,16.07-8.4,22.35a19.765,19.765,0,0,1-1.488,1.89l-40.926.54-.281-.12-1.633.09c.061-.29.132-.59.193-.88.036-.17.08-.34.115-.5.026-.12.053-.23.07-.33.009-.04.018-.08.027-.11.017-.1.044-.19.062-.29q.582-2.505,1.2-5.03c0-.01,0-.01.009-.02a166.589,166.589,0,0,1,13.515-36.98c.182-.35.364-.7.565-1.05a108.637,108.637,0,0,1,9.5-14.86q2.943-3.825,6.262-7.36a79.513,79.513,0,0,1,19.671-15.16c14.575-7.95,31.529-11.15,47.279-6.62C870.313,1151.05,870.707,1151.16,871.11,1151.29Z" fill="#ccc"/>
      <path id="Path_20280" data-name="Path 20280" d="M871.025,1151.81a98.83,98.83,0,0,0-52.722,30.35,42.767,42.767,0,0,0-7.492,11.05,24.42,24.42,0,0,0-1.8,12.73c.429,4.05,1.336,8.13.774,12.21a15,15,0,0,1-6.628,10.29c-4.328,2.97-9.466,4.22-14.534,5.26-5.627,1.16-11.49,2.27-16.151,5.86-.564.44-1.206-.46-.642-.9,8.11-6.24,19.1-5.1,28.007-9.55,4.154-2.08,7.709-5.42,8.682-10.12.851-4.1-.081-8.32-.551-12.41a26.11,26.11,0,0,1,1.3-12.52,39.49,39.49,0,0,1,7.04-11.29,95.912,95.912,0,0,1,22.885-19.37,100.621,100.621,0,0,1,31.735-12.69c.7-.15.79.96.1,1.1Z" fill="#fff"/>
      <path id="Path_20281" data-name="Path 20281" d="M822.5,1176.94a14.851,14.851,0,0,1,.083-19.22c.465-.54,1.324.16.859.7a13.738,13.738,0,0,0-.041,17.87C823.865,1176.84,822.961,1177.47,822.5,1176.94Z" fill="#fff"/>
      <path id="Path_20282" data-name="Path 20282" d="M808.523,1203.92a28.547,28.547,0,0,0,20.032-5.74c.566-.43,1.208.47.642.91a29.736,29.736,0,0,1-20.857,5.92c-.71-.07-.523-1.16.183-1.09Z" fill="#fff"/>
      <path id="Path_20283" data-name="Path 20283" d="M849.176,1158.84a8.394,8.394,0,0,0,6.655,4.38c.711.06.523,1.15-.183,1.09a9.358,9.358,0,0,1-7.373-4.83.568.568,0,0,1-.088-.41.588.588,0,0,1,.217-.36.549.549,0,0,1,.413-.09.533.533,0,0,1,.359.22Z" fill="#fff"/>
      <path id="Path_20284" data-name="Path 20284" d="M892.339,1186.07a13.025,13.025,0,1,0-13.016-13.02A13.018,13.018,0,0,0,892.339,1186.07Z" fill="#ccc"/>
      <path id="Path_20285" data-name="Path 20285" d="M934.833,1224.11c-.8.23-1.61.46-2.421.68q-11.04,3.1-22.24,5.67a13.028,13.028,0,0,1,14.151-18.56,13.189,13.189,0,0,1,5.251,2.32,13.029,13.029,0,0,1,5.259,9.89Z" fill="#ccc"/>
      <path id="Path_20286" data-name="Path 20286" d="M1009.2,1196.15c-1,.47-2,.93-2.99,1.39-1.08.51-2.18,1.01-3.26,1.5-1.21.55-2.42,1.09-3.634,1.63-4.57,2.04-9.19,4.01-13.823,5.9-.061-.09-.123-.21-.184-.32a13.018,13.018,0,0,1,22.941-12.31A14.868,14.868,0,0,1,1009.2,1196.15Z" fill="#ccc"/>
      <path id="Path_20287" data-name="Path 20287" d="M938.246,1154.1a13.02,13.02,0,1,0-13.016-13.02A13.019,13.019,0,0,0,938.246,1154.1Z" fill="#ccc"/>
      <path id="Path_20288" data-name="Path 20288" d="M818.851,427.522c-76.562,20.151-161.393,32.408-247.65,35.764a309.908,309.908,0,0,1-37.943-.258c-27.757-2.336-51.533-11.065-78.012-15.835-12.729-2.286-26.909-3.958-39.725-6.43q4.443-5.514,9.044-10.892c27.634,2.336,55.7,9.983,83.664,13.536,47.539,6.048,100.8-.7,136.843-17.348,17.485-8.077,30.878-18.158,48.3-26.272a22.491,22.491,0,0,1,7.581-2.324c5.517-.5,10.358,1.721,14.3,3.713,29.232,14.765,71.672,26.764,111.065,20.162C829.259,423.637,823.68,426.256,818.851,427.522Z" fill="#fff"/>
      <path id="Path_20289" data-name="Path 20289" d="M993.171,479.486c.36-.065.721-.117,1.081-.179a29.424,29.424,0,0,1-4.257-3.209Z" fill="#fff"/>
      <path id="Path_20290" data-name="Path 20290" d="M1228.99,508.619q-24.675,1.973-49.62,2.938a312.276,312.276,0,0,1-37.94-.258c-27.76-2.348-51.53-11.065-78.01-15.835-24.27-4.364-53.76-6.467-69.168-16.155,39.828-6.9,81.088,7.143,122.148,12.368a291.494,291.494,0,0,0,99.54-4.917Q1222.765,497.493,1228.99,508.619Z" fill="#fff"/>
      <path id="Path_20291" data-name="Path 20291" d="M858.624,693.036c-38.544-132.37-61.23-268.853-61.23-406.727v-9.993H784.587v9.992c0,137.875-22.687,274.358-61.23,406.729a70.5,70.5,0,0,0-2.8,19.722h0a19.212,19.212,0,0,0,19.21,19.221h25.613a25.613,25.613,0,1,0,51.227,0h19.931v55.236a11.008,11.008,0,1,0,2.457.205V731.98h3.225a19.215,19.215,0,0,0,19.21-19.221h0a70.5,70.5,0,0,0-2.8-19.723Z" fill="#fff"/>
      <path id="Path_25492" data-name="Path 25492" d="M3.01,0C4.672,0,6.02,1.617,6.02,3.612S4.672,7.224,3.01,7.224,0,5.607,0,3.612,1.348,0,3.01,0Z" transform="translate(1064.4 705)" fill="#2f2e41"/>
      <path id="Path_25492-2" data-name="Path 25492" d="M4.106,0C6.373,0,8.211,2.206,8.211,4.927S6.373,9.854,4.106,9.854,0,7.648,0,4.927,1.838,0,4.106,0Z" transform="translate(489.789 690.146)" fill="#2f2e41"/>
    </g>
  </g>
  <path id="_7091944_jungle_plant_nature_park_tree_icon" data-name="7091944_jungle_plant_nature_park_tree_icon" d="M263.843,309.571V284.452l22.664-10.076a19.084,19.084,0,1,0-4.373-6.054l-18.291,8.132V233.109a19.026,19.026,0,1,0-7.307,0v43.346l-18.291-8.132a18.827,18.827,0,0,0,1.726-7.819,19.179,19.179,0,1,0-6.1,13.873l22.664,10.076v25.093H123.072V228.064l42.08-18.706a22.689,22.689,0,1,0-2.685-6.8l-39.395,17.511V151.82l30.949-13.771a23.744,23.744,0,1,0-7.032-16.84,23.431,23.431,0,0,0,2.7,10.76L123.072,143.8V84.346a23.763,23.763,0,1,0-7.307,0V143.8L89.144,131.969a23.457,23.457,0,0,0,2.7-10.766,23.8,23.8,0,1,0-7.032,16.84L115.752,151.8v68.266L76.37,202.556a24.294,24.294,0,1,0-2.685,6.8l42.08,18.706v81.506Zm35.584-60.735a11.706,11.706,0,1,1,0-.026Zm-50.953-34.325a11.7,11.7,0,1,0,0-.026Zm-27.522,57.73a11.719,11.719,0,1,1,11.712-11.714A11.719,11.719,0,0,1,220.951,272.241Zm-35.233-91.026a16.456,16.456,0,1,1-16.462,16.45,16.456,16.456,0,0,1,16.462-16.45ZM53.131,214.127a16.456,16.456,0,1,1,16.45-16.454A16.456,16.456,0,0,1,53.131,214.127ZM170.765,104.8a14.307,14.307,0,1,1-.006-.038ZM102.94,60.973a16.456,16.456,0,1,1,16.45,16.456A16.456,16.456,0,0,1,102.94,60.973ZM68.059,137.691a36.753,36.753,0,1,1,.026-.013Z" transform="translate(116.177 902.046)" fill="#3f3d56"/>
  <ellipse id="Ellipse_384" data-name="Ellipse 384" cx="63.556" cy="13.968" rx="63.556" ry="13.968" transform="translate(195.565 1219.094)" opacity="0.1"/>
  <path id="Path_2188" data-name="Path 2188" d="M225.817,768.758c9.368,34.628,41.454,56.075,41.454,56.075s16.9-34.7,7.531-69.326-41.454-56.075-41.454-56.075S216.449,734.13,225.817,768.758Z" transform="translate(28.434 408.296)" fill="#e6e6e6"/>
  <path id="Path_2189" data-name="Path 2189" d="M253.119,751.442c25.7,25.023,28.845,63.488,28.845,63.488s-38.536-2.1-64.241-27.127-28.845-63.488-28.845-63.488S227.414,726.419,253.119,751.442Z" transform="translate(14.897 418.17)" fill="#ff639d"/>
</svg>
