<svg id="undraw_deliveries_2r4y" xmlns="http://www.w3.org/2000/svg" xmlns:xlink="http://www.w3.org/1999/xlink" width="1500" height="1500" viewBox="0 0 1500 1500">
  <defs>
    <clipPath id="clip-path">
      <rect id="Rectangle_2165" data-name="Rectangle 2165" width="1167" height="842" transform="translate(167 329)" fill="#fff"/>
    </clipPath>
  </defs>
  <rect id="Rectangle_2164" data-name="Rectangle 2164" width="1500" height="1500" fill="#fff" opacity="0"/>
  <g id="Group_427" data-name="Group 427" transform="translate(0 70)" clip-path="url(#clip-path)">
    <path id="Path_15435" data-name="Path 15435" d="M742.4,1167.44H697.573V822.1h36.458a6.683,6.683,0,0,1,6.68,6.653Z" fill="#5a587c"/>
    <path id="Path_15436" data-name="Path 15436" d="M701.763,1169.27H220.351V923.332H701.763Z" fill="#fff"/>
    <path id="Path_15437" data-name="Path 15437" d="M512.014,1168.36H221.265V924.246H700.849v55.1a189.133,189.133,0,0,1-188.835,189.01Z" fill="#f1e6e6"/>
    <path id="Path_15438" data-name="Path 15438" d="M735.1,831.915a6.687,6.687,0,0,0-.56,1.444l-16.6,64.045-18.006,34.132H222.178v-8.5l27.2-25.63,31.731-60.749a27.089,27.089,0,0,1,24-14.55H729.2a6.688,6.688,0,0,1,5.906,9.81Z" fill="#f1e6e6"/>
    <path id="Path_15439" data-name="Path 15439" d="M701.763,1169.27H220.351V923.332H701.763Zm-477.758-3.66h474.1V926.99h-474.1Z" fill="#5a587c"/>
    <path id="Path_15440" data-name="Path 15440" d="M726.81,864.678,717.94,897.4H249.379l15.14-27.24Z" fill="#5a587c"/>
    <path id="Path_15441" data-name="Path 15441" d="M314.845,1052.21H238.1v4.25h76.742Z" fill="#fff"/>
    <path id="Path_15442" data-name="Path 15442" d="M314.845,1067.08H238.1v4.25h76.742Z" fill="#fff"/>
    <path id="Path_15443" data-name="Path 15443" d="M314.845,1081.96H238.1v4.25h76.742Z" fill="#fff"/>
    <path id="Path_15444" data-name="Path 15444" d="M267.831,1004.86a27.629,27.629,0,1,0-27.6-27.63A27.617,27.617,0,0,0,267.831,1004.86Z" fill="#fff"/>
    <path id="Path_15445" data-name="Path 15445" d="M570.373,878.843H546.929v-180.6h19.066a3.5,3.5,0,0,1,3.494,3.479Z" fill="#5a587c"/>
    <path id="Path_15446" data-name="Path 15446" d="M549.12,879.8H297.364V751.186H549.12Z" fill="#fff"/>
    <path id="Path_15447" data-name="Path 15447" d="M449.891,879.32H297.842V751.662h250.8v28.817a98.908,98.908,0,0,1-98.752,98.841Z" fill="#f1e6e6"/>
    <path id="Path_15448" data-name="Path 15448" d="M566.555,703.378a3.463,3.463,0,0,0-.293.755l-8.681,33.492-9.417,17.85H298.32v-4.446l14.224-13.4,16.594-31.768a14.164,14.164,0,0,1,12.552-7.609H563.466a3.5,3.5,0,0,1,3.089,5.13Z" fill="#f1e6e6"/>
    <path id="Path_15449" data-name="Path 15449" d="M549.12,879.8H297.364V751.186H549.12Zm-249.845-1.913H547.209V753.1H299.275Z" fill="#5a587c"/>
    <path id="Path_15450" data-name="Path 15450" d="M562.218,720.512l-4.637,17.113H312.545l7.917-14.246Z" fill="#5a587c"/>
    <path id="Path_15451" data-name="Path 15451" d="M346.78,818.58H306.648V820.8H346.78Z" fill="#fff"/>
    <path id="Path_15452" data-name="Path 15452" d="M346.78,826.361H306.648v2.223H346.78Z" fill="#fff"/>
    <path id="Path_15453" data-name="Path 15453" d="M346.78,834.141H306.648v2.222H346.78Z" fill="#fff"/>
    <path id="Path_15454" data-name="Path 15454" d="M322.194,793.819a14.448,14.448,0,1,0-14.436-14.449A14.442,14.442,0,0,0,322.194,793.819Z" fill="#fff"/>
    <path id="Path_15455" data-name="Path 15455" d="M1261.29,1169.15l-.15-.78a91.713,91.713,0,0,1,19.38-74.57,89.339,89.339,0,0,1,16.32-15.18l.58-.42.25.67c3.02,7.95,6.82,15.91,8.55,19.43l1.17-26.3.67-.36a17.385,17.385,0,0,1,19.35,2,17.7,17.7,0,0,1,5.83,18.93c-.91,3.09-1.76,6.3-2.59,9.4-2.86,10.65-5.8,21.67-11.52,30.94a55.3,55.3,0,0,1-40.27,25.47Z" fill="#f1e6e6"/>
    <path id="Path_15456" data-name="Path 15456" d="M1334,1168.82a2.121,2.121,0,0,1-.63,1.54,2.229,2.229,0,0,1-.71.48,2.4,2.4,0,0,1-.83.16H169.174a2.18,2.18,0,0,1-2.174-2.18,2.163,2.163,0,0,1,2.174-2.17H1331.83a2.186,2.186,0,0,1,.83.16,2.371,2.371,0,0,1,.71.47,2.166,2.166,0,0,1,.63,1.54Z" fill="#5a587c"/>
    <path id="Path_15457" data-name="Path 15457" d="M1070.28,611.972,1037,607.2c-11.25,18.837-15.25,68.976-15.25,68.976l-32.569,77.48a14.851,14.851,0,1,0,23.139,11.158l53.47-90.183Z" fill="#e0cbce"/>
    <path id="Path_15458" data-name="Path 15458" d="M1064.99,519.5a35.52,35.52,0,0,1,28.02,46.9l-7.06,20.035s-3.85,60.325-18.51,77.354l-44.99-4.076s8.23-30.436,1.91-45.161c-3.86-9.018-3.65-40.166.16-65.5a35.381,35.381,0,0,1,40.47-29.544Z" fill="#5a587c"/>
    <path id="Path_15459" data-name="Path 15459" d="M1174.97,1145.45h-20.05l-9.53-77.4h29.58Z" fill="#e0cbce"/>
    <path id="Path_15460" data-name="Path 15460" d="M1175.67,1166.38h-61.64v-.78a24.019,24.019,0,0,1,23.99-24.02h0l11.26-8.55,21.01,8.55h5.38Z" fill="#5a587c"/>
    <path id="Path_15461" data-name="Path 15461" d="M1087.81,1049.53l-18.51,7.69-38.43-67.836,27.33-11.343Z" fill="#e0cbce"/>
    <path id="Path_15462" data-name="Path 15462" d="M1096.48,1068.59l-56.95,23.64-.29-.72a24.031,24.031,0,0,1,12.97-31.39h0l7.13-12.21,22.68-.16,4.97-2.06Z" fill="#5a587c"/>
    <path id="Path_15463" data-name="Path 15463" d="M1197.89,705.193,1055.62,720.07l-19.03,64.154-65.9,106.006,72.771,133.82,25.62-23.03-24.6-108.054,73.42-79.335,13.93-5.782,11.05,294.391,40.87.67,17.89-324.84C1210.23,749.373,1207.65,725.679,1197.89,705.193Z" fill="#5a587c"/>
    <path id="Path_15464" data-name="Path 15464" d="M1145.73,502.1l-23.35-26.317-36.9,4.1-23.62,33.089a50.461,50.461,0,0,0-38.39,57.821c9.16,52.834,40.32,104.077,30.03,130.146-15.62,39.571-16.57,55.71,20.81,50.162s162.6-18.337,138.33-42.638-29.61-64.907-29.61-64.907l-.98-92.9a41.277,41.277,0,0,0-36.32-48.558Z" fill="#5a587c"/>
    <path id="Path_15465" data-name="Path 15465" d="M1100.1,469.049a41,41,0,1,0-40.96-41A40.979,40.979,0,0,0,1100.1,469.049Z" fill="#e0cbce"/>
    <path id="Path_15466" data-name="Path 15466" d="M1150.56,425.619a70.99,70.99,0,0,1-9.74,23.361,15.842,15.842,0,0,1-5.31,6.039,5.8,5.8,0,0,1-7.38-.924l-1-.812a21.117,21.117,0,0,0,5.17-4.488,7.206,7.206,0,0,0,1.38-6.445,4.432,4.432,0,0,0-5.42-2.9c-2.4.942-3.86,4.414-6.37,3.878-2.03-.443-2.45-3.121-2.45-5.226.07-11.006-5.24-26.648-9.36-26.167a33.115,33.115,0,0,1-12.26-1.644,32.134,32.134,0,0,0-12.29-1.57c-.3.037-.59.093-.91.148a26.808,26.808,0,0,0-2.73-5.965,31.852,31.852,0,0,1-.33,6.759,63.283,63.283,0,0,1-10.22,3.232c-3.8.535-12.16,11.911-12.55,10.747a26.807,26.807,0,0,0-2.73-5.964,31.864,31.864,0,0,1-.33,6.759c-.02.092-.02.166-.04.258-1.84-2.456-2.97-5.448-2.34-3.158-6.18-14-3.78-24.025,5.94-35.825a18.7,18.7,0,0,1,7.29-5.854,9.193,9.193,0,0,1,8.97.886,30.136,30.136,0,0,1,29.92-6.389c10.13,3.527,17.94,5.6,19.49,16.232,8.37-1.348,16.99,3.416,21.6,10.526C1151.15,408.242,1152.1,417.291,1150.56,425.619Z" fill="#5a587c"/>
    <path id="Path_15467" data-name="Path 15467" d="M1117.35,766.123h-13.59V661.4h11.05a2.033,2.033,0,0,1,2.03,2.018Z" fill="#3f3d56"/>
    <path id="Path_15468" data-name="Path 15468" d="M1105.03,766.677H959.043V692.1H1105.03Z" fill="#fff"/>
    <path id="Path_15469" data-name="Path 15469" d="M1047.49,766.4H959.32V692.375h145.43v16.71a57.352,57.352,0,0,1-57.26,57.314Z" fill="#c0dc50"/>
    <path id="Path_15470" data-name="Path 15470" d="M1115.14,664.377a1.763,1.763,0,0,0-.17.438l-5.04,19.421-5.46,10.35H959.6v-2.578l8.248-7.772,9.622-18.422a8.214,8.214,0,0,1,7.279-4.412h128.6a2.015,2.015,0,0,1,.99.263,1.976,1.976,0,0,1,.74.718,2.035,2.035,0,0,1,.29.99A2.057,2.057,0,0,1,1115.14,664.377Z" fill="#3f3d56"/>
    <path id="Path_15471" data-name="Path 15471" d="M1105.03,766.677H959.043V692.1H1105.03Zm-144.879-1.11H1103.92v-72.36H960.151Z" fill="#3f3d56"/>
    <path id="Path_15472" data-name="Path 15472" d="M1112.62,674.311l-2.69,9.925H967.846l4.59-8.261Z" fill="#c0dc50"/>
    <path id="Path_15473" data-name="Path 15473" d="M987.7,731.178H964.426v1.289H987.7Z" fill="#fff"/>
    <path id="Path_15474" data-name="Path 15474" d="M987.7,735.689H964.426v1.289H987.7Z" fill="#fff"/>
    <path id="Path_15475" data-name="Path 15475" d="M987.7,740.2H964.426v1.289H987.7Z" fill="#fff"/>
    <path id="Path_15476" data-name="Path 15476" d="M973.441,716.821a8.378,8.378,0,1,0-8.371-8.378A8.374,8.374,0,0,0,973.441,716.821Z" fill="#fff"/>
    <path id="Path_15477" data-name="Path 15477" d="M1174.14,602.4l-33.28-4.771c-11.25,18.837-15.25,68.976-15.25,68.976l-32.57,77.48a14.851,14.851,0,1,0,23.14,11.158l53.47-90.183Z" fill="#e0cbce"/>
    <path id="Path_15478" data-name="Path 15478" d="M1156.11,509.926a35.52,35.52,0,0,1,28.02,46.9l-7.06,20.035s8.89,60.325-5.77,77.354l-44.99-4.076s8.23-30.436,1.91-45.161c-3.86-9.018-3.65-40.166.16-65.5C1131.29,520.122,1136.79,506.931,1156.11,509.926Z" fill="#5a587c"/>
    <path id="Path_15479" data-name="Path 15479" d="M873.521,410.11a68.6,68.6,0,0,0-30.731,91.964c16.886,33.89,77.906,91.687,126.591,100.42-20.942-63.645,8.177-128.338-3.979-161.625C952.414,405.3,907.38,393.209,873.521,410.11Z" fill="#c0dc50"/>
    <path id="Path_15480" data-name="Path 15480" d="M896.344,490.71A22.363,22.363,0,1,0,874,468.347,22.352,22.352,0,0,0,896.344,490.71Z" fill="#fff"/>
    <path id="Path_15481" data-name="Path 15481" d="M968.952,638.388a14.647,14.647,0,1,0-14.634-14.647A14.641,14.641,0,0,0,968.952,638.388Z" fill="#c0dc50"/>
    <path id="Path_15482" data-name="Path 15482" d="M903.153,444.84a22.362,22.362,0,1,1,1.514,44.7,22.36,22.36,0,0,0-8.562-43.3A22.3,22.3,0,0,1,903.153,444.84Z" fill="#231f20" opacity="0.2"/>
    <path id="Path_15483" data-name="Path 15483" d="M965.515,440.883c12.156,33.287-16.963,97.979,3.979,161.625a94.731,94.731,0,0,1-13.542-3.548c-17.063-61.526,9.717-123-2.027-155.165-10.511-28.785-42.011-42.191-71.589-37.3C914.8,395.413,953.612,408.288,965.515,440.883Z" fill="#231f20" opacity="0.2"/>
    <path id="Path_15484" data-name="Path 15484" d="M279.668,749.718a63.5,63.5,0,0,0-64.985,61.993c-.842,35.08,24.113,108.885,60.207,137.153,10.4-61.211,62.26-101.567,66.715-134.1C346.366,780,314.717,750.56,279.668,749.718Z" fill="#c0dc50"/>
    <path id="Path_15485" data-name="Path 15485" d="M273.148,828.037a20.722,20.722,0,1,0-20.7-20.722A20.713,20.713,0,0,0,273.148,828.037Z" fill="#fff"/>
    <path id="Path_15486" data-name="Path 15486" d="M265.34,979.652a13.572,13.572,0,1,0-13.56-13.572A13.566,13.566,0,0,0,265.34,979.652Z" fill="#c0dc50"/>
    <path id="Path_15487" data-name="Path 15487" d="M288.9,791.015a20.718,20.718,0,1,1-18.112,37.267,20.72,20.72,0,0,0,11.735-39.18A20.68,20.68,0,0,1,288.9,791.015Z" fill="#231f20" opacity="0.2"/>
    <path id="Path_15488" data-name="Path 15488" d="M341.692,814.822c-4.456,32.536-56.313,72.892-66.715,134.1a87.853,87.853,0,0,1-9.556-8.78c12.662-57.792,61.212-96.529,65.517-127.965,3.853-28.135-16.142-52.777-42.485-61.6C319.839,755.584,346.055,782.963,341.692,814.822Z" fill="#231f20" opacity="0.2"/>
    <path id="Path_15489" data-name="Path 15489" d="M520.5,479.728a18.208,18.208,0,0,0-17,18.868,17.455,17.455,0,0,0,.393,2.862L450.18,535.33l29.7,13.146,46.457-34.18a18.162,18.162,0,0,0,12.831-18.078,17.369,17.369,0,0,0-18.189-16.52C520.817,479.706,520.658,479.716,520.5,479.728Z" fill="#e0cbce"/>
    <path id="Path_15490" data-name="Path 15490" d="M468.7,519.935l13.313,27.493-52.639,33.9a26.164,26.164,0,0,1-25.454,1.707,25.117,25.117,0,0,1-13.915-26.785l17.08-97.6a27.056,27.056,0,0,1,29.7-22.42A25.679,25.679,0,0,1,459.5,464.554q-.044.4-.1.793a26.089,26.089,0,0,1-.538,2.786l-18.646,69.411Z" fill="#c0dc50"/>
    <path id="Path_15491" data-name="Path 15491" d="M472.442,562.555H397.163V637.9h75.279Z" fill="#e0cbce"/>
    <path id="Path_15492" data-name="Path 15492" d="M650.965,784.458l28.75-9.681,16.01,78.328-19.482,6.558Z" fill="#e0cbce"/>
    <path id="Path_15493" data-name="Path 15493" d="M602.238,778.438l28.518-10.348,17.826,77.932-19.323,7.011Z" fill="#e0cbce"/>
    <path id="Path_15494" data-name="Path 15494" d="M399.863,657.586C384.775,758.265,585.7,698.741,585.7,698.741l63,86.986,36.883-6.712s-16.6-52.22-46.234-122.223C626.186,625.7,476.731,633.3,476.731,633.3l-3.1-24.376-85.5-1.678Z" fill="#5a587c"/>
    <path id="Path_15495" data-name="Path 15495" d="M545,705.492l46.462-28.963c34.014,67.981,44.04,97.423,44.04,97.423L603.347,783Z" fill="#5a587c"/>
    <path id="Path_15496" data-name="Path 15496" d="M442.868,440.116l-15.152-19.494-21.614-.938-2.158,18.334-10.709,4.943A287.734,287.734,0,0,0,388.4,567.512a11.1,11.1,0,0,1,3.151,10.773l-.694,2.77.064.1a16.241,16.241,0,0,1,2.153,12.115l-5.115,9.1a25.834,25.834,0,0,0,13.738,36.945c31.438,11.406,60.909,15.655,82.712-16.352l6.855-111.536Z" fill="#c0dc50"/>
    <path id="Path_15497" data-name="Path 15497" d="M426.995,425.8a40,40,0,1,0-39.963-40A39.981,39.981,0,0,0,426.995,425.8Z" fill="#e0cbce"/>
    <path id="Path_15498" data-name="Path 15498" d="M406.933,337.581c-16.921.326-30.342,16.035-29.976,35.089-12.522,13.077-15.555,77.4-5.092,94.513,19.139,2.224,30.781-45.171,47.566-38.32l2.212-10.343,5.012,13.47q6.4,2.952,12.7,6.481c3.019-13.861,2.271-27.334-5.844-39.069-7.209-10.426,10.335-22.8,22.881-21.054l-.184-9.576,3.152,9.519c4.891,3.6,10.3,2.3,15.848-.3C484.2,331.188,414.554,318.39,406.933,337.581Z" fill="#5a587c"/>
    <path id="Path_15499" data-name="Path 15499" d="M667.388,872.91l12.809-1.674.707-12.4,7.435,11.339,33.973-4.442a7.71,7.71,0,0,0,2.521-14.5l-29.577-15.206-1.6-12.237-28.313,5.436Z" fill="#5a587c"/>
    <path id="Path_15500" data-name="Path 15500" d="M633.557,873.022l11.62-5.647-3.253-11.989,10.64,8.4,30.819-14.979a7.71,7.71,0,0,0-2.2-14.554L648.322,829.2l-5.385-11.1L617.8,832.228Z" fill="#5a587c"/>
    <path id="Path_15501" data-name="Path 15501" d="M458.138,606.289h14.249V496.523H460.8a2.124,2.124,0,0,0-2.123,2.115Z" fill="#5a587c"/>
    <path id="Path_15502" data-name="Path 15502" d="M471.056,528.7H624.072v78.172H471.056Z" fill="#fff"/>
    <path id="Path_15503" data-name="Path 15503" d="M471.346,546.5V528.988H623.782v77.591H531.367A60.118,60.118,0,0,1,471.346,546.5Z" fill="#f1e6e6"/>
    <path id="Path_15504" data-name="Path 15504" d="M460.459,499.641a2.118,2.118,0,0,1,.178.459l5.276,20.357,5.723,10.849H623.491v-2.7l-8.645-8.147L604.76,501.148a8.608,8.608,0,0,0-7.629-4.625H462.336a2.126,2.126,0,0,0-1.877,3.118Z" fill="#f1e6e6"/>
    <path id="Path_15505" data-name="Path 15505" d="M471.056,528.7H624.072v78.172H471.056Zm151.855,77.009H472.217V529.862H622.911Z" fill="#5a587c"/>
    <path id="Path_15506" data-name="Path 15506" d="M463.094,510.055l2.82,10.4H614.846l-4.813-8.658Z" fill="#5a587c"/>
    <path id="Path_15507" data-name="Path 15507" d="M618.43,569.662H594.037v1.351H618.43Z" fill="#fff"/>
    <path id="Path_15508" data-name="Path 15508" d="M618.43,574.391H594.037v1.351H618.43Z" fill="#fff"/>
    <path id="Path_15509" data-name="Path 15509" d="M618.43,579.119H594.037v1.351H618.43Z" fill="#fff"/>
    <path id="Path_15510" data-name="Path 15510" d="M608.981,554.612a8.781,8.781,0,1,0-8.774-8.781A8.778,8.778,0,0,0,608.981,554.612Z" fill="#fff"/>
    <path id="Path_15511" data-name="Path 15511" d="M538.2,413.138a38.913,38.913,0,0,1,39.819,37.986c.516,21.5-14.775,66.719-36.892,84.04-6.374-37.507-38.149-62.235-40.879-82.171C497.334,431.691,516.727,413.654,538.2,413.138Z" fill="#c0dc50"/>
    <path id="Path_15512" data-name="Path 15512" d="M542.2,461.128a12.7,12.7,0,1,0-12.685-12.7A12.69,12.69,0,0,0,542.2,461.128Z" fill="#fff"/>
    <path id="Path_15513" data-name="Path 15513" d="M546.982,554.029a8.317,8.317,0,1,0-8.309-8.316A8.312,8.312,0,0,0,546.982,554.029Z" fill="#c0dc50"/>
    <path id="Path_15514" data-name="Path 15514" d="M532.545,438.442a12.695,12.695,0,1,0,11.1,22.835,12.7,12.7,0,0,1-7.191-24.007A12.668,12.668,0,0,0,532.545,438.442Z" fill="#231f20" opacity="0.2"/>
    <path id="Path_15515" data-name="Path 15515" d="M500.2,453.03c2.73,19.936,34.505,44.664,40.879,82.171a53.73,53.73,0,0,0,5.855-5.38c-7.758-35.412-37.507-59.148-40.145-78.41-2.361-17.239,9.891-32.339,26.033-37.745C513.588,416.732,497.524,433.509,500.2,453.03Z" fill="#231f20" opacity="0.2"/>
    <path id="Path_15516" data-name="Path 15516" d="M515.6,518.722a18.2,18.2,0,0,0-19.449,16.324,17.417,17.417,0,0,0-.008,2.889l-57.894,26.08L465.84,581.16l50.748-27.395a18.155,18.155,0,0,0,15.214-16.12,17.38,17.38,0,0,0-15.722-18.887C515.922,518.744,515.763,518.732,515.6,518.722Z" fill="#e0cbce"/>
    <path id="Path_15517" data-name="Path 15517" d="M458.731,551.341l9.37,29.077-56.83,26.261a26.167,26.167,0,0,1-25.445-1.846,25.124,25.124,0,0,1-10.065-28.459l30.451-94.28a27.048,27.048,0,0,1,32.522-18.076,25.685,25.685,0,0,1,18.567,31.2c-.065.258-.135.515-.208.771a26.466,26.466,0,0,1-.919,2.685l-28.092,66.148Z" fill="#c0dc50"/>
  </g>
  <g id="Group_437" data-name="Group 437" transform="translate(106 7)">
    <g id="Group_432" data-name="Group 432" transform="translate(-1 13)" opacity="0.3">
      <rect id="Rectangle_2174" data-name="Rectangle 2174" width="154.36" height="30.12" rx="15.06" transform="translate(685.62 249.78)" fill="#f1e6e6"/>
      <rect id="Rectangle_2175" data-name="Rectangle 2175" width="154.36" height="30.12" rx="15.06" transform="translate(647.97 279.9)" fill="#f1e6e6"/>
      <rect id="Rectangle_2176" data-name="Rectangle 2176" width="154.36" height="30.12" rx="15.06" transform="translate(685.62 310.02)" fill="#f1e6e6"/>
    </g>
    <g id="Group_433" data-name="Group 433" transform="translate(-1 13)">
      <path id="Path_15531" data-name="Path 15531" d="M767.32,355.59h32.94S787.85,377.55,767.32,355.59Z" transform="translate(-132.47 -96.39)" fill="#5a587c"/>
      <path id="Path_15532" data-name="Path 15532" d="M769.31,364.93l21.6-24.87S799.35,363.83,769.31,364.93Z" transform="translate(-132.47 -96.39)" fill="#5a587c"/>
    </g>
  </g>
  <g id="Group_436" data-name="Group 436" transform="translate(-76 115)">
    <g id="Group_431" data-name="Group 431" transform="translate(-1 13)">
      <rect id="Rectangle_2171" data-name="Rectangle 2171" width="154.36" height="30.12" rx="15.06" transform="translate(557.62 39.78)" fill="#faf7f7"/>
      <rect id="Rectangle_2172" data-name="Rectangle 2172" width="154.36" height="30.12" rx="15.06" transform="translate(519.97 69.9)" fill="#faf7f7"/>
      <rect id="Rectangle_2173" data-name="Rectangle 2173" width="154.36" height="30.12" rx="15.06" transform="translate(557.62 100.02)" fill="#faf7f7"/>
    </g>
    <g id="Group_435" data-name="Group 435" transform="translate(-1 13)">
      <path id="Path_15535" data-name="Path 15535" d="M607.06,166.4h35.33S629.08,190,607.06,166.4Z" transform="translate(-132.47 -96.39)" fill="#5a587c"/>
      <path id="Path_15536" data-name="Path 15536" d="M609.19,176.43l23.17-26.69S641.42,175.24,609.19,176.43Z" transform="translate(-132.47 -96.39)" fill="#5a587c"/>
    </g>
  </g>
</svg>
