<svg xmlns="http://www.w3.org/2000/svg" xmlns:xlink="http://www.w3.org/1999/xlink" width="1500" height="1500" viewBox="0 0 1500 1500">
  <defs>
    <clipPath id="clip-path">
      <rect id="Rectangle_2198" data-name="Rectangle 2198" width="1170" height="942" transform="translate(165 279)" fill="#fff"/>
    </clipPath>
    <clipPath id="clip-undraw_bookshelves_re_lxoy">
      <rect width="1500" height="1500"/>
    </clipPath>
  </defs>
  <g id="undraw_bookshelves_re_lxoy" clip-path="url(#clip-undraw_bookshelves_re_lxoy)">
    <rect width="1500" height="1500" fill="#fff"/>
    <g id="undraw_bookshelves_re_lxoy-2" data-name="undraw_bookshelves_re_lxoy">
      <g id="Group_452" data-name="Group 452" transform="translate(213)">
        <rect id="Rectangle_2249" data-name="Rectangle 2249" width="194" height="807" transform="translate(751.011 304.752)" fill="#f2f2f2"/>
        <rect id="Rectangle_2250" data-name="Rectangle 2250" width="76" height="381" transform="translate(767 320)" fill="#fff"/>
        <rect id="Rectangle_2252" data-name="Rectangle 2252" width="76" height="381" transform="translate(767 714)" fill="#fff"/>
        <rect id="Rectangle_2251" data-name="Rectangle 2251" width="76" height="381" transform="translate(855 320)" fill="#fff"/>
        <rect id="Rectangle_2253" data-name="Rectangle 2253" width="76" height="381" transform="translate(855 714)" fill="#fff"/>
      </g>
      <g id="undraw_bookshelves_re_lxoy-3" data-name="undraw_bookshelves_re_lxoy">
        <rect id="Rectangle_2197" data-name="Rectangle 2197" width="1500" height="1500" fill="#fff" opacity="0"/>
        <g id="Group_443" data-name="Group 443" clip-path="url(#clip-path)">
          <path id="Path_16115" data-name="Path 16115" d="M590.746,993.546A38.534,38.534,0,0,1,606.2,945.835c2.613-1.589.224-5.705-2.4-4.108a42.827,42.827,0,0,0-17.16,54.22c1.2,2.806,5.3.385,4.108-2.4Z" fill="#3f3d56"/>
          <path id="Path_16116" data-name="Path 16116" d="M592.108,999.944c-6.418-11.368-4.907-24.972-2.6-37.266,2.41-12.833,5.569-25.863,2.835-38.915a35.711,35.711,0,0,0-8.49-17.022c-2.079-2.258-5.437,1.113-3.364,3.364,8.071,8.765,9.007,21.48,7.7,32.772-1.544,13.319-5.92,26.3-5.376,39.832A43.168,43.168,0,0,0,588,1002.35a2.382,2.382,0,0,0,4.109-2.406Z" fill="#3f3d56"/>
          <path id="Path_16117" data-name="Path 16117" d="M626.55,1036.25H545.66a7.141,7.141,0,0,1-7.138-7.14v-23.75a23.055,23.055,0,0,1,23.03-23.031h11.864a2.381,2.381,0,0,0,2.38-2.379v-11.1a3.967,3.967,0,0,1,3.965-3.964h12.688a3.969,3.969,0,0,1,3.966,3.964v11.1a2.38,2.38,0,0,0,2.379,2.379h11.864a23.055,23.055,0,0,1,23.03,23.031v23.75a7.141,7.141,0,0,1-7.138,7.14Z" fill="#ccc"/>
          <path id="Path_16118" data-name="Path 16118" d="M587.349,893.582c1.7,9.038-.405,17.021-4.71,17.832s-9.173-5.858-10.877-14.9,3.535-24.066,3.535-24.066S585.646,884.545,587.349,893.582Z" fill="#ffc932"/>
          <path id="Path_16119" data-name="Path 16119" d="M620.012,935.628c-5.394,7.449-12.642,11.406-16.19,8.839s-2.052-10.689,3.342-18.138,19.909-13.977,19.909-13.977S625.405,928.178,620.012,935.628Z" fill="#ffc932"/>
          <path id="Path_16120" data-name="Path 16120" d="M441.655,422.637a38.533,38.533,0,0,1,15.453-47.711c2.613-1.588.225-5.7-2.4-4.108a42.828,42.828,0,0,0-17.161,54.221c1.2,2.806,5.3.385,4.109-2.4Z" fill="#3f3d56"/>
          <path id="Path_16121" data-name="Path 16121" d="M443.015,429.036c-6.417-11.368-4.907-24.973-2.6-37.266,2.41-12.833,5.569-25.863,2.836-38.915a35.721,35.721,0,0,0-8.491-17.022c-2.078-2.258-5.437,1.113-3.364,3.364,8.071,8.765,9.007,21.48,7.7,32.772-1.544,13.319-5.92,26.3-5.377,39.832a43.132,43.132,0,0,0,5.189,19.636,2.38,2.38,0,0,0,4.108-2.4Z" fill="#3f3d56"/>
          <path id="Path_16122" data-name="Path 16122" d="M477.458,465.338h-80.89a7.143,7.143,0,0,1-7.137-7.136V434.445a23.054,23.054,0,0,1,23.029-23.026h11.865a2.381,2.381,0,0,0,2.379-2.379v-11.1a3.967,3.967,0,0,1,3.965-3.964h12.689a3.969,3.969,0,0,1,3.965,3.964v11.1a2.38,2.38,0,0,0,2.379,2.379h11.864a23.055,23.055,0,0,1,23.03,23.026V458.2a7.144,7.144,0,0,1-7.138,7.136Z" fill="#ccc"/>
          <path id="Path_16123" data-name="Path 16123" d="M438.256,322.674c1.7,9.037-.4,17.021-4.709,17.832s-9.174-5.858-10.877-14.9,3.535-24.065,3.535-24.065S436.553,313.637,438.256,322.674Z" fill="#ffc932"/>
          <path id="Path_16124" data-name="Path 16124" d="M470.92,364.72c-5.394,7.449-12.642,11.406-16.19,8.838s-2.051-10.688,3.342-18.137,19.91-13.978,19.91-13.978S476.313,357.27,470.92,364.72Z" fill="#ffc932"/>
          <path id="Path_16125" data-name="Path 16125" d="M280.784,710.354H215.755v23.787h65.029Z" fill="#ffc932"/>
          <path id="Path_16126" data-name="Path 16126" d="M280.784,788.061H215.755v23.787h65.029Z" fill="#ffc932"/>
          <path id="Path_16127" data-name="Path 16127" d="M677.3,1219.41H191.963A26.983,26.983,0,0,1,165,1192.45V305.96A26.991,26.991,0,0,1,191.963,279H677.3a26.993,26.993,0,0,1,26.964,26.96v886.49a26.984,26.984,0,0,1-26.964,26.96ZM191.963,282.172a23.816,23.816,0,0,0-23.791,23.788v886.49a23.807,23.807,0,0,0,23.791,23.79H677.3a23.809,23.809,0,0,0,23.792-23.79V305.96A23.818,23.818,0,0,0,677.3,282.172Z" fill="#3f3d56"/>
          <path id="Path_16128" data-name="Path 16128" d="M702.682,462.092h-536.1v3.172h536.1Z" fill="#3f3d56"/>
          <path id="Path_16129" data-name="Path 16129" d="M702.682,652.445h-536.1v3.172h536.1Z" fill="#3f3d56"/>
          <path id="Path_16130" data-name="Path 16130" d="M702.682,842.8h-536.1v3.172h536.1Z" fill="#3f3d56"/>
          <path id="Path_16131" data-name="Path 16131" d="M702.682,1033.15h-536.1v3.17h536.1Z" fill="#3f3d56"/>
          <path id="Path_16132" data-name="Path 16132" d="M276.026,846.738H222.1a7.938,7.938,0,0,1-7.93-7.93V684.98a7.938,7.938,0,0,1,7.93-7.929h53.927a7.94,7.94,0,0,1,7.931,7.929V838.808a7.94,7.94,0,0,1-7.931,7.93ZM222.1,680.222a4.765,4.765,0,0,0-4.758,4.758V838.808a4.763,4.763,0,0,0,4.758,4.758h53.927a4.763,4.763,0,0,0,4.758-4.758V684.98a4.765,4.765,0,0,0-4.758-4.758Z" fill="#3f3d56"/>
          <path id="Path_16133" data-name="Path 16133" d="M380.707,710.354H315.678v23.787h65.029Z" fill="#ffc932"/>
          <path id="Path_16134" data-name="Path 16134" d="M380.707,788.061H315.678v23.787h65.029Z" fill="#ffc932"/>
          <path id="Path_16135" data-name="Path 16135" d="M375.949,846.738H322.022a7.938,7.938,0,0,1-7.93-7.93V684.98a7.938,7.938,0,0,1,7.93-7.929h53.927a7.94,7.94,0,0,1,7.931,7.929V838.808a7.94,7.94,0,0,1-7.931,7.93ZM322.022,680.222a4.765,4.765,0,0,0-4.758,4.758V838.808a4.763,4.763,0,0,0,4.758,4.758h53.927a4.763,4.763,0,0,0,4.758-4.758V684.98a4.765,4.765,0,0,0-4.758-4.758Z" fill="#3f3d56"/>
          <path id="Path_16136" data-name="Path 16136" d="M539.316,518.465h-65.03v23.788h65.03Z" fill="#ffc932"/>
          <path id="Path_16137" data-name="Path 16137" d="M539.316,596.172h-65.03V619.96h65.03Z" fill="#ffc932"/>
          <path id="Path_16138" data-name="Path 16138" d="M534.557,654.849H480.631a7.94,7.94,0,0,1-7.931-7.929V493.091a7.94,7.94,0,0,1,7.931-7.929h53.926a7.938,7.938,0,0,1,7.931,7.929V646.92a7.938,7.938,0,0,1-7.931,7.929ZM480.631,488.334a4.765,4.765,0,0,0-4.759,4.757V646.92a4.765,4.765,0,0,0,4.759,4.757h53.926a4.763,4.763,0,0,0,4.759-4.757V493.091a4.763,4.763,0,0,0-4.759-4.757Z" fill="#3f3d56"/>
          <path id="Path_16139" data-name="Path 16139" d="M639.239,518.465H574.21v23.788h65.029Z" fill="#ffc932"/>
          <path id="Path_16140" data-name="Path 16140" d="M639.239,596.172H574.21V619.96h65.029Z" fill="#ffc932"/>
          <path id="Path_16141" data-name="Path 16141" d="M634.481,654.849H580.554a7.938,7.938,0,0,1-7.93-7.929V493.091a7.938,7.938,0,0,1,7.93-7.929h53.927a7.94,7.94,0,0,1,7.931,7.929V646.92a7.94,7.94,0,0,1-7.931,7.929ZM580.554,488.334a4.763,4.763,0,0,0-4.758,4.757V646.92a4.763,4.763,0,0,0,4.758,4.757h53.927a4.765,4.765,0,0,0,4.759-4.757V493.091a4.765,4.765,0,0,0-4.759-4.757Z" fill="#3f3d56"/>
          <path id="Path_16142" data-name="Path 16142" d="M460.471,696.146,399.6,719.018l8.368,22.267,60.874-22.871Z" fill="#ffc932"/>
          <path id="Path_16143" data-name="Path 16143" d="M487.809,768.889,426.936,791.76l8.368,22.267,60.874-22.871Z" fill="#ffc932"/>
          <path id="Path_16144" data-name="Path 16144" d="M450.724,844.965a7.945,7.945,0,0,1-7.42-5.145l-54.117-144a7.938,7.938,0,0,1,4.633-10.211L444.3,666.646a7.929,7.929,0,0,1,10.213,4.633l54.118,144A7.937,7.937,0,0,1,504,825.488h0l-50.481,18.966a7.933,7.933,0,0,1-2.793.511Zm-3.63-175.657a4.781,4.781,0,0,0-1.677.307l-50.48,18.966a4.762,4.762,0,0,0-2.781,6.127l54.118,144a4.757,4.757,0,0,0,6.128,2.78l50.48-18.966a4.765,4.765,0,0,0,2.781-6.127l-54.118-144a4.769,4.769,0,0,0-4.451-3.087Z" fill="#3f3d56"/>
          <path id="Path_16145" data-name="Path 16145" d="M241.591,507.43,180.718,530.3l8.368,22.267L249.96,529.7Z" fill="#ffc932"/>
          <path id="Path_16146" data-name="Path 16146" d="M268.929,580.172l-60.873,22.871,8.368,22.268L277.3,602.439Z" fill="#ffc932"/>
          <path id="Path_16147" data-name="Path 16147" d="M231.844,656.248a7.945,7.945,0,0,1-7.42-5.145l-54.117-144a7.938,7.938,0,0,1,4.633-10.211l50.481-18.966a7.931,7.931,0,0,1,10.214,4.634l54.117,144a7.937,7.937,0,0,1-4.634,10.211h0l-50.481,18.966A7.929,7.929,0,0,1,231.844,656.248Zm-3.63-175.657a4.779,4.779,0,0,0-1.677.307l-50.48,18.966a4.762,4.762,0,0,0-2.781,6.127l54.118,144a4.757,4.757,0,0,0,6.128,2.78L284,633.8a4.765,4.765,0,0,0,2.781-6.127l-54.118-144a4.769,4.769,0,0,0-4.451-3.087Z" fill="#3f3d56"/>
          <path id="Path_16148" data-name="Path 16148" d="M1159.48,675.464a49.161,49.161,0,1,0-49.17-49.162A49.161,49.161,0,0,0,1159.48,675.464Z" fill="#2f2e41"/>
          <path id="Path_16149" data-name="Path 16149" d="M941.04,850.657a17.039,17.039,0,0,0,22.878-12.617l135.192-85.285-24.61-27.7-125.207,92.6a17.129,17.129,0,0,0-8.253,33Z" fill="#ffb8b8"/>
          <path id="Path_16150" data-name="Path 16150" d="M1070.89,775.429a7.146,7.146,0,0,1-6.02-3.273l-15.66-24.325a7.129,7.129,0,0,1,1.83-9.645l52.38-37.859a23.455,23.455,0,1,1,26.38,38.766l-55.08,35.215a7.131,7.131,0,0,1-3.83,1.121Z" fill="#2f2e41"/>
          <path id="Path_16151" data-name="Path 16151" d="M1094.28,1200.15l-19.45-.01-9.25-74.99h28.7Z" fill="#ffb8b8"/>
          <path id="Path_16152" data-name="Path 16152" d="M1060.94,1194.59h37.5v23.61h-61.11a23.625,23.625,0,0,1,23.61-23.61Z" fill="#2f2e41"/>
          <path id="Path_16153" data-name="Path 16153" d="M1185.06,1185.61l-18.73,5.25-29.18-69.7,27.63-7.75Z" fill="#ffb8b8"/>
          <path id="Path_16154" data-name="Path 16154" d="M1151.46,1189.27l36.11-10.13,6.38,22.73-58.84,16.51a23.609,23.609,0,0,1,16.35-29.11Z" fill="#2f2e41"/>
          <path id="Path_16155" data-name="Path 16155" d="M1237.45,1070.52l-75.49-89.077,45.8-55.574a7.2,7.2,0,0,1,2.48-1.92,7.123,7.123,0,0,1,6.1.018,7.01,7.01,0,0,1,2.46,1.934l69.32,85.059Z" fill="#ffc932"/>
          <path id="Path_16156" data-name="Path 16156" d="M1165,982.106a25.147,25.147,0,0,1,4.1-5.476l43.73-44.321a9.719,9.719,0,0,1,6.46-2.9c5-.236,13.19.269,15.47,5.749l-59.03,48.291Z" fill="#f2f2f2"/>
          <path id="Path_16157" data-name="Path 16157" d="M1240.07,1089.37a18.077,18.077,0,0,1-9.45-2.99l-.21-.22-69.14-105.723,11.48-1.109,61.48-47.954a7.149,7.149,0,0,1,10.35,1.693l67.21,101.713a7.15,7.15,0,0,1-1.96,9.85l-65.04,43.85A12.487,12.487,0,0,1,1240.07,1089.37Z" fill="#ffc932"/>
          <path id="Path_16158" data-name="Path 16158" d="M1215.62,1017.05a4.071,4.071,0,0,1-1.87-.46,4.114,4.114,0,0,1-1.43-1.29l-7.94-11.8a3.973,3.973,0,0,1,1.07-5.5l40.75-27.429a3.98,3.98,0,0,1,5.51,1.075l7.94,11.8a4,4,0,0,1,.6,2.974,3.943,3.943,0,0,1-1.68,2.53l-40.74,27.433A4.066,4.066,0,0,1,1215.62,1017.05Z" fill="#3f3d56"/>
          <path id="Path_16159" data-name="Path 16159" d="M1062.51,1188.8a8.674,8.674,0,0,1-8.63-7.93c-3.46-39.31-20.82-237.4-22.73-277.41-2.11-44.45,34.89-114.77,35.26-115.475l.26-.483,18.28,2.284v2.127l17.41,2.047,33.69,3.26,9.64,117.858,4.26,79.931,40.07,163.251a7.106,7.106,0,0,1-5.06,8.59l-34.86,9.51a7.179,7.179,0,0,1-8.75-4.93l-32.83-115.31a2.309,2.309,0,0,0-1-1.35,2.378,2.378,0,0,0-3.66,2.08l3.47,112.43a8.407,8.407,0,0,1-.64,3.36,8.493,8.493,0,0,1-1.92,2.84c-8,7.51-29.11,11.51-40.99,13.23a9.031,9.031,0,0,1-1.27.09Z" fill="#2f2e41"/>
          <path id="Path_16160" data-name="Path 16160" d="M1167.28,693.532c-5.54-5.767-41.99,2.158-50.09,10.655l-55.41,90.562,91.64,17.047,20.25-115.067Z" fill="#ffc932"/>
          <path id="Path_16161" data-name="Path 16161" d="M1143.26,923.618a17.8,17.8,0,0,1-5.8-.966c-5.33-1.826-11.85-3.737-19.4-5.676-33.04-8.5-44.71-35.7-34.67-80.848l.25-1.146a334.065,334.065,0,0,1,52.27-119.356l3.89-5.582a41.862,41.862,0,0,1,42.89-17.057c14.87,3.067,22.85,7.51,23.73,13.207,1.72,11.18-31.49,146.327-45.85,203.913a17.823,17.823,0,0,1-17.31,13.511Z" fill="#2f2e41"/>
          <path id="Path_16162" data-name="Path 16162" d="M1029.42,906.268a8.33,8.33,0,0,1-2.54-.4l-10.71-3.426a8.342,8.342,0,0,1-5.05-4.481,8.323,8.323,0,0,1-.09-6.75l56.83-133.376a124.822,124.822,0,0,1,54.12-59.989h0a2.933,2.933,0,0,1,2.32-.217,2.691,2.691,0,0,1,.95.539,2.64,2.64,0,0,1,.64.875c6.69,14.7-29.69,84.279-58.92,140.183-14.97,28.626-27.9,53.349-29.37,60.4a8.349,8.349,0,0,1-8.18,6.639Z" fill="#2f2e41"/>
          <path id="Path_16163" data-name="Path 16163" d="M1205.25,936.661a17.017,17.017,0,0,0,5.62-19.985,16.906,16.906,0,0,0-4.16-6.1l-.45-159.829-36.55,6.13,11.96,155.259a17.129,17.129,0,0,0,23.58,24.522Z" fill="#ffb8b8"/>
          <path id="Path_16164" data-name="Path 16164" d="M1175.49,790.4a7.149,7.149,0,0,1-7.12-6.666l-4.25-64.49a23.456,23.456,0,1,1,46.86-1.752l.58,65.369a7.147,7.147,0,0,1-7.05,7.2l-28.93.339Z" fill="#2f2e41"/>
          <path id="Path_16165" data-name="Path 16165" d="M1149.35,677.965a38.951,38.951,0,1,0-38.96-38.95A38.951,38.951,0,0,0,1149.35,677.965Z" fill="#ffb8b8"/>
          <path id="Path_16166" data-name="Path 16166" d="M1181.74,666.27c2.9-9.245,5.57-20.145-.18-27.946-4.14-5.622-11.58-7.8-18.56-8.109s-13.97.871-20.93.318-14.32-3.3-17.86-9.322c-4.58-7.807-.7-18.561,6.67-23.819s17.11-5.992,26.09-4.767a56.245,56.245,0,0,1,30.59,13.685c8.34,7.7,13.78,18.79,13.54,30.135s-6.61,22.642-16.75,27.736" fill="#2f2e41"/>
          <path id="Path_16167" data-name="Path 16167" d="M1172.02,581.16c-9.32-2.872-13.62-15.2-9.45-24.021s14.83-13.44,24.51-12.211,18.21,7.438,24.09,15.222,9.43,17.062,12.39,26.36,5.42,18.8,9.46,27.678a85.928,85.928,0,0,0,70.5,49.07c6.55.475,13.35.135,19.32-2.6s10.97-8.255,11.64-14.786c3.39,23.2-10.1,47.855-31.48,57.495s-48.8,3.439-63.94-14.463c-14.8-17.494-17.09-42.192-16.74-65.1.1-6.282.33-12.683-1.4-18.722s-5.85-11.781-11.83-13.7c-4.83-1.547-10.06-.432-15.01.666s-10.2,2.153-15,.5-8.65-7.1-6.72-11.791" fill="#2f2e41"/>
          <path id="Path_16168" data-name="Path 16168" d="M1326.15,1221H907.419a1.577,1.577,0,0,1-1.586-1.59,1.589,1.589,0,0,1,.464-1.12,1.615,1.615,0,0,1,1.122-.46H1326.15a1.571,1.571,0,0,1,1.58,1.58,1.64,1.64,0,0,1-.46,1.13A1.616,1.616,0,0,1,1326.15,1221Z" fill="#ccc"/>
        </g>
      </g>
      <g id="Group_451" data-name="Group 451">
        <rect id="Rectangle_2249-2" data-name="Rectangle 2249" width="194" height="807" transform="translate(751.011 304.752)" fill="#f2f2f2"/>
        <rect id="Rectangle_2250-2" data-name="Rectangle 2250" width="76" height="381" transform="translate(767 320)" fill="#fff"/>
        <rect id="Rectangle_2252-2" data-name="Rectangle 2252" width="76" height="381" transform="translate(767 714)" fill="#fff"/>
        <rect id="Rectangle_2251-2" data-name="Rectangle 2251" width="76" height="381" transform="translate(855 320)" fill="#fff"/>
        <rect id="Rectangle_2253-2" data-name="Rectangle 2253" width="76" height="381" transform="translate(855 714)" fill="#fff"/>
      </g>
    </g>
  </g>
</svg>
