<svg id="undraw_folder_re_apfp" xmlns="http://www.w3.org/2000/svg" xmlns:xlink="http://www.w3.org/1999/xlink" width="1500" height="1500" viewBox="0 0 1500 1500">
  <defs>
    <clipPath id="clip-path">
      <rect id="Rectangle_2440" data-name="Rectangle 2440" width="1229" height="874" transform="translate(135 313)" fill="#fff"/>
    </clipPath>
  </defs>
  <g id="Group_580" data-name="Group 580" transform="translate(-178 6651)">
    <path id="Path_21883" data-name="Path 21883" d="M908.885,288.962V250.375h-6v38.587a8,8,0,1,0,6,0Z" transform="translate(244.885 -6180.375)" fill="#e6e6e6"/>
    <path id="Path_21884" data-name="Path 21884" d="M922.885,678.375h-41v-498h-16v498h-41a37,37,0,0,0-37,37h172A37,37,0,0,0,922.885,678.375Z" transform="translate(244.885 -6180.375)" fill="#e6e6e6"/>
    <path id="Path_21885" data-name="Path 21885" d="M787.968,254.375H959.8l-10.508-131.34a18.2,18.2,0,0,0-18.046-16.66H816.521a18.2,18.2,0,0,0-18.046,16.66Z" transform="translate(244.885 -6180.375)" fill="#ff639d"/>
  </g>
  <g id="undraw_folder_re_apfp-2" data-name="undraw_folder_re_apfp">
    <rect id="Rectangle_2439" data-name="Rectangle 2439" width="1500" height="1500" fill="#fff" opacity="0"/>
    <g id="Group_569" data-name="Group 569" clip-path="url(#clip-path)">
      <path id="Path_21236" data-name="Path 21236" d="M1094,1175.68a69.716,69.716,0,0,1-56.25-20.98c-9.44-9.95-15.93-22.77-22.19-35.16-1.83-3.61-3.71-7.34-5.63-10.91a22.245,22.245,0,0,1,2.31-24.83,21.879,21.879,0,0,1,23.36-7.47l.91.27,8.23,32.11c1.23-4.79,3.87-15.58,5.53-26.16l.14-.88.82.36a112.487,112.487,0,0,1,24.05,14.5,115.387,115.387,0,0,1,43.15,86.89l.02.99-24.45-8.73Z" fill="#f2f2f2"/>
      <path id="Path_21237" data-name="Path 21237" d="M1362.29,1186.56l-399.4.44a1.705,1.705,0,0,1,0-3.41l399.4-.44a1.705,1.705,0,0,1,.01,3.41Z" fill="#cacaca"/>
      <path id="Path_21238" data-name="Path 21238" d="M303.2,472.765H288.277a5.374,5.374,0,0,0-5.374,5.373,5.374,5.374,0,0,1-5.373,5.374H227.778a5.374,5.374,0,0,1-5.374-5.374l-.983-5.447.064.074-.064-.074-9.018-11.5a3.13,3.13,0,0,0-2.506-1.217H192.984a3.188,3.188,0,0,0-3.185,3.184l-.349,9.53h-6.394a10.226,10.226,0,0,0-10.226,10.226v66.6a9.074,9.074,0,0,0,9.075,9.074H303.2a9.082,9.082,0,0,0,9.072-9.074V481.837a9.072,9.072,0,0,0-9.072-9.072Z" fill="#f2f2f2"/>
      <path id="Path_21239" data-name="Path 21239" d="M221.425,472.445H189.8v-9.53a3.188,3.188,0,0,1,3.185-3.184H209.9a3.128,3.128,0,0,1,2.506,1.217l9.023,11.5Z" fill="#e6e6e6"/>
      <path id="Path_21240" data-name="Path 21240" d="M237.619,551.263H184.811a6.312,6.312,0,0,1-6.305-6.3V530.516a6.312,6.312,0,0,1,6.305-6.3h63.382a6.312,6.312,0,0,1,6.305,6.3v3.868a16.9,16.9,0,0,1-16.879,16.879Z" fill="#fff"/>
      <path id="Path_21241" data-name="Path 21241" d="M200.013,535.1H186.979a3.2,3.2,0,0,1-.021-6.394h13.055a3.2,3.2,0,1,1,.02,6.394Z" fill="#f2f2f2"/>
      <path id="Path_21242" data-name="Path 21242" d="M244.28,545.187h-57.3a3.2,3.2,0,0,1-.021-6.394H244.28a3.2,3.2,0,1,1,.021,6.394Z" fill="#f2f2f2"/>
      <path id="Path_21243" data-name="Path 21243" d="M303.2,681.952H288.277a5.374,5.374,0,0,0-5.374,5.374,5.373,5.373,0,0,1-5.373,5.373H227.778a5.373,5.373,0,0,1-5.374-5.373l-.983-5.447.064.073-.064-.073-9.018-11.5a3.131,3.131,0,0,0-2.506-1.218H192.984a3.189,3.189,0,0,0-3.185,3.185l-.349,9.53h-6.394A10.226,10.226,0,0,0,172.83,692.1v66.6a9.075,9.075,0,0,0,9.075,9.075H303.2a9.083,9.083,0,0,0,9.072-9.075V691.025a9.073,9.073,0,0,0-9.072-9.073Z" fill="#f2f2f2"/>
      <path id="Path_21244" data-name="Path 21244" d="M221.425,681.633H189.8V672.1a3.189,3.189,0,0,1,3.185-3.185H209.9a3.131,3.131,0,0,1,2.506,1.217l9.023,11.5Z" fill="#e6e6e6"/>
      <path id="Path_21245" data-name="Path 21245" d="M237.619,760.45H184.811a6.312,6.312,0,0,1-6.305-6.3V739.7a6.312,6.312,0,0,1,6.305-6.3h63.382a6.312,6.312,0,0,1,6.305,6.3v3.869a16.9,16.9,0,0,1-16.879,16.878Z" fill="#fff"/>
      <path id="Path_21246" data-name="Path 21246" d="M200.013,744.293H186.979a3.2,3.2,0,0,1-.021-6.4h13.055a3.2,3.2,0,0,1,.02,6.4Z" fill="#f2f2f2"/>
      <path id="Path_21247" data-name="Path 21247" d="M244.28,754.375h-57.3a3.2,3.2,0,0,1-.021-6.4H244.28a3.2,3.2,0,0,1,.021,6.4Z" fill="#f2f2f2"/>
      <path id="Path_21248" data-name="Path 21248" d="M303.2,891.14H288.277a5.374,5.374,0,0,0-5.374,5.373,5.374,5.374,0,0,1-5.373,5.374H227.778a5.374,5.374,0,0,1-5.374-5.374l-.983-5.447.064.074-.064-.074-9.018-11.5a3.13,3.13,0,0,0-2.506-1.217H192.984a3.188,3.188,0,0,0-3.185,3.184l-.349,9.53h-6.394a10.226,10.226,0,0,0-10.226,10.226v66.6a9.075,9.075,0,0,0,9.075,9.074H303.2a9.083,9.083,0,0,0,9.072-9.074V900.212a9.072,9.072,0,0,0-9.072-9.072Z" fill="#f2f2f2"/>
      <path id="Path_21249" data-name="Path 21249" d="M221.425,890.82H189.8v-9.53a3.188,3.188,0,0,1,3.185-3.184H209.9a3.128,3.128,0,0,1,2.506,1.217l9.023,11.5Z" fill="#e6e6e6"/>
      <path id="Path_21250" data-name="Path 21250" d="M237.619,969.638H184.811a6.312,6.312,0,0,1-6.305-6.3V948.891a6.312,6.312,0,0,1,6.305-6.3h63.382a6.312,6.312,0,0,1,6.305,6.3v3.868a16.9,16.9,0,0,1-16.879,16.879Z" fill="#fff"/>
      <path id="Path_21251" data-name="Path 21251" d="M200.013,953.48H186.978a3.2,3.2,0,1,1,0-6.394h13.035a3.2,3.2,0,1,1,0,6.394Z" fill="#f2f2f2"/>
      <path id="Path_21252" data-name="Path 21252" d="M244.28,963.562h-57.3a3.2,3.2,0,1,1,0-6.394h57.3a3.2,3.2,0,1,1,0,6.394Z" fill="#f2f2f2"/>
      <path id="Path_21253" data-name="Path 21253" d="M573.283,508.445a8.832,8.832,0,0,0-8.821,8.822V671.852a8.831,8.831,0,0,0,8.821,8.822H791.941a8.833,8.833,0,0,0,8.822-8.822V517.267a8.833,8.833,0,0,0-8.822-8.822Z" fill="#e6e6e6"/>
      <path id="Path_21254" data-name="Path 21254" d="M713.3,673.149H579.461a9.5,9.5,0,0,1-9.494-9.494V523.448a9.5,9.5,0,0,1,9.494-9.495h206.3a9.505,9.505,0,0,1,9.495,9.495v67.746A82.048,82.048,0,0,1,713.3,673.149Z" fill="#fff"/>
      <path id="Path_21255" data-name="Path 21255" d="M660.875,552.754h-31.8a3.037,3.037,0,1,1,0-6.074h31.8a3.037,3.037,0,0,1,0,6.074Z" fill="#ff639d"/>
      <path id="Path_21256" data-name="Path 21256" d="M732.172,565.176H629.07a3.037,3.037,0,1,1,0-6.074h103.1a3.037,3.037,0,0,1,0,6.074Z" fill="#e6e6e6"/>
      <path id="Path_21257" data-name="Path 21257" d="M732.172,579.438H629.07a3.038,3.038,0,1,1,0-6.075h103.1a3.038,3.038,0,0,1,0,6.075Z" fill="#e6e6e6"/>
      <path id="Path_21258" data-name="Path 21258" d="M732.172,593.7H629.07a3.038,3.038,0,1,1,0-6.075h103.1a3.038,3.038,0,0,1,0,6.075Z" fill="#e6e6e6"/>
      <path id="Path_21259" data-name="Path 21259" d="M732.172,607.953H629.07a3.037,3.037,0,1,1,0-6.074h103.1a3.037,3.037,0,0,1,0,6.074Z" fill="#e6e6e6"/>
      <path id="Path_21260" data-name="Path 21260" d="M814.838,616.374H771.676a15.543,15.543,0,0,0-15.542,15.542,15.541,15.541,0,0,1-15.541,15.542H596.7a15.542,15.542,0,0,1-15.542-15.542h0l-2.845-15.755.185.213-.185-.213-26.083-33.253a9.05,9.05,0,0,0-7.248-3.521H496.062a9.223,9.223,0,0,0-9.212,9.211l-1.01,27.563H467.347a29.577,29.577,0,0,0-29.576,29.577V838.369a26.247,26.247,0,0,0,26.247,26.247h350.82a26.273,26.273,0,0,0,26.24-26.247V642.614a26.24,26.24,0,0,0-26.24-26.24Z" fill="#e6e6e6"/>
      <path id="Path_21261" data-name="Path 21261" d="M578.324,615.446H486.851V587.884a9.222,9.222,0,0,1,9.211-9.212h48.916a9.055,9.055,0,0,1,7.248,3.521l26.1,33.253Z" fill="#ccc"/>
      <path id="Path_21262" data-name="Path 21262" d="M625.16,843.418H472.424a18.256,18.256,0,0,1-18.236-18.236v-41.77a18.256,18.256,0,0,1,18.236-18.236H655.743a18.256,18.256,0,0,1,18.236,18.236V794.6a48.874,48.874,0,0,1-48.819,48.819Z" fill="#fff"/>
      <path id="Path_21263" data-name="Path 21263" d="M516.39,796.685h-37.7a9.247,9.247,0,0,1,0-18.494h37.7a9.247,9.247,0,0,1,.024,18.494Z" fill="#ff639d"/>
      <path id="Path_21264" data-name="Path 21264" d="M644.424,825.845H478.691a9.246,9.246,0,1,1,0-18.493H644.424a9.246,9.246,0,1,1,.024,18.493Z" fill="#ff639d"/>
      <path id="Path_21265" data-name="Path 21265" d="M951.787,374.278H137.534a2.589,2.589,0,0,1,0-5.176H951.787a2.589,2.589,0,0,1,0,5.176Z" fill="#cacaca"/>
      <path id="Path_21266" data-name="Path 21266" d="M1267.64,1168.26H1254.2l-6.4-51.85h19.84Z" fill="#9e616a"/>
      <path id="Path_21267" data-name="Path 21267" d="M1268.11,1182.28h-41.33v-.52a16.085,16.085,0,0,1,16.09-16.09h0l7.55-5.73,14.08,5.73h3.61v16.61Z" fill="#2f2e41"/>
      <path id="Path_21268" data-name="Path 21268" d="M1226.13,1121.67l-12.87,3.88-21.09-47.8,19-5.72Z" fill="#9e616a"/>
      <path id="Path_21269" data-name="Path 21269" d="M1230.63,1134.95l-39.57,11.93-.16-.5a16.091,16.091,0,0,1,10.76-20.04h.01l5.57-7.67,15.14,1.42,3.46-1.04Z" fill="#2f2e41"/>
      <path id="Path_21270" data-name="Path 21270" d="M1207.67,839.767s-14.38,21.952-19.47,36.886c-12.46,36.6-18.43,27.819-32.78,116.8,19.48,65.732,38.77,109.062,38.77,109.062s28.99-8.15,28.99-13.59-18.5-71.73-21.21-79.43-7.25-10.416-3.18-16.758,37.57-61.785,37.57-61.785-.9,94.5,0,96.313,5.26,110.64,5.26,110.64,29.82,15.26,31.63-1.01c.45-4.07,1.02-111.92,1.02-113.73s27.6-170.652,14.47-177.447-81.07-5.956-81.07-5.956Z" fill="#2f2e41"/>
      <path id="Path_21271" data-name="Path 21271" d="M1147.42,855.414a12.584,12.584,0,0,1,16.08-10.693l26.05-36.409,8.35,21.716-26.02,31.244a12.664,12.664,0,0,1-24.46-5.858Z" fill="#9e616a"/>
      <path id="Path_21272" data-name="Path 21272" d="M1183.34,849.769l-17.32-13.133,36.36-55.986,29.21-112.505,23.12,21.529a15.115,15.115,0,0,1,9.14,7.843c1.86,3.8,5.81-2.561,4.33,1.4l-32.52,87.819-.05.061-52.27,62.972Z" fill="#3f3d56"/>
      <path id="Path_21273" data-name="Path 21273" d="M1244.56,663.535l-24.63,9.572-10.13,13.985-24.54,125.876.98,4.249-2.45,3.276-.96,4.923,2.38,4.1-4.18,5.132s1.11,4.09,5.21,38.926c2.52,21.5,43.44,8.256,43.44,8.256l18.57-190.9-3.69-27.388Z" fill="#3f3d56"/>
      <path id="Path_21274" data-name="Path 21274" d="M1297.14,679.8l-21.25-19.01-31.43,1.894-18.09,22-35.09,181.724,73.77,6.146Z" fill="#e6e6e6"/>
      <path id="Path_21275" data-name="Path 21275" d="M1278.51,663.848l19.33,14.839,7.41,10.818a31.627,31.627,0,0,1,14.4,37.188l-23.48,82.758-.55,1.691c-.56,1.639,2.12,14.616.79,28.593-.35,3.641,3.88,7.7,3.56,11.294-.25,2.812-5.05,5.2-5.26,7.787-.19,2.331,2.33,4.548,2.18,6.558a33.379,33.379,0,0,1-3.15,11.28c-20,8.273-58.62,2.271-58.62,2.271l35-188.585,8.39-26.492Z" fill="#3f3d56"/>
      <path id="Path_21276" data-name="Path 21276" d="M1256.9,653.475a34.788,34.788,0,1,0-34.79-34.788A34.785,34.785,0,0,0,1256.9,653.475Z" fill="#9e616a"/>
      <path id="Path_21277" data-name="Path 21277" d="M1302.01,620.173c-2.02,11.435-10.19,22.746-21.59,24.918l-.22-.287a102.336,102.336,0,0,0,.83-14.949,5.8,5.8,0,0,0-11.23-1.957c.21-4.354-1.63-8.8-2.82-13s-2-8.166-6.14-9.539c-3.45-1.137-7.21-.348-10.76.461-4.9,1.107-7.39.851-7.83-.389q-2.715.994-5.43,1.986a3.363,3.363,0,0,1-3.87-1.186l-.01-.021q-4.755,1.228-9.5,2.438a56.732,56.732,0,0,1-1.46-6.168,16.566,16.566,0,0,0,5.54-8.617,21.05,21.05,0,0,1-6.1,2.336,15.665,15.665,0,0,1,5.72-12.582c7.49-6.014,15-9.7,24.59-9.221,11.6.584,15.07,13.063,25.62,8.2,13.32-6.147,26.68,26.148,24.66,37.583Z" fill="#2f2e41"/>
      <path id="Path_21278" data-name="Path 21278" d="M1106.98,641.382a7.08,7.08,0,0,0-9.95,1.069l-77.88,96.61a7.088,7.088,0,0,0,1.06,9.957l136.66,110.161a7.094,7.094,0,0,0,9.96-1.069l77.88-96.611a7.09,7.09,0,0,0-1.07-9.957l-136.66-110.16Z" fill="#ccc"/>
      <path id="Path_21279" data-name="Path 21279" d="M1111.51,814.86l-83.64-67.429a7.621,7.621,0,0,1-1.15-10.717l70.63-87.625a7.634,7.634,0,0,1,10.72-1.15L1237,751.874a7.63,7.63,0,0,1,1.15,10.717l-34.13,42.34a65.865,65.865,0,0,1-92.51,9.929Z" fill="#fff"/>
      <path id="Path_21280" data-name="Path 21280" d="M1139.4,713.206l-19.88-16.024a2.439,2.439,0,0,1,3.05-3.808l.02.012,19.87,16.023a2.438,2.438,0,0,1-3.06,3.8Z" fill="#ff639d"/>
      <path id="Path_21281" data-name="Path 21281" d="M1177.7,756.887l-64.43-51.943a2.436,2.436,0,0,1,3.04-3.808l.02.012,64.43,51.943a2.438,2.438,0,0,1-3.06,3.8Z" fill="#e6e6e6"/>
      <path id="Path_21282" data-name="Path 21282" d="M1170.52,765.8l-64.44-51.943a2.439,2.439,0,0,1,3.05-3.808l.01.012L1173.58,762a2.438,2.438,0,0,1-3.06,3.8Z" fill="#e6e6e6"/>
      <path id="Path_21283" data-name="Path 21283" d="M1163.33,774.711l-64.43-51.943a2.436,2.436,0,0,1,3.04-3.808l.02.012,64.43,51.943a2.438,2.438,0,0,1-3.06,3.8Z" fill="#e6e6e6"/>
      <path id="Path_21284" data-name="Path 21284" d="M1156.15,783.621l-64.44-51.943a2.439,2.439,0,0,1,3.05-3.808l.01.012,64.44,51.943a2.438,2.438,0,0,1-3.06,3.8Z" fill="#e6e6e6"/>
      <path id="Path_21285" data-name="Path 21285" d="M1142.12,781.9a12.6,12.6,0,0,1,17.75-1.563,13.452,13.452,0,0,1,1.57,1.571l41.85-15.884-5.08,22.7-38.97,11.6a12.664,12.664,0,0,1-17.12-18.428Z" fill="#9e616a"/>
      <path id="Path_21286" data-name="Path 21286" d="M1175.15,798.129l-7.14-20.527,61.28-26.472,76.15-56.575,9.61,11.866a15.241,15.241,0,0,1-2.25,21.437c-.21.173-.43.34-.65.5l-58.53,46.27-.07.026-18.16,5.439-4.07.238-4.34,2.28-3.86-1.255-5.34,4.008-6.13,1.835-36.5,10.929Z" fill="#3f3d56"/>
      <path id="Path_21287" data-name="Path 21287" d="M826.841,887.666a37.488,37.488,0,1,1,37.488-37.487A37.487,37.487,0,0,1,826.841,887.666Z" fill="#ff639d"/>
      <path id="Path_21288" data-name="Path 21288" d="M841.633,846.483H830.539V835.389a3.7,3.7,0,0,0-7.4,0v11.094H812.049a3.7,3.7,0,0,0,0,7.4h11.094v11.094a3.7,3.7,0,0,0,7.4,0V853.879h11.094a3.7,3.7,0,0,0,0-7.4Z" fill="#fff"/>
      <path id="Path_21289" data-name="Path 21289" d="M308.949,575.814a17.924,17.924,0,1,1,17.925-17.924h0A17.924,17.924,0,0,1,308.949,575.814Z" fill="#e6e6e6"/>
      <path id="Path_21290" data-name="Path 21290" d="M316.022,556.121H301.877a1.768,1.768,0,1,0,0,3.536h14.145a1.768,1.768,0,0,0,0-3.536Z" fill="#fff"/>
      <path id="Path_21291" data-name="Path 21291" d="M308.949,782.139a17.925,17.925,0,1,1,17.925-17.925h0A17.925,17.925,0,0,1,308.949,782.139Z" fill="#e6e6e6"/>
      <path id="Path_21292" data-name="Path 21292" d="M316.022,762.445H301.877a1.768,1.768,0,0,0,0,3.537h14.145a1.768,1.768,0,0,0,0-3.537Z" fill="#fff"/>
      <path id="Path_21293" data-name="Path 21293" d="M308.949,988.459a17.925,17.925,0,1,1,17.925-17.925A17.925,17.925,0,0,1,308.949,988.459Z" fill="#e6e6e6"/>
      <path id="Path_21294" data-name="Path 21294" d="M316.022,968.766H301.877a1.768,1.768,0,1,0,0,3.536h14.145a1.768,1.768,0,0,0,0-3.536Z" fill="#fff"/>
      <path id="Path_21295" data-name="Path 21295" d="M245.146,337.773a12.39,12.39,0,1,0-12.117-12.386A12.253,12.253,0,0,0,245.146,337.773Z" fill="#3f3d56"/>
      <path id="Path_21296" data-name="Path 21296" d="M287,337.773a12.39,12.39,0,1,0-12.116-12.386A12.253,12.253,0,0,0,287,337.773Z" fill="#3f3d56"/>
      <path id="Path_21297" data-name="Path 21297" d="M328.861,337.773a12.39,12.39,0,1,0-12.117-12.386A12.253,12.253,0,0,0,328.861,337.773Z" fill="#3f3d56"/>
      <path id="Path_21298" data-name="Path 21298" d="M376.59,335.177a1.426,1.426,0,0,1-1.024-.431l-8.176-8.358a1.431,1.431,0,0,1,0-2l8.176-8.357a1.433,1.433,0,0,1,2.048,2l-7.2,7.355,7.2,7.355a1.433,1.433,0,0,1-1.024,2.435Z" fill="#3f3d56"/>
      <path id="Path_21299" data-name="Path 21299" d="M390.328,335.178a1.434,1.434,0,0,1-1.024-2.435l7.2-7.355-7.2-7.355a1.433,1.433,0,0,1,2.049-2l8.175,8.357a1.431,1.431,0,0,1,0,2l-8.175,8.358a1.429,1.429,0,0,1-1.025.431Z" fill="#3f3d56"/>
      <path id="Path_21300" data-name="Path 21300" d="M818.035,314.434h-15.2a3.137,3.137,0,0,0-3.138,3.137v15.217a3.137,3.137,0,0,0,3.138,3.137h15.2a3.149,3.149,0,0,0,3.152-3.137V317.571a3.149,3.149,0,0,0-3.152-3.137Z" fill="#3f3d56"/>
      <path id="Path_21301" data-name="Path 21301" d="M780.782,314.434h-15.2a3.137,3.137,0,0,0-3.138,3.137v15.217a3.137,3.137,0,0,0,3.138,3.137h15.2a3.149,3.149,0,0,0,3.152-3.137V317.571a3.149,3.149,0,0,0-3.152-3.137Z" fill="#3f3d56"/>
      <path id="Path_21302" data-name="Path 21302" d="M853.139,315.152h-15.2a3.137,3.137,0,0,0-3.138,3.138v15.216a3.137,3.137,0,0,0,3.138,3.138h15.2a3.149,3.149,0,0,0,3.152-3.138V318.29a3.149,3.149,0,0,0-3.152-3.138Z" fill="#3f3d56"/>
      <path id="Path_21303" data-name="Path 21303" d="M624,320.938H502.486a3.826,3.826,0,1,0,0,7.651H624a3.826,3.826,0,1,0,0-7.651Z" fill="#3f3d56"/>
      <path id="Path_25492" data-name="Path 25492" d="M7.95,1C4.118,1,1,4.831,1,9.54s3.118,8.54,6.95,8.54,6.95-3.831,6.95-8.54S11.782,1,7.95,1m0-1c4.391,0,7.95,4.271,7.95,9.54s-3.559,9.54-7.95,9.54S0,14.809,0,9.54,3.559,0,7.95,0Z" transform="translate(1241 620)" fill="#2f2e41"/>
      <path id="Path_25511" data-name="Path 25511" d="M7.95,1C4.118,1,1,4.831,1,9.54s3.118,8.54,6.95,8.54,6.95-3.831,6.95-8.54S11.782,1,7.95,1m0-1c4.391,0,7.95,4.271,7.95,9.54s-3.559,9.54-7.95,9.54S0,14.809,0,9.54,3.559,0,7.95,0Z" transform="translate(1219.22 618.687)" fill="#2f2e41"/>
      <path id="Path_25512" data-name="Path 25512" d="M1269.131,630.04h-9.73a.5.5,0,0,1,0-1h9.73a.5.5,0,0,1,0,1Z" fill="#2f2e41"/>
    </g>
  </g>
</svg>
