<svg width="1500" height="1500" viewBox="0 0 1500 1500" fill="none" xmlns="http://www.w3.org/2000/svg">
<g clip-path="url(#clip0_31_197)">
<path d="M648.834 835.321C659.306 851.968 674.163 864.471 691.295 871.054C694.96 872.545 698.812 873.376 702.707 873.514C706.505 873.511 710.233 872.361 713.504 870.183C716.589 868.222 719.544 865.813 722.999 864.732C724.775 864.208 726.629 864.113 728.439 864.454C730.249 864.795 731.976 865.563 733.504 866.709C737.379 869.452 740.148 873.602 742.731 877.766C745.599 882.39 748.514 887.243 752.991 890.05C753.533 890.39 753.034 891.32 752.492 890.98C744.702 886.096 741.818 875.738 735.188 869.441C732.094 866.503 728.196 864.598 724.107 865.547C720.532 866.378 717.483 868.859 714.373 870.875C711.21 873.052 707.623 874.323 703.924 874.576C700.035 874.661 696.162 874 692.47 872.62C684.114 869.663 676.223 865.242 669.085 859.521C660.906 853.042 653.771 845.033 647.987 835.84C647.629 835.271 648.479 834.756 648.834 835.321V835.321Z" fill="white"/>
<path d="M685.668 869.3C684.298 872.392 681.998 874.834 679.18 876.19C676.361 877.546 673.207 877.728 670.28 876.703C669.688 876.493 669.949 875.447 670.542 875.657C673.265 876.617 676.204 876.447 678.826 875.178C681.449 873.909 683.583 871.625 684.843 868.738C685.118 868.111 685.941 868.677 685.668 869.3V869.3Z" fill="white"/>
<path d="M712.055 871.411C710.125 864.69 706.02 859.036 700.558 855.576C700.017 855.234 700.517 854.305 701.057 854.647C706.735 858.258 710.996 864.152 712.991 871.151C713.18 871.818 712.244 872.074 712.055 871.411Z" fill="white"/>
<path d="M661.996 852.289C662.747 851.217 663.25 849.952 663.46 848.607C663.671 847.262 663.581 845.879 663.2 844.582C663.003 843.918 663.94 843.663 664.136 844.323C664.551 845.757 664.648 847.285 664.419 848.771C664.189 850.258 663.641 851.659 662.82 852.851C662.752 852.971 662.645 853.057 662.522 853.091C662.399 853.125 662.269 853.105 662.159 853.035C662.05 852.96 661.972 852.839 661.941 852.7C661.911 852.56 661.93 852.412 661.996 852.289V852.289Z" fill="white"/>
<path d="M711.942 828.204C709.198 829.743 706.059 830.131 703.084 829.3C700.109 828.469 697.494 826.473 695.704 823.667C695.343 823.098 696.111 822.44 696.471 823.01C698.134 825.625 700.571 827.485 703.342 828.252C706.113 829.02 709.037 828.645 711.584 827.195C712.138 826.881 712.493 827.892 711.942 828.204Z" fill="white"/>
<path d="M731.885 847.804C733.933 841.128 733.674 833.827 731.16 827.356C730.91 826.715 731.805 826.312 732.054 826.952C734.66 833.691 734.915 841.29 732.771 848.232C732.566 848.894 731.682 848.462 731.885 847.804Z" fill="white"/>
<path d="M702.124 798.548C703.296 798.202 704.373 797.534 705.259 796.602C706.145 795.671 706.812 794.506 707.201 793.213C707.398 792.548 708.282 792.981 708.086 793.641C707.652 795.068 706.914 796.353 705.937 797.385C704.96 798.416 703.774 799.162 702.482 799.557C702.363 799.606 702.232 799.602 702.116 799.545C702 799.489 701.907 799.385 701.856 799.254C701.809 799.121 701.811 798.971 701.861 798.839C701.912 798.707 702.006 798.602 702.124 798.548H702.124Z" fill="white"/>
<path d="M1345.1 829.343C1336.52 847.315 1323.14 861.783 1306.85 870.691C1303.38 872.679 1299.65 874.036 1295.79 874.714C1292.02 875.237 1288.2 874.612 1284.72 872.905C1281.44 871.386 1278.25 869.405 1274.7 868.811C1272.88 868.537 1271.03 868.7 1269.27 869.289C1267.51 869.878 1265.88 870.88 1264.49 872.229C1260.94 875.489 1258.65 879.991 1256.54 884.481C1254.19 889.467 1251.83 894.688 1247.69 898.094C1247.19 898.507 1247.79 899.36 1248.29 898.948C1255.49 893.022 1257.22 882.342 1263.12 875.174C1265.87 871.829 1269.53 869.398 1273.69 869.774C1277.33 870.102 1280.62 872.142 1283.93 873.712C1287.31 875.434 1291 876.197 1294.7 875.936C1298.57 875.482 1302.34 874.288 1305.86 872.407C1313.83 868.314 1321.18 862.833 1327.64 856.166C1335.05 848.602 1341.26 839.665 1345.99 829.74C1346.29 829.126 1345.39 828.732 1345.1 829.343Z" fill="white"/>
<path d="M1312.25 868.17C1313.94 871.049 1316.49 873.153 1319.44 874.108C1322.38 875.063 1325.53 874.806 1328.32 873.384C1328.89 873.094 1328.51 872.092 1327.95 872.382C1325.35 873.712 1322.42 873.951 1319.68 873.055C1316.93 872.159 1314.57 870.188 1313 867.498C1312.66 866.913 1311.91 867.589 1312.25 868.17Z" fill="white"/>
<path d="M1286.29 873.92C1287.47 866.983 1290.93 860.803 1295.97 856.613C1296.47 856.198 1295.87 855.345 1295.38 855.759C1290.13 860.131 1286.55 866.57 1285.33 873.792C1285.22 874.481 1286.17 874.605 1286.29 873.92H1286.29Z" fill="white"/>
<path d="M1333.88 848.006C1333.02 847.047 1332.38 845.861 1332.03 844.555C1331.67 843.249 1331.61 841.864 1331.85 840.525C1331.97 839.838 1331.01 839.715 1330.89 840.397C1330.64 841.878 1330.71 843.407 1331.1 844.851C1331.48 846.295 1332.18 847.609 1333.13 848.679C1333.21 848.788 1333.32 848.858 1333.45 848.875C1333.57 848.892 1333.7 848.854 1333.8 848.769C1333.9 848.68 1333.97 848.549 1333.98 848.406C1334 848.263 1333.96 848.12 1333.88 848.006H1333.88Z" fill="white"/>
<path d="M1287.19 777.721C1289.94 797.895 1286.98 818.532 1278.73 836.701C1277.02 840.648 1274.76 844.265 1272.05 847.42C1269.32 850.398 1265.93 852.496 1262.24 853.497C1258.81 854.509 1255.2 855.097 1252.05 857.03C1250.45 858.047 1249.06 859.433 1247.97 861.098C1246.88 862.763 1246.12 864.669 1245.73 866.691C1244.64 871.702 1245.21 876.855 1245.92 881.873C1246.71 887.444 1247.61 893.217 1246.13 898.746C1245.95 899.416 1246.88 899.692 1247.06 899.023C1249.64 889.404 1245.32 879.7 1246.2 869.975C1246.61 865.437 1248.24 861.011 1251.76 858.485C1254.84 856.277 1258.56 855.667 1262.04 854.677C1265.66 853.759 1269.02 851.858 1271.83 849.138C1274.68 846.149 1277.05 842.635 1278.85 838.747C1283.03 830.068 1285.97 820.702 1287.57 810.992C1289.45 799.922 1289.63 788.571 1288.12 777.43C1288.02 776.74 1287.1 777.036 1287.19 777.721Z" fill="white"/>
<path d="M1281.69 831.026C1284.58 832.173 1287.74 832.123 1290.6 830.886C1293.46 829.649 1295.84 827.305 1297.31 824.273C1297.61 823.658 1296.77 823.111 1296.48 823.727C1295.11 826.553 1292.9 828.736 1290.23 829.882C1287.56 831.028 1284.62 831.061 1281.94 829.975C1281.35 829.74 1281.11 830.793 1281.69 831.026Z" fill="white"/>
<path d="M1264.04 853.243C1261.28 846.901 1260.74 839.619 1262.53 832.849C1262.7 832.179 1261.77 831.903 1261.59 832.573C1259.74 839.621 1260.32 847.198 1263.2 853.791C1263.48 854.419 1264.31 853.868 1264.04 853.243Z" fill="white"/>
<path d="M1288.2 800.236C1287 800.055 1285.86 799.541 1284.88 798.74C1283.9 797.938 1283.11 796.875 1282.58 795.645C1282.31 795.013 1281.48 795.564 1281.75 796.192C1282.34 797.548 1283.21 798.722 1284.29 799.61C1285.37 800.498 1286.63 801.074 1287.96 801.287C1288.08 801.319 1288.21 801.297 1288.32 801.225C1288.43 801.153 1288.51 801.037 1288.54 800.9C1288.58 800.761 1288.56 800.613 1288.49 800.488C1288.43 800.364 1288.32 800.273 1288.2 800.236V800.236Z" fill="white"/>
<path d="M1243.63 543.014H1231.37C1231.13 543.015 1230.9 543.124 1230.73 543.315C1230.56 543.506 1230.47 543.765 1230.47 544.036C1230.46 544.19 1230.5 544.342 1230.56 544.477C1230.64 544.65 1230.75 544.797 1230.89 544.9C1231.04 545.003 1231.2 545.058 1231.37 545.058H1243.63C1243.81 545.059 1243.97 545.005 1244.12 544.902C1244.27 544.799 1244.38 544.652 1244.46 544.477C1244.51 544.34 1244.54 544.188 1244.54 544.036C1244.54 543.902 1244.52 543.769 1244.47 543.645C1244.43 543.521 1244.36 543.408 1244.28 543.313C1244.19 543.218 1244.09 543.143 1243.98 543.091C1243.87 543.04 1243.75 543.014 1243.63 543.014Z" fill="white"/>
<path d="M1243.63 546.854H1231.37C1231.13 546.854 1230.9 546.961 1230.73 547.153C1230.56 547.345 1230.47 547.605 1230.47 547.876C1230.47 548.147 1230.56 548.407 1230.73 548.599C1230.9 548.79 1231.13 548.898 1231.37 548.898H1243.63C1243.88 548.898 1244.11 548.79 1244.28 548.599C1244.45 548.407 1244.54 548.147 1244.54 547.876C1244.54 547.605 1244.45 547.345 1244.28 547.153C1244.11 546.961 1243.88 546.854 1243.63 546.854Z" fill="white"/>
<path d="M736.221 540.715C737.77 540.715 739.025 539.299 739.025 537.552C739.025 535.805 737.77 534.389 736.221 534.389C734.671 534.389 733.416 535.805 733.416 537.552C733.416 539.299 734.671 540.715 736.221 540.715Z" fill="white"/>
<path d="M746.867 540.715C748.417 540.715 749.672 539.299 749.672 537.552C749.672 535.805 748.417 534.389 746.867 534.389C745.318 534.389 744.062 535.805 744.062 537.552C744.062 539.299 745.318 540.715 746.867 540.715Z" fill="white"/>
<path d="M757.514 540.715C759.064 540.715 760.319 539.299 760.319 537.552C760.319 535.805 759.064 534.389 757.514 534.389C755.965 534.389 754.709 535.805 754.709 537.552C754.709 539.299 755.965 540.715 757.514 540.715Z" fill="white"/>
<path d="M915.61 676.297C917.159 676.297 918.415 674.881 918.415 673.134C918.415 671.387 917.159 669.971 915.61 669.971C914.061 669.971 912.805 671.387 912.805 673.134C912.805 674.881 914.061 676.297 915.61 676.297Z" fill="white"/>
<path d="M926.257 676.297C927.806 676.297 929.062 674.881 929.062 673.134C929.062 671.387 927.806 669.971 926.257 669.971C924.707 669.971 923.452 671.387 923.452 673.134C923.452 674.881 924.707 676.297 926.257 676.297Z" fill="white"/>
<path d="M936.904 676.297C938.453 676.297 939.709 674.881 939.709 673.134C939.709 671.387 938.453 669.971 936.904 669.971C935.354 669.971 934.099 671.387 934.099 673.134C934.099 674.881 935.354 676.297 936.904 676.297Z" fill="white"/>
<g clip-path="url(#clip1_31_197)">
<path d="M717.679 1026.36H986.372C996.979 1026.36 996.996 1010.1 986.372 1010.1H717.679C707.072 1010.1 707.054 1026.36 717.679 1026.36Z" fill="#E6E6E6"/>
<path d="M645.135 673.137H377.345C374.516 673.14 371.804 674.25 369.804 676.222C367.804 678.194 366.679 680.868 366.675 683.658V736.112C380.033 736.422 388.704 747.29 390.805 760.484V808.037H391.819C391.98 808.038 392.135 808.101 392.249 808.213C392.363 808.326 392.427 808.478 392.428 808.637V833.941C392.427 834.1 392.363 834.252 392.249 834.364C392.135 834.477 391.98 834.54 391.819 834.541H390.805V987.48C390.805 990.84 390.771 996.97 390.771 996.97H645.135C647.964 996.967 650.676 995.857 652.677 993.885C654.677 991.913 655.802 989.239 655.806 986.45V683.658C655.802 680.868 654.677 678.194 652.677 676.222C650.676 674.25 647.964 673.14 645.135 673.137Z" fill="#DA4B29"/>
<path d="M1142.68 500.543V787.568H674.326V661.197C674.321 655.459 672.006 649.957 667.891 645.9C663.776 641.842 658.197 639.56 652.377 639.555H564.541V500.543H1142.68Z" fill="#DA4B29"/>
<path d="M1171.6 828.031H674.849V826.03H1169.57V488.001C1169.56 484.024 1167.96 480.211 1165.11 477.399C1162.26 474.587 1158.39 473.005 1154.35 473H546.801C542.767 473.005 538.9 474.587 536.048 477.399C533.196 480.211 531.591 484.024 531.587 488.001V638.258H529.558V488.001C529.563 483.494 531.382 479.173 534.614 475.985C537.847 472.798 542.229 471.005 546.801 471H1154.35C1158.93 471.005 1163.31 472.798 1166.54 475.985C1169.77 479.172 1171.59 483.494 1171.6 488.001V828.031Z" fill="#3F3D56"/>
<path d="M1124.53 889.037H674.849V887.036H1124.53C1136.47 887.023 1147.92 882.34 1156.36 874.015C1164.81 865.689 1169.55 854.401 1169.57 842.627V828.031H674.849V826.031H1171.6V842.627C1171.58 854.932 1166.62 866.728 1157.8 875.428C1148.97 884.129 1137.01 889.023 1124.53 889.037Z" fill="#3F3D56"/>
<path d="M991.072 987.044C966.004 963.31 949.514 932.342 944.212 889.035H759.458C757.578 929.552 741.192 959.938 711.634 986.937L708.511 987.044C739.007 959.794 755.804 929.185 757.473 887.995L757.511 887.035H946.016L946.121 887.92C951.327 931.96 968.163 963.127 993.849 986.884L991.072 987.044Z" fill="#3F3D56"/>
<path d="M651.887 1028.42H367.282V1026.42H651.887C657.706 1026.41 663.284 1024.13 667.399 1020.07C671.514 1016.02 673.828 1010.52 673.835 1004.78V661.655C673.828 655.917 671.514 650.417 667.399 646.36C663.284 642.302 657.706 640.02 651.887 640.014H367.282C361.463 640.02 355.884 642.302 351.77 646.36C347.655 650.417 345.341 655.917 345.334 661.655V735.703H343.306V661.655C343.313 655.387 345.841 649.378 350.336 644.946C354.831 640.514 360.925 638.021 367.282 638.014H651.887C658.243 638.021 664.338 640.514 668.833 644.946C673.328 649.378 675.856 655.387 675.863 661.655V1004.78C675.856 1011.05 673.328 1017.06 668.833 1021.49C664.338 1025.92 658.243 1028.41 651.887 1028.42Z" fill="#3F3D56"/>
<path d="M509.584 663.319C508.224 663.319 506.894 662.921 505.763 662.176C504.632 661.431 503.751 660.372 503.23 659.133C502.71 657.894 502.573 656.53 502.839 655.215C503.104 653.899 503.759 652.691 504.721 651.742C505.683 650.794 506.908 650.148 508.243 649.886C509.577 649.625 510.96 649.759 512.216 650.272C513.473 650.785 514.547 651.654 515.303 652.77C516.059 653.885 516.462 655.196 516.462 656.537C516.46 658.335 515.735 660.059 514.446 661.33C513.156 662.602 511.408 663.317 509.584 663.319ZM509.584 651.323C508.539 651.323 507.516 651.629 506.646 652.202C505.777 652.775 505.099 653.589 504.699 654.542C504.299 655.495 504.194 656.543 504.398 657.555C504.602 658.566 505.106 659.495 505.845 660.224C506.585 660.954 507.527 661.45 508.553 661.651C509.579 661.853 510.642 661.749 511.608 661.355C512.574 660.96 513.4 660.292 513.981 659.434C514.562 658.577 514.873 657.569 514.873 656.537C514.871 655.155 514.313 653.83 513.322 652.852C512.33 651.875 510.986 651.325 509.584 651.323Z" fill="#3F3D56"/>
<path d="M509.585 1020.75C507.849 1020.75 506.152 1020.25 504.709 1019.3C503.266 1018.34 502.141 1016.99 501.477 1015.41C500.812 1013.83 500.639 1012.09 500.977 1010.41C501.316 1008.73 502.152 1007.19 503.379 1005.98C504.606 1004.77 506.17 1003.95 507.872 1003.61C509.575 1003.28 511.339 1003.45 512.943 1004.11C514.547 1004.76 515.917 1005.87 516.882 1007.29C517.846 1008.72 518.361 1010.39 518.361 1012.1C518.358 1014.39 517.433 1016.59 515.788 1018.22C514.142 1019.84 511.911 1020.75 509.585 1020.75ZM509.585 1005.45C508.25 1005.45 506.946 1005.84 505.836 1006.57C504.726 1007.3 503.861 1008.34 503.351 1009.55C502.84 1010.77 502.706 1012.11 502.967 1013.4C503.227 1014.69 503.87 1015.87 504.814 1016.81C505.757 1017.74 506.96 1018.37 508.268 1018.63C509.577 1018.88 510.934 1018.75 512.167 1018.25C513.4 1017.74 514.454 1016.89 515.195 1015.8C515.937 1014.7 516.332 1013.42 516.332 1012.1C516.33 1010.34 515.619 1008.65 514.354 1007.4C513.089 1006.15 511.374 1005.45 509.585 1005.45Z" fill="#3F3D56"/>
<path d="M364.424 1029H270.212C263.12 1028.99 256.32 1026.21 251.305 1021.26C246.29 1016.32 243.469 1009.62 243.461 1002.62V762.08C243.469 755.087 246.29 748.382 251.305 743.437C256.32 738.493 263.12 735.711 270.212 735.703H364.424C371.517 735.711 378.316 738.493 383.331 743.437C388.347 748.382 391.168 755.087 391.176 762.08V805.126C391.656 805.324 392.066 805.657 392.355 806.085C392.644 806.512 392.798 807.013 392.799 807.527L392.799 835.536C392.798 836.049 392.644 836.551 392.355 836.978C392.066 837.405 391.656 837.739 391.176 837.937V1002.62C391.167 1009.62 388.346 1016.32 383.331 1021.26C378.316 1026.21 371.517 1028.99 364.424 1029ZM270.212 737.703C263.658 737.711 257.374 740.281 252.739 744.851C248.104 749.421 245.497 755.617 245.489 762.08V1002.62C245.497 1009.08 248.104 1015.28 252.739 1019.85C257.374 1024.42 263.658 1026.99 270.212 1027H364.424C370.979 1026.99 377.263 1024.42 381.898 1019.85C386.532 1015.28 389.139 1009.09 389.147 1002.62V836.136H390.161C390.323 836.136 390.477 836.073 390.592 835.96C390.706 835.848 390.77 835.695 390.77 835.536L390.77 807.527C390.77 807.367 390.706 807.215 390.592 807.102C390.478 806.99 390.323 806.926 390.161 806.926H389.147V762.08C389.14 755.617 386.532 749.421 381.898 744.851C377.263 740.281 370.979 737.711 364.424 737.703H270.212Z" fill="#3F3D56"/>
<path d="M365.463 743.307H353.165C353.731 744.674 353.947 746.157 353.794 747.626C353.641 749.095 353.124 750.504 352.289 751.729C351.454 752.955 350.326 753.959 349.004 754.653C347.683 755.347 346.208 755.711 344.711 755.711H290.738C289.24 755.711 287.766 755.347 286.445 754.653C285.123 753.959 283.995 752.955 283.16 751.729C282.324 750.504 281.808 749.095 281.655 747.626C281.502 746.157 281.718 744.674 282.283 743.307H270.797C265.7 743.307 260.811 745.303 257.207 748.857C253.602 752.411 251.577 757.232 251.577 762.258V1002.45C251.577 1007.47 253.602 1012.29 257.207 1015.85C260.811 1019.4 265.7 1021.4 270.797 1021.4H365.463C370.561 1021.4 375.449 1019.4 379.054 1015.85C382.658 1012.29 384.683 1007.47 384.683 1002.45V762.258C384.683 757.232 382.658 752.411 379.054 748.857C375.449 745.303 370.56 743.307 365.463 743.307Z" fill="#DA4B29"/>
<path d="M1380.79 1028.61H119.208C119.049 1028.61 118.891 1028.58 118.744 1028.52C118.597 1028.46 118.464 1028.37 118.351 1028.26C118.239 1028.15 118.149 1028.02 118.088 1027.87C118.027 1027.73 117.996 1027.57 117.996 1027.42C117.996 1027.26 118.027 1027.11 118.088 1026.96C118.149 1026.82 118.239 1026.68 118.351 1026.57C118.464 1026.46 118.597 1026.38 118.744 1026.32C118.891 1026.26 119.049 1026.23 119.208 1026.23H1380.79C1380.95 1026.23 1381.11 1026.26 1381.26 1026.32C1381.4 1026.38 1381.54 1026.46 1381.65 1026.57C1381.76 1026.68 1381.85 1026.82 1381.91 1026.96C1381.97 1027.11 1382 1027.26 1382 1027.42C1382 1027.57 1381.97 1027.73 1381.91 1027.87C1381.85 1028.02 1381.76 1028.15 1381.65 1028.26C1381.54 1028.37 1381.4 1028.46 1381.26 1028.52C1381.11 1028.58 1380.95 1028.61 1380.79 1028.61Z" fill="#3F3D56"/>
<path d="M991.699 1028.05H710.743C707.945 1028.05 705.173 1027.51 702.587 1026.45C700.001 1025.4 697.651 1023.85 695.671 1021.9C693.691 1019.95 692.121 1017.64 691.049 1015.09C689.978 1012.54 689.426 1009.81 689.426 1007.05C689.426 1004.29 689.978 1001.56 691.049 999.006C692.121 996.457 693.691 994.141 695.671 992.19C697.651 990.24 700.001 988.693 702.587 987.639C705.173 986.584 707.945 986.043 710.743 986.045H991.699C997.345 986.049 1002.76 988.264 1006.75 992.202C1010.74 996.14 1012.98 1001.48 1012.98 1007.05C1012.98 1012.61 1010.74 1017.95 1006.75 1021.89C1002.76 1025.83 997.345 1028.04 991.699 1028.05ZM710.743 988.045C705.632 988.045 700.73 990.047 697.116 993.611C693.502 997.174 691.472 1002.01 691.472 1007.05C691.472 1012.09 693.502 1016.92 697.116 1020.48C700.73 1024.05 705.632 1026.05 710.743 1026.05H991.699C996.81 1026.05 1001.71 1024.05 1005.33 1020.48C1008.94 1016.92 1010.97 1012.09 1010.97 1007.05C1010.97 1002.01 1008.94 997.174 1005.33 993.611C1001.71 990.047 996.81 988.045 991.699 988.045H710.743Z" fill="#3F3D56"/>
<path d="M1195.7 868.142L1203.57 884.364L1270.77 862.158L1259.16 838.217L1195.7 868.142Z" fill="#FFB8B8"/>
<path d="M1203.47 922.852L1178.74 871.871L1198.72 862.45L1214.62 895.24C1216.96 900.064 1217.26 905.608 1215.46 910.651C1213.65 915.694 1209.89 919.824 1205 922.131L1203.47 922.852Z" fill="#2F2E41"/>
<path d="M1179.86 1013L1198.09 1012.39L1198.85 942.441L1177.49 943.685L1179.86 1013Z" fill="#FFB8B8"/>
<path d="M1233.45 1028.87H1176.14V1007.04H1213C1218.42 1007.04 1223.62 1009.16 1227.46 1012.94C1231.3 1016.72 1233.45 1021.85 1233.45 1027.2V1028.87Z" fill="#2F2E41"/>
<path d="M1181.36 1002.49C1179.83 1002.49 1178.35 1001.99 1177.14 1001.06C1175.94 1000.13 1175.09 998.828 1174.72 997.364C1164.74 957.811 1127.59 758.517 1160.44 719.375L1160.73 719.034L1161.16 718.925C1163.47 718.35 1206.94 705.078 1232.45 725.794L1232.75 726.036L1246.95 766.556L1285.22 822.572C1287.31 825.64 1288.76 829.091 1289.48 832.721C1290.2 836.352 1290.17 840.087 1289.4 843.707C1288.62 847.326 1287.12 850.756 1284.98 853.792C1282.84 856.829 1280.1 859.411 1276.93 861.385L1226.67 892.654C1225.46 893.377 1224.05 893.712 1222.63 893.614C1221.22 893.516 1219.87 892.989 1218.77 892.105C1217.85 891.352 1217.14 890.376 1216.71 889.272L1206.15 863.238C1205.52 861.66 1205.51 859.907 1206.12 858.321C1206.73 856.736 1207.92 855.432 1209.45 854.665L1233 843.057C1233.64 842.707 1234.2 842.222 1234.64 841.636C1235.07 841.05 1235.37 840.378 1235.51 839.666C1235.58 839.022 1235.48 838.372 1235.24 837.772C1234.99 837.172 1234.6 836.64 1234.1 836.221L1206.77 812.989C1206.16 812.473 1205.41 812.142 1204.62 812.038C1203.82 811.935 1203.01 812.062 1202.29 812.405C1201.57 812.748 1200.96 813.292 1200.55 813.97C1200.13 814.647 1199.93 815.429 1199.96 816.22L1206.73 992.583C1206.8 994.239 1206.24 995.86 1205.18 997.14C1204.11 998.42 1202.6 999.27 1200.94 999.529L1182.46 1002.41C1182.09 1002.46 1181.73 1002.49 1181.36 1002.49Z" fill="#2F2E41"/>
<path d="M1228.51 732.983C1228.35 732.983 1228.2 732.978 1228.04 732.966L1159.88 727.988C1158.93 727.92 1158.02 727.638 1157.2 727.164C1156.38 726.69 1155.69 726.037 1155.17 725.255C1154.65 724.472 1154.32 723.583 1154.2 722.654C1154.09 721.726 1154.19 720.784 1154.5 719.901C1158.7 707.982 1159.21 695.105 1155.98 682.898C1151.54 665.639 1151.44 633.548 1151.77 615.956C1151.85 612.973 1153.06 610.129 1155.17 607.989C1157.28 605.85 1160.13 604.572 1163.15 604.412L1163.15 604.389L1164.52 604.405C1175.62 604.559 1196 605.34 1212.67 608.76C1218.29 609.907 1223.35 612.906 1227.01 617.264C1230.67 621.621 1232.72 627.078 1232.81 632.735C1233.19 649.068 1233.25 671.176 1231.37 683.743C1229.78 694.345 1232.71 714.705 1234.6 725.898C1234.74 726.77 1234.69 727.662 1234.46 728.514C1234.22 729.365 1233.79 730.156 1233.21 730.83C1232.64 731.504 1231.91 732.046 1231.1 732.417C1230.29 732.789 1229.4 732.982 1228.51 732.983H1228.51Z" fill="#3F3D56"/>
<path d="M1252.84 797.049C1251.02 796.191 1249.42 794.952 1248.14 793.418C1246.87 791.883 1245.95 790.091 1245.45 788.168C1244.95 786.245 1244.88 784.237 1245.26 782.286C1245.63 780.336 1246.43 778.489 1247.61 776.877L1216.12 643.025H1239.92L1267.71 774.239C1270.32 776.365 1272.06 779.363 1272.58 782.665C1273.11 785.967 1272.38 789.344 1270.55 792.155C1268.72 794.967 1265.9 797.018 1262.64 797.92C1259.37 798.822 1255.89 798.512 1252.84 797.049H1252.84Z" fill="#FFB8B8"/>
<path d="M1103.75 657.524L1141.44 622.371L1155.63 641.971L1120.14 672.772L1166.69 709.222C1167.03 709.2 1167.36 709.172 1167.7 709.172C1170.57 709.169 1173.37 709.98 1175.78 711.508C1178.19 713.036 1180.1 715.216 1181.29 717.787C1182.48 720.358 1182.89 723.212 1182.47 726.006C1182.05 728.801 1180.83 731.418 1178.94 733.545C1177.06 735.672 1174.59 737.218 1171.84 737.999C1169.09 738.78 1166.16 738.762 1163.42 737.948C1160.68 737.134 1158.23 735.558 1156.37 733.408C1154.51 731.259 1153.32 728.627 1152.94 725.827L1152.8 725.972L1104.34 684.569C1102.39 682.9 1100.81 680.846 1099.71 678.539C1098.62 676.233 1098.02 673.725 1097.96 671.177C1097.91 668.629 1098.39 666.098 1099.39 663.747C1100.38 661.395 1101.87 659.276 1103.75 657.524Z" fill="#FFB8B8"/>
<path d="M1218.63 651.603C1217.47 651.606 1216.33 651.283 1215.34 650.67C1214.35 650.058 1213.57 649.181 1213.07 648.144C1210.06 641.892 1208 635.244 1206.93 628.408C1205.29 617.241 1213.17 610.598 1221.18 609.151C1228.97 607.743 1238.46 611.12 1240.88 621.86C1241.08 622.769 1241.24 623.688 1241.35 624.613C1242.32 632.754 1243.24 639.086 1244.07 643.434C1244.23 644.289 1244.21 645.169 1244 646.014C1243.78 646.858 1243.39 647.649 1242.85 648.331C1242.3 649.014 1241.61 649.574 1240.83 649.972C1240.04 650.371 1239.18 650.599 1238.3 650.641L1218.95 651.595C1218.84 651.6 1218.74 651.603 1218.63 651.603Z" fill="#3F3D56"/>
<path d="M1191.65 592.883C1214.41 592.883 1232.86 574.69 1232.86 552.247C1232.86 529.805 1214.41 511.611 1191.65 511.611C1168.89 511.611 1150.43 529.805 1150.43 552.247C1150.43 574.69 1168.89 592.883 1191.65 592.883Z" fill="#2F2E41"/>
<path d="M1191.9 596.063C1210.53 596.063 1225.64 581.168 1225.64 562.794C1225.64 544.42 1210.53 529.525 1191.9 529.525C1173.26 529.525 1158.15 544.42 1158.15 562.794C1158.15 581.168 1173.26 596.063 1191.9 596.063Z" fill="#FFB8B8"/>
<path d="M1132.01 635.412C1131.15 634.638 1130.53 633.639 1130.22 632.531C1129.91 631.422 1129.93 630.251 1130.28 629.153C1132.35 622.544 1135.38 616.265 1139.27 610.514C1145.72 601.193 1156.08 601.541 1162.97 605.81C1169.68 609.961 1174.36 618.772 1168.79 628.306C1168.32 629.112 1167.81 629.894 1167.25 630.648C1162.39 637.298 1158.72 642.575 1156.36 646.334C1155.89 647.073 1155.27 647.705 1154.54 648.187C1153.8 648.67 1152.97 648.991 1152.1 649.131C1151.23 649.27 1150.34 649.224 1149.49 648.995C1148.64 648.766 1147.85 648.36 1147.17 647.805L1132.25 635.616C1132.17 635.55 1132.09 635.482 1132.01 635.412Z" fill="#3F3D56"/>
<path d="M1183.64 515.956C1175.35 511.077 1173.55 498.927 1178.49 490.745C1183.43 482.564 1193.42 478.296 1203.07 478.015C1216.86 477.613 1230.18 484.383 1239.83 494.1C1249.48 503.817 1255.85 516.256 1260.7 528.988C1265.55 541.72 1269.04 554.925 1273.82 567.682C1276.27 574.229 1279.3 580.951 1284.91 585.202C1290.52 589.453 1299.45 590.22 1304.25 585.09C1304.23 593.3 1297.85 600.763 1289.93 603.305C1282.01 605.847 1273.05 603.927 1266.11 599.392C1254.07 591.524 1248.26 577.162 1244.94 563.302C1241.61 549.441 1239.98 534.917 1233.3 522.29C1230.53 517.058 1226.73 512.088 1221.4 509.418C1216.06 506.749 1208.95 506.924 1204.66 511.035C1202.67 512.939 1201.38 515.536 1199.12 517.123C1197.69 518.004 1196.08 518.551 1194.41 518.723C1192.73 518.895 1191.04 518.687 1189.46 518.116C1186.31 516.948 1183.36 515.307 1180.72 513.253" fill="#2F2E41"/>
<path d="M1156.66 540.316C1159.91 544.627 1164.01 548.245 1168.72 550.95C1173.43 553.656 1178.64 555.393 1184.05 556.059C1189.45 556.724 1194.94 556.304 1200.18 554.822C1205.42 553.34 1210.3 550.829 1214.52 547.438C1217.8 544.81 1220.84 541.188 1220.64 537.029C1220.43 532.768 1216.89 529.422 1213.29 527.066C1203.8 520.918 1192.39 518.333 1181.14 519.782C1174.71 520.633 1168.27 522.941 1163.72 527.492C1159.18 532.043 1156.91 539.121 1159.26 545.077" fill="#2F2E41"/>
<path d="M296.534 656.535C329.402 623.668 329.402 570.379 296.534 537.512C263.667 504.645 210.379 504.645 177.512 537.512C144.644 570.379 144.644 623.668 177.511 656.535C210.379 689.402 263.667 689.402 296.534 656.535Z" fill="#DA4B29"/>
<path d="M242.89 627.634L210 605.322L212.872 601.091L240.101 619.564L259.781 558L264.649 559.556L242.89 627.634Z" fill="white"/>
<circle cx="1177" cy="568" r="4" fill="#2F2E41"/>
<circle cx="1207" cy="568" r="4" fill="#2F2E41"/>
</g>
</g>
<defs>
<clipPath id="clip0_31_197">
<rect width="1500" height="1500" fill="white"/>
</clipPath>
<clipPath id="clip1_31_197">
<rect width="1264" height="558" fill="white" transform="translate(118 471)"/>
</clipPath>
</defs>
</svg>
