<svg xmlns="http://www.w3.org/2000/svg" xmlns:xlink="http://www.w3.org/1999/xlink" width="1500" height="1500" viewBox="0 0 1500 1500">
  <defs>
    <clipPath id="clip-undraw_add_to_cart_re_wrdo">
      <rect width="1500" height="1500"/>
    </clipPath>
  </defs>
  <g id="undraw_add_to_cart_re_wrdo" clip-path="url(#clip-undraw_add_to_cart_re_wrdo)">
    <rect width="1500" height="1500" fill="#fff"/>
    <g id="undraw_add_to_cart_re_wrdo-2" data-name="undraw_add_to_cart_re_wrdo">
      <rect id="Rectangle_2123" data-name="Rectangle 2123" width="1500" height="1500" fill="#fff" opacity="0"/>
      <path id="Path_14820" data-name="Path 14820" d="M1284.01,398.254H214.988A6,6,0,0,1,209,392.259V356.995A6,6,0,0,1,214.988,351H1284.01a6.006,6.006,0,0,1,5.99,5.995v35.264a6,6,0,0,1-5.99,5.995Z" fill="#c0dc50"/>
      <path id="Path_14821" data-name="Path 14821" d="M243.75,381.419a8.512,8.512,0,1,0-8.5-8.511A8.506,8.506,0,0,0,243.75,381.419Z" fill="#fff"/>
      <path id="Path_14822" data-name="Path 14822" d="M276.019,381.419a8.512,8.512,0,1,0-8.5-8.511A8.506,8.506,0,0,0,276.019,381.419Z" fill="#fff"/>
      <path id="Path_14823" data-name="Path 14823" d="M308.289,381.419a8.512,8.512,0,1,0-8.5-8.511A8.506,8.506,0,0,0,308.289,381.419Z" fill="#fff"/>
      <path id="Path_14824" data-name="Path 14824" d="M1252.4,367.049h-37.16a2.756,2.756,0,0,1,0-5.512h37.16a2.757,2.757,0,0,1,2.75,2.751,2.752,2.752,0,0,1-2.74,2.761Z" fill="#fff"/>
      <path id="Path_14825" data-name="Path 14825" d="M1252.4,377.383h-37.16a2.756,2.756,0,0,1,0-5.512h37.16a2.757,2.757,0,0,1,2.75,2.751,2.752,2.752,0,0,1-2.74,2.761Z" fill="#fff"/>
      <path id="Path_14826" data-name="Path 14826" d="M1252.4,387.717h-37.16a2.756,2.756,0,1,1,0-5.512h37.16a2.756,2.756,0,0,1,.01,5.512Z" fill="#fff"/>
      <path id="Path_14827" data-name="Path 14827" d="M513.818,1051.76c3.934-31.67,23.537-62.872,53.7-73.178a147.193,147.193,0,0,0,.007,100.948c4.635,12.55,11.1,26.03,6.736,38.69-2.712,7.87-9.349,13.89-16.768,17.66s-15.652,5.56-23.783,7.32l-1.6,1.32C519.207,1115.34,509.884,1083.43,513.818,1051.76Z" fill="#5a587c"/>
      <path id="Path_14828" data-name="Path 14828" d="M567.821,979.18a125.764,125.764,0,0,0-31.2,70.73,54.2,54.2,0,0,0,.615,16.95,31.021,31.021,0,0,0,7.711,14.39c3.475,3.83,7.472,7.33,9.959,11.94a19.006,19.006,0,0,1,.928,15.51c-2.2,6.31-6.523,11.44-10.929,16.32-4.892,5.42-10.06,10.97-12.139,18.15-.252.87-1.586.42-1.334-.44,3.618-12.5,15.731-19.59,21.507-30.84,2.7-5.26,3.827-11.35,1.3-16.89-2.21-4.85-6.328-8.47-9.881-12.31a33.131,33.131,0,0,1-8.063-13.8,50.051,50.051,0,0,1-1.264-16.86,122.04,122.04,0,0,1,8.9-37.05,127.994,127.994,0,0,1,22.971-36.854c.6-.674,1.526.386.929,1.055Z" fill="#fff"/>
      <path id="Path_14829" data-name="Path 14829" d="M536.994,1041.4a18.854,18.854,0,0,1-14.335-19.75.681.681,0,0,1,.238-.47.7.7,0,0,1,.5-.18.7.7,0,0,1,.668.72,17.46,17.46,0,0,0,13.373,18.34C538.314,1040.27,537.869,1041.61,536.994,1041.4Z" fill="#fff"/>
      <path id="Path_14830" data-name="Path 14830" d="M542.924,1079.55a36.341,36.341,0,0,0,16.21-20.93c.255-.87,1.589-.43,1.334.44a37.787,37.787,0,0,1-16.912,21.74C542.777,1081.26,542.15,1080.01,542.924,1079.55Z" fill="#fff"/>
      <path id="Path_14831" data-name="Path 14831" d="M550.726,1002.81a10.62,10.62,0,0,0,10.1-.52c.773-.47,1.4.79.632,1.26a11.9,11.9,0,0,1-11.175.59.723.723,0,0,1-.4-.35.749.749,0,0,1-.048-.54.7.7,0,0,1,.352-.4A.669.669,0,0,1,550.726,1002.81Z" fill="#fff"/>
      <path id="Path_14832" data-name="Path 14832" d="M659.474,1035.14c-.474.31-.948.62-1.423.94a141.608,141.608,0,0,0-17.95,14.03c-.439.4-.878.8-1.3,1.2a148.335,148.335,0,0,0-32.143,44.05,144.077,144.077,0,0,0-7.873,20.4c-2.905,9.65-5.288,20.34-11.038,28.24a24.707,24.707,0,0,1-1.921,2.37H533.853c-.118-.06-.237-.1-.355-.16l-2.075.09c.083-.37.178-.75.261-1.11.047-.22.107-.43.154-.65.035-.14.071-.28.095-.41.012-.05.024-.1.035-.13.024-.13.06-.25.084-.37.521-2.12,1.059-4.25,1.612-6.37,0-.02,0-.02.012-.03a211.674,211.674,0,0,1,17.784-46.74c.238-.44.475-.89.736-1.33a136.776,136.776,0,0,1,12.319-18.71,120.2,120.2,0,0,1,8.074-9.25,100.8,100.8,0,0,1,25.231-18.92c18.639-9.85,40.217-13.63,60.137-7.61C658.466,1034.82,658.965,1034.98,659.474,1035.14Z" fill="#5a587c"/>
      <path id="Path_14833" data-name="Path 14833" d="M659.357,1035.81a125.437,125.437,0,0,0-67.449,37.66,54.132,54.132,0,0,0-9.7,13.9,31.077,31.077,0,0,0-2.5,16.14c.476,5.15,1.558,10.36.776,15.53a18.975,18.975,0,0,1-8.59,12.95c-5.544,3.71-12.089,5.21-18.541,6.45-7.163,1.37-14.625,2.69-20.6,7.17-.725.54-1.524-.62-.8-1.16,10.4-7.79,24.34-6.16,35.718-11.66,5.31-2.57,9.879-6.75,11.194-12.7,1.15-5.2.039-10.58-.488-15.78a33.155,33.155,0,0,1,1.858-15.88,50.117,50.117,0,0,1,9.13-14.22,121.912,121.912,0,0,1,29.383-24.23,128.012,128.012,0,0,1,40.505-15.58c.885-.17.987,1.23.108,1.41Z" fill="#fff"/>
      <path id="Path_14834" data-name="Path 14834" d="M597.328,1066.9a18.869,18.869,0,0,1,.432-24.41c.6-.68,1.679.22,1.078.9a17.479,17.479,0,0,0-.355,22.71C599.059,1066.8,597.9,1067.6,597.328,1066.9Z" fill="#fff"/>
      <path id="Path_14835" data-name="Path 14835" d="M579.123,1100.93a36.216,36.216,0,0,0,25.528-6.94c.727-.54,1.526.62.8,1.16a37.76,37.76,0,0,1-26.579,7.17C577.971,1102.22,578.227,1100.83,579.123,1100.93Z" fill="#fff"/>
      <path id="Path_14836" data-name="Path 14836" d="M631.5,1044.37a10.705,10.705,0,0,0,8.375,5.68c.9.08.644,1.47-.251,1.38a11.972,11.972,0,0,1-9.279-6.26.75.75,0,0,1-.1-.53.724.724,0,0,1,.282-.45.657.657,0,0,1,.525-.11.667.667,0,0,1,.453.29Z" fill="#fff"/>
      <path id="Path_14837" data-name="Path 14837" d="M559.384,596.881H387.451a20.074,20.074,0,0,1-20.04-20.064V483.063A20.074,20.074,0,0,1,387.451,463H559.384a20.074,20.074,0,0,1,20.04,20.063v93.754a20.074,20.074,0,0,1-20.04,20.064Z" fill="#f1e6e6"/>
      <path id="Path_14838" data-name="Path 14838" d="M821.876,596.881H649.943a20.074,20.074,0,0,1-20.04-20.064V483.063A20.074,20.074,0,0,1,649.943,463H821.876a20.074,20.074,0,0,1,20.04,20.063v93.754a20.074,20.074,0,0,1-20.04,20.064Z" fill="#c0dc50"/>
      <path id="Path_14839" data-name="Path 14839" d="M1084.37,596.881H912.435A20.074,20.074,0,0,1,892.4,576.817V483.063A20.074,20.074,0,0,1,912.435,463H1084.37a20.081,20.081,0,0,1,20.04,20.063v93.754a20.081,20.081,0,0,1-20.04,20.064Z" fill="#f1e6e6"/>
      <path id="Path_14840" data-name="Path 14840" d="M559.384,805.776H387.451a20.076,20.076,0,0,1-20.04-20.065V691.958a20.072,20.072,0,0,1,20.04-20.063H559.384a20.072,20.072,0,0,1,20.04,20.062v93.754a20.076,20.076,0,0,1-20.04,20.065Z" fill="rgba(90,88,124,0.32)"/>
      <path id="Path_14841" data-name="Path 14841" d="M821.876,805.776H649.943a20.076,20.076,0,0,1-20.04-20.065V691.958a20.072,20.072,0,0,1,20.04-20.063H821.876a20.072,20.072,0,0,1,20.04,20.062v93.754a20.076,20.076,0,0,1-20.04,20.065Z" fill="#f1e6e6"/>
      <path id="Path_14842" data-name="Path 14842" d="M834.016,823.027a30.744,30.744,0,1,0-30.707-30.744A30.725,30.725,0,0,0,834.016,823.027Z" fill="#c0dc50"/>
      <path id="Path_14843" data-name="Path 14843" d="M846.768,789.7H836.327V779.249a2.456,2.456,0,0,0-2.456-2.46h0a2.45,2.45,0,0,0-1.737.721,2.436,2.436,0,0,0-.533.8,2.477,2.477,0,0,0-.187.942V789.7H820.973a2.458,2.458,0,0,0-2.456,2.459h0a2.456,2.456,0,0,0,2.456,2.46h10.441v10.453a2.477,2.477,0,0,0,.187.942,2.456,2.456,0,0,0,2.27,1.518h0a2.46,2.46,0,0,0,2.457-2.46V794.621h10.44a2.454,2.454,0,0,0,1.737-.72,2.459,2.459,0,0,0,.72-1.74h0a2.46,2.46,0,0,0-1.517-2.272,2.445,2.445,0,0,0-.94-.187Z" fill="#fff"/>
      <path id="Path_14844" data-name="Path 14844" d="M1100.55,619.524a30.745,30.745,0,1,0-30.71-30.745A30.719,30.719,0,0,0,1100.55,619.524Z" fill="#c0dc50"/>
      <path id="Path_14845" data-name="Path 14845" d="M1113.3,586.2h-10.44V575.745a2.529,2.529,0,0,0-.19-.941,2.362,2.362,0,0,0-.53-.8,2.464,2.464,0,0,0-1.74-.721h0a2.464,2.464,0,0,0-1.74.721,2.494,2.494,0,0,0-.72,1.739V586.2H1087.5a2.462,2.462,0,0,0-.94.187,2.437,2.437,0,0,0-.79.533,2.57,2.57,0,0,0-.54.8,2.528,2.528,0,0,0-.18.942h0a2.523,2.523,0,0,0,.18.941,2.57,2.57,0,0,0,.54.8,2.437,2.437,0,0,0,.79.533,2.462,2.462,0,0,0,.94.187h10.44V601.57a2.493,2.493,0,0,0,.72,1.74,2.468,2.468,0,0,0,1.74.72h0a2.458,2.458,0,0,0,2.46-2.46V591.117h10.44a2.469,2.469,0,0,0,1.74-.72,2.725,2.725,0,0,0,.53-.8,2.539,2.539,0,0,0,.19-.942h0a2.533,2.533,0,0,0-.19-.941,2.725,2.725,0,0,0-.53-.8,2.469,2.469,0,0,0-1.74-.72Z" fill="#fff"/>
      <path id="Path_14846" data-name="Path 14846" d="M571.524,616.828a30.744,30.744,0,1,0-30.708-30.744A30.725,30.725,0,0,0,571.524,616.828Z" fill="#c0dc50"/>
      <path id="Path_14847" data-name="Path 14847" d="M584.276,583.5H573.835V573.05a2.456,2.456,0,0,0-2.456-2.46h0a2.454,2.454,0,0,0-.941.187,2.46,2.46,0,0,0-1.516,2.273h0V583.5H558.481a2.459,2.459,0,0,0-2.457,2.459h0a2.458,2.458,0,0,0,2.457,2.46h10.441v10.453a2.459,2.459,0,0,0,2.457,2.46h0a2.46,2.46,0,0,0,2.456-2.46V588.422h10.441a2.46,2.46,0,0,0,2.457-2.46h0a2.46,2.46,0,0,0-2.457-2.46h0Z" fill="#fff"/>
      <path id="Path_14848" data-name="Path 14848" d="M801.428,543.615a12.219,12.219,0,0,1-9.855,15.936l-14.2,97.036L754.082,645.2l23.427-96.86a12.274,12.274,0,0,1,23.919-4.722Z" fill="#d6babe"/>
      <path id="Path_14849" data-name="Path 14849" d="M631.835,854.4a12.229,12.229,0,0,0-4.7-18.143l9.579-103.216-20.063,10.3-6.265,99.462a12.277,12.277,0,0,0,21.45,11.6Z" fill="#d6babe"/>
      <path id="Path_14850" data-name="Path 14850" d="M645.542,802.191l86.1-3.316,4.967-89.516H637.264Z" fill="#d6babe"/>
      <path id="Path_14851" data-name="Path 14851" d="M629.562,1118.32h14.713l7-56.81H629.56Z" fill="#d6babe"/>
      <path id="Path_14852" data-name="Path 14852" d="M625.913,1111.06l23.258-1.39v9.97l22.112,15.29a6.231,6.231,0,0,1-3.537,11.36H640.057l-4.773-9.86-1.864,9.86H622.98Z" fill="#5a587c"/>
      <path id="Path_14853" data-name="Path 14853" d="M695,1118.32h14.713l7-56.81H695Z" fill="#d6babe"/>
      <path id="Path_14854" data-name="Path 14854" d="M644.347,781.177s-25.761,20.823-11.8,95.186c-2.126.254.282,4.451.282,4.451l2.015,60.592,1.557,6.945-5.177,11.205,2.134,12.176-6.58,110.5,24.307,3.15L674.35,970.631l4.43-12.9,4.444-11.308-2.4-12.059,1.966-18.717L696.2,852.534l3.283,109.458-4.581,10.45,2.55,11.471L691.774,990,689.53,1092.41l25.918,1.22,21.445-103.24-1.662-13.175,2.853-9.741V944.721l4.886-10.739,10.653-58.554s3.214-45.766-20.234-99.621Z" fill="#5a587c"/>
      <path id="Path_14855" data-name="Path 14855" d="M654.846,634.963s-32.538,6.443-38.144,34.224-9.214,90.651-9.214,90.651l1.228,8.755,31.475,7.307,20.088-88.09Z" fill="#c0dc50"/>
      <path id="Path_14856" data-name="Path 14856" d="M729.1,644.34s3.3-4.627,21.768-5.341c.76-.029-.181-1.54-.181-1.54l8.882-43.467,29.6,16.409-5,45.57-48.642,55.391Z" fill="#c0dc50"/>
      <path id="Path_14857" data-name="Path 14857" d="M710.651,773.923c-13.936,0-34.913-1.538-66.492-6.232a9.651,9.651,0,0,1-8.1-8.085,7.319,7.319,0,0,1-1.226-8.3l.029-.058-.715-.844a7.824,7.824,0,0,1-.521-9.449l-9.78-70.047a29.51,29.51,0,0,1,20.5-32.374l3.611-1.125,13.652-17.88.27,0,43.83.585L719.935,638.2l22.993,5.428.059.35,5.339,30.881c2.777,16.062-3.591,22.38-11.719,36.505l2.386,39.669L740.075,753a5.34,5.34,0,0,1-1.276,6.7,10.4,10.4,0,0,1,.141,6.432l-.562,1.861c0,.053-.149.81-1.363,1.733C734.826,771.385,728.541,773.923,710.651,773.923Z" fill="#c0dc50"/>
      <path id="Path_14858" data-name="Path 14858" d="M691.353,1111.06l23.257-1.39v9.97l22.112,15.29a6.231,6.231,0,0,1-3.537,11.36H705.5l-4.773-9.86-1.863,9.86H688.42Z" fill="#5a587c"/>
      <path id="Path_14859" data-name="Path 14859" d="M715.781,580.565a34.363,34.363,0,1,0-39.423,28.448A34.4,34.4,0,0,0,715.781,580.565Z" fill="#d6babe"/>
      <path id="Path_14860" data-name="Path 14860" d="M701.955,541.439c-12.594-8.672-23.684-9.993-32.8-7.533a11.984,11.984,0,0,0-4.79-4.259c-7.106-17.925-28.729-28.689-47.285-23.456-18.677,5.266-31.563,25.979-28.049,45.084,2.178,11.842,9.622,22.1,12.616,33.759,5.8,22.576-8.343,48.437-30.462,55.714,20.943,4.21,43.995-8.6,51.508-28.616,3.649-9.724,3.869-20.34,4.333-30.717a101.984,101.984,0,0,1,2.615-21.271,45.5,45.5,0,0,1,3.381-9.057A30.978,30.978,0,0,1,647.842,536.7a11.846,11.846,0,0,0,1.726,10.651c-4.911,6.159-7.585,12.821-7.585,16.81-10.2,18.669,4.388,34.705,23.035,44.92a38.17,38.17,0,0,0,24.409,4.26l.78-3.334,1.057,3,3.529,10.069q6.1,2.958,12.1,6.484c-1.52-7.145-2.749-14.277-3.6-21.25-1.171-9.49,2.912-23.619,5.857-32.211a50.769,50.769,0,0,0,2.773-16.459v-.245l2.868,9.222,10.44-4.459C723.3,553,725.241,540.341,701.955,541.439Z" fill="#5a587c"/>
      <path id="Path_14861" data-name="Path 14861" d="M1131.32,1148H367.679a1.591,1.591,0,0,1-1.128-.47,1.613,1.613,0,0,1,0-2.27,1.591,1.591,0,0,1,1.128-.47H1131.32a1.6,1.6,0,0,1,0,3.21Z" fill="#5a587c"/>
      <path id="Path_14862" data-name="Path 14862" d="M568.014,827.068a30.744,30.744,0,1,0-30.708-30.744A30.725,30.725,0,0,0,568.014,827.068Z" fill="#f1e6e6"/>
      <path id="Path_14863" data-name="Path 14863" d="M1030.05,778.654H922.341a12.576,12.576,0,0,1-12.554-12.569V707.353a12.575,12.575,0,0,1,12.554-12.568H1030.05a12.573,12.573,0,0,1,12.55,12.568v58.732a12.574,12.574,0,0,1-12.55,12.569Z" fill="rgba(90,88,124,0.32)"/>
      <path id="Path_14864" data-name="Path 14864" d="M1031.63,754.8a16.326,16.326,0,1,0-16.3-16.327A16.317,16.317,0,0,0,1031.63,754.8Z" fill="#c0dc50"/>
      <path id="Path_14865" data-name="Path 14865" d="M1038.41,737.1h-5.55v-5.552a1.326,1.326,0,0,0-.38-.923,1.348,1.348,0,0,0-.42-.283,1.305,1.305,0,0,0-1.81,1.206V737.1h-5.54a1.3,1.3,0,0,0-1.31,1.306h0a1.428,1.428,0,0,0,.1.5,1.391,1.391,0,0,0,.28.423,1.411,1.411,0,0,0,.43.284,1.331,1.331,0,0,0,.5.1h5.54v5.551a1.326,1.326,0,0,0,.38.924,1.334,1.334,0,0,0,.93.382h0a1.3,1.3,0,0,0,1.3-1.306v-5.551h5.55a1.3,1.3,0,0,0,1.3-1.306h0a1.326,1.326,0,0,0-.38-.924,1.313,1.313,0,0,0-.43-.283,1.227,1.227,0,0,0-.49-.1Z" fill="#fff"/>
      <path id="Path_14866" data-name="Path 14866" d="M1073.93,761.988H985.168a14.234,14.234,0,0,1-14.21-14.226V694.717a2.618,2.618,0,0,1,5.236,0v14.206l103.1,9.383a7.873,7.873,0,0,1,7.73,7.862,2.61,2.61,0,0,1-.05.483l-5.19,27.742a7.879,7.879,0,0,1-7.85,7.595Zm-97.736-47.8v33.576a8.988,8.988,0,0,0,8.974,8.984h88.762a2.626,2.626,0,0,0,1.85-.768,2.673,2.673,0,0,0,.77-1.853,2.611,2.611,0,0,1,.04-.483l5.18-27.676a2.619,2.619,0,0,0-2.61-2.419,2.212,2.212,0,0,1-.23-.011Z" fill="#c0dc50"/>
      <path id="Path_14867" data-name="Path 14867" d="M961.582,786.449a4.368,4.368,0,1,0-4.363-4.368A4.365,4.365,0,0,0,961.582,786.449Z" fill="#c0dc50"/>
      <path id="Path_14868" data-name="Path 14868" d="M1070.44,786.449a4.368,4.368,0,1,0-4.37-4.368A4.362,4.362,0,0,0,1070.44,786.449Z" fill="#c0dc50"/>
      <path id="Path_14869" data-name="Path 14869" d="M1074.8,777.713H958.092a2.621,2.621,0,0,1,0-5.242H1074.8a2.621,2.621,0,0,1,0,5.242Z" fill="#c0dc50"/>
      <path id="Path_14870" data-name="Path 14870" d="M980.557,696.463H957.869a2.621,2.621,0,0,1,0-5.242h22.688a2.621,2.621,0,0,1,0,5.242Z" fill="#c0dc50"/>
      <path id="Path_14871" data-name="Path 14871" d="M998.758,776.378a2.6,2.6,0,0,1-1.7-.633l-17.207-14.8a2.62,2.62,0,1,1,3.412-3.976l17.211,14.8a2.62,2.62,0,0,1,.82,1.332,2.546,2.546,0,0,1-.08,1.567,2.617,2.617,0,0,1-2.452,1.71Z" fill="#c0dc50"/>
      <path id="Path_14872" data-name="Path 14872" d="M1002.38,760.377a2.623,2.623,0,0,1-1-.2,2.679,2.679,0,0,1-.85-.568,2.726,2.726,0,0,1-.565-.85,2.616,2.616,0,0,1-.2-1V715.683a2.613,2.613,0,0,1,4.464-1.853,2.588,2.588,0,0,1,.77,1.853v42.073a2.655,2.655,0,0,1-.2,1,2.508,2.508,0,0,1-.57.851,2.571,2.571,0,0,1-1.85.767Z" fill="#c0dc50"/>
      <path id="Path_14873" data-name="Path 14873" d="M1057.68,760.377a2.624,2.624,0,0,1-1-.2,2.663,2.663,0,0,1-.85-.568,2.619,2.619,0,0,1-.56-.85,2.475,2.475,0,0,1-.2-1V719.178a2.622,2.622,0,0,1,2.61-2.616,2.622,2.622,0,0,1,2.62,2.616v38.578a2.655,2.655,0,0,1-.2,1,2.619,2.619,0,0,1-.56.85,2.8,2.8,0,0,1-.85.568,2.636,2.636,0,0,1-1.01.2Z" fill="#c0dc50"/>
      <g id="Group_421" data-name="Group 421" transform="translate(-124.759 293.832)">
        <g id="Group_413" data-name="Group 413" transform="translate(324.605 166.672)">
          <path id="Path_14905" data-name="Path 14905" d="M90.672,159.344a67.672,67.672,0,1,1,67.672-67.672A67.751,67.751,0,0,1,90.672,159.344Zm0-131.477a63.8,63.8,0,1,0,63.805,63.8A63.878,63.878,0,0,0,90.672,27.867Z" transform="translate(-23 -24)" fill="#c0dc50"/>
        </g>
        <path id="Path_14906" data-name="Path 14906" d="M43.03,65.982l30.8-30.418-2.718-2.753L40.729,62.823A3.6,3.6,0,0,1,43.03,65.982Z" transform="translate(352.434 167.933)" fill="#c0dc50"/>
        <path id="Path_14907" data-name="Path 14907" d="M61.247,55.074,35.005,35.5l-2.312,3.1L58.764,58.047A3.53,3.53,0,0,1,61.247,55.074Z" transform="translate(329.395 175.638)" fill="#c0dc50"/>
        <g id="XMLID_622_" transform="translate(386.477 228.544)">
          <g id="XMLID_623_">
            <g id="Group_414" data-name="Group 414">
              <path id="Path_14908" data-name="Path 14908" d="M44.8,51.6a5.8,5.8,0,1,1,5.8-5.8A5.808,5.808,0,0,1,44.8,51.6Zm0-7.734A1.933,1.933,0,1,0,46.734,45.8,1.934,1.934,0,0,0,44.8,43.867Z" transform="translate(-39 -40)" fill="#c0dc50"/>
            </g>
          </g>
        </g>
        <g id="XMLID_631_" transform="translate(336.206 178.272)">
          <g id="Group_415" data-name="Group 415" transform="translate(26.353 6.562)">
            <rect id="Rectangle_2134" data-name="Rectangle 2134" width="3.863" height="7.73" transform="matrix(-0.866, -0.5, 0.5, -0.866, 55.56, 8.625)" fill="#c0dc50"/>
            <rect id="Rectangle_2135" data-name="Rectangle 2135" width="3.867" height="7.734" transform="translate(3.349 99.031) rotate(-150.007)" fill="#c0dc50"/>
          </g>
          <g id="Group_416" data-name="Group 416" transform="translate(6.554 26.368)">
            <rect id="Rectangle_2136" data-name="Rectangle 2136" width="3.863" height="7.734" transform="matrix(-0.5, -0.866, 0.866, -0.5, 92.332, 7.212)" fill="#c0dc50"/>
            <rect id="Rectangle_2137" data-name="Rectangle 2137" width="3.867" height="7.734" transform="translate(1.933 59.412) rotate(-119.993)" fill="#c0dc50"/>
          </g>
          <g id="Group_417" data-name="Group 417" transform="translate(0 54.138)">
            <rect id="Rectangle_2138" data-name="Rectangle 2138" width="7.734" height="3.867" transform="translate(104.409)" fill="#c0dc50"/>
            <rect id="Rectangle_2139" data-name="Rectangle 2139" width="7.734" height="3.867" fill="#c0dc50"/>
          </g>
          <g id="Group_418" data-name="Group 418" transform="translate(6.548 26.355)">
            <rect id="Rectangle_2140" data-name="Rectangle 2140" width="3.867" height="7.734" transform="translate(90.402 55.563) rotate(-59.991)" fill="#c0dc50"/>
            <rect id="Rectangle_2141" data-name="Rectangle 2141" width="3.867" height="7.734" transform="translate(0 3.349) rotate(-60.007)" fill="#c0dc50"/>
          </g>
          <g id="Group_419" data-name="Group 419" transform="translate(26.363 6.552)">
            <rect id="Rectangle_2142" data-name="Rectangle 2142" width="3.867" height="7.734" transform="translate(52.203 92.354) rotate(-29.993)" fill="#c0dc50"/>
            <rect id="Rectangle_2143" data-name="Rectangle 2143" width="3.867" height="7.734" transform="translate(0 1.933) rotate(-29.993)" fill="#c0dc50"/>
          </g>
          <g id="Group_420" data-name="Group 420" transform="translate(54.138)">
            <rect id="Rectangle_2144" data-name="Rectangle 2144" width="3.867" height="7.734" transform="translate(0 104.408)" fill="#c0dc50"/>
            <rect id="Rectangle_2145" data-name="Rectangle 2145" width="3.867" height="7.734" fill="#c0dc50"/>
          </g>
        </g>
      </g>
    </g>
  </g>
</svg>
