<svg id="undraw_resume_folder_re_e0bi" xmlns="http://www.w3.org/2000/svg" xmlns:xlink="http://www.w3.org/1999/xlink" width="1500" height="1500" viewBox="0 0 1500 1500">
  <defs>
    <clipPath id="clip-path">
      <rect id="Rectangle_2450" data-name="Rectangle 2450" width="1134" height="913" transform="translate(183 294)" fill="#fff"/>
    </clipPath>
  </defs>
  <g id="undraw_resume_folder_re_e0bi-2" data-name="undraw_resume_folder_re_e0bi">
    <rect id="Rectangle_2449" data-name="Rectangle 2449" width="1500" height="1500" fill="#fff" opacity="0"/>
    <g id="Group_574" data-name="Group 574" clip-path="url(#clip-path)">
      <path id="Path_21603" data-name="Path 21603" d="M387.32,895.577a9.631,9.631,0,0,1-2.936-.462,9.516,9.516,0,0,1-5.6-4.735l-9.265-17.97a9.6,9.6,0,0,1,4.129-12.916l149.762-77.221a9.6,9.6,0,0,1,12.916,4.129l9.264,17.97a9.6,9.6,0,0,1-4.128,12.917L391.7,894.509a9.534,9.534,0,0,1-4.376,1.068Z" fill="#ff639d"/>
      <path id="Path_21604" data-name="Path 21604" d="M441.645,825.562a9.637,9.637,0,0,1,1.018,1.774L458.489,861.9a9.587,9.587,0,0,1-4.9,12.653l-53.226,18.6a23.947,23.947,0,0,1-29.417-12.112l.615-.3-.615.3a23.933,23.933,0,0,1,9.936-31.44l49.078-27.139a9.6,9.6,0,0,1,11.68,3.1Z" fill="#2f2e41"/>
      <path id="Path_21605" data-name="Path 21605" d="M1068.39,735.089h-256.4a24.18,24.18,0,0,1-15.859-5.99l-105.61-93.152a19.818,19.818,0,0,0-13.134-4.966H586.249V316.6a22.628,22.628,0,0,1,22.6-22.6h436.94a22.616,22.616,0,0,1,22.6,22.6Z" fill="#e6e6e6"/>
      <path id="Path_21606" data-name="Path 21606" d="M691.033,439.889a47.945,47.945,0,1,0-47.94-47.945A47.943,47.943,0,0,0,691.033,439.889Z" fill="#fff"/>
      <path id="Path_21607" data-name="Path 21607" d="M877.316,366.258H788.284a6.164,6.164,0,1,0,0,12.328h89.032a6.164,6.164,0,1,0,0-12.328Z" fill="#fff"/>
      <path id="Path_21608" data-name="Path 21608" d="M1006.56,405.3H787.106c-2.753,0-4.986,2.767-4.986,6.164s2.233,6.164,4.986,6.164H1006.56c2.76,0,4.99-2.767,4.99-6.164S1009.32,405.3,1006.56,405.3Z" fill="#fff"/>
      <path id="Path_21609" data-name="Path 21609" d="M989.319,487.832h-324c-2.629,0-4.766,2.767-4.766,6.164s2.136,6.165,4.766,6.165h324c2.63,0,4.767-2.767,4.767-6.165S991.949,487.832,989.319,487.832Z" fill="#fff"/>
      <path id="Path_21610" data-name="Path 21610" d="M989.319,526.188h-324c-2.629,0-4.766,2.767-4.766,6.164s2.136,6.164,4.766,6.164h324c2.63,0,4.767-2.767,4.767-6.164S991.949,526.188,989.319,526.188Z" fill="#fff"/>
      <path id="Path_21611" data-name="Path 21611" d="M989.319,564.543h-324c-2.629,0-4.766,2.767-4.766,6.164s2.136,6.165,4.766,6.165h324c2.63,0,4.767-2.768,4.767-6.165S991.949,564.543,989.319,564.543Z" fill="#fff"/>
      <path id="Path_21612" data-name="Path 21612" d="M989.319,602.9h-324c-2.629,0-4.766,2.768-4.766,6.165s2.136,6.164,4.766,6.164h324c2.63,0,4.767-2.767,4.767-6.164S991.949,602.9,989.319,602.9Z" fill="#fff"/>
      <path id="Path_21613" data-name="Path 21613" d="M1280.7,735.09H811.994a23.8,23.8,0,0,1-13.129-3.922l-.308-.2V411.122a22.626,22.626,0,0,1,22.6-22.6H1258.1a22.631,22.631,0,0,1,22.6,22.6Z" fill="#ff639d"/>
      <path id="Path_21614" data-name="Path 21614" d="M903.341,534.409A47.945,47.945,0,1,0,855.4,486.464,47.943,47.943,0,0,0,903.341,534.409Z" fill="#fff"/>
      <path id="Path_21615" data-name="Path 21615" d="M1089.62,460.777h-89.03a6.164,6.164,0,0,0,0,12.329h89.03a6.164,6.164,0,1,0,0-12.329Z" fill="#fff"/>
      <path id="Path_21616" data-name="Path 21616" d="M1218.87,499.82H999.415c-2.754,0-4.986,2.767-4.986,6.165s2.232,6.164,4.986,6.164H1218.87c2.76,0,4.99-2.767,4.99-6.164S1221.63,499.82,1218.87,499.82Z" fill="#fff"/>
      <path id="Path_21617" data-name="Path 21617" d="M1201.63,582.352h-324c-2.63,0-4.767,2.767-4.767,6.164s2.137,6.164,4.767,6.164h324c2.63,0,4.76-2.767,4.76-6.164S1204.26,582.352,1201.63,582.352Z" fill="#fff"/>
      <path id="Path_21618" data-name="Path 21618" d="M1201.63,620.707h-324c-2.63,0-4.767,2.767-4.767,6.164s2.137,6.165,4.767,6.165h324c2.63,0,4.76-2.767,4.76-6.165S1204.26,620.707,1201.63,620.707Z" fill="#fff"/>
      <path id="Path_21619" data-name="Path 21619" d="M1201.63,659.062h-324c-2.63,0-4.767,2.768-4.767,6.165s2.137,6.164,4.767,6.164h324c2.63,0,4.76-2.767,4.76-6.164S1204.26,659.062,1201.63,659.062Z" fill="#fff"/>
      <path id="Path_21620" data-name="Path 21620" d="M1201.63,697.418h-324c-2.63,0-4.767,2.767-4.767,6.164s2.137,6.165,4.767,6.165h324c2.63,0,4.76-2.768,4.76-6.165S1204.26,697.418,1201.63,697.418Z" fill="#fff"/>
      <path id="Path_21621" data-name="Path 21621" d="M1293.72,731.663H811.994a20.47,20.47,0,0,1-12.752-4.439c-.288-.219-.562-.452-.835-.7L757.63,690.567l-64.843-57.19a23.243,23.243,0,0,0-15.4-5.822H559.539a23.319,23.319,0,0,0-23.285,23.287V1183.71A23.319,23.319,0,0,0,559.539,1207H1293.72a23.319,23.319,0,0,0,23.28-23.29V754.95a23.319,23.319,0,0,0-23.28-23.287Zm20.54,452.047a20.571,20.571,0,0,1-20.54,20.55H559.539a20.579,20.579,0,0,1-20.546-20.55V650.842a20.572,20.572,0,0,1,20.546-20.548H677.391a20.5,20.5,0,0,1,13.588,5.137l62.514,55.136,43.092,38.014a23.484,23.484,0,0,0,15.409,5.821H1293.72a20.564,20.564,0,0,1,20.54,20.548Z" fill="#3f3d56"/>
      <path id="Path_21622" data-name="Path 21622" d="M324.43,813.981a73.313,73.313,0,1,0-73.307-73.313A73.31,73.31,0,0,0,324.43,813.981Z" fill="#ff639d"/>
      <path id="Path_21623" data-name="Path 21623" d="M323.837,1206.2H303.62a9.6,9.6,0,0,1-9.588-9.59V1028.1a9.6,9.6,0,0,1,9.588-9.58h20.217a9.6,9.6,0,0,1,9.588,9.58v168.51a9.6,9.6,0,0,1-9.588,9.59Z" fill="#ff639d"/>
      <path id="Path_21624" data-name="Path 21624" d="M367.669,1206.2H347.452a9.6,9.6,0,0,1-9.588-9.59V1028.1a9.6,9.6,0,0,1,9.588-9.58h20.217a9.6,9.6,0,0,1,9.588,9.58v168.51a9.6,9.6,0,0,1-9.588,9.59Z" fill="#ff639d"/>
      <path id="Path_21625" data-name="Path 21625" d="M441.081,990.8c0,59.762-56.216,79.042-115.978,79.042s-100.44-19.28-100.44-79.042,40.228-161.642,99.99-161.642S441.081,931.031,441.081,990.8Z" fill="#2f2e41"/>
      <path id="Path_21626" data-name="Path 21626" d="M322.89,767.838l-.077-2.74c5.1-.141,9.59-.461,12.966-2.928a8.42,8.42,0,0,0,3.262-6.2A4.813,4.813,0,0,0,337.462,752c-2.241-1.893-5.848-1.28-8.476-.075l-2.267,1.039,4.347-31.767,2.714.372-3.7,27.022c3.571-1.05,6.881-.6,9.147,1.317a7.495,7.495,0,0,1,2.548,6.153,11.145,11.145,0,0,1-4.383,8.32C333.057,767.553,327.42,767.711,322.89,767.838Z" fill="#2f2e41"/>
      <path id="Path_21627" data-name="Path 21627" d="M361.956,723.9H347.2v2.74h14.754Z" fill="#2f2e41"/>
      <path id="Path_21628" data-name="Path 21628" d="M315.386,723.9H300.632v2.74h14.754Z" fill="#2f2e41"/>
      <path id="Path_21629" data-name="Path 21629" d="M1138.94,1112.48H736.234a20.562,20.562,0,0,1-20.546-20.55V870.02a20.571,20.571,0,0,1,20.546-20.547H1138.94a20.562,20.562,0,0,1,20.54,20.547v221.91a20.554,20.554,0,0,1-20.54,20.55ZM736.234,852.212a17.827,17.827,0,0,0-17.806,17.808v221.91a17.824,17.824,0,0,0,17.806,17.81H1138.94a17.822,17.822,0,0,0,17.8-17.81V870.02a17.826,17.826,0,0,0-17.8-17.808Z" fill="#e6e6e6"/>
      <path id="Path_21630" data-name="Path 21630" d="M801.3,979.608a47.944,47.944,0,1,0-47.941-47.945A47.943,47.943,0,0,0,801.3,979.608Z" fill="#e6e6e6"/>
      <path id="Path_21631" data-name="Path 21631" d="M987.58,905.977H898.548a6.164,6.164,0,1,0,0,12.328H987.58a6.164,6.164,0,1,0,0-12.328Z" fill="#e6e6e6"/>
      <path id="Path_21632" data-name="Path 21632" d="M1116.83,945.02H897.37c-2.754,0-4.986,2.767-4.986,6.164s2.232,6.164,4.986,6.164h219.46c2.75,0,4.98-2.767,4.98-6.164S1119.58,945.02,1116.83,945.02Z" fill="#e6e6e6"/>
      <path id="Path_21633" data-name="Path 21633" d="M1099.58,1027.55H775.587c-2.63,0-4.767,2.77-4.767,6.17s2.137,6.16,4.767,6.16H1099.58c2.63,0,4.77-2.77,4.77-6.16S1102.21,1027.55,1099.58,1027.55Z" fill="#e6e6e6"/>
      <path id="Path_21634" data-name="Path 21634" d="M1099.58,1065.91H775.587c-2.63,0-4.767,2.76-4.767,6.16s2.137,6.16,4.767,6.16H1099.58c2.63,0,4.77-2.76,4.77-6.16S1102.21,1065.91,1099.58,1065.91Z" fill="#e6e6e6"/>
      <path id="Path_21635" data-name="Path 21635" d="M265.925,720.525c5.7-8.583,15.733-12.221,25.625-13.106,11.135-1,21.894,1.151,32.766,3.237,11.964,2.3,24.626,4.445,36.682,1.542a36.166,36.166,0,0,0,24.582-19.86,46.262,46.262,0,0,0,2.693-30.846c-2.825-10.94-9.837-20.566-18.338-27.837-17.35-14.839-40.829-21.508-63.412-20.88a107.207,107.207,0,0,0-62.151,21.855,100.958,100.958,0,0,0-35.811,56.125,105.246,105.246,0,0,0,5.1,66.2c4.941,11.465,12.088,21.8,17.6,32.977,5.135,10.405,9.09,22.5,5.9,34.11-2.8,10.184-11.034,19.232-21.367,22-9.842,2.634-19.56-1.683-24.952-10.187-5.166-8.146-5.289-18.815,2.466-25.392a19.034,19.034,0,0,1,27.463,2.741,19.6,19.6,0,0,1,3.92,14.368c-.382,2.587,3.577,3.7,3.963,1.093a23.18,23.18,0,0,0-43.22-14.969c-4.677,8.794-2.153,19.4,3.784,26.919a26.232,26.232,0,0,0,26.749,9.619c10.807-2.5,19.647-11.086,23.805-21.18,4.629-11.238,2.508-23.779-2-34.684-4.878-11.788-12.121-22.36-17.849-33.719a96.048,96.048,0,0,1-9.743-32.812,103.824,103.824,0,0,1,14.806-65.762,96.482,96.482,0,0,1,53.143-40.393c21.649-6.8,45.526-6.588,66.723,1.764,20.88,8.228,41.042,26.158,40.8,50.24-.1,10.287-3.922,20.777-11.8,27.639-9.416,8.2-22.526,8.9-34.362,7.621-11.911-1.288-23.478-4.767-35.441-5.655-10.4-.772-21.631.031-30.921,5.2a30.913,30.913,0,0,0-10.74,9.964c-1.468,2.209,2.09,4.269,3.548,2.074Z" fill="#2f2e41"/>
      <path id="Path_21636" data-name="Path 21636" d="M244.807,1064.13a8.8,8.8,0,0,1-1.449-.11l-19.986-3.04a9.6,9.6,0,0,1-8.036-10.92l25.355-166.591a9.6,9.6,0,0,1,10.921-8.037l19.986,3.043a9.6,9.6,0,0,1,8.036,10.921L254.28,1055.99a9.6,9.6,0,0,1-9.473,8.14Z" fill="#ff639d"/>
      <path id="Path_21637" data-name="Path 21637" d="M268.691,950.6a9.711,9.711,0,0,1-2.033-.218l-37.264-7.5a9.589,9.589,0,0,1-7.362-11.4l16.217-54.006a23.948,23.948,0,0,1,27.083-16.69l-.119.674.119-.673a23.93,23.93,0,0,1,19.6,26.512l-6.875,55.663a9.6,9.6,0,0,1-9.369,7.632Z" fill="#2f2e41"/>
      <path id="Path_21638" data-name="Path 21638" d="M445.791,1207H230.744a1.356,1.356,0,0,1-.969-.4,1.374,1.374,0,0,1,0-1.94,1.4,1.4,0,0,1,.969-.4H445.791a1.4,1.4,0,0,1,.969.4,1.374,1.374,0,0,1,0,1.94A1.356,1.356,0,0,1,445.791,1207Z" fill="#3f3d56"/>
    </g>
  </g>
  <circle id="Ellipse_1509" data-name="Ellipse 1509" cx="51" cy="51" r="51" transform="translate(303.162 403.239)" fill="#ff6584"/>
  <path id="Path_21946" data-name="Path 21946" d="M464.3,119.43c-24.717-3.341-52.935,10.019-59.341,34.124a21.6,21.6,0,0,0-41.094,2.109l2.83,2.027a372.274,372.274,0,0,0,160.659-.726C510.164,138.893,489.02,122.771,464.3,119.43Z" transform="translate(-18.105 295.68)" fill="#f0f0f0"/>
  <path id="Path_21947" data-name="Path 21947" d="M358.3,187.43c-24.717-3.341-52.935,10.019-59.341,34.124a21.6,21.6,0,0,0-41.093,2.109l2.83,2.027a372.274,372.274,0,0,0,160.659-.726C404.164,206.893,383.02,190.771,358.3,187.43Z" transform="translate(-18.105 295.68)" fill="#f0f0f0"/>
</svg>
