<svg width="1500" height="1500" viewBox="0 0 1500 1500" fill="none" xmlns="http://www.w3.org/2000/svg">
<g clip-path="url(#clip0_25_250)">
<path d="M648.834 835.321C659.306 851.968 674.163 864.471 691.295 871.054C694.96 872.545 698.812 873.376 702.707 873.514C706.505 873.511 710.233 872.361 713.504 870.183C716.589 868.222 719.544 865.813 722.999 864.732C724.775 864.208 726.629 864.113 728.439 864.454C730.249 864.795 731.975 865.563 733.504 866.709C737.379 869.452 740.148 873.602 742.731 877.766C745.599 882.39 748.514 887.243 752.991 890.05C753.533 890.39 753.034 891.32 752.492 890.98C744.702 886.096 741.818 875.738 735.188 869.441C732.094 866.503 728.196 864.598 724.107 865.547C720.532 866.378 717.482 868.859 714.373 870.875C711.21 873.052 707.623 874.323 703.924 874.576C700.035 874.661 696.162 874 692.47 872.62C684.114 869.663 676.223 865.242 669.085 859.521C660.906 853.042 653.771 845.033 647.987 835.84C647.629 835.271 648.478 834.756 648.834 835.321V835.321Z" fill="white"/>
<path d="M685.668 869.3C684.298 872.392 681.998 874.834 679.18 876.19C676.361 877.546 673.207 877.728 670.28 876.703C669.688 876.493 669.949 875.447 670.542 875.657C673.265 876.617 676.204 876.447 678.826 875.178C681.449 873.909 683.583 871.625 684.843 868.738C685.117 868.111 685.94 868.677 685.668 869.3V869.3Z" fill="white"/>
<path d="M712.055 871.41C710.125 864.689 706.02 859.035 700.559 855.575C700.017 855.233 700.517 854.304 701.057 854.646C706.735 858.257 710.997 864.151 712.991 871.15C713.181 871.817 712.244 872.073 712.055 871.41Z" fill="white"/>
<path d="M661.996 852.289C662.747 851.217 663.25 849.952 663.46 848.607C663.67 847.262 663.581 845.879 663.2 844.582C663.003 843.918 663.94 843.663 664.136 844.323C664.551 845.757 664.648 847.285 664.419 848.771C664.189 850.258 663.641 851.659 662.82 852.851C662.751 852.971 662.645 853.057 662.522 853.091C662.399 853.125 662.269 853.105 662.159 853.035C662.05 852.96 661.972 852.839 661.941 852.7C661.911 852.56 661.93 852.412 661.996 852.289V852.289Z" fill="white"/>
<path d="M711.942 828.203C709.198 829.742 706.058 830.13 703.084 829.299C700.109 828.468 697.494 826.472 695.704 823.666C695.343 823.097 696.11 822.439 696.471 823.009C698.134 825.625 700.57 827.484 703.342 828.251C706.113 829.019 709.036 828.644 711.584 827.194C712.138 826.88 712.493 827.891 711.942 828.203Z" fill="white"/>
<path d="M731.885 847.803C733.933 841.127 733.674 833.826 731.16 827.355C730.91 826.714 731.805 826.311 732.054 826.951C734.659 833.69 734.915 841.289 732.771 848.231C732.566 848.893 731.682 848.461 731.885 847.803Z" fill="white"/>
<path d="M702.125 798.548C703.296 798.202 704.373 797.534 705.259 796.602C706.145 795.671 706.813 794.506 707.201 793.213C707.398 792.548 708.282 792.981 708.087 793.641C707.652 795.068 706.914 796.353 705.937 797.385C704.96 798.416 703.774 799.162 702.482 799.557C702.364 799.606 702.233 799.602 702.116 799.545C702 799.489 701.907 799.385 701.856 799.254C701.809 799.121 701.811 798.971 701.861 798.839C701.912 798.707 702.006 798.602 702.124 798.548H702.125Z" fill="white"/>
<path d="M1345.1 829.343C1336.52 847.315 1323.14 861.783 1306.85 870.691C1303.38 872.679 1299.65 874.036 1295.79 874.714C1292.03 875.237 1288.2 874.612 1284.72 872.905C1281.44 871.386 1278.25 869.405 1274.7 868.811C1272.88 868.537 1271.03 868.7 1269.27 869.289C1267.51 869.878 1265.88 870.88 1264.49 872.229C1260.94 875.489 1258.65 879.991 1256.54 884.481C1254.19 889.467 1251.83 894.688 1247.69 898.094C1247.19 898.507 1247.79 899.36 1248.29 898.948C1255.49 893.022 1257.22 882.342 1263.12 875.174C1265.87 871.829 1269.53 869.398 1273.69 869.774C1277.33 870.102 1280.62 872.142 1283.93 873.712C1287.31 875.434 1291 876.197 1294.7 875.936C1298.57 875.482 1302.34 874.288 1305.86 872.407C1313.83 868.314 1321.18 862.833 1327.64 856.166C1335.05 848.602 1341.26 839.665 1345.99 829.74C1346.29 829.126 1345.39 828.732 1345.1 829.343Z" fill="white"/>
<path d="M1312.25 868.17C1313.94 871.049 1316.49 873.153 1319.44 874.108C1322.38 875.063 1325.53 874.806 1328.32 873.384C1328.89 873.094 1328.51 872.092 1327.95 872.382C1325.35 873.712 1322.42 873.951 1319.68 873.055C1316.93 872.159 1314.57 870.188 1313 867.498C1312.66 866.913 1311.91 867.589 1312.25 868.17Z" fill="white"/>
<path d="M1286.29 873.921C1287.47 866.984 1290.93 860.804 1295.97 856.614C1296.47 856.199 1295.87 855.346 1295.38 855.76C1290.13 860.131 1286.55 866.571 1285.33 873.793C1285.22 874.482 1286.17 874.606 1286.29 873.921H1286.29Z" fill="white"/>
<path d="M1333.88 848.005C1333.02 847.046 1332.38 845.86 1332.03 844.554C1331.67 843.248 1331.61 841.863 1331.85 840.524C1331.97 839.837 1331.01 839.714 1330.89 840.396C1330.64 841.877 1330.71 843.407 1331.1 844.85C1331.49 846.294 1332.18 847.608 1333.13 848.678C1333.21 848.787 1333.32 848.857 1333.45 848.874C1333.57 848.891 1333.7 848.853 1333.8 848.768C1333.9 848.679 1333.97 848.548 1333.98 848.405C1334 848.262 1333.96 848.119 1333.88 848.005H1333.88Z" fill="white"/>
<path d="M1287.19 777.721C1289.94 797.895 1286.98 818.532 1278.73 836.701C1277.02 840.648 1274.76 844.265 1272.05 847.42C1269.32 850.398 1265.93 852.496 1262.24 853.497C1258.81 854.509 1255.2 855.097 1252.05 857.03C1250.45 858.047 1249.06 859.433 1247.97 861.098C1246.88 862.763 1246.12 864.669 1245.73 866.691C1244.64 871.702 1245.21 876.855 1245.92 881.873C1246.71 887.444 1247.61 893.217 1246.13 898.746C1245.95 899.416 1246.88 899.692 1247.06 899.023C1249.64 889.404 1245.32 879.7 1246.2 869.975C1246.61 865.437 1248.24 861.011 1251.76 858.485C1254.84 856.277 1258.56 855.667 1262.04 854.677C1265.65 853.759 1269.02 851.858 1271.83 849.138C1274.68 846.149 1277.05 842.635 1278.85 838.747C1283.03 830.068 1285.97 820.702 1287.57 810.992C1289.45 799.922 1289.63 788.571 1288.12 777.43C1288.02 776.74 1287.1 777.036 1287.19 777.721Z" fill="white"/>
<path d="M1281.69 831.026C1284.58 832.173 1287.74 832.123 1290.6 830.886C1293.46 829.649 1295.84 827.305 1297.31 824.273C1297.61 823.658 1296.77 823.111 1296.48 823.727C1295.11 826.553 1292.9 828.736 1290.23 829.882C1287.56 831.028 1284.62 831.061 1281.94 829.975C1281.35 829.74 1281.11 830.793 1281.69 831.026Z" fill="white"/>
<path d="M1264.04 853.242C1261.28 846.9 1260.74 839.618 1262.53 832.848C1262.7 832.178 1261.77 831.902 1261.59 832.572C1259.74 839.62 1260.32 847.197 1263.2 853.79C1263.48 854.418 1264.31 853.867 1264.04 853.242Z" fill="white"/>
<path d="M1288.2 800.235C1287 800.054 1285.86 799.54 1284.88 798.739C1283.9 797.937 1283.11 796.874 1282.58 795.644C1282.31 795.012 1281.48 795.564 1281.75 796.191C1282.34 797.547 1283.21 798.721 1284.29 799.609C1285.37 800.497 1286.63 801.073 1287.96 801.286C1288.08 801.318 1288.21 801.296 1288.32 801.224C1288.43 801.152 1288.51 801.036 1288.54 800.899C1288.58 800.76 1288.56 800.612 1288.49 800.487C1288.43 800.363 1288.32 800.272 1288.2 800.235V800.235Z" fill="white"/>
<path d="M1243.63 543.013H1231.37C1231.13 543.014 1230.9 543.123 1230.73 543.314C1230.56 543.505 1230.47 543.764 1230.47 544.035C1230.46 544.189 1230.5 544.341 1230.56 544.476C1230.64 544.649 1230.75 544.796 1230.89 544.899C1231.04 545.002 1231.2 545.057 1231.37 545.057H1243.63C1243.81 545.058 1243.97 545.004 1244.12 544.901C1244.27 544.798 1244.38 544.651 1244.46 544.476C1244.51 544.339 1244.54 544.187 1244.54 544.035C1244.54 543.901 1244.52 543.768 1244.47 543.644C1244.43 543.52 1244.36 543.407 1244.28 543.312C1244.19 543.217 1244.09 543.142 1243.98 543.09C1243.87 543.039 1243.75 543.013 1243.63 543.013Z" fill="white"/>
<path d="M1243.63 546.854H1231.37C1231.13 546.854 1230.9 546.962 1230.73 547.154C1230.56 547.346 1230.47 547.606 1230.47 547.877C1230.47 548.148 1230.56 548.408 1230.73 548.6C1230.9 548.791 1231.13 548.899 1231.37 548.899H1243.63C1243.88 548.899 1244.11 548.791 1244.28 548.6C1244.45 548.408 1244.54 548.148 1244.54 547.877C1244.54 547.606 1244.45 547.346 1244.28 547.154C1244.11 546.962 1243.88 546.854 1243.63 546.854Z" fill="white"/>
<path d="M736.22 540.716C737.77 540.716 739.025 539.3 739.025 537.553C739.025 535.806 737.77 534.39 736.22 534.39C734.671 534.39 733.415 535.806 733.415 537.553C733.415 539.3 734.671 540.716 736.22 540.716Z" fill="white"/>
<path d="M746.867 540.716C748.416 540.716 749.672 539.3 749.672 537.553C749.672 535.806 748.416 534.39 746.867 534.39C745.318 534.39 744.062 535.806 744.062 537.553C744.062 539.3 745.318 540.716 746.867 540.716Z" fill="white"/>
<path d="M757.515 540.716C759.064 540.716 760.319 539.3 760.319 537.553C760.319 535.806 759.064 534.39 757.515 534.39C755.965 534.39 754.71 535.806 754.71 537.553C754.71 539.3 755.965 540.716 757.515 540.716Z" fill="white"/>
<path d="M915.61 676.297C917.159 676.297 918.415 674.881 918.415 673.134C918.415 671.387 917.159 669.971 915.61 669.971C914.061 669.971 912.805 671.387 912.805 673.134C912.805 674.881 914.061 676.297 915.61 676.297Z" fill="white"/>
<path d="M926.257 676.297C927.806 676.297 929.062 674.881 929.062 673.134C929.062 671.387 927.806 669.971 926.257 669.971C924.707 669.971 923.452 671.387 923.452 673.134C923.452 674.881 924.707 676.297 926.257 676.297Z" fill="white"/>
<path d="M936.904 676.297C938.453 676.297 939.709 674.881 939.709 673.134C939.709 671.387 938.453 669.971 936.904 669.971C935.355 669.971 934.099 671.387 934.099 673.134C934.099 674.881 935.355 676.297 936.904 676.297Z" fill="white"/>
<g clip-path="url(#clip1_25_250)">
<path d="M1126.46 385.394C1134.06 354.373 1126.83 318.195 1102.27 297.79C1101.79 332.521 1089.04 365.962 1066.29 392.197C1057.48 402.283 1046.62 412.583 1046.2 425.972C1045.93 434.303 1050 442.305 1055.6 448.474C1061.2 454.645 1068.27 459.262 1075.25 463.809L1076.28 465.619C1098.76 442.936 1118.86 416.416 1126.46 385.394Z" fill="#F0F0F0"/>
<path d="M1101.78 298.243C1111.2 322.944 1112.6 349.986 1105.78 375.528C1104.41 381.053 1102.18 386.327 1099.17 391.157C1096.08 395.766 1091.82 399.465 1086.82 401.869C1082.2 404.204 1077.21 406.058 1073.24 409.475C1071.24 411.254 1069.63 413.437 1068.53 415.88C1067.43 418.324 1066.85 420.973 1066.84 423.654C1066.65 430.334 1068.87 436.684 1071.26 442.819C1073.91 449.631 1076.77 456.663 1076.15 464.121C1076.08 465.025 1077.49 465.087 1077.56 464.185C1078.63 451.21 1069.82 440.25 1068.42 427.666C1067.77 421.793 1068.88 415.689 1073.22 411.407C1077.02 407.663 1082.16 405.747 1086.86 403.424C1091.77 401.15 1096.05 397.708 1099.32 393.399C1102.57 388.739 1105 383.559 1106.51 378.083C1110.11 365.807 1111.76 353.043 1111.39 340.256C1111.05 325.66 1108.22 311.229 1103.02 297.588C1102.7 296.744 1101.46 297.404 1101.78 298.243V298.243Z" fill="white"/>
<path d="M1108.46 367.433C1112.9 367.996 1117.39 366.961 1121.14 364.515C1124.89 362.068 1127.64 358.369 1128.92 354.077C1129.17 353.208 1127.83 352.772 1127.58 353.642C1126.4 357.64 1123.83 361.086 1120.34 363.357C1116.84 365.628 1112.65 366.575 1108.52 366.027C1107.63 365.909 1107.57 367.316 1108.46 367.433Z" fill="white"/>
<path d="M1089.31 400.994C1083.64 393.812 1080.89 384.757 1081.6 375.634C1081.67 374.73 1080.26 374.668 1080.19 375.57C1079.47 385.065 1082.36 394.483 1088.27 401.943C1088.84 402.654 1089.87 401.7 1089.31 400.994Z" fill="white"/>
<path d="M1109.36 326.441C1107.6 326.581 1105.83 326.282 1104.21 325.568C1102.59 324.855 1101.17 323.751 1100.09 322.355C1099.53 321.638 1098.49 322.592 1099.05 323.305C1100.25 324.841 1101.82 326.059 1103.61 326.851C1105.39 327.642 1107.35 327.985 1109.29 327.847C1109.48 327.85 1109.66 327.782 1109.8 327.657C1109.93 327.532 1110.02 327.36 1110.03 327.176C1110.04 326.99 1109.97 326.808 1109.85 326.67C1109.72 326.533 1109.54 326.45 1109.36 326.441Z" fill="white"/>
<path d="M996.04 317.872C996.374 318.33 996.708 318.788 997.038 319.257C1001.49 325.436 1005.44 331.967 1008.84 338.786C1009.11 339.309 1009.38 339.843 1009.63 340.373C1017.65 356.887 1022.53 374.747 1024.02 393.043C1024.61 400.324 1024.65 407.64 1024.12 414.926C1023.4 424.988 1021.82 435.841 1024.39 445.277C1024.65 446.264 1024.97 447.234 1025.34 448.182L1073.99 466.73C1074.12 466.716 1074.25 466.714 1074.38 466.701L1076.29 467.531C1076.34 467.157 1076.39 466.768 1076.44 466.394C1076.47 466.177 1076.5 465.956 1076.53 465.739C1076.54 465.594 1076.56 465.447 1076.59 465.317C1076.59 465.268 1076.6 465.22 1076.6 465.182C1076.62 465.052 1076.63 464.928 1076.65 464.808C1076.92 462.635 1077.18 460.456 1077.42 458.271C1077.42 458.26 1077.42 458.26 1077.41 458.245C1079.4 441.615 1079.4 424.809 1077.42 408.179C1077.36 407.683 1077.3 407.177 1077.21 406.673C1076.19 399.255 1074.56 391.933 1072.35 384.78C1071.12 380.867 1069.7 377.019 1068.08 373.25C1063.89 363.519 1058.2 354.509 1051.21 346.549C1037.27 330.682 1018.42 319.45 997.63 317.97C997.098 317.932 996.576 317.898 996.04 317.872Z" fill="#F0F0F0"/>
<path d="M995.914 318.532C1018.3 332.58 1035.7 353.328 1045.63 377.828C1047.86 383.065 1049.25 388.62 1049.75 394.29C1050.06 399.829 1048.89 405.351 1046.34 410.28C1044.06 414.925 1041.19 419.411 1040.08 424.529C1039.55 427.157 1039.58 429.867 1040.17 432.482C1040.76 435.097 1041.9 437.558 1043.51 439.703C1047.37 445.152 1052.97 448.886 1058.57 452.347C1064.78 456.19 1071.3 460.083 1075.3 466.407C1075.78 467.173 1076.94 466.376 1076.46 465.611C1069.5 454.61 1055.87 451.164 1047.18 441.958C1043.12 437.662 1040.34 432.117 1041.23 426.085C1042 420.809 1044.96 416.18 1047.31 411.498C1049.86 406.725 1051.21 401.4 1051.23 395.988C1051.01 390.31 1049.84 384.71 1047.75 379.428C1043.23 367.459 1036.87 356.276 1028.88 346.287C1019.82 334.835 1008.88 325.018 996.515 317.258C995.75 316.779 995.154 318.055 995.914 318.532V318.532Z" fill="white"/>
<path d="M1042.9 369.751C1046.78 367.526 1049.74 363.993 1051.26 359.783C1052.78 355.573 1052.76 350.959 1051.19 346.766C1050.87 345.919 1049.54 346.377 1049.86 347.225C1051.33 351.127 1051.35 355.424 1049.93 359.342C1048.5 363.26 1045.73 366.54 1042.1 368.59C1041.31 369.036 1042.11 370.195 1042.9 369.751Z" fill="white"/>
<path d="M1047.81 408.078C1038.96 405.757 1031.31 400.186 1026.38 392.475C1025.9 391.711 1024.74 392.507 1025.22 393.271C1030.36 401.286 1038.34 407.067 1047.55 409.461C1048.43 409.689 1048.68 408.304 1047.81 408.078Z" fill="white"/>
<path d="M1018.94 336.479C1017.62 337.653 1016.02 338.48 1014.3 338.885C1012.58 339.291 1010.78 339.262 1009.08 338.802C1008.2 338.563 1007.95 339.949 1008.82 340.186C1010.71 340.685 1012.69 340.715 1014.59 340.271C1016.5 339.827 1018.26 338.924 1019.74 337.64C1019.89 337.531 1019.99 337.369 1020.02 337.187C1020.05 337.006 1020.02 336.818 1019.92 336.662C1019.81 336.509 1019.65 336.404 1019.47 336.369C1019.28 336.335 1019.09 336.375 1018.94 336.479V336.479Z" fill="white"/>
<path d="M931.723 1018.6C768.638 1018.6 635.96 885.882 635.96 722.749C635.96 559.615 768.638 426.896 931.723 426.896C948.964 426.893 966.173 428.385 983.158 431.354C983.369 431.39 983.572 431.468 983.753 431.583C983.935 431.698 984.092 431.848 984.216 432.024C984.34 432.2 984.427 432.398 984.474 432.608C984.521 432.818 984.526 433.035 984.489 433.246C984.452 433.458 984.373 433.661 984.258 433.842C984.143 434.023 983.992 434.18 983.816 434.303C983.64 434.427 983.442 434.514 983.232 434.56C983.022 434.607 982.805 434.611 982.593 434.573C965.795 431.638 948.775 430.163 931.723 430.165C770.44 430.165 639.228 561.417 639.228 722.749C639.228 884.08 770.44 1015.33 931.723 1015.33C1093 1015.33 1224.22 884.08 1224.22 722.749C1224.29 649.828 1197.07 579.523 1147.92 525.673C1147.63 525.352 1147.48 524.93 1147.5 524.499C1147.52 524.067 1147.71 523.662 1148.03 523.371C1148.35 523.08 1148.77 522.927 1149.2 522.945C1149.63 522.964 1150.04 523.153 1150.33 523.47C1200.03 577.922 1227.56 649.013 1227.49 722.749C1227.49 885.882 1094.81 1018.6 931.723 1018.6Z" fill="#E4E4E4"/>
<path d="M1062.13 528.363C1094.45 528.363 1120.65 502.156 1120.65 469.828C1120.65 437.5 1094.45 411.293 1062.13 411.293C1029.81 411.293 1003.61 437.5 1003.61 469.828C1003.61 502.156 1029.81 528.363 1062.13 528.363Z" fill="#FF8563"/>
<path d="M1054.15 500.292C1053.14 500.292 1052.14 500.057 1051.24 499.605C1050.33 499.153 1049.55 498.496 1048.94 497.687L1032.98 476.395C1032.46 475.711 1032.09 474.932 1031.88 474.104C1031.67 473.276 1031.62 472.414 1031.74 471.567C1031.86 470.721 1032.15 469.907 1032.58 469.171C1033.02 468.435 1033.6 467.792 1034.28 467.279C1034.96 466.766 1035.74 466.393 1036.57 466.181C1037.4 465.969 1038.26 465.922 1039.11 466.043C1039.95 466.164 1040.77 466.45 1041.5 466.886C1042.24 467.322 1042.88 467.898 1043.39 468.582L1053.84 482.511L1080.66 442.262C1081.62 440.831 1083.11 439.839 1084.8 439.503C1086.49 439.168 1088.24 439.517 1089.68 440.473C1091.11 441.428 1092.11 442.914 1092.45 444.603C1092.79 446.293 1092.45 448.048 1091.49 449.485L1059.57 497.393C1058.99 498.259 1058.21 498.974 1057.3 499.479C1056.39 499.983 1055.37 500.261 1054.33 500.29C1054.27 500.291 1054.21 500.292 1054.15 500.292Z" fill="white"/>
<path d="M924.113 676.836L833.875 425.719L836.164 424.896L819.568 378.709L817.279 379.533L789.572 302.432C788.538 299.553 786.946 296.905 784.888 294.641C782.831 292.376 780.347 290.54 777.58 289.235C774.813 287.931 771.816 287.185 768.76 287.039C765.705 286.893 762.65 287.351 759.772 288.386L596.64 347.042C593.762 348.077 591.115 349.669 588.851 351.728C586.587 353.786 584.751 356.27 583.447 359.038C582.143 361.806 581.397 364.804 581.251 367.861C581.105 370.917 581.563 373.972 582.598 376.852L601.916 430.611L598.3 432.004L610.632 464.036L613.527 462.921L616.087 470.047L613.007 471.233L625.339 503.266L627.698 502.357L717.139 751.256C718.169 754.139 719.758 756.791 721.814 759.058C723.871 761.326 726.355 763.165 729.124 764.47C731.892 765.775 734.891 766.52 737.949 766.663C741.006 766.806 744.062 766.344 746.94 765.303L910.071 706.647C915.88 704.55 920.621 700.234 923.254 694.646C925.886 689.057 926.196 682.652 924.113 676.836Z" fill="#3F3D56"/>
<path d="M738.361 757.026C736.063 757.021 733.824 756.308 731.945 754.985C730.067 753.662 728.642 751.792 727.863 749.63L591.903 371.275C590.901 368.488 591.048 365.418 592.31 362.739C593.572 360.061 595.845 357.993 598.631 356.991L633.34 344.511L633.288 345.726C633.199 347.834 633.63 349.933 634.543 351.836C635.455 353.739 636.822 355.388 638.521 356.638C640.221 357.888 642.202 358.701 644.29 359.005C646.378 359.309 648.509 359.095 650.495 358.381L727.525 330.684C729.384 329.831 731.017 328.553 732.291 326.953C733.565 325.353 734.444 323.475 734.858 321.471C735.268 319.501 735.205 317.462 734.677 315.52C734.149 313.579 733.169 311.789 731.817 310.299L731.004 309.395L766.857 296.503C769.643 295.505 772.711 295.653 775.388 296.915C778.065 298.177 780.133 300.449 781.137 303.234L910.856 664.217C913.503 671.612 913.11 679.755 909.763 686.86C906.415 693.966 900.387 699.453 893.001 702.118L742.143 756.362C740.93 756.8 739.65 757.024 738.361 757.026Z" fill="white"/>
<path d="M725.07 488.666C749.436 488.666 769.189 468.907 769.189 444.533C769.189 420.159 749.436 400.4 725.07 400.4C700.703 400.4 680.951 420.159 680.951 444.533C680.951 468.907 700.703 488.666 725.07 488.666Z" fill="#FF8563"/>
<path d="M834.397 508.712L681.61 563.649C681.132 563.822 680.626 563.899 680.119 563.876C679.612 563.853 679.114 563.73 678.655 563.514C678.196 563.298 677.783 562.993 677.442 562.618C677.1 562.242 676.836 561.803 676.664 561.325C676.493 560.848 676.417 560.341 676.441 559.834C676.466 559.327 676.59 558.829 676.807 558.37C677.024 557.911 677.329 557.5 677.705 557.159C678.081 556.818 678.521 556.555 678.999 556.384L831.786 501.447C832.749 501.104 833.808 501.156 834.732 501.593C835.655 502.03 836.368 502.815 836.714 503.777C837.06 504.739 837.01 505.799 836.575 506.724C836.141 507.649 835.358 508.364 834.397 508.712Z" fill="#E6E6E6"/>
<path d="M789.024 543.545L738.768 561.616C738.291 561.788 737.784 561.865 737.278 561.842C736.771 561.818 736.273 561.695 735.814 561.479C735.355 561.263 734.943 560.959 734.601 560.583C734.26 560.208 733.995 559.769 733.824 559.291C733.652 558.813 733.576 558.307 733.601 557.8C733.625 557.293 733.749 556.795 733.966 556.336C734.183 555.877 734.488 555.466 734.864 555.125C735.24 554.784 735.679 554.52 736.157 554.35L786.413 536.279C787.376 535.933 788.438 535.984 789.364 536.42C790.29 536.856 791.004 537.643 791.351 538.606C791.697 539.57 791.646 540.632 791.21 541.558C790.774 542.484 789.987 543.199 789.024 543.545Z" fill="#E6E6E6"/>
<path d="M800.978 576.809L750.722 594.879C750.245 595.051 749.739 595.127 749.232 595.103C748.726 595.078 748.23 594.955 747.771 594.739C747.313 594.523 746.901 594.218 746.56 593.843C746.219 593.468 745.956 593.029 745.784 592.552C745.613 592.075 745.537 591.569 745.561 591.063C745.585 590.556 745.709 590.059 745.925 589.601C746.141 589.142 746.445 588.731 746.82 588.39C747.195 588.049 747.634 587.785 748.111 587.613L798.367 569.543C799.33 569.197 800.391 569.247 801.317 569.684C802.243 570.12 802.958 570.907 803.304 571.87C803.65 572.834 803.6 573.895 803.163 574.822C802.727 575.748 801.941 576.463 800.978 576.809V576.809Z" fill="#E6E6E6"/>
<path d="M807.1 593.847L756.844 611.917C756.367 612.09 755.86 612.167 755.353 612.144C754.846 612.121 754.348 611.998 753.889 611.782C753.429 611.566 753.017 611.262 752.675 610.886C752.334 610.511 752.069 610.071 751.898 609.593C751.726 609.116 751.65 608.609 751.675 608.101C751.699 607.594 751.823 607.097 752.04 606.638C752.257 606.179 752.563 605.767 752.939 605.426C753.315 605.085 753.755 604.822 754.233 604.651L804.489 586.581C804.966 586.408 805.473 586.331 805.98 586.355C806.487 586.378 806.985 586.501 807.444 586.717C807.903 586.933 808.316 587.237 808.657 587.613C808.999 587.988 809.263 588.427 809.435 588.905C809.606 589.383 809.682 589.89 809.658 590.397C809.633 590.904 809.509 591.401 809.292 591.86C809.075 592.319 808.77 592.731 808.394 593.072C808.018 593.413 807.578 593.676 807.1 593.847L807.1 593.847Z" fill="#E6E6E6"/>
<path d="M823.102 549.81L716.476 588.149C715.999 588.322 715.492 588.399 714.985 588.375C714.478 588.352 713.981 588.229 713.521 588.013C713.062 587.797 712.65 587.493 712.308 587.117C711.966 586.742 711.702 586.303 711.531 585.825C711.359 585.347 711.283 584.84 711.307 584.333C711.332 583.826 711.456 583.329 711.673 582.87C711.89 582.411 712.195 581.999 712.571 581.658C712.947 581.317 713.387 581.054 713.865 580.883L820.491 542.544C820.969 542.371 821.475 542.294 821.982 542.318C822.489 542.341 822.987 542.464 823.446 542.68C823.905 542.896 824.318 543.2 824.659 543.576C825.001 543.951 825.265 544.39 825.437 544.868C825.609 545.346 825.684 545.853 825.66 546.36C825.635 546.867 825.511 547.364 825.294 547.823C825.078 548.282 824.772 548.694 824.396 549.035C824.02 549.376 823.58 549.639 823.102 549.81Z" fill="#E6E6E6"/>
<path d="M801.625 635.206L783.378 641.767C781.74 642.355 779.936 642.268 778.363 641.526C776.789 640.783 775.575 639.447 774.986 637.809C774.398 636.171 774.484 634.367 775.225 632.793C775.966 631.218 777.301 630.002 778.938 629.412L797.186 622.851C798.823 622.264 800.627 622.351 802.2 623.093C803.774 623.835 804.988 625.172 805.577 626.81C806.165 628.447 806.08 630.252 805.339 631.826C804.598 633.401 803.262 634.616 801.625 635.206Z" fill="#FF8563"/>
<path d="M657.827 345.735C659.229 345.735 660.365 344.599 660.365 343.197C660.365 341.795 659.229 340.658 657.827 340.658C656.426 340.658 655.289 341.795 655.289 343.197C655.289 344.599 656.426 345.735 657.827 345.735Z" fill="white"/>
<path d="M365.987 485.963C394.429 452.474 440.577 431.369 483.122 442.311C444.803 470.847 417.81 512.021 406.918 558.549C402.783 576.508 400.053 596.913 385.476 608.184C376.406 615.197 364.211 617.115 352.818 615.842C341.425 614.569 330.582 610.411 319.884 606.289L317.04 606.604C324.195 563.249 337.545 519.453 365.987 485.963Z" fill="#F0F0F0"/>
<path d="M483.014 443.227C447.891 452.636 416.624 472.875 393.655 501.071C388.603 507.053 384.525 513.795 381.571 521.047C378.921 528.205 378.237 535.942 379.588 543.454C380.707 550.484 382.665 557.545 382.056 564.724C381.69 568.394 380.553 571.946 378.718 575.145C376.884 578.345 374.394 581.12 371.412 583.29C364.122 588.889 355.255 591.534 346.495 593.819C336.768 596.357 326.625 598.838 318.807 605.533C317.86 606.345 316.657 604.827 317.603 604.017C331.204 592.368 350.52 593.356 365.672 584.768C372.742 580.761 378.648 574.598 379.92 566.306C381.032 559.055 379.019 551.772 377.824 544.664C376.399 537.355 376.784 529.808 378.947 522.683C381.522 515.303 385.334 508.416 390.219 502.316C400.998 488.406 413.897 476.279 428.442 466.378C444.98 454.986 463.344 446.507 482.74 441.31C483.94 440.988 484.207 442.908 483.014 443.227H483.014Z" fill="white"/>
<path d="M400.517 491.556C396.311 487.059 393.84 481.213 393.545 475.061C393.25 468.91 395.151 462.854 398.908 457.975C399.671 456.991 401.237 458.131 400.472 459.117C396.966 463.654 395.196 469.295 395.482 475.023C395.768 480.75 398.091 486.187 402.033 490.351C402.888 491.257 401.367 492.457 400.517 491.556H400.517Z" fill="white"/>
<path d="M378.551 539.964C391.125 540.495 403.437 536.266 413.033 528.121C413.983 527.313 415.186 528.83 414.237 529.637C404.236 538.095 391.414 542.47 378.331 541.888C377.084 541.832 377.311 539.908 378.551 539.964Z" fill="white"/>
<path d="M445.476 457.505C446.741 459.584 448.502 461.316 450.602 462.546C452.702 463.776 455.074 464.465 457.506 464.552C458.753 464.592 458.524 466.516 457.285 466.476C454.599 466.368 451.98 465.604 449.657 464.25C447.334 462.896 445.378 460.994 443.96 458.709C443.808 458.505 443.74 458.251 443.769 457.998C443.798 457.746 443.922 457.513 444.116 457.349C444.317 457.19 444.573 457.118 444.828 457.147C445.082 457.176 445.315 457.305 445.476 457.505Z" fill="white"/>
<path d="M546.385 576.962C545.606 576.959 544.826 576.955 544.037 576.966C533.558 576.978 523.097 577.842 512.758 579.549C511.957 579.668 511.146 579.801 510.35 579.943C485.484 584.322 461.647 593.28 440.05 606.362C431.461 611.576 423.281 617.436 415.581 623.891C404.947 632.807 394.127 643.32 381.54 648.061C380.232 648.57 378.894 648.998 377.534 649.342L317.646 610.051C317.554 609.893 317.453 609.749 317.361 609.591L314.898 608.131C315.272 607.77 315.668 607.404 316.042 607.044C316.258 606.834 316.487 606.632 316.703 606.422C316.851 606.285 317 606.148 317.126 606.015C317.175 605.97 317.225 605.924 317.266 605.892C317.391 605.759 317.523 605.65 317.639 605.531C319.845 603.479 322.068 601.439 324.31 599.411C324.319 599.397 324.319 599.397 324.341 599.392C341.462 583.981 360.019 569.865 380.128 559.015C380.734 558.688 381.347 558.348 381.98 558.04C391.071 553.199 400.543 549.11 410.3 545.813C415.649 544.025 421.085 542.509 426.586 541.271C440.809 538.099 455.441 537.184 469.948 538.561C498.866 541.309 526.583 553.277 544.995 575.268C545.466 575.831 545.924 576.385 546.385 576.962Z" fill="#F0F0F0"/>
<path d="M545.752 577.634C512.045 563.993 474.898 561.323 439.588 570.003C431.953 571.736 424.64 574.663 417.916 578.675C411.493 582.794 406.289 588.559 402.846 595.371C399.509 601.658 396.823 608.475 392.015 613.84C389.514 616.55 386.468 618.701 383.078 620.151C379.687 621.601 376.028 622.317 372.342 622.254C363.151 622.334 354.48 619.106 346.109 615.655C336.816 611.823 327.224 607.695 316.952 608.333C315.708 608.41 315.66 606.474 316.903 606.397C334.774 605.287 349.602 617.709 366.869 619.977C374.926 621.035 383.351 619.671 389.357 613.817C394.61 608.697 397.386 601.67 400.71 595.275C403.971 588.581 408.821 582.787 414.837 578.4C421.335 574.059 428.524 570.856 436.096 568.927C453.074 564.313 470.672 562.398 488.245 563.253C508.306 564.116 528.072 568.407 546.687 575.938C547.839 576.404 546.896 578.098 545.752 577.634L545.752 577.634Z" fill="white"/>
<path d="M450.793 566.538C450.142 560.415 451.688 554.259 455.155 549.17C458.622 544.081 463.784 540.39 469.72 538.757C470.923 538.431 471.486 540.284 470.282 540.611C464.752 542.121 459.943 545.56 456.724 550.305C453.505 555.051 452.088 560.791 452.729 566.489C452.867 567.728 450.93 567.77 450.793 566.539V566.538Z" fill="white"/>
<path d="M404.119 591.96C413.839 599.957 426.215 603.996 438.779 603.271C440.024 603.198 440.071 605.134 438.828 605.207C425.752 605.937 412.881 601.708 402.785 593.364C401.823 592.568 403.163 591.169 404.119 591.96H404.119Z" fill="white"/>
<path d="M507.186 566.426C506.944 568.848 507.308 571.292 508.244 573.539C509.18 575.785 510.66 577.764 512.549 579.298C513.521 580.081 512.18 581.48 511.215 580.701C509.135 578.998 507.504 576.81 506.464 574.33C505.425 571.85 505.008 569.153 505.25 566.475C505.252 566.221 505.35 565.977 505.526 565.792C505.701 565.608 505.94 565.497 506.193 565.483C506.45 565.477 506.698 565.574 506.883 565.75C507.069 565.927 507.178 566.17 507.186 566.426Z" fill="white"/>
<path d="M1219.56 1129.63C1250.57 1137.24 1286.74 1130.01 1307.14 1105.43C1272.42 1104.95 1238.99 1092.2 1212.76 1069.44C1202.68 1060.63 1192.38 1049.77 1178.99 1049.34C1170.67 1049.08 1162.67 1053.14 1156.5 1058.75C1150.33 1064.35 1145.71 1071.42 1141.17 1078.41L1139.36 1079.43C1162.04 1101.92 1188.55 1122.03 1219.56 1129.63Z" fill="#F0F0F0"/>
<path d="M1306.68 1104.94C1281.99 1114.36 1254.96 1115.77 1229.42 1108.95C1223.9 1107.57 1218.63 1105.34 1213.8 1102.33C1209.19 1099.24 1205.49 1094.98 1203.09 1089.98C1200.76 1085.36 1198.9 1080.37 1195.49 1076.4C1193.71 1074.39 1191.53 1072.78 1189.08 1071.68C1186.64 1070.58 1183.99 1070.01 1181.31 1070C1174.63 1069.81 1168.28 1072.03 1162.15 1074.41C1155.34 1077.06 1148.31 1079.92 1140.86 1079.31C1139.95 1079.24 1139.89 1080.64 1140.79 1080.72C1153.76 1081.78 1164.72 1072.97 1177.3 1071.57C1183.17 1070.92 1189.27 1072.03 1193.55 1076.38C1197.3 1080.17 1199.21 1085.32 1201.54 1090.02C1203.81 1094.93 1207.25 1099.21 1211.56 1102.48C1216.22 1105.73 1221.39 1108.17 1226.87 1109.68C1239.14 1113.28 1251.9 1114.92 1264.68 1114.56C1279.28 1114.22 1293.7 1111.39 1307.34 1106.19C1308.18 1105.86 1307.52 1104.62 1306.68 1104.94H1306.68Z" fill="white"/>
<path d="M1237.52 1111.63C1236.95 1116.07 1237.99 1120.56 1240.43 1124.31C1242.88 1128.06 1246.58 1130.82 1250.87 1132.09C1251.74 1132.34 1252.17 1131 1251.3 1130.75C1247.3 1129.57 1243.86 1127 1241.59 1123.51C1239.32 1120.01 1238.37 1115.82 1238.92 1111.69C1239.04 1110.79 1237.63 1110.73 1237.52 1111.62V1111.63Z" fill="white"/>
<path d="M1203.96 1092.47C1211.14 1086.8 1220.2 1084.05 1229.32 1084.76C1230.22 1084.83 1230.28 1083.42 1229.38 1083.35C1219.89 1082.63 1210.47 1085.52 1203.02 1091.43C1202.31 1092 1203.26 1093.03 1203.97 1092.47H1203.96Z" fill="white"/>
<path d="M1278.49 1112.52C1278.35 1110.76 1278.65 1108.99 1279.37 1107.37C1280.08 1105.75 1281.18 1104.34 1282.58 1103.25C1283.3 1102.69 1282.34 1101.66 1281.63 1102.21C1280.09 1103.42 1278.88 1104.98 1278.09 1106.77C1277.29 1108.56 1276.95 1110.51 1277.09 1112.46C1277.09 1112.65 1277.15 1112.82 1277.28 1112.96C1277.4 1113.1 1277.58 1113.18 1277.76 1113.2C1277.95 1113.2 1278.13 1113.14 1278.27 1113.01C1278.4 1112.89 1278.49 1112.71 1278.49 1112.52Z" fill="white"/>
<path d="M1287.06 999.172C1286.6 999.506 1286.15 999.84 1285.68 1000.17C1279.5 1004.63 1272.97 1008.58 1266.15 1011.98C1265.63 1012.25 1265.1 1012.51 1264.57 1012.77C1248.06 1020.79 1230.2 1025.67 1211.91 1027.16C1204.63 1027.75 1197.32 1027.79 1190.04 1027.26C1179.98 1026.54 1169.13 1024.96 1159.7 1027.53C1158.71 1027.79 1157.74 1028.11 1156.79 1028.49L1138.25 1077.14C1138.26 1077.28 1138.26 1077.4 1138.28 1077.54L1137.45 1079.45C1137.82 1079.5 1138.21 1079.55 1138.58 1079.6C1138.8 1079.63 1139.02 1079.65 1139.24 1079.68C1139.38 1079.7 1139.53 1079.72 1139.66 1079.74C1139.71 1079.75 1139.76 1079.75 1139.8 1079.76C1139.93 1079.78 1140.05 1079.79 1140.17 1079.81C1142.34 1080.08 1144.52 1080.33 1146.7 1080.57C1146.72 1080.58 1146.72 1080.58 1146.73 1080.57C1163.36 1082.55 1180.16 1082.56 1196.78 1080.58C1197.28 1080.52 1197.78 1080.45 1198.29 1080.37C1205.7 1079.34 1213.02 1077.72 1220.17 1075.5C1224.09 1074.27 1227.93 1072.85 1231.7 1071.24C1241.43 1067.05 1250.44 1061.35 1258.39 1054.36C1274.26 1040.42 1285.48 1021.56 1286.96 1000.76C1287 1000.23 1287.03 999.708 1287.06 999.172Z" fill="#F0F0F0"/>
<path d="M1286.4 999.046C1272.36 1021.44 1251.62 1038.84 1227.12 1048.77C1221.89 1051.01 1216.33 1052.4 1210.67 1052.9C1205.13 1053.21 1199.61 1052.03 1194.68 1049.49C1190.04 1047.21 1185.55 1044.34 1180.44 1043.23C1177.81 1042.69 1175.1 1042.73 1172.49 1043.32C1169.87 1043.91 1167.41 1045.04 1165.27 1046.65C1159.82 1050.52 1156.09 1056.12 1152.63 1061.72C1148.79 1067.93 1144.89 1074.45 1138.57 1078.45C1137.81 1078.94 1138.6 1080.1 1139.37 1079.61C1150.37 1072.65 1153.81 1059.02 1163.01 1050.33C1167.31 1046.27 1172.85 1043.48 1178.88 1044.37C1184.16 1045.15 1188.78 1048.11 1193.46 1050.46C1198.24 1053.01 1203.56 1054.35 1208.97 1054.37C1214.65 1054.16 1220.24 1052.99 1225.52 1050.9C1237.49 1046.38 1248.67 1040.01 1258.66 1032.02C1270.1 1022.96 1279.92 1012.01 1287.67 999.647C1288.15 998.881 1286.88 998.285 1286.4 999.046H1286.4Z" fill="white"/>
<path d="M1235.2 1046.04C1237.42 1049.93 1240.95 1052.89 1245.16 1054.41C1249.37 1055.93 1253.98 1055.91 1258.18 1054.34C1259.02 1054.02 1258.57 1052.69 1257.72 1053.01C1253.82 1054.47 1249.52 1054.5 1245.6 1053.07C1241.69 1051.65 1238.41 1048.87 1236.36 1045.24C1235.91 1044.46 1234.75 1045.26 1235.2 1046.04Z" fill="white"/>
<path d="M1196.88 1050.95C1199.2 1042.1 1204.77 1034.45 1212.48 1029.53C1213.24 1029.04 1212.45 1027.88 1211.69 1028.36C1203.67 1033.51 1197.89 1041.48 1195.5 1050.7C1195.27 1051.57 1196.66 1051.83 1196.88 1050.95Z" fill="white"/>
<path d="M1268.46 1022.08C1267.29 1020.76 1266.46 1019.16 1266.05 1017.44C1265.65 1015.72 1265.68 1013.92 1266.14 1012.21C1266.38 1011.34 1264.99 1011.08 1264.75 1011.95C1264.25 1013.84 1264.23 1015.83 1264.67 1017.73C1265.11 1019.63 1266.02 1021.4 1267.3 1022.87C1267.41 1023.02 1267.57 1023.13 1267.75 1023.16C1267.93 1023.19 1268.12 1023.16 1268.28 1023.06C1268.43 1022.95 1268.54 1022.79 1268.57 1022.61C1268.6 1022.42 1268.56 1022.23 1268.46 1022.08Z" fill="white"/>
<path d="M1343.82 831.47L1296.53 911.073L1298.33 912.021L1282.32 942.39L1278.99 940.625L1268.46 958.327L1271.08 959.831L1253.92 989.547L1250.94 987.831L1096.64 1247.59C1092.59 1254.39 1086.02 1259.31 1078.35 1261.26C1070.69 1263.21 1062.56 1262.04 1055.76 1258.01L768.9 1087.51C762.103 1083.46 757.19 1076.88 755.238 1069.21C753.287 1061.54 754.457 1053.41 758.491 1046.61L1005.67 630.486C1009.72 623.688 1016.3 618.774 1023.96 616.822C1031.63 614.87 1039.75 616.039 1046.56 620.074L1333.42 790.574C1340.21 794.624 1345.12 801.203 1347.07 808.87C1349.02 816.536 1347.85 824.664 1343.82 831.47Z" fill="#3F3D56"/>
<path d="M1065.98 1241.94L778.113 1070.84C776.019 1069.6 774.505 1067.57 773.903 1065.2C773.302 1062.84 773.662 1060.33 774.905 1058.24L1023.73 639.345C1024.98 637.25 1027 635.736 1029.37 635.134C1031.73 634.533 1034.23 634.893 1036.33 636.136L1324.2 807.235C1326.29 808.483 1327.81 810.511 1328.41 812.875C1329.01 815.238 1328.65 817.743 1327.41 819.841L1078.58 1238.73C1077.34 1240.83 1075.31 1242.34 1072.95 1242.94C1070.58 1243.55 1068.08 1243.19 1065.98 1241.94Z" fill="white"/>
<path d="M1184.23 715.065C1185.63 715.065 1186.77 713.929 1186.77 712.527C1186.77 711.125 1185.63 709.988 1184.23 709.988C1182.83 709.988 1181.69 711.125 1181.69 712.527C1181.69 713.929 1182.83 715.065 1184.23 715.065Z" fill="white"/>
<path d="M1168.52 1015.13L928.226 872.308C927.473 871.864 926.814 871.276 926.288 870.577C925.762 869.877 925.38 869.081 925.162 868.234C924.945 867.386 924.897 866.504 925.021 865.638C925.145 864.772 925.439 863.939 925.886 863.187C926.333 862.435 926.924 861.778 927.625 861.255C928.326 860.732 929.123 860.352 929.971 860.138C930.82 859.924 931.702 859.879 932.567 860.007C933.432 860.134 934.264 860.431 935.014 860.881L1175.31 1003.71C1176.07 1004.15 1176.72 1004.74 1177.25 1005.44C1177.78 1006.14 1178.16 1006.93 1178.38 1007.78C1178.59 1008.63 1178.64 1009.51 1178.52 1010.38C1178.39 1011.24 1178.1 1012.08 1177.65 1012.83C1177.21 1013.58 1176.61 1014.24 1175.91 1014.76C1175.21 1015.28 1174.41 1015.66 1173.57 1015.88C1172.72 1016.09 1171.84 1016.14 1170.97 1016.01C1170.11 1015.88 1169.27 1015.58 1168.52 1015.13H1168.52Z" fill="#E6E6E6"/>
<path d="M1072.57 993.002L993.534 946.023C992.784 945.577 992.129 944.988 991.606 944.289C991.084 943.59 990.704 942.795 990.488 941.949C990.273 941.103 990.226 940.223 990.351 939.359C990.476 938.495 990.769 937.664 991.215 936.913C991.661 936.163 992.25 935.508 992.949 934.985C993.648 934.462 994.443 934.083 995.289 933.867C996.134 933.652 997.014 933.606 997.878 933.731C998.742 933.855 999.572 934.149 1000.32 934.595L1079.36 981.574C1080.11 982.02 1080.77 982.61 1081.29 983.309C1081.81 984.008 1082.19 984.803 1082.41 985.649C1082.62 986.494 1082.67 987.374 1082.54 988.238C1082.42 989.102 1082.13 989.933 1081.68 990.683C1081.24 991.434 1080.65 992.089 1079.95 992.611C1079.25 993.134 1078.45 993.514 1077.61 993.729C1076.76 993.944 1075.88 993.991 1075.02 993.866C1074.16 993.742 1073.33 993.448 1072.57 993.002Z" fill="#E6E6E6"/>
<path d="M1041.5 1045.32L962.458 998.34C960.943 997.439 959.848 995.974 959.414 994.266C958.979 992.558 959.241 990.747 960.141 989.232C961.041 987.717 962.506 986.621 964.213 986.186C965.921 985.751 967.731 986.012 969.246 986.912L1048.29 1033.89C1049.04 1034.34 1049.69 1034.93 1050.21 1035.63C1050.74 1036.32 1051.12 1037.12 1051.33 1037.97C1051.55 1038.81 1051.59 1039.69 1051.47 1040.56C1051.34 1041.42 1051.05 1042.25 1050.6 1043C1050.16 1043.75 1049.57 1044.41 1048.87 1044.93C1048.17 1045.45 1047.38 1045.83 1046.53 1046.05C1045.69 1046.26 1044.81 1046.31 1043.94 1046.18C1043.08 1046.06 1042.25 1045.76 1041.5 1045.32Z" fill="#E6E6E6"/>
<path d="M1025.58 1072.12L946.541 1025.14C945.789 1024.69 945.131 1024.1 944.607 1023.4C944.082 1022.7 943.701 1021.91 943.484 1021.06C943.268 1020.21 943.22 1019.33 943.345 1018.47C943.469 1017.6 943.763 1016.77 944.209 1016.02C944.656 1015.27 945.246 1014.61 945.946 1014.09C946.646 1013.57 947.443 1013.19 948.29 1012.97C949.137 1012.76 950.018 1012.71 950.883 1012.84C951.747 1012.97 952.578 1013.26 953.329 1013.71L1032.37 1060.69C1033.12 1061.13 1033.78 1061.72 1034.31 1062.42C1034.83 1063.12 1035.22 1063.92 1035.43 1064.76C1035.65 1065.61 1035.7 1066.49 1035.58 1067.36C1035.45 1068.22 1035.16 1069.06 1034.71 1069.81C1034.26 1070.56 1033.67 1071.22 1032.97 1071.74C1032.27 1072.27 1031.47 1072.65 1030.62 1072.86C1029.78 1073.07 1028.89 1073.12 1028.03 1072.99C1027.16 1072.86 1026.33 1072.57 1025.58 1072.12V1072.12Z" fill="#E6E6E6"/>
<path d="M1101.58 1045.14L933.886 945.467C932.378 944.563 931.291 943.098 930.86 941.394C930.43 939.689 930.693 937.884 931.591 936.372C932.488 934.861 933.948 933.767 935.65 933.33C937.353 932.893 939.159 933.148 940.673 934.04L1108.37 1033.71C1109.12 1034.16 1109.78 1034.75 1110.31 1035.45C1110.84 1036.14 1111.22 1036.94 1111.44 1037.79C1111.65 1038.64 1111.7 1039.52 1111.58 1040.38C1111.45 1041.25 1111.16 1042.08 1110.71 1042.84C1110.27 1043.59 1109.67 1044.24 1108.97 1044.77C1108.27 1045.29 1107.47 1045.67 1106.63 1045.88C1105.78 1046.1 1104.9 1046.14 1104.03 1046.02C1103.17 1045.89 1102.33 1045.59 1101.58 1045.14Z" fill="#E6E6E6"/>
<path d="M1069.62 1172.52L1040.92 1155.47C1038.35 1153.93 1036.49 1151.44 1035.75 1148.54C1035.02 1145.64 1035.46 1142.56 1036.99 1139.98C1038.52 1137.41 1041.01 1135.55 1043.91 1134.81C1046.81 1134.07 1049.89 1134.51 1052.46 1136.03L1081.16 1153.09C1083.74 1154.62 1085.6 1157.12 1086.34 1160.02C1087.08 1162.92 1086.63 1166 1085.1 1168.58C1083.57 1171.16 1081.08 1173.02 1078.18 1173.76C1075.27 1174.5 1072.2 1174.05 1069.62 1172.52Z" fill="#FF8563"/>
<path d="M1123.17 895.565C1155.65 895.565 1181.99 869.22 1181.99 836.722C1181.99 804.223 1155.65 777.878 1123.17 777.878C1090.68 777.878 1064.34 804.223 1064.34 836.722C1064.34 869.22 1090.68 895.565 1123.17 895.565Z" fill="#FF8563"/>
<path d="M158.693 1075.84H954.771V614.821C954.767 611.366 953.393 608.055 950.951 605.612C948.509 603.17 945.199 601.796 941.745 601.792H171.718C168.265 601.796 164.954 603.17 162.512 605.612C160.07 608.055 158.697 611.366 158.693 614.821V1075.84Z" fill="#CACACA"/>
<path d="M930.175 619.812H183.289V1043.96H930.175V619.812Z" fill="white"/>
<path d="M158 1063.37V1120.26C158 1122.62 158.464 1124.95 159.367 1127.13C160.269 1129.31 161.591 1131.29 163.258 1132.96C164.926 1134.62 166.905 1135.95 169.083 1136.85C171.261 1137.75 173.596 1138.22 175.954 1138.22H469.78V1250.49H465.876C465.57 1250.49 465.267 1250.55 464.984 1250.67C464.701 1250.79 464.444 1250.96 464.227 1251.17C464.011 1251.39 463.839 1251.65 463.722 1251.93C463.604 1252.21 463.544 1252.52 463.544 1252.82V1260.63C463.544 1260.94 463.604 1261.24 463.722 1261.53C463.839 1261.81 464.011 1262.07 464.227 1262.28C464.444 1262.5 464.701 1262.67 464.984 1262.79C465.267 1262.91 465.57 1262.97 465.876 1262.97H648.28C648.586 1262.97 648.889 1262.91 649.172 1262.79C649.455 1262.67 649.712 1262.5 649.929 1262.28C650.146 1262.07 650.317 1261.81 650.435 1261.53C650.552 1261.24 650.612 1260.94 650.612 1260.63V1252.82C650.612 1252.52 650.552 1252.21 650.435 1251.93C650.317 1251.65 650.146 1251.39 649.929 1251.17C649.712 1250.96 649.455 1250.79 649.172 1250.67C648.889 1250.55 648.586 1250.49 648.28 1250.49H644.376V1138.22H938.203C940.56 1138.22 942.895 1137.75 945.073 1136.85C947.251 1135.95 949.231 1134.62 950.898 1132.96C952.565 1131.29 953.887 1129.31 954.79 1127.13C955.692 1124.95 956.156 1122.62 956.156 1120.26V1063.37L158 1063.37Z" fill="#3F3D56"/>
<path d="M822.1 761.663H468.403C466.173 761.663 464.035 760.777 462.458 759.2C460.882 757.623 459.996 755.484 459.996 753.254C459.996 751.023 460.882 748.884 462.458 747.307C464.035 745.73 466.173 744.844 468.403 744.844H822.1C824.329 744.844 826.468 745.73 828.044 747.307C829.621 748.884 830.507 751.023 830.507 753.254C830.507 755.484 829.621 757.623 828.044 759.2C826.468 760.777 824.329 761.663 822.1 761.663Z" fill="#E6E6E6"/>
<path d="M703.421 799.627H587.081C584.851 799.627 582.712 798.741 581.136 797.164C579.559 795.586 578.673 793.447 578.673 791.217C578.673 788.986 579.559 786.847 581.136 785.27C582.712 783.693 584.851 782.807 587.081 782.807H703.421C705.651 782.807 707.79 783.693 709.367 785.27C710.943 786.847 711.829 788.986 711.829 791.217C711.829 793.447 710.943 795.586 709.367 797.164C707.79 798.741 705.651 799.627 703.421 799.627Z" fill="#E6E6E6"/>
<path d="M703.421 876.632H587.081C584.851 876.632 582.712 875.746 581.136 874.169C579.559 872.591 578.673 870.452 578.673 868.222C578.673 865.991 579.559 863.852 581.136 862.275C582.712 860.698 584.851 859.812 587.081 859.812H703.421C705.651 859.812 707.79 860.698 709.367 862.275C710.943 863.852 711.829 865.991 711.829 868.222C711.829 870.452 710.943 872.591 709.367 874.169C707.79 875.746 705.651 876.632 703.421 876.632Z" fill="#E6E6E6"/>
<path d="M703.422 916.073H587.081C585.977 916.073 584.884 915.856 583.864 915.433C582.844 915.011 581.917 914.391 581.136 913.61C580.355 912.829 579.736 911.902 579.314 910.882C578.891 909.862 578.674 908.768 578.674 907.664C578.674 906.559 578.891 905.466 579.314 904.445C579.736 903.425 580.355 902.498 581.136 901.717C581.917 900.936 582.844 900.317 583.864 899.894C584.884 899.471 585.977 899.254 587.081 899.254H703.422C704.526 899.254 705.619 899.471 706.639 899.894C707.659 900.317 708.586 900.936 709.366 901.717C710.147 902.498 710.766 903.425 711.189 904.445C711.611 905.466 711.829 906.559 711.829 907.664C711.829 908.768 711.611 909.862 711.189 910.882C710.766 911.902 710.147 912.829 709.366 913.61C708.586 914.391 707.659 915.011 706.639 915.433C705.619 915.856 704.526 916.073 703.422 916.073Z" fill="#E6E6E6"/>
<path d="M768.669 837.589H521.833C519.604 837.589 517.465 836.703 515.889 835.126C514.312 833.549 513.426 831.41 513.426 829.179C513.426 826.949 514.312 824.81 515.889 823.233C517.465 821.656 519.604 820.77 521.833 820.77H768.669C770.899 820.77 773.037 821.656 774.614 823.233C776.19 824.81 777.076 826.949 777.076 829.179C777.076 831.41 776.19 833.549 774.614 835.126C773.037 836.703 770.899 837.589 768.669 837.589Z" fill="#E6E6E6"/>
<path d="M816.211 996.828H773.968C770.176 996.828 766.54 995.321 763.859 992.639C761.178 989.957 759.672 986.32 759.672 982.527C759.672 978.734 761.178 975.097 763.859 972.415C766.54 969.733 770.176 968.227 773.968 968.227H816.211C820.002 968.227 823.639 969.733 826.32 972.415C829.001 975.097 830.507 978.734 830.507 982.527C830.507 986.32 829.001 989.957 826.32 992.639C823.639 995.321 820.002 996.828 816.211 996.828Z" fill="#FF8563"/>
<path d="M357.182 893.034C397.792 893.034 430.714 860.103 430.714 819.479C430.714 778.856 397.792 745.925 357.182 745.925C316.571 745.925 283.649 778.856 283.649 819.479C283.649 860.103 316.571 893.034 357.182 893.034Z" fill="#FF8563"/>
<path d="M1217.66 1266H159.946C159.431 1266 158.937 1265.79 158.574 1265.43C158.21 1265.06 158.006 1264.57 158.006 1264.05C158.006 1263.54 158.21 1263.04 158.574 1262.68C158.937 1262.31 159.431 1262.11 159.946 1262.11H1217.66C1218.17 1262.11 1218.66 1262.31 1219.03 1262.68C1219.39 1263.04 1219.6 1263.54 1219.6 1264.05C1219.6 1264.57 1219.39 1265.06 1219.03 1265.43C1218.66 1265.79 1218.17 1266 1217.66 1266Z" fill="#CACACA"/>
<path d="M556.385 610.801C557.916 610.801 559.157 609.56 559.157 608.029C559.157 606.498 557.916 605.257 556.385 605.257C554.855 605.257 553.614 606.498 553.614 608.029C553.614 609.56 554.855 610.801 556.385 610.801Z" fill="white"/>
<g clip-path="url(#clip2_25_250)">
<path d="M1222.21 574.057C1217.04 577.081 1207.83 580.87 1198.42 576.976L1192.34 574.459L1204.53 561.128C1194.8 550.665 1189.42 537.041 1189.44 522.916C1189.45 508.79 1194.86 495.177 1204.61 484.733C1214.36 474.29 1227.75 467.765 1242.16 466.433C1256.58 465.101 1270.98 469.057 1282.57 477.529C1294.15 486.001 1302.09 498.381 1304.82 512.253C1307.55 526.125 1304.89 540.492 1297.35 552.551C1289.81 564.61 1277.93 573.494 1264.04 577.471C1250.15 581.448 1235.23 580.23 1222.21 574.057V574.057ZM1198.85 522.884C1198.83 529.395 1200.18 535.842 1202.83 541.818C1205.48 547.794 1209.37 553.17 1214.26 557.609L1217.62 560.691L1209.95 569.079C1213.94 568.289 1217.42 566.18 1219.19 564.955L1221.61 563.275L1224.21 564.67C1231.41 568.515 1239.49 570.53 1247.69 570.529C1274.62 570.529 1296.53 549.156 1296.53 522.884C1296.53 496.612 1274.62 475.239 1247.69 475.239C1220.76 475.239 1198.85 496.612 1198.85 522.884V522.884Z" fill="#3F3D56"/>
<path d="M1194.12 522.884C1194.12 494.019 1218.11 470.619 1247.69 470.619C1277.28 470.619 1301.27 494.019 1301.27 522.884C1301.27 551.749 1277.28 575.148 1247.69 575.148C1238.69 575.161 1229.83 572.949 1221.93 568.719C1218.23 571.29 1209.2 576.417 1200.27 572.724L1211.02 560.975C1205.67 556.093 1201.42 550.193 1198.51 543.641C1195.61 537.089 1194.11 530.023 1194.12 522.884Z" fill="#FF7263"/>
<path opacity="0.1" d="M1292.14 522.997C1292.14 495.689 1270.67 473.277 1243.3 470.938C1244.86 470.805 1246.44 470.732 1248.04 470.732C1277.62 470.732 1301.61 494.132 1301.61 522.997C1301.61 551.862 1277.62 575.262 1248.04 575.262C1246.44 575.262 1244.87 575.189 1243.31 575.056C1270.67 572.713 1292.14 550.303 1292.14 522.997Z" fill="black"/>
<path d="M1124.24 646.664C1110.85 646.67 1097.87 642.187 1087.47 633.967C1077.07 625.746 1069.88 614.288 1067.11 601.512C1064.34 588.735 1066.15 575.418 1072.24 563.791C1078.34 552.164 1088.35 542.934 1100.59 537.648C1112.83 532.362 1126.56 531.341 1139.48 534.756C1152.4 538.172 1163.72 545.816 1171.55 556.408C1179.38 566.999 1183.24 579.895 1182.49 592.934C1181.73 605.972 1176.41 618.361 1167.4 628.024L1179.59 641.355L1173.51 643.872C1164.1 647.766 1154.89 643.977 1149.72 640.953C1141.78 644.709 1133.07 646.662 1124.24 646.664ZM1124.24 542.134C1097.31 542.134 1075.4 563.508 1075.4 589.78C1075.4 616.051 1097.31 637.425 1124.24 637.425C1132.45 637.426 1140.52 635.411 1147.72 631.566L1150.32 630.17L1152.74 631.851C1154.51 633.076 1157.99 635.184 1161.98 635.975L1154.31 627.587L1157.67 624.504C1162.56 620.066 1166.45 614.69 1169.1 608.714C1171.75 602.738 1173.1 596.291 1173.08 589.78C1173.08 563.508 1151.17 542.134 1124.24 542.134Z" fill="#3F3D56"/>
<path opacity="0.1" d="M1080.14 589.516C1080.14 562.208 1101.61 539.795 1128.98 537.456C1127.41 537.323 1125.84 537.251 1124.24 537.251C1094.65 537.251 1070.67 560.651 1070.67 589.516C1070.67 618.381 1094.65 641.78 1124.24 641.78C1125.83 641.78 1127.41 641.707 1128.97 641.574C1101.6 639.232 1080.14 616.821 1080.14 589.516Z" fill="black"/>
<path d="M1260.27 506.279C1256.76 500.501 1249.83 500.232 1249.83 500.232C1249.83 500.232 1243.07 499.389 1238.74 508.189C1234.7 516.391 1229.12 524.311 1237.84 526.231L1239.41 521.449L1240.39 526.587C1241.63 526.674 1242.88 526.695 1244.12 526.649C1253.46 526.355 1262.35 526.735 1262.06 523.466C1261.68 519.121 1263.64 511.839 1260.27 506.279Z" fill="#2F2E41"/>
<path d="M1237.34 556.881C1237.24 557.516 1237.09 558.144 1236.89 558.758C1236.67 559.36 1236.34 559.917 1236.14 560.524C1235.5 562.462 1236.38 564.623 1237.8 566.119C1239.03 567.41 1240.61 568.328 1242.36 568.761C1243.65 569.03 1244.96 569.165 1246.28 569.163C1249.92 569.284 1253.66 569.392 1257.11 568.249C1258.21 567.879 1259.26 567.412 1260.26 566.854C1260.58 566.707 1260.86 566.493 1261.08 566.227C1261.31 565.837 1261.41 565.388 1261.37 564.94C1261.37 563.433 1261.05 561.933 1261.13 560.428C1261.17 559.594 1261.33 558.761 1261.25 557.93C1261.14 556.986 1260.74 556.098 1260.09 555.387C1259.44 554.677 1258.59 554.178 1257.64 553.96C1256.66 553.755 1255.64 553.867 1254.65 553.961C1252.06 554.203 1249.46 554.317 1246.86 554.3C1244.2 554.284 1241.56 553.888 1238.92 553.847C1238.14 553.835 1238.15 554.07 1237.9 554.808C1237.67 555.487 1237.49 556.179 1237.34 556.881Z" fill="#2F2E41"/>
<path d="M1244.88 519.67C1244.75 520.322 1244.62 520.998 1244.21 521.534C1243.75 522.151 1243 522.503 1242.5 523.093C1241.75 523.981 1241.71 525.231 1241.71 526.381C1241.7 527.441 1241.73 528.57 1242.33 529.45C1242.76 529.996 1243.3 530.456 1243.91 530.805C1246.18 532.298 1248.63 533.817 1251.37 533.867C1252.5 533.887 1253.72 533.601 1254.47 532.768C1254.79 532.376 1255.04 531.935 1255.22 531.462C1255.92 529.779 1256.34 527.998 1256.47 526.186C1256.57 525.334 1256.49 524.471 1256.23 523.652C1255.9 522.747 1255.23 522.003 1254.78 521.145C1254.26 520.125 1254.07 518.972 1254.23 517.843C1254.26 517.763 1254.25 517.678 1254.21 517.603C1254.18 517.563 1254.13 517.532 1254.08 517.511C1254.03 517.491 1253.97 517.483 1253.92 517.487L1248.49 517.106C1247.99 517.081 1247.48 517.025 1246.98 516.937C1246.69 516.879 1245.92 516.474 1245.64 516.582C1245.12 516.781 1244.99 519.129 1244.88 519.67Z" fill="#A0616A"/>
<path opacity="0.1" d="M1244.88 519.835C1244.75 520.487 1244.62 521.163 1244.21 521.699C1243.75 522.316 1243 522.668 1242.5 523.258C1241.75 524.146 1241.71 525.396 1241.71 526.546C1241.7 527.606 1241.73 528.735 1242.33 529.615C1242.76 530.161 1243.3 530.621 1243.91 530.97C1246.18 532.463 1248.63 533.982 1251.37 534.032C1252.5 534.052 1253.72 533.766 1254.47 532.933C1254.79 532.541 1255.04 532.1 1255.22 531.627C1255.92 529.944 1256.34 528.163 1256.47 526.351C1256.57 525.499 1256.49 524.636 1256.23 523.817C1255.9 522.912 1255.23 522.168 1254.78 521.31C1254.26 520.29 1254.07 519.137 1254.23 518.008C1254.26 517.928 1254.25 517.843 1254.21 517.768C1254.18 517.728 1254.13 517.697 1254.08 517.676C1254.03 517.656 1253.97 517.648 1253.92 517.652L1248.49 517.271C1247.99 517.246 1247.48 517.19 1246.98 517.102C1246.69 517.044 1245.92 516.639 1245.64 516.747C1245.12 516.946 1244.99 519.294 1244.88 519.835Z" fill="black"/>
<path d="M1250.07 520.38C1254.47 520.38 1258.04 516.901 1258.04 512.61C1258.04 508.319 1254.47 504.84 1250.07 504.84C1245.67 504.84 1242.11 508.319 1242.11 512.61C1242.11 516.901 1245.67 520.38 1250.07 520.38Z" fill="#A0616A"/>
<path d="M1246 530.012C1246.39 530.457 1246.87 530.826 1247.4 531.103C1247.95 531.326 1248.55 531.437 1249.14 531.427C1250.58 531.467 1252.14 531.21 1253.14 530.203C1254.42 528.905 1254.38 526.812 1255.39 525.297C1255.47 525.16 1255.58 525.042 1255.71 524.95C1255.88 524.86 1256.08 524.818 1256.27 524.826C1257.54 524.815 1258.65 525.621 1259.65 526.39C1260.13 526.706 1260.53 527.108 1260.85 527.574C1261.04 527.951 1261.18 528.357 1261.25 528.775C1261.75 531.143 1261.91 533.564 1262.07 535.976C1262.16 537.309 1262.24 538.642 1262.24 539.977C1262.22 544.376 1261.17 548.7 1260.13 552.98C1259.99 553.531 1259.81 554.148 1259.29 554.412C1259.06 554.512 1258.82 554.571 1258.57 554.585C1255.58 554.927 1252.59 555.269 1249.59 555.314C1248.41 555.332 1247.24 555.304 1246.07 555.231C1245.87 555.228 1245.67 555.194 1245.48 555.13C1245.22 555.009 1245 554.825 1244.83 554.595C1243.21 552.597 1243.11 549.835 1243.12 547.284C1243.15 541.047 1243.37 534.815 1243.81 528.588C1243.84 528.074 1243.85 527.45 1243.47 527.046C1244.21 528.115 1245.06 529.108 1246 530.012Z" fill="white"/>
<path d="M1244.31 521.041C1244.04 521.516 1242.06 522.696 1241.68 523.089C1239.54 525.289 1235.63 525.207 1233.68 527.563C1232.99 528.392 1232.63 529.433 1232.37 530.469C1232 531.934 1231.8 533.531 1232.42 534.912C1233.02 536.241 1234.28 537.159 1235.14 538.346C1236.08 539.649 1236.5 541.232 1236.91 542.776C1237.21 543.916 1237.51 545.085 1237.39 546.256C1237.26 547.588 1236.6 548.808 1236.21 550.091C1235.82 551.374 1235.75 552.902 1236.65 553.91C1237.32 554.651 1238.36 554.945 1239.35 555.11C1240.62 555.297 1241.91 555.406 1243.19 555.436C1244.33 555.485 1245.58 555.495 1246.45 554.785C1247.14 554.224 1247.44 553.315 1247.48 552.44C1247.52 551.566 1247.33 550.7 1247.21 549.832C1247.09 548.933 1247.05 548.025 1247.01 547.119C1246.83 543.052 1246.81 538.983 1246.94 534.911C1247 534.065 1246.96 533.214 1246.81 532.378C1246.57 531.289 1245.96 530.315 1245.46 529.314C1244.45 527.429 1244 525.311 1244.14 523.19C1244.29 521.011 1245.27 519.351 1244.31 521.041Z" fill="white"/>
<path d="M1255.5 521.207C1255.91 521.617 1257.3 521.753 1257.82 522.017C1258.31 522.238 1258.82 522.411 1259.35 522.533C1261.25 523.068 1263.06 523.878 1264.71 524.936C1265.05 525.132 1265.36 525.388 1265.61 525.692C1265.87 526.108 1266.04 526.574 1266.1 527.059C1266.36 528.292 1266.62 529.54 1266.56 530.797C1266.5 532.132 1266.09 533.424 1265.68 534.698L1264.15 539.461C1263.01 543.016 1261.86 546.606 1261.54 550.318C1261.37 552.375 1261.44 554.446 1261.78 556.484C1261.81 556.584 1261.82 556.688 1261.8 556.791C1261.79 556.894 1261.76 556.993 1261.7 557.082C1261.6 557.179 1261.47 557.238 1261.33 557.25C1260.59 557.362 1259.88 556.995 1259.21 556.671C1257.17 555.68 1254.99 554.985 1252.74 554.607C1253.62 553.369 1254.3 552.007 1254.75 550.568C1255.01 549.655 1255.21 548.727 1255.36 547.791L1256.07 543.782C1256.36 542.317 1256.56 540.837 1256.68 539.35C1256.73 538.792 1256.7 538.229 1256.58 537.68C1256.41 537.158 1256.2 536.654 1255.93 536.174C1254.76 533.799 1254.21 531.088 1254.67 528.49C1254.87 527.353 1255.26 526.215 1255.1 525.073C1254.94 523.974 1255.11 523.12 1254.82 522.033C1253.63 517.57 1254.72 520.434 1255.5 521.207Z" fill="white"/>
<path d="M1233.66 531.319C1233.12 532.4 1232.23 533.32 1231.93 534.483C1231.81 535.026 1231.76 535.581 1231.78 536.136C1231.72 536.972 1231.81 537.812 1232.03 538.622C1232.2 539.134 1232.47 539.607 1232.67 540.109C1232.95 540.811 1233.07 541.562 1233.03 542.313C1232.98 543.354 1232.62 544.364 1232.59 545.406C1232.54 547.044 1233.32 548.584 1234.08 550.047C1234.27 549.586 1234.56 549.172 1234.93 548.832C1235.31 548.493 1235.75 548.237 1236.23 548.082C1236.72 547.928 1237.23 547.878 1237.74 547.937C1238.24 547.996 1238.73 548.162 1239.16 548.424C1239.34 548.216 1239.42 547.949 1239.39 547.682C1239.45 545.782 1239.5 543.881 1239.55 541.98C1239.63 539.041 1239.71 536.062 1239.02 533.2C1238.71 531.908 1238.22 530.621 1237.33 529.619C1236.86 529.091 1235.26 527.701 1234.49 528.292C1234.14 528.558 1234.22 529.282 1234.17 529.648C1234.09 530.227 1233.91 530.791 1233.66 531.319Z" fill="white"/>
<path d="M1266.71 528.205C1266.93 528.984 1267.02 529.791 1266.99 530.597C1267 532.24 1266.98 533.883 1266.92 535.525C1266.93 536.368 1266.82 537.207 1266.59 538.02C1266.42 538.549 1266.15 539.045 1265.98 539.572C1265.44 541.151 1265.73 542.864 1265.78 544.527C1265.81 545.065 1265.76 545.604 1265.64 546.129C1265.36 547.16 1264.6 547.992 1264.07 548.926C1263.57 549.813 1263.27 550.807 1262.67 551.634C1262.07 552.461 1261.03 553.117 1260.03 552.863C1259.27 552.671 1258.73 552.013 1258.35 551.338C1257.54 549.854 1257.26 548.144 1257.56 546.486C1257.94 544.469 1259.15 542.679 1259.59 540.673C1260.19 537.919 1259.28 535.077 1259.3 532.262C1259.29 531.82 1259.35 531.38 1259.48 530.958C1259.71 530.315 1260.21 529.801 1260.66 529.285C1261.23 528.641 1261.76 527.963 1262.25 527.256C1262.58 526.781 1263.02 525.56 1263.6 525.458C1264.89 525.231 1266.39 527.231 1266.71 528.205Z" fill="white"/>
<path d="M1226.95 555.656C1226.24 555.481 1225.5 555.405 1224.77 555.429C1223.99 555.471 1223.24 555.673 1222.55 556.022C1221.86 556.37 1221.26 556.858 1220.78 557.451C1220.3 558.045 1219.96 558.732 1219.77 559.465C1219.58 560.199 1219.56 560.963 1219.7 561.706C1219.88 562.512 1220.17 563.289 1220.56 564.016C1221.14 565.165 1221.84 566.31 1222.91 567.046C1223.56 567.451 1224.26 567.774 1224.99 568.009L1230.64 570.087C1231.47 570.393 1232.31 570.698 1233.15 570.982C1237.37 572.405 1241.77 573.258 1246.22 573.518C1247.58 573.642 1248.95 573.575 1250.28 573.318C1250.61 573.277 1250.9 573.12 1251.12 572.879C1251.22 572.696 1251.29 572.491 1251.3 572.281L1251.65 569.904C1251.73 569.573 1251.72 569.228 1251.62 568.902C1251.46 568.503 1251.06 568.252 1250.68 568.038C1246.96 565.955 1242.62 564.806 1239.49 561.947C1238.76 561.274 1238.14 560.207 1237.25 559.75C1236.23 559.232 1235.03 558.936 1233.99 558.458C1231.69 557.414 1229.44 556.214 1226.95 555.656Z" fill="#2F2E41"/>
<path opacity="0.1" d="M1232.6 558.86C1234.6 559.471 1243.03 563.703 1244.48 565.181C1244.29 565.25 1237.71 561.653 1237.51 561.595C1235.7 561.111 1233.93 560.502 1232.21 559.773C1231.87 559.618 1229.98 558.891 1230.07 558.469C1230.16 557.993 1232.24 558.751 1232.6 558.86Z" fill="black"/>
<path d="M1257.53 574.751C1257.65 574.759 1257.76 574.727 1257.85 574.66C1257.89 574.61 1257.92 574.553 1257.93 574.492C1257.95 574.431 1257.96 574.367 1257.95 574.304L1257.94 571.067C1256.98 570.623 1255.92 570.481 1254.87 570.345L1249.98 569.707C1250.09 569.722 1249.22 571.761 1249.35 572.033C1249.59 572.513 1251.4 572.939 1251.91 573.165C1253.69 573.953 1255.53 574.819 1257.53 574.751Z" fill="#A0616A"/>
<path d="M1242.19 571.055C1241.27 571.198 1240.24 571.325 1239.64 572.026C1238.88 572.915 1239.21 574.24 1239.57 575.341C1239.59 575.483 1239.64 575.62 1239.72 575.742C1239.8 575.865 1239.9 575.971 1240.02 576.055C1240.14 576.138 1240.27 576.198 1240.42 576.229C1240.56 576.261 1240.71 576.264 1240.85 576.238C1241.7 576.29 1242.59 576.331 1243.33 575.928C1243.66 575.713 1243.98 575.481 1244.29 575.231C1244.83 574.879 1245.43 574.613 1246.05 574.444C1247.21 574.089 1248.4 573.851 1249.6 573.731C1250.07 573.71 1250.54 573.629 1251 573.491C1251.22 573.419 1251.43 573.298 1251.6 573.137C1251.77 572.975 1251.9 572.777 1251.98 572.559C1252.15 571.971 1251.8 571.371 1251.46 570.855C1251.08 570.179 1250.57 569.573 1249.98 569.062C1249.07 568.372 1248.62 568.902 1247.7 569.343C1245.96 570.18 1244.11 570.756 1242.19 571.055Z" fill="#A0616A"/>
<path d="M1239.78 571.866L1233.92 570.176C1233.22 569.937 1232.48 569.799 1231.74 569.764C1231.37 569.749 1231 569.812 1230.65 569.948C1230.31 570.084 1229.99 570.291 1229.74 570.554C1229.28 571.074 1229.15 571.786 1229.04 572.46L1228.8 573.903C1228.64 574.631 1228.59 575.378 1228.66 576.12C1228.7 576.49 1228.83 576.847 1229.03 577.164C1229.23 577.48 1229.5 577.747 1229.83 577.945C1230.64 578.377 1231.63 578.166 1232.54 577.986C1234.36 577.621 1236.22 577.426 1238.09 577.405C1238.79 577.396 1239.53 577.405 1240.15 577.084C1240.51 576.876 1240.81 576.586 1241.03 576.238C1241.25 575.89 1241.37 575.495 1241.4 575.088C1241.52 573.855 1241.09 572.245 1239.78 571.866Z" fill="#2F2E41"/>
<path d="M1259.84 570.394C1260.6 570.264 1261.27 569.842 1261.99 569.594C1263.02 569.244 1264.13 569.244 1265.21 569.248C1265.61 569.212 1266.02 569.29 1266.37 569.473C1266.85 569.784 1266.97 570.405 1267.05 570.96L1267.54 574.308C1267.67 574.933 1267.69 575.575 1267.58 576.205C1267.44 576.825 1267.01 577.423 1266.37 577.583C1265.61 577.777 1264.86 577.3 1264.13 576.986C1262.32 576.202 1260.22 576.402 1258.34 575.816C1258.16 575.781 1257.99 575.709 1257.84 575.604C1257.69 575.5 1257.56 575.366 1257.47 575.211C1257.4 575.025 1257.38 574.828 1257.4 574.632C1257.43 573.556 1257.2 572.087 1257.53 571.059C1257.83 570.134 1258.99 570.394 1259.84 570.394Z" fill="#2F2E41"/>
<path d="M1272.24 554.309C1273.41 554.022 1274.62 553.942 1275.82 554.07C1276.78 554.173 1277.77 554.433 1278.47 555.08C1279.32 555.868 1279.59 557.086 1279.62 558.231C1279.66 560.511 1278.88 562.733 1277.42 564.518C1277.07 564.969 1276.65 565.366 1276.17 565.695C1275.66 566.009 1275.11 566.266 1274.54 566.462L1261.88 571.335C1258.54 572.617 1255.2 573.903 1251.73 574.748C1251.63 574.793 1251.53 574.818 1251.42 574.824C1251.32 574.829 1251.21 574.813 1251.11 574.778C1251.01 574.743 1250.92 574.689 1250.85 574.619C1250.77 574.549 1250.71 574.465 1250.66 574.371C1249.55 572.825 1248.62 571.164 1247.89 569.418C1247.85 569.377 1247.83 569.328 1247.82 569.275C1247.81 569.223 1247.81 569.168 1247.82 569.117C1247.84 569.065 1247.86 569.018 1247.9 568.979C1247.94 568.94 1247.99 568.91 1248.04 568.892L1256.99 563.871C1257.65 563.537 1258.26 563.126 1258.82 562.646C1259.21 562.28 1259.52 561.849 1259.75 561.375C1259.94 560.996 1259.96 560.104 1260.19 559.824C1260.43 559.55 1261.22 559.528 1261.59 559.421C1262.1 559.266 1262.61 559.079 1263.1 558.861C1265.11 557.987 1266.89 556.716 1268.81 555.692C1269.89 555.092 1271.04 554.627 1272.24 554.309Z" fill="#2F2E41"/>
<path opacity="0.1" d="M1267.16 558.057C1265.62 559.185 1263.63 560.221 1262.1 561.379C1261.58 561.774 1252.91 566.533 1252.78 567.165C1254.21 567.399 1263.27 561.213 1264.57 560.596C1265.86 559.978 1267.01 559.108 1268.15 558.244C1268.44 558.024 1269.67 557.362 1268.84 557.116C1268.37 556.977 1267.51 557.832 1267.16 558.057Z" fill="black"/>
<path d="M1256.57 521.315H1243.06C1242.52 521.315 1241.99 521.528 1241.6 521.907C1241.21 522.285 1241 522.799 1241 523.334V524.073H1240.85V525.727H1241V526.884H1240.85V527.876H1241V540.074C1241 540.609 1241.21 541.123 1241.6 541.501C1241.99 541.88 1242.52 542.093 1243.06 542.093H1256.57C1257.12 542.093 1257.65 541.88 1258.04 541.501C1258.42 541.123 1258.64 540.609 1258.64 540.074V523.334C1258.64 522.799 1258.42 522.285 1258.04 521.907C1257.65 521.528 1257.12 521.315 1256.57 521.315Z" fill="#D0CDE1"/>
<path d="M1258.72 505.723L1251.87 502.222L1242.41 503.654L1240.45 512.088L1245.32 511.905L1246.68 508.807V511.855L1248.93 511.77L1250.24 506.837L1251.05 512.088L1259.05 511.929L1258.72 505.723Z" fill="#2F2E41"/>
<path d="M1235.45 553.216C1235.76 553.73 1236.2 554.157 1236.73 554.457C1237.07 554.611 1237.45 554.687 1237.83 554.677C1238.21 554.667 1238.59 554.572 1238.93 554.399C1239.6 554.047 1240.15 553.507 1240.51 552.848C1241.26 551.565 1241.41 550.03 1241.32 548.559C1241.23 547.087 1240.9 545.639 1240.76 544.171C1240.66 543.104 1240.65 542.031 1240.64 540.959C1240.61 540.734 1240.66 540.507 1240.78 540.31C1240.98 540.117 1241.24 539.991 1241.51 539.952C1243.02 539.517 1244.01 538.142 1244.73 536.781C1245.21 535.873 1245.62 534.879 1245.53 533.862C1245.44 532.845 1244.69 531.82 1243.65 531.716C1242.79 531.631 1241.99 532.163 1241.38 532.749C1239.81 534.237 1238.81 536.195 1238.52 538.307C1238.39 539.341 1238.43 540.404 1238.14 541.408C1237.52 543.552 1235.6 544.866 1234.64 546.796C1233.58 548.921 1234.16 551.335 1235.45 553.216Z" fill="#A0616A"/>
<path d="M1263.8 545.025C1263.58 545.522 1263.26 545.971 1262.86 546.346C1262.46 546.721 1261.99 547.014 1261.47 547.208C1260.82 547.46 1260.11 547.503 1259.44 547.329C1259.11 547.239 1258.8 547.075 1258.55 546.851C1258.29 546.627 1258.09 546.347 1257.96 546.035C1257.86 545.72 1257.8 545.393 1257.79 545.063C1257.7 543.617 1257.73 542.127 1258.27 540.777C1258.48 540.256 1258.76 539.762 1258.92 539.226C1259.09 538.608 1259.17 537.972 1259.17 537.334L1259.35 533.389C1259.38 533.103 1259.36 532.814 1259.29 532.534C1259.11 531.963 1258.56 531.592 1258.06 531.252C1256.85 530.43 1255.65 529.47 1255.06 528.149C1254.86 527.752 1254.79 527.303 1254.86 526.864C1255.02 526.081 1255.83 525.574 1256.63 525.403C1257.16 525.291 1257.7 525.284 1258.23 525.382C1258.75 525.48 1259.26 525.681 1259.7 525.973C1260.15 526.265 1260.53 526.642 1260.82 527.081C1261.11 527.52 1261.31 528.012 1261.4 528.528C1261.48 528.973 1261.48 529.427 1261.52 529.877C1261.62 530.831 1261.93 531.75 1262.13 532.69C1262.61 535.004 1262.36 537.396 1262.83 539.711C1263.23 541.645 1264.72 542.908 1263.8 545.025Z" fill="#A0616A"/>
<path d="M1250 530.19C1250.94 530.19 1251.69 529.45 1251.69 528.537C1251.69 527.624 1250.94 526.884 1250 526.884C1249.06 526.884 1248.3 527.624 1248.3 528.537C1248.3 529.45 1249.06 530.19 1250 530.19Z" fill="#FF7263"/>
<path d="M1066 587.954C1068.76 587.954 1071 585.77 1071 583.077C1071 580.384 1068.76 578.2 1066 578.2C1063.24 578.2 1061 580.384 1061 583.077C1061 585.77 1063.24 587.954 1066 587.954Z" fill="#2F2E41"/>
<path d="M1084.12 597.555L1081.6 595.167L1076.55 596.699L1077.03 602.41L1087.43 601.939L1084.23 597.706L1084.12 597.555Z" fill="#FBBEBE"/>
<path d="M1078.61 597.505C1083.08 597.505 1086.69 593.975 1086.69 589.621C1086.69 585.266 1083.08 581.736 1078.61 581.736C1074.15 581.736 1070.53 585.266 1070.53 589.621C1070.53 593.975 1074.15 597.505 1078.61 597.505Z" fill="#FBBEBE"/>
<path d="M1128.78 607.674C1128.78 607.674 1138.71 624.32 1141.08 626.819C1142.2 628.048 1143.4 629.212 1144.66 630.305C1144.66 630.305 1143.55 633.899 1141.78 633.771C1140.77 633.712 1139.78 633.474 1138.86 633.069C1138.86 633.069 1138.07 631.072 1136.7 630.196C1135.32 629.321 1124.06 618.52 1124.33 615.069C1124.59 611.617 1128.78 607.674 1128.78 607.674Z" fill="#2F2E41"/>
<path d="M1093.43 631.429C1093.43 631.429 1104.01 639.444 1118.4 631.912L1119.64 631.022C1119.64 631.022 1117.55 635.614 1117.35 636.859C1117.13 638.303 1111.68 646.759 1110.79 647.164C1109.9 647.569 1109.71 647.943 1109.71 647.943L1113.48 651.994L1114.87 650.992C1114.87 650.992 1120.31 643.475 1121.9 642.1C1123.49 640.725 1131.07 626.543 1131.07 626.543C1131.07 626.543 1133.97 621.199 1126.74 620.797C1119.51 620.396 1116.18 622.318 1116.18 622.318L1103.34 624.307L1093.43 631.429Z" fill="#2F2E41"/>
<path d="M1144.78 629.518L1150.14 633.132C1150.14 633.132 1156.97 635.22 1152.76 636.609C1148.55 637.999 1137.46 638.501 1137.21 636.584C1136.96 634.667 1137.65 631.65 1138.2 631.815C1138.76 631.98 1142.6 632.952 1144.78 629.518Z" fill="#2F2E41"/>
<path d="M1115.35 649.75L1116.34 655.06C1116.34 655.06 1119.16 660.317 1115.77 658.686C1112.39 657.055 1105.42 650.858 1106.45 649.559C1107.48 648.26 1109.75 646.851 1109.98 647.274C1110.21 647.697 1111.92 650.532 1115.35 649.75Z" fill="#2F2E41"/>
<path d="M1105.14 626.051C1105.14 626.051 1097.94 634.247 1093.57 632.256C1089.2 630.265 1071.33 607.204 1073.37 602.941C1075.41 598.679 1076.1 599.586 1076.1 599.586L1085.32 600.419L1082.67 596.265C1082.67 596.265 1083.91 595.375 1085.09 596.625C1086.27 597.874 1091.01 600.995 1092.67 605.402C1094.32 609.81 1099.17 609.59 1099.17 609.59L1105.14 626.051Z" fill="white"/>
<path d="M1134.2 609.149L1121.72 622.067L1110.55 602.819L1121.17 590.298L1134.2 609.149Z" fill="#3F3D56"/>
<path d="M1133.26 609.009L1121.99 620.361L1111.78 602.868L1121.14 591.368L1133.26 609.009Z" fill="white"/>
<path d="M1121.11 621.573L1121.72 622.067L1121.33 622.814L1103.89 627.879L1103.72 627.296L1104.52 626.495L1121.11 621.573Z" fill="#B3B3B3"/>
<path d="M1121.88 621.956L1103.82 627.465L1092.8 607.168L1110.55 602.819L1121.88 621.956Z" fill="#D0CDE1"/>
<path d="M1120.52 619.203L1119.74 619.759L1111.14 605.19L1112.03 604.785L1120.52 619.203Z" fill="#3F3D56"/>
<path d="M1118.74 620.013L1111.1 622.236L1102.43 607.253L1109.98 605.556L1118.74 620.013Z" fill="#3F3D56"/>
<path d="M1097.21 608.897L1098.8 608.46C1098.8 608.46 1107.62 607.487 1107.75 610.192C1107.88 612.896 1097.61 611.641 1097.61 611.641L1096.24 609.827L1097.21 608.897Z" fill="#FBBEBE"/>
<path d="M1104.95 621.055L1107.15 620.174C1107.15 620.174 1113.8 617.266 1111.89 615.372C1109.99 613.478 1104.11 616.767 1104.11 616.767L1102.98 617.809L1104.95 621.055Z" fill="#FBBEBE"/>
<path d="M1102.99 616.87C1102.99 616.87 1106.58 620.356 1105.76 621.175C1104.94 621.993 1091.57 632.763 1088.25 629.317C1084.93 625.871 1068.78 608.57 1075.06 607.086C1081.35 605.602 1083.01 609.071 1083.01 609.071L1091.31 622.924L1102.99 616.87Z" fill="white"/>
<path d="M1092.25 606.28L1098.14 608.229L1098.05 612.377L1091.82 611.721L1092.25 606.28Z" fill="white"/>
<path opacity="0.2" d="M1097.56 619.019L1091.22 622.642L1083.97 611.765L1090.97 620.725L1097.56 619.019Z" fill="black"/>
<path d="M1075.07 596.722C1080.38 596.722 1084.69 592.519 1084.69 587.335C1084.69 582.152 1080.38 577.949 1075.07 577.949C1069.75 577.949 1065.44 582.152 1065.44 587.335C1065.44 592.519 1069.75 596.722 1075.07 596.722Z" fill="#2F2E41"/>
<path d="M1127.05 609.968L1120.31 600.354L1123.17 596.905L1130.17 606.797L1127.05 609.968Z" fill="#FF7263"/>
<path d="M1126.86 613.834L1116.6 599.288L1117.11 598.691L1127.32 613.272L1126.86 613.834Z" fill="#E6E6E6"/>
<path d="M1125.54 615.249L1115.28 600.703L1115.79 600.106L1126 614.687L1125.54 615.249Z" fill="#E6E6E6"/>
<path d="M1124.41 616.29L1114.16 601.744L1114.66 601.147L1124.87 615.728L1124.41 616.29Z" fill="#E6E6E6"/>
<path d="M1079.33 581.069H1082.3C1083.81 581.069 1085.25 581.653 1086.32 582.693C1087.39 583.732 1087.98 585.142 1087.98 586.613H1079.33V581.069Z" fill="#2F2E41"/>
<path d="M1120.32 577.541L1119.78 577.502C1119.76 577.776 1119.75 578.051 1119.73 578.326L1117.31 578.246L1119.85 582.891L1122.7 578.423L1120.27 578.343C1120.29 578.076 1120.3 577.808 1120.32 577.541Z" fill="#3F3D56"/>
<path d="M1134.53 539.685L1134.96 540.006C1135.6 539.181 1136.28 538.358 1136.96 537.559L1136.55 537.221C1135.86 538.025 1135.18 538.855 1134.53 539.685Z" fill="#3F3D56"/>
<path d="M1138.67 534.846L1139.07 535.201C1139.79 534.434 1140.54 533.673 1141.29 532.937L1140.91 532.564C1140.15 533.305 1139.4 534.073 1138.67 534.846Z" fill="#3F3D56"/>
<path d="M1143.24 530.381L1143.6 530.77C1144.39 530.067 1145.2 529.372 1146.01 528.705L1145.66 528.301C1144.84 528.973 1144.03 529.673 1143.24 530.381Z" fill="#3F3D56"/>
<path d="M1130.83 544.864L1131.29 545.146C1131.86 544.268 1132.46 543.39 1133.07 542.536L1132.62 542.234C1132.01 543.095 1131.41 543.98 1130.83 544.864Z" fill="#3F3D56"/>
<path d="M1148.18 526.327L1148.51 526.746C1149.36 526.113 1150.23 525.49 1151.1 524.896L1150.79 524.464C1149.91 525.062 1149.03 525.689 1148.18 526.327Z" fill="#3F3D56"/>
<path d="M1127.62 550.343L1128.11 550.585C1128.59 549.66 1129.11 548.733 1129.64 547.831L1129.17 547.568C1128.63 548.478 1128.11 549.411 1127.62 550.343Z" fill="#3F3D56"/>
<path d="M1122.4 565.203L1121.88 565.071C1121.61 566.084 1121.37 567.117 1121.14 568.142L1121.67 568.25C1121.89 567.234 1122.14 566.208 1122.4 565.203Z" fill="#3F3D56"/>
<path d="M1153.47 522.714L1153.76 523.16C1154.66 522.603 1155.58 522.058 1156.5 521.541L1156.23 521.083C1155.31 521.605 1154.38 522.154 1153.47 522.714Z" fill="#3F3D56"/>
<path d="M1121.08 571.327L1120.55 571.241C1120.38 572.272 1120.22 573.322 1120.1 574.363L1120.63 574.425C1120.76 573.392 1120.91 572.35 1121.08 571.327Z" fill="#3F3D56"/>
<path d="M1124.92 556.082L1125.42 556.281C1125.83 555.317 1126.25 554.349 1126.7 553.403L1126.21 553.183C1125.76 554.136 1125.33 555.111 1124.92 556.082Z" fill="#3F3D56"/>
<path d="M1122.76 562.036L1123.27 562.191C1123.59 561.194 1123.92 560.192 1124.28 559.212L1123.77 559.035C1123.41 560.023 1123.07 561.033 1122.76 562.036Z" fill="#3F3D56"/>
<path d="M1190.08 512.192C1191.14 512.157 1192.22 512.142 1193.29 512.152L1193.29 511.624C1192.22 511.614 1191.13 511.629 1190.06 511.665L1190.08 512.192Z" fill="#3F3D56"/>
<path d="M1159.07 519.574L1159.31 520.042C1160.26 519.565 1161.23 519.102 1162.19 518.666L1161.96 518.188C1160.99 518.626 1160.02 519.092 1159.07 519.574Z" fill="#3F3D56"/>
<path d="M1202.88 512.851C1203.94 512.997 1205 513.167 1206.05 513.358L1206.15 512.839C1205.1 512.647 1204.02 512.475 1202.96 512.328L1202.88 512.851Z" fill="#3F3D56"/>
<path d="M1209.19 514.001C1210.23 514.237 1211.27 514.5 1212.3 514.781L1212.44 514.273C1211.41 513.989 1210.36 513.725 1209.31 513.487L1209.19 514.001Z" fill="#3F3D56"/>
<path d="M1215.37 515.696C1216.38 516.021 1217.39 516.373 1218.39 516.742L1218.58 516.249C1217.58 515.877 1216.55 515.522 1215.54 515.194L1215.37 515.696Z" fill="#3F3D56"/>
<path d="M1196.5 512.248C1197.56 512.302 1198.64 512.381 1199.7 512.48L1199.75 511.955C1198.68 511.854 1197.6 511.776 1196.52 511.721L1196.5 512.248Z" fill="#3F3D56"/>
<path d="M1183.62 512.159L1183.68 512.683C1184.74 512.556 1185.81 512.451 1186.87 512.369L1186.83 511.843C1185.76 511.925 1184.68 512.031 1183.62 512.159Z" fill="#3F3D56"/>
<path d="M1170.99 514.8L1171.15 515.304C1172.17 514.997 1173.21 514.708 1174.24 514.445L1174.1 513.935C1173.06 514.199 1172.02 514.49 1170.99 514.8Z" fill="#3F3D56"/>
<path d="M1164.92 516.928L1165.12 517.416C1166.11 517.022 1167.11 516.645 1168.11 516.296L1167.93 515.799C1166.92 516.151 1165.91 516.531 1164.92 516.928Z" fill="#3F3D56"/>
<path d="M1177.25 513.205L1177.36 513.721C1178.4 513.503 1179.46 513.306 1180.51 513.133L1180.42 512.612C1179.36 512.786 1178.29 512.986 1177.25 513.205Z" fill="#3F3D56"/>
<path d="M1226.46 520.006L1223.44 515.646L1222.38 517.782C1222.12 517.67 1221.86 517.555 1221.61 517.446L1221.39 517.931C1221.64 518.037 1221.89 518.148 1222.14 518.257L1221.08 520.382L1226.46 520.006Z" fill="#3F3D56"/>
</g>
</g>
</g>
<defs>
<clipPath id="clip0_25_250">
<rect width="1500" height="1500" fill="white"/>
</clipPath>
<clipPath id="clip1_25_250">
<rect width="1190" height="979" fill="white" transform="translate(158 287)"/>
</clipPath>
<clipPath id="clip2_25_250">
<rect width="245" height="193" fill="white" transform="translate(1061 466)"/>
</clipPath>
</defs>
</svg>
