<svg width="1500" height="1500" viewBox="0 0 1500 1500" fill="none" xmlns="http://www.w3.org/2000/svg">
<g clip-path="url(#clip0_22_2610)">
<path d="M648.834 835.321C659.306 851.968 674.163 864.471 691.295 871.054C694.96 872.545 698.812 873.376 702.707 873.514C706.505 873.511 710.233 872.361 713.504 870.183C716.589 868.222 719.544 865.813 722.999 864.732C724.775 864.208 726.629 864.113 728.439 864.454C730.249 864.795 731.976 865.563 733.504 866.709C737.379 869.452 740.148 873.602 742.731 877.766C745.599 882.39 748.514 887.243 752.991 890.05C753.533 890.39 753.034 891.32 752.492 890.98C744.702 886.096 741.818 875.738 735.188 869.441C732.094 866.503 728.196 864.598 724.107 865.547C720.532 866.378 717.483 868.859 714.373 870.875C711.21 873.052 707.623 874.323 703.924 874.576C700.035 874.661 696.162 874 692.47 872.62C684.114 869.663 676.223 865.242 669.085 859.521C660.906 853.042 653.771 845.033 647.987 835.84C647.629 835.271 648.479 834.756 648.834 835.321V835.321Z" fill="white"/>
<path d="M685.668 869.3C684.298 872.392 681.998 874.834 679.18 876.19C676.361 877.546 673.207 877.728 670.28 876.703C669.688 876.493 669.949 875.447 670.542 875.657C673.265 876.617 676.204 876.447 678.826 875.178C681.449 873.909 683.583 871.625 684.843 868.738C685.118 868.111 685.941 868.677 685.668 869.3V869.3Z" fill="white"/>
<path d="M712.055 871.41C710.125 864.689 706.02 859.035 700.558 855.575C700.017 855.233 700.517 854.304 701.057 854.646C706.735 858.257 710.996 864.151 712.991 871.15C713.18 871.817 712.244 872.073 712.055 871.41Z" fill="white"/>
<path d="M661.996 852.289C662.747 851.217 663.25 849.952 663.46 848.607C663.671 847.262 663.581 845.879 663.2 844.582C663.003 843.918 663.94 843.663 664.136 844.323C664.551 845.757 664.648 847.285 664.419 848.771C664.189 850.258 663.641 851.659 662.82 852.851C662.752 852.971 662.645 853.057 662.522 853.091C662.399 853.125 662.269 853.105 662.159 853.035C662.05 852.96 661.972 852.839 661.941 852.7C661.911 852.56 661.93 852.412 661.996 852.289V852.289Z" fill="white"/>
<path d="M711.942 828.203C709.198 829.742 706.059 830.13 703.084 829.299C700.109 828.468 697.494 826.472 695.704 823.666C695.343 823.097 696.111 822.439 696.471 823.009C698.134 825.625 700.571 827.484 703.342 828.251C706.113 829.019 709.037 828.644 711.584 827.194C712.138 826.88 712.493 827.891 711.942 828.203Z" fill="white"/>
<path d="M731.885 847.803C733.933 841.127 733.674 833.826 731.16 827.355C730.91 826.714 731.805 826.311 732.054 826.951C734.66 833.69 734.915 841.289 732.771 848.231C732.566 848.893 731.682 848.461 731.885 847.803Z" fill="white"/>
<path d="M702.124 798.548C703.296 798.202 704.373 797.534 705.259 796.602C706.145 795.671 706.812 794.506 707.201 793.213C707.398 792.548 708.282 792.981 708.086 793.641C707.652 795.068 706.914 796.353 705.937 797.385C704.96 798.416 703.774 799.162 702.482 799.557C702.363 799.606 702.232 799.602 702.116 799.545C702 799.489 701.907 799.385 701.856 799.254C701.809 799.121 701.811 798.971 701.861 798.839C701.912 798.707 702.006 798.602 702.124 798.548H702.124Z" fill="white"/>
<path d="M1345.1 829.343C1336.52 847.315 1323.14 861.783 1306.85 870.691C1303.38 872.679 1299.65 874.036 1295.79 874.714C1292.03 875.237 1288.2 874.612 1284.72 872.905C1281.44 871.386 1278.25 869.405 1274.7 868.811C1272.88 868.537 1271.03 868.7 1269.27 869.289C1267.51 869.878 1265.88 870.88 1264.49 872.229C1260.94 875.489 1258.65 879.991 1256.54 884.481C1254.19 889.467 1251.83 894.688 1247.69 898.094C1247.19 898.507 1247.79 899.36 1248.29 898.948C1255.49 893.022 1257.22 882.342 1263.12 875.174C1265.87 871.829 1269.53 869.398 1273.69 869.774C1277.33 870.102 1280.62 872.142 1283.93 873.712C1287.31 875.434 1291 876.197 1294.7 875.936C1298.57 875.482 1302.34 874.288 1305.86 872.407C1313.83 868.314 1321.18 862.833 1327.64 856.166C1335.05 848.602 1341.26 839.665 1345.99 829.74C1346.29 829.126 1345.39 828.732 1345.1 829.343Z" fill="white"/>
<path d="M1312.25 868.17C1313.94 871.049 1316.49 873.153 1319.44 874.108C1322.38 875.063 1325.53 874.806 1328.32 873.384C1328.89 873.094 1328.51 872.092 1327.95 872.382C1325.35 873.712 1322.42 873.951 1319.68 873.055C1316.93 872.159 1314.57 870.188 1313 867.498C1312.66 866.913 1311.91 867.589 1312.25 868.17Z" fill="white"/>
<path d="M1286.29 873.921C1287.47 866.984 1290.93 860.804 1295.97 856.614C1296.47 856.199 1295.87 855.346 1295.38 855.76C1290.13 860.131 1286.55 866.571 1285.33 873.793C1285.22 874.482 1286.17 874.606 1286.29 873.921H1286.29Z" fill="white"/>
<path d="M1333.88 848.005C1333.02 847.046 1332.38 845.86 1332.03 844.554C1331.67 843.248 1331.61 841.863 1331.85 840.524C1331.97 839.837 1331.01 839.714 1330.89 840.396C1330.64 841.877 1330.71 843.407 1331.1 844.85C1331.49 846.294 1332.18 847.608 1333.13 848.678C1333.21 848.787 1333.32 848.857 1333.45 848.874C1333.57 848.891 1333.7 848.853 1333.8 848.768C1333.9 848.679 1333.97 848.548 1333.98 848.405C1334 848.262 1333.96 848.119 1333.88 848.005H1333.88Z" fill="white"/>
<path d="M1287.19 777.721C1289.94 797.895 1286.98 818.532 1278.73 836.701C1277.02 840.648 1274.76 844.265 1272.05 847.42C1269.32 850.398 1265.93 852.496 1262.24 853.497C1258.81 854.509 1255.2 855.097 1252.05 857.03C1250.45 858.047 1249.06 859.433 1247.97 861.098C1246.88 862.763 1246.12 864.669 1245.73 866.691C1244.64 871.702 1245.21 876.855 1245.92 881.873C1246.71 887.444 1247.61 893.217 1246.13 898.746C1245.95 899.416 1246.88 899.692 1247.06 899.023C1249.64 889.404 1245.32 879.7 1246.2 869.975C1246.61 865.437 1248.24 861.011 1251.76 858.485C1254.84 856.277 1258.56 855.667 1262.04 854.677C1265.65 853.759 1269.02 851.858 1271.83 849.138C1274.68 846.149 1277.05 842.635 1278.85 838.747C1283.03 830.068 1285.97 820.702 1287.57 810.992C1289.45 799.922 1289.63 788.571 1288.12 777.43C1288.02 776.74 1287.1 777.036 1287.19 777.721Z" fill="white"/>
<path d="M1281.69 831.026C1284.58 832.173 1287.74 832.123 1290.6 830.886C1293.46 829.649 1295.84 827.305 1297.31 824.273C1297.61 823.658 1296.77 823.111 1296.48 823.727C1295.11 826.553 1292.9 828.736 1290.23 829.882C1287.56 831.028 1284.62 831.061 1281.94 829.975C1281.35 829.74 1281.11 830.793 1281.69 831.026Z" fill="white"/>
<path d="M1264.04 853.242C1261.28 846.9 1260.74 839.618 1262.53 832.848C1262.7 832.178 1261.77 831.902 1261.59 832.572C1259.74 839.62 1260.32 847.197 1263.2 853.79C1263.48 854.418 1264.31 853.867 1264.04 853.242Z" fill="white"/>
<path d="M1288.2 800.235C1287 800.054 1285.86 799.54 1284.88 798.739C1283.9 797.937 1283.11 796.874 1282.58 795.644C1282.31 795.012 1281.48 795.564 1281.75 796.191C1282.34 797.547 1283.21 798.721 1284.29 799.609C1285.37 800.497 1286.63 801.073 1287.96 801.286C1288.08 801.318 1288.21 801.296 1288.32 801.224C1288.43 801.152 1288.51 801.036 1288.54 800.899C1288.58 800.76 1288.56 800.612 1288.49 800.487C1288.43 800.363 1288.32 800.272 1288.2 800.235V800.235Z" fill="white"/>
<path d="M1243.63 543.013H1231.37C1231.13 543.014 1230.9 543.123 1230.73 543.314C1230.56 543.505 1230.47 543.764 1230.47 544.035C1230.46 544.189 1230.5 544.341 1230.56 544.476C1230.64 544.649 1230.75 544.796 1230.89 544.899C1231.04 545.002 1231.2 545.057 1231.37 545.057H1243.63C1243.81 545.058 1243.97 545.004 1244.12 544.901C1244.27 544.798 1244.38 544.651 1244.46 544.476C1244.51 544.339 1244.54 544.187 1244.54 544.035C1244.54 543.901 1244.52 543.768 1244.47 543.644C1244.43 543.52 1244.36 543.407 1244.28 543.312C1244.19 543.217 1244.09 543.142 1243.98 543.09C1243.87 543.039 1243.75 543.013 1243.63 543.013Z" fill="white"/>
<path d="M1243.63 546.854H1231.37C1231.13 546.854 1230.9 546.962 1230.73 547.154C1230.56 547.346 1230.47 547.606 1230.47 547.877C1230.47 548.148 1230.56 548.408 1230.73 548.6C1230.9 548.791 1231.13 548.899 1231.37 548.899H1243.63C1243.88 548.899 1244.11 548.791 1244.28 548.6C1244.45 548.408 1244.54 548.148 1244.54 547.877C1244.54 547.606 1244.45 547.346 1244.28 547.154C1244.11 546.962 1243.88 546.854 1243.63 546.854Z" fill="white"/>
<path d="M736.221 540.716C737.77 540.716 739.025 539.3 739.025 537.553C739.025 535.806 737.77 534.39 736.221 534.39C734.671 534.39 733.416 535.806 733.416 537.553C733.416 539.3 734.671 540.716 736.221 540.716Z" fill="white"/>
<path d="M746.867 540.716C748.416 540.716 749.672 539.3 749.672 537.553C749.672 535.806 748.416 534.39 746.867 534.39C745.318 534.39 744.062 535.806 744.062 537.553C744.062 539.3 745.318 540.716 746.867 540.716Z" fill="white"/>
<path d="M757.514 540.716C759.064 540.716 760.319 539.3 760.319 537.553C760.319 535.806 759.064 534.39 757.514 534.39C755.965 534.39 754.709 535.806 754.709 537.553C754.709 539.3 755.965 540.716 757.514 540.716Z" fill="white"/>
<path d="M915.61 676.297C917.159 676.297 918.415 674.881 918.415 673.134C918.415 671.387 917.159 669.971 915.61 669.971C914.061 669.971 912.805 671.387 912.805 673.134C912.805 674.881 914.061 676.297 915.61 676.297Z" fill="white"/>
<path d="M926.257 676.297C927.806 676.297 929.062 674.881 929.062 673.134C929.062 671.387 927.806 669.971 926.257 669.971C924.707 669.971 923.452 671.387 923.452 673.134C923.452 674.881 924.707 676.297 926.257 676.297Z" fill="white"/>
<path d="M936.904 676.297C938.453 676.297 939.709 674.881 939.709 673.134C939.709 671.387 938.453 669.971 936.904 669.971C935.355 669.971 934.099 671.387 934.099 673.134C934.099 674.881 935.355 676.297 936.904 676.297Z" fill="white"/>
<g clip-path="url(#clip1_22_2610)">
<path d="M991.184 324.601H295.114C294.407 324.586 293.734 324.295 293.24 323.789C292.745 323.284 292.468 322.605 292.468 321.898C292.468 321.191 292.745 320.511 293.24 320.006C293.734 319.501 294.407 319.209 295.114 319.194H991.184C991.891 319.209 992.564 319.501 993.058 320.006C993.553 320.511 993.83 321.191 993.83 321.898C993.83 322.605 993.553 323.284 993.058 323.789C992.564 324.295 991.891 324.586 991.184 324.601Z" fill="#CACACA"/>
<path d="M341.376 305.392C350.124 305.392 357.215 298.141 357.215 289.196C357.215 280.251 350.124 273 341.376 273C332.629 273 325.537 280.251 325.537 289.196C325.537 298.141 332.629 305.392 341.376 305.392Z" fill="#3F3D56"/>
<path d="M396.092 305.392C404.839 305.392 411.93 298.141 411.93 289.196C411.93 280.251 404.839 273 396.092 273C387.344 273 380.253 280.251 380.253 289.196C380.253 298.141 387.344 305.392 396.092 305.392Z" fill="#3F3D56"/>
<path d="M450.807 305.392C459.555 305.392 466.646 298.141 466.646 289.196C466.646 280.251 459.555 273 450.807 273C442.06 273 434.969 280.251 434.969 289.196C434.969 298.141 442.06 305.392 450.807 305.392Z" fill="#3F3D56"/>
<path d="M958.241 277.015H919.374C918.603 277.03 917.87 277.347 917.33 277.897C916.791 278.448 916.489 279.188 916.489 279.958C916.489 280.729 916.791 281.469 917.33 282.019C917.87 282.57 918.603 282.887 919.374 282.902H958.241C959.011 282.887 959.745 282.57 960.284 282.019C960.824 281.469 961.126 280.729 961.126 279.958C961.126 279.188 960.824 278.448 960.284 277.897C959.745 277.347 959.011 277.03 958.241 277.015Z" fill="#3F3D56"/>
<path d="M958.241 288.064H919.374C918.603 288.08 917.87 288.397 917.33 288.947C916.791 289.497 916.489 290.237 916.489 291.008C916.489 291.779 916.791 292.519 917.33 293.069C917.87 293.62 918.603 293.937 919.374 293.952H958.241C959.011 293.937 959.745 293.62 960.284 293.069C960.824 292.519 961.126 291.779 961.126 291.008C961.126 290.237 960.824 289.497 960.284 288.947C959.745 288.397 959.011 288.08 958.241 288.064Z" fill="#3F3D56"/>
<path d="M958.241 299.1H919.374C918.603 299.115 917.87 299.432 917.33 299.982C916.791 300.533 916.489 301.273 916.489 302.043C916.489 302.814 916.791 303.554 917.33 304.104C917.87 304.655 918.603 304.972 919.374 304.987H958.241C959.011 304.972 959.745 304.655 960.284 304.104C960.824 303.554 961.126 302.814 961.126 302.043C961.126 301.273 960.824 300.533 960.284 299.982C959.745 299.432 959.011 299.115 958.241 299.1Z" fill="#3F3D56"/>
<path d="M486.532 814.968L487.486 470.92C487.513 463.956 490.301 457.288 495.237 452.378C500.173 447.467 506.855 444.716 513.817 444.728L773.581 445.448C780.542 445.475 787.209 448.263 792.118 453.201C797.027 458.139 799.777 464.822 799.766 471.786L798.812 815.834C798.785 822.797 795.997 829.466 791.061 834.376C786.125 839.286 779.443 842.037 772.481 842.026L512.717 841.306C505.756 841.279 499.089 838.49 494.18 833.553C489.271 828.615 486.521 821.931 486.532 814.968Z" fill="#E6E6E6"/>
<path d="M506.746 711.106L507.359 489.92C507.384 483.399 509.995 477.154 514.618 472.555C519.241 467.956 525.499 465.38 532.019 465.391L755.264 466.01C761.784 466.035 768.027 468.646 772.625 473.27C777.223 477.895 779.799 484.154 779.788 490.676L778.94 796.832C778.914 803.354 776.303 809.599 771.68 814.198C767.057 818.796 760.799 821.373 754.279 821.362L615.983 820.978C586.941 820.865 559.13 809.234 538.651 788.636C518.172 768.038 506.698 740.155 506.746 711.106Z" fill="white"/>
<path d="M730.186 638.057H556.112C553.342 638.057 550.686 636.956 548.727 634.997C546.768 633.037 545.668 630.38 545.668 627.609C545.668 624.839 546.768 622.181 548.727 620.222C550.686 618.263 553.342 617.162 556.112 617.162H730.186C732.956 617.162 735.613 618.263 737.571 620.222C739.53 622.181 740.63 624.839 740.63 627.609C740.63 630.38 739.53 633.037 737.571 634.997C735.613 636.956 732.956 638.057 730.186 638.057Z" fill="#FB5132"/>
<path d="M594.408 580.764H556.112C553.342 580.764 550.686 579.663 548.727 577.704C546.768 575.744 545.668 573.087 545.668 570.316C545.668 567.546 546.768 564.888 548.727 562.929C550.686 560.97 553.342 559.869 556.112 559.869H594.408C597.178 559.869 599.835 560.97 601.794 562.929C603.752 564.888 604.853 567.546 604.853 570.316C604.853 573.087 603.752 575.744 601.794 577.704C599.835 579.663 597.178 580.764 594.408 580.764Z" fill="#FB5132"/>
<path d="M730.186 729.914H556.112C553.342 729.914 550.686 728.813 548.727 726.854C546.768 724.895 545.668 722.238 545.668 719.467C545.668 716.696 546.768 714.039 548.727 712.08C550.686 710.12 553.342 709.02 556.112 709.02H730.186C732.956 709.02 735.613 710.12 737.571 712.08C739.53 714.039 740.63 716.696 740.63 719.467C740.63 722.238 739.53 724.895 737.571 726.854C735.613 728.813 732.956 729.914 730.186 729.914Z" fill="#FB5132"/>
<path d="M730.186 683.985H556.112C553.342 683.985 550.686 682.885 548.727 680.925C546.768 678.966 545.668 676.309 545.668 673.538C545.668 670.767 546.768 668.11 548.727 666.151C550.686 664.192 553.342 663.091 556.112 663.091H730.186C732.956 663.091 735.613 664.192 737.571 666.151C739.53 668.11 740.63 670.767 740.63 673.538C740.63 676.309 739.53 678.966 737.571 680.925C735.613 682.885 732.956 683.985 730.186 683.985Z" fill="#FB5132"/>
<path d="M260.558 952C283.51 952 302.117 933.389 302.117 910.431C302.117 887.473 283.51 868.861 260.558 868.861C237.606 868.861 219 887.473 219 910.431C219 933.389 237.606 952 260.558 952Z" fill="#FB5132"/>
<path d="M254.889 932.065C254.171 932.065 253.464 931.898 252.822 931.577C252.18 931.256 251.622 930.789 251.191 930.215L239.853 915.094C239.488 914.608 239.223 914.055 239.071 913.467C238.92 912.878 238.886 912.266 238.972 911.664C239.057 911.062 239.261 910.483 239.57 909.961C239.88 909.438 240.289 908.981 240.775 908.616C241.261 908.252 241.814 907.986 242.403 907.836C242.991 907.685 243.604 907.652 244.205 907.738C244.806 907.825 245.385 908.029 245.907 908.339C246.43 908.649 246.886 909.059 247.25 909.545L254.667 919.437L273.718 890.854C274.399 889.834 275.456 889.127 276.658 888.887C277.86 888.647 279.107 888.895 280.127 889.575C281.146 890.254 281.854 891.311 282.095 892.513C282.336 893.715 282.09 894.963 281.411 895.984L258.736 930.006C258.326 930.621 257.774 931.129 257.127 931.487C256.48 931.845 255.757 932.043 255.018 932.064C254.975 932.064 254.932 932.065 254.889 932.065Z" fill="white"/>
<path d="M260.929 819.344H257.937V828.322H260.929V819.344Z" fill="#2F2E41"/>
<path d="M260.929 802.201H257.937V785.058H260.929V802.201ZM260.929 767.914H257.937V750.772H260.929V767.914ZM260.929 733.629H257.937V716.485H260.929V733.629ZM260.929 699.342H257.937V682.2H260.929V699.342ZM260.929 665.056H257.937V647.913H260.929V665.056Z" fill="#2F2E41"/>
<path d="M260.929 630.771H257.938V620.296H268.409V623.289H260.929V630.771Z" fill="#2F2E41"/>
<path d="M409.633 623.289H391.98V620.296H409.633V623.289ZM374.327 623.289H356.674V620.296H374.327V623.289ZM339.021 623.289H321.368V620.296H339.021V623.289ZM303.715 623.289H286.062V620.296H303.715V623.289Z" fill="#2F2E41"/>
<path d="M436.263 620.296H427.287V623.289H436.263V620.296Z" fill="#2F2E41"/>
<path d="M1223.31 729.039H1220.32V738.017H1223.31V729.039Z" fill="#2F2E41"/>
<path d="M1223.31 709.387H1220.32V689.734H1223.31V709.387ZM1223.31 670.079H1220.32V650.426H1223.31V670.079Z" fill="#2F2E41"/>
<path d="M1223.31 630.771H1220.32V623.289H1212.84V620.296H1223.31V630.771Z" fill="#2F2E41"/>
<path d="M1194.24 623.289H1175.65V620.296H1194.24V623.289ZM1157.05 623.289H1138.45V620.296H1157.05V623.289ZM1119.85 623.289H1101.26V620.296H1119.85V623.289ZM1082.66 623.289H1064.06V620.296H1082.66V623.289ZM1045.46 623.289H1026.86V620.296H1045.46L1045.46 623.289ZM1008.27 623.289H989.669V620.296H1008.27V623.289ZM971.072 623.289H952.474V620.296H971.072V623.289ZM933.877 623.289H915.278V620.296H933.877V623.289ZM896.681 623.289H878.083V620.296H896.681V623.289Z" fill="#2F2E41"/>
<path d="M859.486 620.296H850.51V623.289H859.486V620.296Z" fill="#2F2E41"/>
<path d="M1222.76 847.253C1245.71 847.253 1264.32 828.642 1264.32 805.684C1264.32 782.726 1245.71 764.114 1222.76 764.114C1199.81 764.114 1181.2 782.726 1181.2 805.684C1181.2 828.642 1199.81 847.253 1222.76 847.253Z" fill="#FB5132"/>
<path d="M1230.93 805.684L1239.11 797.506C1240.19 796.421 1240.79 794.951 1240.79 793.42C1240.79 791.888 1240.18 790.42 1239.1 789.337C1238.02 788.254 1236.55 787.645 1235.02 787.644C1233.49 787.642 1232.02 788.248 1230.93 789.328L1222.76 797.506L1214.58 789.328C1213.5 788.248 1212.03 787.642 1210.5 787.644C1208.97 787.645 1207.5 788.254 1206.42 789.337C1205.33 790.42 1204.72 791.888 1204.72 793.42C1204.72 794.951 1205.33 796.421 1206.41 797.506L1214.58 805.684L1206.41 813.862C1205.87 814.398 1205.44 815.036 1205.15 815.738C1204.85 816.44 1204.7 817.193 1204.7 817.954C1204.7 818.715 1204.85 819.469 1205.14 820.173C1205.43 820.876 1205.85 821.515 1206.39 822.053C1206.93 822.591 1207.57 823.018 1208.27 823.308C1208.98 823.599 1209.73 823.748 1210.49 823.747C1211.25 823.745 1212 823.594 1212.71 823.301C1213.41 823.008 1214.05 822.579 1214.58 822.039L1222.76 813.862L1230.93 822.039C1231.47 822.579 1232.11 823.008 1232.81 823.301C1233.51 823.594 1234.26 823.745 1235.02 823.747C1235.79 823.748 1236.54 823.599 1237.24 823.308C1237.95 823.018 1238.58 822.591 1239.12 822.053C1239.66 821.515 1240.09 820.876 1240.38 820.173C1240.67 819.469 1240.82 818.715 1240.82 817.954C1240.81 817.193 1240.66 816.44 1240.37 815.738C1240.08 815.036 1239.65 814.398 1239.11 813.862L1230.93 805.684Z" fill="white"/>
<path d="M1106.16 556.956L1115.13 610.248L1200.4 564.438L1106.16 556.956Z" fill="#2F2E41"/>
<path d="M1095.97 888.317L1078.1 887.589L1072.42 818.324L1098.78 819.4L1095.97 888.317Z" fill="#FFB6B6"/>
<path d="M1097.18 690.133C1129.58 680.252 1136.23 638.004 1154.03 628.782C1153.98 606.469 1154.88 537.275 1132.61 538.593C1120.21 539.326 1051.12 665.831 1048.15 686.789C1042.66 725.674 1072 824.919 1068.59 831.737L1102.66 833.893L1102.86 831.211C1103.4 823.935 1108.83 801.998 1102.64 798.147L1100.29 796.688C1100.31 789.123 1101.96 776.236 1095.14 772.969C1095.05 772.927 1094.98 772.868 1094.91 772.795C1094.85 772.722 1094.81 772.636 1094.78 772.544C1094.75 772.452 1094.74 772.355 1094.76 772.259C1094.77 772.164 1094.8 772.073 1094.85 771.991L1097.18 690.133Z" fill="#2F2E41"/>
<path d="M1105.17 903.815L1093.23 904.52L1090.43 893.365L1085.63 904.968L1053.95 906.836C1052.43 906.926 1050.92 906.528 1049.65 905.699C1048.37 904.871 1047.39 903.657 1046.86 902.233C1046.32 900.81 1046.25 899.252 1046.66 897.786C1047.07 896.321 1047.94 895.026 1049.14 894.089L1073.41 875.119L1072.74 863.714L1099.44 863.733L1105.17 903.815Z" fill="#2F2E41"/>
<path d="M1232.12 763.483L1249.94 764.927L1263.99 696.866L1237.69 694.733L1232.12 763.483Z" fill="#FFB6B6"/>
<path d="M1225.14 590.994C1209.16 619.087 1180.57 625.794 1150.92 630.709C1138.03 612.498 1118.38 587.11 1137.29 575.276C1147.82 568.685 1239.11 515.369 1253.21 531.158C1290 572.382 1263.75 705.037 1266.01 702.105L1236.87 701.681L1235.15 699.611C1232.87 696.855 1231.38 693.526 1230.86 689.986C1230.33 686.445 1230.78 682.828 1232.16 679.526L1233.23 676.976C1231.08 673.962 1229.82 670.397 1229.61 666.697C1229.39 662.997 1230.24 659.312 1232.03 656.07L1232.4 655.404L1225.14 590.994Z" fill="#2F2E41"/>
<path d="M1231.66 738.659L1258.17 741.881L1256.12 753.119L1277.91 774.895C1278.98 775.97 1279.69 777.361 1279.92 778.866C1280.15 780.37 1279.89 781.908 1279.18 783.256C1278.48 784.604 1277.36 785.691 1275.99 786.358C1274.63 787.025 1273.08 787.237 1271.58 786.964L1240.36 781.265L1237.01 769.166L1232.88 779.899L1221.11 777.75L1231.66 738.659Z" fill="#2F2E41"/>
<path d="M1162.39 366.915H1150.16C1147.66 366.915 1145.2 367.521 1142.98 368.68C1140.77 369.84 1138.87 371.519 1137.45 373.573L1128.6 386.368L1106.53 390.382C1098.87 395.117 1093.09 402.377 1090.2 410.912C1087.31 419.447 1087.49 428.723 1090.7 437.141C1106.31 477.99 1113.85 554.552 1098.68 588.379C1098.68 588.379 1190.74 596.721 1213.87 568.926C1236.99 541.131 1218.35 405.821 1218.35 405.821L1183.95 386.368L1175.09 373.573C1173.67 371.519 1171.77 369.84 1169.56 368.68C1167.35 367.521 1164.88 366.915 1162.39 366.915Z" fill="#FB5132"/>
<path d="M1219.45 605.997C1220.48 604.906 1221.26 603.602 1221.74 602.176C1222.22 600.749 1222.38 599.236 1222.2 597.742C1222.03 596.247 1221.54 594.809 1220.75 593.528C1219.96 592.247 1218.9 591.154 1217.65 590.326L1237.8 524.036L1215.36 510.568L1202.91 593.816C1201.66 596.017 1201.26 598.601 1201.79 601.078C1202.31 603.554 1203.73 605.751 1205.77 607.253C1207.81 608.754 1210.32 609.456 1212.85 609.224C1215.37 608.993 1217.71 607.845 1219.45 605.997H1219.45Z" fill="#FFB6B6"/>
<path d="M1239.3 531.517L1212.37 521.042L1213.52 507.594L1181.53 437.539C1179.94 434.076 1179.14 430.308 1179.18 426.501C1179.22 422.694 1180.1 418.942 1181.75 415.512C1183.4 412.082 1185.78 409.057 1188.74 406.653C1191.69 404.249 1195.13 402.524 1198.82 401.601C1205.49 399.941 1212.55 400.996 1218.45 404.534C1224.34 408.073 1228.59 413.805 1230.26 420.475L1251.29 504.636C1253.72 517.698 1250.97 527.454 1239.3 531.517Z" fill="#FB5132"/>
<path d="M1202.05 326.139C1202.05 314.015 1197.23 302.387 1188.66 293.814C1180.09 285.241 1168.47 280.425 1156.35 280.425C1144.22 280.425 1132.6 285.241 1124.03 293.814C1115.46 302.387 1110.64 314.015 1110.64 326.139V354.795C1110.65 356.421 1111.29 357.981 1112.44 359.131C1113.59 360.281 1115.15 360.928 1116.78 360.93H1117.9C1119.19 357.217 1119.98 353.347 1120.25 349.423C1122.61 352.96 1124.4 356.842 1125.57 360.93H1195.9C1197.53 360.928 1199.09 360.282 1200.24 359.132C1201.39 357.982 1202.04 356.423 1202.05 354.795C1205.74 347.253 1207.4 338.604 1202.05 326.139Z" fill="#2F2E41"/>
<path d="M1154.5 360.648C1173.01 360.648 1188.01 345.643 1188.01 327.133C1188.01 308.623 1173.01 293.618 1154.5 293.618C1136 293.618 1121 308.623 1121 327.133C1121 345.643 1136 360.648 1154.5 360.648Z" fill="#FFB8B8"/>
<path d="M1120.08 327.003C1119.76 326.634 1119.52 326.2 1119.38 325.73C1119.25 325.261 1119.21 324.768 1119.28 324.284L1123.25 296.638C1123.33 296.075 1123.55 295.541 1123.88 295.084C1124.22 294.627 1124.67 294.261 1125.18 294.019C1145.44 284.535 1165.98 284.523 1186.24 293.983C1186.78 294.238 1187.24 294.628 1187.58 295.115C1187.92 295.602 1188.13 296.17 1188.19 296.762L1192.33 318.458C1192.38 318.931 1192.33 319.409 1192.18 319.86C1192.03 320.311 1191.78 320.726 1191.46 321.078C1190.82 321.787 1189.92 337.377 1188.96 337.377C1189.77 328.084 1187.81 323.639 1180.72 328.18C1180.08 328.178 1179.44 327.993 1178.89 327.644C1178.35 327.296 1177.91 326.799 1177.63 326.212L1174.73 319.997C1174.55 319.594 1174.23 319.264 1173.84 319.055C1173.45 318.846 1173 318.771 1172.56 318.84C1172.12 318.909 1171.72 319.119 1171.41 319.438C1171.1 319.757 1170.9 320.168 1170.85 320.608L1170.28 325.191C1170.17 326.016 1169.77 326.774 1169.15 327.325C1168.53 327.875 1167.72 328.179 1166.89 328.18C1155.05 334.056 1139.52 332.475 1122.66 328.18C1122.17 328.18 1121.68 328.075 1121.24 327.872C1120.79 327.669 1120.4 327.373 1120.08 327.003Z" fill="#2F2E41"/>
<path d="M1181.22 513.472H1126.31C1124.43 513.469 1122.62 512.721 1121.29 511.391C1119.96 510.061 1119.22 508.258 1119.21 506.377V447.333C1119.22 445.452 1119.96 443.649 1121.29 442.319C1122.62 440.988 1124.43 440.24 1126.31 440.238H1181.22C1183.1 440.24 1184.91 440.988 1186.23 442.319C1187.56 443.649 1188.31 445.452 1188.31 447.333V506.377C1188.31 508.258 1187.56 510.061 1186.23 511.391C1184.91 512.721 1183.1 513.469 1181.22 513.472Z" fill="#3F3D56"/>
<path d="M1127.85 452.992C1130.12 452.992 1131.96 451.15 1131.96 448.878C1131.96 446.606 1130.12 444.764 1127.85 444.764C1125.58 444.764 1123.74 446.606 1123.74 448.878C1123.74 451.15 1125.58 452.992 1127.85 452.992Z" fill="#E6E6E6"/>
<path d="M1127.85 451.346C1129.21 451.346 1130.32 450.241 1130.32 448.878C1130.32 447.514 1129.21 446.409 1127.85 446.409C1126.49 446.409 1125.38 447.514 1125.38 448.878C1125.38 450.241 1126.49 451.346 1127.85 451.346Z" fill="#3F3D56"/>
<path d="M1190.96 473.677C1189.74 475.033 1188.24 476.105 1186.56 476.817C1184.88 477.529 1183.07 477.864 1181.24 477.799C1179.42 477.734 1177.64 477.269 1176.01 476.439C1174.39 475.608 1172.97 474.431 1171.85 472.991L1122.61 486.626L1115.13 470.166L1174.66 454.831C1177.21 453.109 1180.29 452.38 1183.34 452.782C1186.38 453.184 1189.17 454.689 1191.18 457.012C1193.19 459.335 1194.28 462.315 1194.24 465.386C1194.2 468.458 1193.03 471.408 1190.96 473.677H1190.96Z" fill="#FFB8B8"/>
<path d="M1128.46 487.049L1114.64 491.46C1099.62 507.338 1094.3 495.817 1076.6 494.624C1073.27 494.4 1070.66 491.665 1068.85 486.496C1066.39 479.226 1066.63 471.31 1069.54 464.208L1094.14 402.552L1104.43 394.115L1118.81 411.344L1107.77 458.711L1125.89 467.947L1128.46 487.049Z" fill="#FB5132"/>
<path d="M305.089 401.179C312.318 401.179 318.179 395.318 318.179 388.089C318.179 380.86 312.318 375 305.089 375C297.86 375 292 380.86 292 388.089C292 395.318 297.86 401.179 305.089 401.179Z" fill="white"/>
<path d="M292.542 450.905H284.363V442.726C284.363 442.003 284.076 441.31 283.565 440.799C283.053 440.287 282.36 440 281.637 440C280.914 440 280.22 440.287 279.709 440.799C279.198 441.31 278.911 442.003 278.911 442.726V450.905H270.732C270.373 450.905 270.018 450.975 269.687 451.111C269.355 451.248 269.054 451.449 268.8 451.702C268.547 451.955 268.345 452.256 268.208 452.587C268.071 452.918 268 453.273 268 453.632C268 453.99 268.071 454.345 268.208 454.676C268.345 455.007 268.547 455.308 268.8 455.561C269.054 455.815 269.355 456.015 269.687 456.152C270.018 456.289 270.373 456.359 270.732 456.358H278.911V464.537C278.911 465.26 279.198 465.953 279.709 466.465C280.22 466.976 280.914 467.263 281.637 467.263C282.36 467.263 283.053 466.976 283.565 466.465C284.076 465.953 284.363 465.26 284.363 464.537V456.358H292.542C293.265 456.358 293.959 456.071 294.47 455.559C294.981 455.048 295.268 454.355 295.268 453.632C295.268 452.909 294.981 452.215 294.47 451.704C293.959 451.193 293.265 450.905 292.542 450.905Z" fill="white"/>
<path d="M342.542 397.905H334.363V389.726C334.363 389.003 334.076 388.31 333.565 387.799C333.053 387.287 332.36 387 331.637 387C330.914 387 330.22 387.287 329.709 387.799C329.198 388.31 328.911 389.003 328.911 389.726V397.905H320.732C320.373 397.905 320.018 397.975 319.687 398.111C319.355 398.248 319.054 398.449 318.8 398.702C318.547 398.955 318.345 399.256 318.208 399.587C318.071 399.918 318 400.273 318 400.632C318 400.99 318.071 401.345 318.208 401.676C318.345 402.007 318.547 402.308 318.8 402.561C319.054 402.815 319.355 403.015 319.687 403.152C320.018 403.289 320.373 403.359 320.732 403.358H328.911V411.537C328.911 412.26 329.198 412.953 329.709 413.465C330.22 413.976 330.914 414.263 331.637 414.263C332.36 414.263 333.053 413.976 333.565 413.465C334.076 412.953 334.363 412.26 334.363 411.537V403.358H342.542C343.265 403.358 343.959 403.071 344.47 402.559C344.981 402.048 345.268 401.355 345.268 400.632C345.268 399.909 344.981 399.215 344.47 398.704C343.959 398.193 343.265 397.905 342.542 397.905Z" fill="white"/>
<path d="M379.638 402.276C374.172 402.276 368.828 400.655 364.283 397.618C359.738 394.581 356.196 390.265 354.104 385.215C352.012 380.164 351.465 374.607 352.531 369.246C353.597 363.885 356.23 358.96 360.095 355.095C363.96 351.23 368.885 348.597 374.246 347.531C379.607 346.465 385.164 347.012 390.215 349.104C395.265 351.196 399.581 354.738 402.618 359.283C405.655 363.828 407.276 369.172 407.276 374.638C407.276 381.968 404.364 388.998 399.181 394.181C393.998 399.364 386.968 402.276 379.638 402.276Z" fill="#FB5132"/>
<path d="M367.412 481.796H305.898C304.864 481.796 303.873 481.385 303.142 480.654C302.411 479.923 302 478.932 302 477.898C302 476.864 302.411 475.873 303.142 475.142C303.873 474.411 304.864 474 305.898 474H367.412C368.446 474 369.437 474.411 370.168 475.142C370.899 475.873 371.31 476.864 371.31 477.898C371.31 478.932 370.899 479.923 370.168 480.654C369.437 481.385 368.446 481.796 367.412 481.796Z" fill="white"/>
<path opacity="0.5" d="M337.077 965H232.066C229.928 964.998 227.877 964.147 226.365 962.635C224.853 961.122 224.002 959.072 224 956.934V861.066C224.002 858.927 224.853 856.877 226.365 855.365C227.878 853.853 229.928 853.002 232.066 853H337.077C339.215 853.002 341.265 853.853 342.778 855.365C344.29 856.877 345.14 858.927 345.143 861.066V956.934C345.14 959.072 344.29 961.122 342.778 962.635C341.265 964.147 339.215 964.998 337.077 965Z" fill="#FB5132"/>
<circle cx="1142" cy="341" r="4" fill="#2F2E41"/>
<circle cx="1170" cy="341" r="4" fill="#2F2E41"/>
</g>
</g>
<defs>
<clipPath id="clip0_22_2610">
<rect width="1500" height="1500" fill="white"/>
</clipPath>
<clipPath id="clip1_22_2610">
<rect width="1061" height="679" fill="white" transform="translate(219 273)"/>
</clipPath>
</defs>
</svg>
