<svg width="1500" height="1500" viewBox="0 0 1500 1500" fill="none" xmlns="http://www.w3.org/2000/svg">
<g clip-path="url(#clip0_8_290)">
<path d="M541 999.561C541 1001.51 540.938 1003.45 540.813 1005.37C540.1 1016.45 537.302 1027.3 532.567 1037.35C532.528 1037.43 532.489 1037.52 532.451 1037.6C532.233 1038.06 532.007 1038.53 531.773 1038.98C524.587 1053.44 513.596 1065.66 499.984 1074.32C486.372 1082.98 470.657 1087.76 454.532 1088.14L455.412 1138.53L466.819 1132.51L468.859 1136.39L455.498 1143.43L457.047 1232.32L457.125 1237H448.381L448.467 1232.32L451.122 1088.15C439.436 1087.98 427.901 1085.49 417.185 1080.82C406.469 1076.15 396.786 1069.4 388.698 1060.95C388.138 1060.38 387.593 1059.78 387.048 1059.19C387.024 1059.17 387.009 1059.14 386.993 1059.13C380.251 1051.77 374.799 1043.33 370.867 1034.15C370.953 1034.25 371.047 1034.34 371.132 1034.44C362.245 1013.64 361.641 990.22 369.445 968.987C377.248 947.753 392.867 930.312 413.101 920.238C413.404 920.09 413.724 919.942 414.028 919.786C434.041 910.134 456.947 908.364 478.203 914.825C499.459 921.287 517.515 935.509 528.791 954.673C529.328 955.577 529.85 956.505 530.348 957.432C537.355 970.365 541.017 984.848 541 999.561Z" fill="#2FAD78"/>
<path d="M281.143 1216.89H301.503L311.191 1138.43L281.138 1138.43L281.143 1216.89Z" fill="#FFB8B8"/>
<path d="M275.948 1210.25L316.048 1210.25H316.049C319.405 1210.25 322.728 1210.91 325.829 1212.19C328.929 1213.48 331.747 1215.36 334.12 1217.73C336.493 1220.1 338.375 1222.91 339.659 1226.01C340.943 1229.11 341.604 1232.43 341.604 1235.78V1236.61L275.95 1236.61L275.948 1210.25Z" fill="#2FAD78"/>
<path d="M198.099 1216.89H218.46L228.148 1138.43L198.094 1138.43L198.099 1216.89Z" fill="#FFB8B8"/>
<path d="M192.905 1210.25L233.005 1210.25H233.006C236.362 1210.25 239.685 1210.91 242.786 1212.19C245.886 1213.48 248.703 1215.36 251.076 1217.73C253.449 1220.1 255.332 1222.91 256.616 1226.01C257.9 1229.11 258.561 1232.43 258.561 1235.78V1236.61L192.906 1236.61L192.905 1210.25Z" fill="#2FAD78"/>
<path d="M202.016 1183.2C200.115 1183.2 198.287 1182.47 196.903 1181.17C195.52 1179.87 194.685 1178.09 194.568 1176.19L176.518 881.29L297.99 894.385L315.903 1158.73C316.02 1160.53 315.482 1162.31 314.389 1163.75C313.297 1165.18 311.722 1166.18 309.954 1166.55L285.853 1171.51C284.877 1171.71 283.872 1171.71 282.895 1171.52C281.918 1171.33 280.99 1170.94 280.165 1170.38C279.339 1169.83 278.633 1169.11 278.089 1168.28C277.544 1167.45 277.171 1166.51 276.992 1165.54L247.544 1004.25C247.519 1004.05 247.416 1003.87 247.258 1003.74C247.099 1003.62 246.898 1003.56 246.696 1003.58C246.494 1003.58 246.299 1003.65 246.152 1003.79C246.004 1003.93 245.915 1004.12 245.901 1004.32L228.319 1170.79C228.167 1172.25 227.586 1173.63 226.651 1174.76C225.716 1175.89 224.467 1176.72 223.061 1177.15L204.203 1182.88C203.494 1183.09 202.757 1183.2 202.016 1183.2Z" fill="#2FAD78"/>
<path d="M204.318 664.181C226.848 664.181 245.111 645.935 245.111 623.428C245.111 600.92 226.848 582.674 204.318 582.674C181.789 582.674 163.526 600.92 163.526 623.428C163.526 645.935 181.789 664.181 204.318 664.181Z" fill="#FFB8B8"/>
<path d="M175.483 899.56L147.927 751.599C145.033 736.287 147.956 720.446 156.125 707.172C164.295 693.898 177.125 684.143 192.108 679.814C200.678 677.313 209.683 676.663 218.523 677.909C227.364 679.155 235.837 682.267 243.38 687.039C250.923 691.811 257.362 698.133 262.269 705.585C267.176 713.036 270.438 721.446 271.839 730.255L298.177 895.937L175.483 899.56Z" fill="#EF0B62"/>
<path d="M193.057 925.582C191.019 924.238 189.302 922.464 188.025 920.385C186.748 918.306 185.943 915.972 185.666 913.548C185.389 911.125 185.648 908.67 186.424 906.357C187.199 904.044 188.473 901.929 190.155 900.162L162.924 847.477L193.591 850.747L214.749 900.275C217.535 903.296 219.115 907.232 219.189 911.338C219.264 915.444 217.828 919.435 215.154 922.555C212.48 925.674 208.754 927.705 204.681 928.263C200.609 928.821 196.473 927.867 193.057 925.582L193.057 925.582Z" fill="#FFB8B8"/>
<path d="M185.481 890.909C184.436 890.81 183.423 890.492 182.509 889.977C181.595 889.461 180.799 888.759 180.174 887.916L147.701 844.057C136.596 829.063 131.321 810.549 132.857 791.961L137.907 730.712C137.477 727.581 137.668 724.396 138.471 721.338C139.273 718.281 140.671 715.412 142.584 712.894C144.497 710.377 146.888 708.261 149.62 706.667C152.352 705.073 155.372 704.033 158.506 703.606C161.641 703.179 164.829 703.373 167.889 704.178C170.948 704.982 173.819 706.381 176.337 708.295C178.855 710.208 180.971 712.599 182.563 715.33C184.156 718.061 185.194 721.078 185.619 724.21L182.665 821.643L203.488 870.955C204.082 872.37 204.227 873.933 203.902 875.433C203.578 876.933 202.8 878.297 201.675 879.341L191.256 888.959C190.138 889.99 188.732 890.656 187.226 890.869C186.648 890.951 186.062 890.964 185.481 890.909Z" fill="#EF0B62"/>
<path d="M439.23 601.223C438.786 603.622 437.82 605.894 436.402 607.879C434.983 609.865 433.146 611.515 431.02 612.715C428.894 613.914 426.531 614.633 424.096 614.822C421.662 615.01 419.216 614.662 416.931 613.804L378.987 659.398L370.043 629.91L407.447 591.134C409.145 587.393 412.157 584.405 415.912 582.736C419.668 581.066 423.906 580.831 427.824 582.075C431.742 583.318 435.067 585.955 437.169 589.484C439.271 593.013 440.005 597.19 439.23 601.223Z" fill="#FFB8B8"/>
<path d="M410.224 621.712C410.541 622.712 410.643 623.768 410.524 624.81C410.405 625.852 410.068 626.857 409.535 627.761L381.769 674.736C372.279 690.798 357.271 702.87 339.538 708.705L281.114 727.938C278.396 729.557 275.385 730.625 272.253 731.08C269.121 731.535 265.93 731.369 262.863 730.591C259.796 729.813 256.912 728.439 254.377 726.546C251.841 724.654 249.704 722.281 248.088 719.563C246.471 716.844 245.407 713.835 244.956 710.705C244.505 707.576 244.676 704.388 245.459 701.325C246.242 698.261 247.622 695.382 249.52 692.852C251.417 690.322 253.796 688.19 256.519 686.579L347.478 651.309L384.811 612.926C385.884 611.828 387.268 611.085 388.777 610.799C390.286 610.512 391.847 610.696 393.248 611.324L406.176 617.16C407.562 617.786 408.724 618.82 409.507 620.123C409.808 620.622 410.049 621.156 410.224 621.712Z" fill="#EF0B62"/>
<path opacity="0.1" d="M171.232 764.742L172.893 817.839L203.487 870.954L177.94 811.761L171.232 764.742Z" fill="black"/>
<path d="M208.992 631.087C211.554 631.419 214.15 630.812 216.297 629.377C218.445 627.942 219.998 625.777 220.669 623.284C221.316 620.415 222.732 617.776 224.765 615.65C226.799 613.524 229.374 611.991 232.213 611.215C239.696 609.507 248.842 613.026 254.325 607.362C255.499 606.069 256.348 604.515 256.803 602.83C257.258 601.144 257.306 599.375 256.942 597.668C255.932 592.164 251.991 588.005 247.702 584.68C238.676 577.714 227.754 573.636 216.368 572.98C210.474 572.81 204.576 573.103 198.728 573.857C192.605 574.243 186.549 575.349 180.685 577.152C174.004 579.67 168.067 583.83 163.422 589.248C158.777 594.666 155.573 601.166 154.108 608.147C152.768 615.151 152.974 622.362 154.711 629.277C156.449 636.193 159.676 642.646 164.168 648.187C169.546 654.877 176.48 660.151 184.365 663.549C186.244 664.435 188.396 664.544 190.355 663.853C195.266 661.902 194.464 655.823 192.224 651.769C189.828 647.431 186.14 643.23 188.067 637.95C189.033 635.501 190.888 633.507 193.261 632.364C198.144 629.876 203.605 630.465 208.855 631.071L208.992 631.087Z" fill="black"/>
<path d="M1357.77 1196.84H631.967C624.482 1196.83 617.305 1193.86 612.012 1188.57C606.718 1183.28 603.741 1176.11 603.733 1168.63V289.208C603.741 281.729 606.718 274.559 612.012 269.271C617.305 263.983 624.482 261.008 631.967 261H1357.77C1365.25 261.008 1372.43 263.983 1377.72 269.271C1383.01 274.559 1385.99 281.729 1386 289.208V1168.63C1385.99 1176.11 1383.01 1183.28 1377.72 1188.57C1372.43 1193.86 1365.25 1196.83 1357.77 1196.84ZM631.967 264.319C625.362 264.326 619.03 266.951 614.359 271.617C609.689 276.283 607.062 282.609 607.054 289.208V1168.63C607.062 1175.23 609.689 1181.56 614.359 1186.22C619.03 1190.89 625.362 1193.51 631.967 1193.52H1357.77C1364.37 1193.51 1370.7 1190.89 1375.37 1186.22C1380.04 1181.56 1382.67 1175.23 1382.68 1168.63V289.208C1382.67 282.609 1380.04 276.283 1375.37 271.617C1370.7 266.951 1364.37 264.326 1357.77 264.319H631.967Z" fill="#2FAD78"/>
<path d="M1384.34 330.01H605.394V333.329H1384.34V330.01Z" fill="#2FAD78"/>
<path d="M643.594 310.779C650.932 310.779 656.88 304.835 656.88 297.504C656.88 290.173 650.932 284.23 643.594 284.23C636.255 284.23 630.307 290.173 630.307 297.504C630.307 304.835 636.255 310.779 643.594 310.779Z" fill="#EF0B62"/>
<path d="M685.115 310.779C692.453 310.779 698.402 304.835 698.402 297.504C698.402 290.173 692.453 284.23 685.115 284.23C677.777 284.23 671.828 290.173 671.828 297.504C671.828 304.835 677.777 310.779 685.115 310.779Z" fill="#EF0B62"/>
<path d="M726.637 310.779C733.975 310.779 739.924 304.835 739.924 297.504C739.924 290.173 733.975 284.23 726.637 284.23C719.299 284.23 713.35 290.173 713.35 297.504C713.35 304.835 719.299 310.779 726.637 310.779Z" fill="#EF0B62"/>
<path d="M1245.26 451.818H727.068C721.342 451.818 715.85 449.546 711.801 445.5C707.752 441.455 705.477 435.968 705.477 430.247C705.477 424.526 707.752 419.04 711.801 414.995C715.85 410.949 721.342 408.677 727.068 408.677H1245.26C1250.98 408.677 1256.48 410.949 1260.53 414.995C1264.57 419.04 1266.85 424.526 1266.85 430.247C1266.85 435.968 1264.57 441.455 1260.53 445.5C1256.48 449.546 1250.98 451.818 1245.26 451.818ZM727.068 411.995C722.223 411.995 717.576 413.918 714.15 417.341C710.724 420.764 708.799 425.407 708.799 430.247C708.799 435.088 710.724 439.731 714.15 443.154C717.576 446.577 722.223 448.5 727.068 448.5H1245.26C1250.1 448.5 1254.75 446.577 1258.18 443.154C1261.6 439.731 1263.53 435.088 1263.53 430.247C1263.53 425.407 1261.6 420.764 1258.18 417.341C1254.75 413.918 1250.1 411.995 1245.26 411.995H727.068Z" fill="#2FAD78"/>
<path d="M1237.01 697.242H732.11C724.845 697.234 717.879 694.347 712.741 689.214C707.604 684.082 704.714 677.123 704.706 669.864V562.01C704.714 554.752 707.604 547.793 712.741 542.66C717.879 537.527 724.845 534.64 732.11 534.632H1237.01C1244.28 534.64 1251.24 537.528 1256.38 542.66C1261.52 547.793 1264.41 554.752 1264.42 562.01V669.864C1264.41 677.123 1261.52 684.082 1256.38 689.214C1251.24 694.347 1244.28 697.234 1237.01 697.242Z" fill="#E6E6E6"/>
<path d="M1237.01 906.313H732.11C724.845 906.305 717.879 903.418 712.742 898.285C707.604 893.153 704.714 886.194 704.706 878.935V771.081C704.714 763.823 707.604 756.864 712.741 751.731C717.879 746.598 724.844 743.711 732.11 743.702H1237.01C1244.28 743.711 1251.24 746.598 1256.38 751.731C1261.52 756.864 1264.41 763.823 1264.42 771.081V878.935C1264.41 886.194 1261.52 893.153 1256.38 898.285C1251.24 903.418 1244.28 906.305 1237.01 906.313Z" fill="#E6E6E6"/>
<path d="M1237.01 1115.38H732.11C724.845 1115.38 717.879 1112.49 712.742 1107.36C707.604 1102.22 704.714 1095.26 704.706 1088.01V980.152C704.714 972.893 707.604 965.934 712.742 960.802C717.879 955.669 724.845 952.782 732.11 952.773H1237.01C1244.28 952.782 1251.24 955.669 1256.38 960.802C1261.52 965.934 1264.41 972.893 1264.42 980.152V1088.01C1264.41 1095.26 1261.52 1102.22 1256.38 1107.36C1251.24 1112.49 1244.28 1115.38 1237.01 1115.38Z" fill="#E6E6E6"/>
<path d="M948.022 683.968H443.12C435.854 683.96 428.888 681.073 423.751 675.94C418.613 670.807 415.724 663.848 415.715 656.59V548.736C415.724 541.477 418.613 534.518 423.751 529.386C428.888 524.253 435.854 521.366 443.12 521.358H948.022C955.288 521.366 962.253 524.253 967.391 529.386C972.528 534.519 975.418 541.477 975.427 548.736V656.59C975.418 663.848 972.528 670.807 967.391 675.94C962.253 681.073 955.288 683.96 948.022 683.968Z" fill="white"/>
<path d="M948.022 684.798H443.119C435.633 684.789 428.457 681.815 423.164 676.527C417.87 671.238 414.893 664.069 414.885 656.59V548.736C414.893 541.258 417.87 534.088 423.164 528.8C428.457 523.511 435.633 520.537 443.119 520.528H948.022C955.508 520.537 962.685 523.511 967.978 528.8C973.271 534.088 976.248 541.258 976.257 548.736V656.59C976.248 664.069 973.271 671.238 967.978 676.527C962.685 681.815 955.508 684.789 948.022 684.798ZM443.119 523.847C436.514 523.854 430.182 526.479 425.511 531.145C420.841 535.811 418.214 542.137 418.206 548.736V656.59C418.214 663.189 420.841 669.515 425.511 674.181C430.182 678.847 436.514 681.472 443.119 681.479H948.022C954.627 681.472 960.959 678.847 965.63 674.181C970.3 669.515 972.927 663.189 972.935 656.59V548.736C972.927 542.137 970.3 535.811 965.63 531.145C960.959 526.479 954.627 523.854 948.022 523.847H443.119Z" fill="#2FAD78"/>
<path d="M886.57 657.42H504.571C497.306 657.411 490.34 654.524 485.203 649.392C480.065 644.259 477.175 637.3 477.167 630.041V573.626C477.175 566.367 480.065 559.408 485.203 554.275C490.34 549.143 497.306 546.256 504.571 546.247H886.57C893.836 546.256 900.801 549.143 905.939 554.275C911.076 559.408 913.966 566.367 913.974 573.626V630.041C913.966 637.3 911.076 644.259 905.939 649.392C900.801 654.524 893.836 657.411 886.57 657.42Z" fill="#F2F2F2"/>
<path d="M586.776 627.012C604.876 627.012 619.548 612.353 619.548 594.27C619.548 576.188 604.876 561.529 586.776 561.529C568.676 561.529 554.003 576.188 554.003 594.27C554.003 612.353 568.676 627.012 586.776 627.012Z" fill="#FF6584"/>
<path d="M862.831 654.115L816.572 615.355L771.112 577.264C769.912 576.259 768.395 575.709 766.83 575.712C765.264 575.715 763.749 576.271 762.554 577.28L717.24 615.546L706.172 624.894L689.483 610.91L638.765 568.414C637.565 567.409 636.049 566.859 634.483 566.862C632.917 566.865 631.403 567.421 630.207 568.431L579.654 611.121L528.305 654.484C528.045 654.704 527.859 654.998 527.772 655.327C527.684 655.656 527.701 656.004 527.818 656.323C527.935 656.643 528.148 656.918 528.428 657.113C528.707 657.308 529.04 657.412 529.38 657.411L634.657 657.208L667.981 657.144L667.655 657.42L766.987 657.228L861.767 657.046C862.108 657.045 862.44 656.94 862.719 656.745C862.998 656.549 863.21 656.273 863.326 655.953C863.442 655.633 863.457 655.285 863.368 654.956C863.28 654.628 863.092 654.334 862.831 654.115Z" fill="#2FAD78"/>
<path d="M434.547 1239H115.661C115.22 1239 114.798 1238.83 114.486 1238.51C114.175 1238.2 114 1237.78 114 1237.34C114 1236.9 114.175 1236.48 114.486 1236.17C114.798 1235.86 115.22 1235.68 115.661 1235.68H434.547C434.987 1235.68 435.41 1235.86 435.721 1236.17C436.033 1236.48 436.208 1236.9 436.208 1237.34C436.208 1237.78 436.033 1238.2 435.721 1238.51C435.41 1238.83 434.987 1239 434.547 1239Z" fill="#2FAD78"/>
<ellipse cx="231.101" cy="629.226" rx="5.37162" ry="5.36773" fill="black"/>
</g>
<path d="M152.149 1154H137V1241.44H152.149V1154Z" fill="black"/>
<path d="M112.566 1123H150.097C150.097 1124.61 191.122 1125.91 191.122 1125.91C192.027 1126.59 192.852 1127.38 193.581 1128.24C195.771 1130.86 196.968 1134.16 196.961 1137.57V1139.9C196.959 1143.76 195.424 1147.46 192.693 1150.19C189.962 1152.93 186.257 1154.46 182.395 1154.46H112.566C108.704 1154.46 105.001 1152.92 102.27 1150.19C99.5391 1147.46 98.0034 1143.76 98 1139.9V1137.57C98.0054 1133.7 99.5417 1130 102.272 1127.27C105.003 1124.54 108.705 1123.01 112.566 1123Z" fill="black"/>
<path d="M196.546 1245.62C196.546 1247.25 173.59 1246.25 145.273 1246.25C116.956 1246.25 94 1247.25 94 1245.62C94 1243.98 116.956 1231 145.273 1231C173.59 1231 196.546 1243.98 196.546 1245.62Z" fill="black"/>
<defs>
<clipPath id="clip0_8_290">
<rect width="1272" height="978" fill="white" transform="translate(114 261)"/>
</clipPath>
</defs>
</svg>
