<?xml version="1.0" encoding="UTF-8"?>
<!DOCTYPE svg PUBLIC "-//W3C//DTD SVG 1.1//EN" "http://www.w3.org/Graphics/SVG/1.1/DTD/svg11.dtd">
<!-- Creator: CorelDRAW -->
<svg xmlns="http://www.w3.org/2000/svg" xml:space="preserve" width="1.70666in" height="1.70666in" style="shape-rendering:geometricPrecision; text-rendering:geometricPrecision; image-rendering:optimizeQuality; fill-rule:evenodd; clip-rule:evenodd"
viewBox="0 0 1.70666 1.70666"
 xmlns:xlink="http://www.w3.org/1999/xlink">
 <defs>
  <style type="text/css">
   <![CDATA[
    .fil3 {fill:none}
    .fil4 {fill:none;fill-rule:nonzero}
    .fil18 {fill:#BDBFC1}
    .fil7 {fill:#00235E}
    .fil13 {fill:#323031}
    .fil1 {fill:#B9D1EA}
    .fil12 {fill:#E8AD80}
    .fil10 {fill:#FCA311}
    .fil14 {fill:#FDBA21}
    .fil19 {fill:black;fill-rule:nonzero}
    .fil15 {fill:#00235E;fill-rule:nonzero}
    .fil11 {fill:#323031;fill-rule:nonzero}
    .fil5 {fill:#465F8A;fill-rule:nonzero}
    .fil2 {fill:#618ABB;fill-rule:nonzero}
    .fil17 {fill:#686367;fill-rule:nonzero}
    .fil6 {fill:#B9D1EA;fill-rule:nonzero}
    .fil0 {fill:#E5E5E5;fill-rule:nonzero}
    .fil8 {fill:#E8AD80;fill-rule:nonzero}
    .fil9 {fill:#FDBA21;fill-rule:nonzero}
    .fil20 {fill:#FFBF5D;fill-rule:nonzero}
    .fil16 {fill:#FFC857;fill-rule:nonzero}
   ]]>
  </style>
   <clipPath id="id0" style="clip-rule:nonzero">
    <path d="M0.0751063 1.48067c-0.000267717,-0.00042126 -0.096185,-0.148453 -0.0484134,-0.2845 0.0474921,-0.135244 0.0959291,-0.159315 0.096189,-0.159433 0.000385827,-0.000177165 0.13702,-0.0605354 0.121,-0.189154 -0.0179409,-0.144012 -0.0485472,-0.24837 0.0459213,-0.356276 0.0464016,-0.0529961 0.129791,-0.0983307 0.216575,-0.128949 0.18798,-0.0663346 0.507185,-0.063063 0.666154,0.077 0.237701,0.227035 0.393535,0.166933 0.504406,0.514598 0.000854331,0.00267717 0.0579764,0.215114 -0.0455984,0.527217l-1.55623 -0.000503937z"/>
   </clipPath>
     <clipPath id="id1">
      <path d="M0.0515197 1.4363c0.149547,0.0722441 0.258575,-0.0655394 0.280327,-0.197134 0.0165906,-0.100402 0.0119488,-0.137472 -0.0151772,-0.234476 -0.0310197,0.00609055 -0.214035,0.0872756 -0.264815,0.129374 -0.00823228,0.0175157 -0.0167126,0.0380433 -0.0251614,0.0621063 -0.0317244,0.0903425 -9.05512e-005,0.185953 0.0248268,0.24013z"/>
     </clipPath>
     <clipPath id="id2">
      <path d="M0.0751063 1.48067c-0.000267717,-0.00042126 -0.096185,-0.148453 -0.0484134,-0.2845 0.0474921,-0.135244 0.0959291,-0.159315 0.096189,-0.159433 0.000385827,-0.000177165 0.13702,-0.0605354 0.121,-0.189154 -0.0179409,-0.144012 -0.0485472,-0.24837 0.0459213,-0.356276 0.0464016,-0.0529961 0.129791,-0.0983307 0.216575,-0.128949 0.18798,-0.0663346 0.507185,-0.063063 0.666154,0.077 0.237701,0.227035 0.393535,0.166933 0.504406,0.514598 0.000854331,0.00267717 0.0579764,0.215114 -0.0455984,0.527217l-1.55623 -0.000503937z"/>
     </clipPath>
 </defs>
 <g id="Layer_x0020_1">
  <metadata id="CorelCorpID_0Corel-Layer"/>
  <path class="fil0" d="M0.0751063 1.48067c-0.000267717,-0.00042126 -0.096185,-0.148453 -0.0484134,-0.2845 0.0474921,-0.135244 0.0959291,-0.159315 0.096189,-0.159433 0.000385827,-0.000177165 0.13702,-0.0605354 0.121,-0.189154 -0.0179409,-0.144012 -0.0485472,-0.24837 0.0459213,-0.356276 0.0464016,-0.0529961 0.129791,-0.0983307 0.216575,-0.128949 0.18798,-0.0663346 0.507185,-0.063063 0.666154,0.077 0.237701,0.227035 0.393535,0.166933 0.504406,0.514598 0.000854331,0.00267717 0.0579764,0.215114 -0.0455984,0.527217l-1.55623 -0.000503937z"/>
  <g style="clip-path:url(#id0)">
   <g id="_378126368">
    <g>
     <path id="_3781267281" class="fil1" d="M0.0269724 1.42276c0.162083,0.100705 0.281949,-0.0449055 0.304874,-0.183602 0.0165906,-0.100402 0.0119488,-0.137472 -0.0151772,-0.234476 -0.0314646,0.00617717 -0.219319,0.089622 -0.266925,0.131161 -0.0445394,0.0388543 -0.0674724,0.0819921 -0.0785709,0.131024 -0.00350394,0.0591063 0.00877953,0.118067 0.0557992,0.155894z"/>
    </g>
    <g style="clip-path:url(#id1)">
     <g>
      <path id="_3781266322" class="fil2" d="M0.31863 1.00415c0.000200787,-0.00311811 -0.00216142,-0.0058189 -0.00527953,-0.00601969 -0.00312205,-0.000200787 -0.00581496,0.00216535 -0.00601575,0.00527559 -0.00579134,0.0883228 -0.0627756,0.190394 -0.139587,0.275539 -0.0622402,0.0689843 -0.137815,0.132059 -0.210815,0.181669l0.0093622 0.00729528c0.0727913,-0.0497874 0.147874,-0.112697 0.209862,-0.181402 0.0783661,-0.0868622 0.136504,-0.19122 0.142472,-0.282358z"/>
     </g>
    </g>
    <g style="clip-path:url(#id2)">
     <path class="fil3" d="M0.0269724 1.42276c0.162083,0.100705 0.281949,-0.0449055 0.304874,-0.183602 0.0165906,-0.100402 0.0119488,-0.137472 -0.0151772,-0.234476 -0.0314646,0.00617717 -0.219319,0.089622 -0.266925,0.131161 -0.0445394,0.0388543 -0.0674724,0.0819921 -0.0785709,0.131024 -0.00350394,0.0591063 0.00877953,0.118067 0.0557992,0.155894z"/>
     <path id="_378126224" class="fil2" d="M0.0826142 1.36697c-0.00300394,-0.000893701 -0.00616535,0.000818898 -0.00705512,0.00382283 -0.000893701,0.00300394 0.000818898,0.00616142 0.0038189,0.00705512 0.000165354,4.72441e-005 0.0567677,0.017311 0.116831,0.00240157 0.00302756,-0.000751969 0.00487402,-0.0038189 0.00412205,-0.00684646 -0.000751969,-0.0030315 -0.0038189,-0.00487795 -0.00684646,-0.00412598 -0.0569449,0.0141417 -0.110717,-0.00225984 -0.11087,-0.00230709z"/>
     <path id="_378126752" class="fil2" d="M0.137858 1.31122c0.000582677,0.00306693 0.00354331,0.00508268 0.00661024,0.00450394 0.00306693,-0.000582677 0.00508661,-0.00354331 0.00450394,-0.00661024 -2.75591e-005,-0.000161417 -0.0109803,-0.0552598 0.0087874,-0.110575 0.00104331,-0.00294488 -0.0005,-0.00618504 -0.00344882,-0.00722441 -0.00294488,-0.00104331 -0.0061811,0.0005 -0.00722441,0.00344488 -0.0208031,0.0582126 -0.00925984,0.116291 -0.00922835,0.116461z"/>
     <path id="_378126776" class="fil2" d="M0.204252 1.24739c-0.00300394,-0.000893701 -0.00616535,0.000818898 -0.00705512,0.00382283 -0.000893701,0.00300394 0.000818898,0.00616142 0.00382283,0.00705512 0.000161417,4.72441e-005 0.036878,0.0211693 0.0969409,0.00625591 0.00302756,-0.000751969 0.00487402,-0.0038189 0.00412205,-0.00684646 -0.000751969,-0.00302756 -0.0038189,-0.00487402 -0.00684646,-0.00412205 -0.0569449,0.0141378 -0.0908307,-0.00611811 -0.0909843,-0.00616535z"/>
     <path id="_378126944" class="fil2" d="M0.230827 1.20263c0.00127953,0.00284646 0.00462992,0.00411811 0.00747638,0.00283858 0.00285039,-0.00127953 0.00412205,-0.00462992 0.00284252,-0.00747638 -6.69291e-005,-0.000149606 -0.0235551,-0.0511772 -0.0172205,-0.109579 0.000326772,-0.0031063 -0.00192913,-0.00589764 -0.00503543,-0.00622441 -0.00311024,-0.000326772 -0.00589764,0.00192913 -0.00622441,0.00503543 -0.00666929,0.0614567 0.0180906,0.115248 0.0181614,0.115406z"/>
    </g>
   </g>
  </g>
  <path class="fil4" d="M0.0751063 1.48067c-0.000267717,-0.00042126 -0.096185,-0.148453 -0.0484134,-0.2845 0.0474921,-0.135244 0.0959291,-0.159315 0.096189,-0.159433 0.000385827,-0.000177165 0.13702,-0.0605354 0.121,-0.189154 -0.0179409,-0.144012 -0.0485472,-0.24837 0.0459213,-0.356276 0.0464016,-0.0529961 0.129791,-0.0983307 0.216575,-0.128949 0.18798,-0.0663346 0.507185,-0.063063 0.666154,0.077 0.237701,0.227035 0.393535,0.166933 0.504406,0.514598 0.000854331,0.00267717 0.0579764,0.215114 -0.0455984,0.527217l-1.55623 -0.000503937z"/>
  <g id="_382536288">
   <path id="_382538904" class="fil5" d="M0.292854 0.206933l1.12095 0c0.0150984,0 0.0288189,0.00617323 0.0387559,0.0161102 0.00993307,0.00993701 0.0161063,0.0236535 0.0161063,0.0387559l0 0.80285c0,0.0150984 -0.00617323,0.0288189 -0.0161063,0.0387559 -0.00993701,0.00993701 -0.0236575,0.0161063 -0.0387559,0.0161063l-1.12095 0c-0.0150984,0 -0.0288189,-0.00616929 -0.0387559,-0.0161063 -0.00993307,-0.00993701 -0.0161063,-0.0236575 -0.0161063,-0.0387559l0 -0.80285c0,-0.0151024 0.00617323,-0.0288189 0.0161063,-0.0387559 0.00993701,-0.00993701 0.0236575,-0.0161102 0.0387559,-0.0161102z"/>
   <path id="_382538976" class="fil6" d="M0.346764 0.255346c0.0517283,0 0.0524921,0.0792677 0,0.0792677 -0.0351732,0 -0.0529331,-0.0427126 -0.0280236,-0.0676417l0 -1.9685e-005c0.00716535,-0.00716929 0.0170866,-0.0116063 0.0280236,-0.0116063z"/>
   <path id="_382538832" class="fil6" d="M0.464252 0.255346c0.0517283,0 0.0524921,0.0792677 0,0.0792677 -0.0351732,0 -0.0529331,-0.0427126 -0.0280236,-0.0676417l0 -1.9685e-005c0.00716535,-0.00716929 0.0170866,-0.0116063 0.0280236,-0.0116063z"/>
   <path id="_382538736" class="fil6" d="M0.58174 0.255346c0.0517323,0 0.0525039,0.0792677 0,0.0792677 -0.0218858,0 -0.0396299,-0.0177441 -0.0396299,-0.0396339 0,-0.0178504 0.0116063,-0.0278228 0.0116063,-0.0280236l0 -3.93701e-006c0.00716535,-0.00716929 0.0170866,-0.0116063 0.0280236,-0.0116063z"/>
   <path id="_382538928" class="fil7" d="M1.4138 0.206933l-1.12095 0c-0.0150984,0 -0.0288189,0.00617323 -0.0387559,0.0161102 -0.00993307,0.00993701 -0.0161063,0.0236535 -0.0161063,0.0387559l0 0.112823 1.23067 0 0 -0.112823c0,-0.0151024 -0.00617323,-0.0288189 -0.0161063,-0.0387559 -0.00993701,-0.00993701 -0.0236575,-0.0161102 -0.0387559,-0.0161102zm-0.832063 0.0484134c0.0517323,0 0.0525039,0.0792677 0,0.0792677 -0.0218858,0 -0.0396299,-0.0177441 -0.0396299,-0.0396339 0,-0.0178504 0.0116063,-0.0278228 0.0116063,-0.0280276 0.00716535,-0.00716929 0.0170866,-0.0116063 0.0280236,-0.0116063zm-0.145512 0.011626l0 0zm0.0280236 -0.011626c0.0517283,0 0.0524921,0.0792677 0,0.0792677 -0.0351732,0 -0.0529331,-0.0427126 -0.0280236,-0.0676614 0.00716535,-0.00716929 0.0170866,-0.0116063 0.0280236,-0.0116063zm-0.145512 0.011626l0 0zm0.0280236 -0.011626c0.0517283,0 0.0524921,0.0792677 0,0.0792677 -0.0351732,0 -0.0529331,-0.0427126 -0.0280236,-0.0676614 0.00716535,-0.00716929 0.0170866,-0.0116063 0.0280236,-0.0116063z"/>
   <g>
    <g>
     <path id="_382538616" class="fil2" d="M0.393969 1.37709l0.908209 0c0.00451969,0 0.00863386,0.00185039 0.0116142,0.00482677l7.87402e-006 1.1811e-005c0.00297638,0.00297638 0.00483071,0.00709055 0.00483071,0.0116102l0 0.0708465c0,0.00451969 -0.00185433,0.00863386 -0.00483071,0.0116142l-7.87402e-006 7.87402e-006c-0.00298031,0.00297638 -0.00709449,0.00483071 -0.0116142,0.00483071l-0.908209 0c-0.00451969,0 -0.00863386,-0.00185433 -0.0116102,-0.00483071l-1.1811e-005 -7.87402e-006c-0.00297638,-0.00298031 -0.00482677,-0.00709449 -0.00482677,-0.0116142l0 -0.0708465c0,-0.00451969 0.00185039,-0.00863386 0.00482677,-0.0116102l1.1811e-005 -1.1811e-005c0.00297638,-0.00297638 0.00709055,-0.00482677 0.0116102,-0.00482677z"/>
     <path id="_382539024" class="fil1" d="M0.404118 1.45423l0 0zm-0.0265984 -0.060689l0 0.0708465c0,0.00451969 0.00185039,0.00863386 0.00483858,0.011622 0.00297638,0.00297638 0.00709055,0.00483071 0.0116102,0.00483071l0.908209 0c0.00451969,0 0.00863386,-0.00185433 0.011622,-0.00483858 0.00297638,-0.00298031 0.00483071,-0.00709449 0.00483071,-0.0116142l0 -0.0053189 -0.90289 0c-0.00451969,0 -0.00863386,-0.00185433 -0.011622,-0.00483858 -0.00297638,-0.00298031 -0.00483071,-0.00709449 -0.00483071,-0.0116142l0 -0.0655236 -0.0053189 0c-0.00451969,0 -0.00863386,0.00185039 -0.011622,0.00483858 -0.00297638,0.00297638 -0.00482677,0.00709055 -0.00482677,0.0116102z"/>
    </g>
    <g>
     <g>
      <path id="_382539072" class="fil8" d="M1.2908 1.3478c0.000106299,0.00362992 0.00180709,0.0538701 0.015563,0.118201 0.00105512,0.0049252 0.00212205,0.00988189 0.00320472,0.0148386l0.0403858 0 -0.0118622 -0.0782362 -7.87402e-006 7.87402e-006 -7.87402e-006 -7.87402e-006 1.5748e-005 0 -2.75591e-005 -0.000149606 -0.00746457 -0.0617874 3.93701e-006 0c-0.000192913,-0.00164567 -0.00169291,-0.00281102 -0.00333465,-0.00261811 -0.000141732,1.9685e-005 -0.000283465,5.11811e-005 -0.000417323,8.26772e-005l-0.0336181 0.00642913 -1.5748e-005 -3.93701e-006c-0.0015315,0.000287402 -0.00256693,0.0017126 -0.00241732,0.00324409z"/>
      <path id="_382538760" class="fil8" d="M1.07244 1.3478c-0.000110236,0.00362992 -0.00181496,0.0538701 -0.0155709,0.118201l-0.00320472 0.0148386 -0.040378 0 0.0118622 -0.0782362 7.87402e-006 7.87402e-006 3.93701e-006 -7.87402e-006 -1.1811e-005 0 2.3622e-005 -0.000149606 0.0074685 -0.0617874 -7.87402e-006 0c0.000200787,-0.00164567 0.00169291,-0.00281102 0.00333465,-0.00261811 0.000137795,1.9685e-005 0.000279528,5.11811e-005 0.00042126,8.26772e-005l0.0336181 0.00642913 7.87402e-006 -3.93701e-006c0.00153543,0.000287402 0.0025748,0.0017126 0.0024252,0.00324409z"/>
      <path id="_382539048" class="fil8" d="M1.14873 1.22432c-0.00192126,-0.00023622 -0.00368504,0.00112205 -0.00392126,0.00305118l-0.00471654 0.0320945c-0.0078622,0.00249213 -0.0379291,0.0145866 -0.0579803,0.0299567 -0.000744094,-0.000248031 0.000279528,0.00217717 0.00131496,0.00390157 0.00672441,0.013378 0.0144882,0.0217323 0.0296102,0.0292283 0.0234213,0.00542126 0.0440197,0.0144843 0.0685197,0.0144843 0.0245039,0 0.049063,-0.00482677 0.0685197,-0.0144843 0.0152323,-0.00754331 0.0252008,-0.0160827 0.0318937,-0.0295827l1.5748e-005 7.87402e-006c0.000791339,-0.00162992 0.000507874,-0.00259449 -0.000984252,-0.00355512 -0.0200276,-0.0152717 -0.0552244,-0.0274724 -0.0630433,-0.0299567l-0.00133858 -0.0337913c-0.000240157,-0.0019252 -0.00200394,-0.00329134 -0.00392913,-0.00304724l-0.0639606 0.00169291z"/>
      <path id="_382538472" class="fil9" d="M1.08546 1.48084c0.000614173,-0.0211654 -0.000913386,-0.0462165 -0.0070748,-0.0523622 -0.0142835,-0.00573228 -0.0189961,-0.0334331 -0.0200591,-0.041374 -0.010878,-0.0021378 -0.0519882,-0.0124882 -0.0301299,-0.0435709 0.0227992,-0.0324094 0.051248,-0.0522795 0.0513268,-0.0523268l0.00258661 -0.00177559 0.00217717 0.0021378c0.000102362,0.000102362 0.0391102,0.0385866 0.0972756,0.0402992 0.0581496,-0.0017126 0.0971575,-0.0401969 0.0972717,-0.0402992l0.00216535 -0.0021378 0.00259055 0.00177559c7.87402e-005,4.72441e-005 0.0285315,0.0199173 0.0513228,0.0523268 0.0218583,0.0310827 -0.019252,0.0414331 -0.030126,0.0435709 -0.00106693,0.00794094 -0.00577165,0.0356417 -0.0200551,0.041374 -0.00620079,0.00618898 -0.00776772,0.0313031 -0.00716142,0.0523622l-0.19211 0z"/>
      <path id="_382538496" class="fil8" d="M1.18093 1.12534c0.012937,0 0.0245551,0.00740551 0.032878,0.0193701 0.00805906,0.0115866 0.0130472,0.0275433 0.0130472,0.0451102 0,0.0175669 -0.00498819,0.0335236 -0.0130472,0.0451142 -0.00832283,0.0119606 -0.0199409,0.0193701 -0.032878,0.0193701 -0.0129409,0 -0.024563,-0.00740945 -0.0328819,-0.0193701 -0.00806299,-0.0115906 -0.0130472,-0.0275472 -0.0130472,-0.0451142 0,-0.0175669 0.00498425,-0.0335236 0.0130472,-0.0451102 0.0083189,-0.0119646 0.0199409,-0.0193701 0.0328819,-0.0193701z"/>
      <path id="_382538328" class="fil10" d="M1.05833 1.38711l0.00143701 -0.0794685c-0.00953937,0.00888976 -0.0211378,0.0210787 -0.0315669,0.0358976 -0.0218583,0.0310827 0.019252,0.0414252 0.0301299,0.0435709z"/>
      <path id="_382538280" class="fil10" d="M1.30479 1.38711l-0.00143307 -0.0794685c0.0095315,0.00888976 0.0211378,0.0210787 0.0315591,0.0358976 0.0218583,0.0310827 -0.019252,0.0414252 -0.030126,0.0435709z"/>
      <path id="_382538160" class="fil11" d="M1.10817 1.15511c-0.000547244,0.00455906 -0.00247244,0.0116142 -0.0043189,0.017689 0.00023622,-7.08661e-005 0.000476378,-0.000102362 0.000724409,-0.000114173 0.00194488,-0.000102362 0.00361417,0.00138976 0.00371654,0.00333465l-7.87402e-006 3.93701e-006c0,6.69291e-005 0.000984252,0.0241929 0.00577559,0.0272992 0.00473622,0.00307874 0.0102795,0.0126496 0.0136378,0.0190945l0.00257087 -0.0048937c0.000338583,-0.000771654 0.000988189,-0.00143701 0.00182677,-0.00179528 0.0017874,-0.000767717 0.00386614,7.08661e-005 0.00463386,0.00185827l-7.87402e-006 1.5748e-005c0.0012126,0.00281102 0.00825984,0.00958268 0.00952362,0.0107756 0.00102756,0.000720472 0.00597244,0.00424016 0.0111142,0.00885433 0.00291732,0.00261024 0.00613386,0.00572835 0.00895276,0.0090315 0.00285433,0.00331102 0.00534252,0.00685433 0.00684252,0.0103583l0.000149606 0.000326772 -7.87402e-006 0c0.000586614,0.00145669 -0.000287402,0.00247244 -0.000405512,0.00260236l0.000188976 -0.000169291 1.1811e-005 0 0.00870866 -0.00748031c0.000149606,-0.000153543 0.000322835,-0.000299213 0.000507874,-0.000429134 0.00160236,-0.00110236 0.00380709,-0.00069685 0.00490551,0.000913386l-7.87402e-006 1.1811e-005 0.0012126 0.00177165 0.0039252 -0.00216142c0.00108661,-0.000665354 0.00248425,-0.000724409 0.00364961,-2.75591e-005l-3.93701e-006 0 0.0056063 0.00333465 0.00725197 -0.00654724c0.00109449,-0.00112598 0.00286614,-0.00140157 0.0042874,-0.000586614l-7.87402e-006 1.5748e-005 0.00399213 0.00231496c0.0194606,-0.0160276 0.0293031,-0.0423031 0.0303189,-0.045126 7.48031e-005,-0.000299213 0.000204724,-0.000586614 0.000366142,-0.000858268 0.000996063,-0.00167323 0.00316142,-0.00222047 0.00483465,-0.00122441l0 7.87402e-006c0.00198031,0.00119291 0.00379921,0.00323622 0.00535433,0.00550394 -8.26772e-005,-0.00135827 -0.000216535,-0.00234252 -0.000283465,-0.00277953l-6.29921e-005 -0.000374016 7.87402e-006 0 -0.00626378 -0.0477677c-0.000279528,-0.00126378 0.000161417,-0.00265354 0.00124803,-0.00350394 0.00144882,-0.00114961 0.00351969,-0.000984252 0.00476772,0.000334646 -0.00224409,-0.0178819 -0.0106142,-0.0294094 -0.0119646,-0.0311654 -0.000133858,-0.000149606 -0.000251969,-0.00030315 -0.000362205,-0.000464567l0 -1.9685e-005c-0.0283583,-0.0438071 -0.0587874,-0.039315 -0.0607953,-0.0389764l-2.3622e-005 7.87402e-006 -5.90551e-005 1.9685e-005c-0.00136614,0.000275591 -0.00283071,-0.00026378 -0.00364961,-0.0015l7.87402e-006 -7.87402e-006 -0.00711417 -0.0106693 -6.29921e-005 -7.87402e-005 3.93701e-006 -7.87402e-006 -1.9685e-005 -3.54331e-005c-0.0123189,-0.0160748 -0.0354606,-0.00929134 -0.0369606,-0.00882677 -0.000267717,9.05512e-005 -0.000547244,0.000153543 -0.000850394,0.000181102l0 0c-3.14961e-005,0 -0.015252,0.0013622 -0.0263622,0.0175866 -0.00952756,0.0139016 0.00442913,0.0249724 0.00609449,0.0262165 0.00133071,0.000830709 0.00198425,0.00249213 0.00148031,0.00405512l-0.00335827 0.010626c-0.00258268,0.00815748 -0.00368898,0.0187717 -0.00456693,0.0272165 -0.000244094,0.00242126 -0.000496063,0.00469685 -0.000673228,0.00622835z"/>
     </g>
     <g>
      <path id="_382537968" class="fil8" d="M0.413693 1.37796l-0.0397205 -0.0118031 -0.00372835 -0.0011063 -0.00112598 0.00374409c-0.0182598,0.0609173 -0.0237244,0.0843228 -0.0228307,0.112043l0.0402047 0 0.000122047 -0.0240236 0.0296063 -0.0736535 0.0016063 -0.00397638 -0.00413386 -0.00122441z"/>
      <path id="_382538016" class="fil12" d="M0.548102 1.22327c-0.0083622,-0.00129921 -0.015122,-0.00382283 -0.0205866,-0.00704724 -0.00295276,0.00938583 -0.0151063,0.0217874 -0.0347323,0.0337874 0.00851969,0.0182795 0.0325827,0.0205079 0.0588189,0.0205079 0.0262323,0 0.0518543,-0.00242913 0.0588189,-0.0205079 -0.00818504,-0.0043189 -0.0279331,-0.0139449 -0.0337402,-0.0316457 -0.00735827,0.00443701 -0.0167165,0.00675984 -0.0285787,0.00490551z"/>
      <line id="_382537704" class="fil4" x1="0.349126" y1="1.46668" x2="0.34915" y2= "1.4667" />
      <line id="_382538448" class="fil4" x1="0.615173" y1="1.16336" x2="0.615165" y2= "1.16339" />
      <path id="_382537752" class="fil8" d="M0.498413 1.14243l0.00287402 0c-0.00361417,-0.0382559 0.021248,-0.0461299 0.024,-0.0468898l0.000228346 -5.51181e-005c0.0010748,-0.000259843 0.00224409,-7.08661e-005 0.00320866,0.000629921l0 7.87402e-006c0.00781102,0.00565748 0.0131732,0.00915354 0.0193189,0.0112559 0.00621654,0.00214567 0.0135354,0.00301181 0.0252835,0.00341339 0.0225551,0.000771654 0.0293346,0.0259331 0.0310984,0.0354213l0.00389764 0 3.54331e-005 0c0.000622047,-7.87402e-006 0.00124803,0.000149606 0.00183465,0.000448819l-7.87402e-006 1.5748e-005c0.00735039,0.00388189 0.00525984,0.0153622 0.005,0.0166063l0 0 -1.1811e-005 7.48031e-005c-0.00179528,0.0126102 -0.00919685,0.0167323 -0.0135866,0.0180709 -0.00248031,0.0105433 -0.0144055,0.0498386 -0.0534843,0.0437205 -0.037811,-0.00591732 -0.0428819,-0.0365236 -0.0435669,-0.0457559 -0.00397638,-0.00203937 -0.0110827,-0.00733071 -0.0128976,-0.0196181l-3.93701e-005 -0.000173228 1.1811e-005 0 -3.93701e-006 -3.54331e-005c-0.000141732,-0.000641732 -0.0025,-0.0123583 0.00467717,-0.0165079 0.000610236,-0.000393701 0.00134646,-0.000629921 0.00212992,-0.000629921z"/>
      <path id="_382537800" class="fil13" d="M0.604126 1.14472c0.00796457,-0.0163504 0.00591732,-0.0338071 0.00591732,-0.0338071 0,0 0.0016811,-0.0224134 -0.0271772,-0.0420197 -0.0288543,-0.0196063 -0.0577047,0.00727953 -0.0577047,0.00727953 0,0 -0.0288504,-0.000559055 -0.033063,0.0325 -0.00247638,0.0195709 0.00274409,0.0291732 0.00740945,0.033752l0.00177953 0 0.00324803 0.0369646c0.000523622,0.00711811 0.00366142,0.0269567 0.0224213,0.0383701l0.0211457 0.00550394c0.0088622,0.00230315 0.0288622,-0.00406299 0.029126,-0.00336614 0.0164567,-0.0103071 0.0226496,-0.0312047 0.0243583,-0.0384724l0.00283858 -0.0352165c-8.66142e-005,-0.000456693 -0.000181102,-0.00096063 -0.000299213,-0.00148819z"/>
      <path id="_382537872" class="fil8" d="M0.690547 1.37796l0.0397244 -0.0118031 0.00372441 -0.0011063 0.00112992 0.00374409c0.0182559,0.0609173 0.0237205,0.0843228 0.0228268,0.112043l-0.0401969 0 -0.000122047 -0.0240236 -0.0296142 -0.0736535 -0.00160236 -0.00397638 0.00412992 -0.00122441z"/>
      <path id="_382537416" class="fil14" d="M0.439598 1.48084l-2.3622e-005 -0.093378 -0.0235669 0.0265591c-0.00183858,0.00207874 -0.00513386,0.00244882 -0.0073622,0.000740157l-0.0514094 -0.038685c-0.00222835,-0.00163386 -0.00276378,-0.00467717 -0.00122441,-0.00691339 0.00137795,-0.00207874 0.00460236,-0.00721654 0.00859449,-0.0137598 0.00982283,-0.0159213 0.0262402,-0.042626 0.0414331,-0.0647165 0.00843701,-0.0122756 0.0155787,-0.0217913 0.0211772,-0.0283346 0.0081378,-0.00945276 0.0133583,-0.0130236 0.018185,-0.0123465l0.0473819 0c0.0054685,0.0116929 0.0297244,0.0205079 0.0588189,0.0205079 0.0291024,0 0.0533425,-0.00881496 0.0588189,-0.0205079l0.0473819 0c0.00483465,-0.000677165 0.0100551,0.0028937 0.018185,0.0123465 0.00560236,0.00654331 0.0127402,0.0160709 0.0211772,0.0283346 0.0151969,0.0220906 0.0316181,0.0488031 0.0414409,0.0647165 0.00398425,0.00654331 0.00720866,0.0116811 0.00859449,0.0137598 0.0015315,0.00230709 0.000996063,0.0052874 -0.00123622,0.00692126l-0.0514055 0.0386772c-0.00222047,0.0017126 -0.00552362,0.00140945 -0.0073622,-0.000740157l-0.0235591 -0.0265591 0.00119685 0.093378 -0.225236 0z"/>
     </g>
    </g>
   </g>
   <g>
    <g>
     <path id="_382537320" class="fil6" d="M0.766547 0.715244c0.00267323,0 0.00483858,-0.00216929 0.00483858,-0.00483858 0,-0.00267323 -0.00216535,-0.00483858 -0.00483858,-0.00483858l-0.240362 0 0 -0.230362c0,-0.00266929 -0.00216929,-0.00483858 -0.00483858,-0.00483858 -0.00266929,0 -0.00483858,0.00216929 -0.00483858,0.00483858l0 0.235075 0 0.000125984c0,0.00266929 0.00216929,0.00483858 0.00483858,0.00483858l0.245201 0z"/>
     <path id="_382537512" class="fil6" d="M0.55589 0.619539c-0.00123228,0.00236614 -0.00030315,0.00529134 0.00206299,0.00651969 0.00236614,0.00123228 0.0052874,0.000307087 0.00651969,-0.00205906l0.0335669 -0.0644055 0.026189 0.0389055 -7.87402e-006 1.5748e-005c0.00149213,0.00222047 0.0045,0.00280709 0.00672047,0.00131496 0.000641732,-0.000429134 0.00114961,-0.000992126 0.00150787,-0.00162205l0.0192205 -0.0274331 0.0258583 0.0140551 -3.93701e-006 1.9685e-005c0.00234646,0.00127165 0.00529134,0.000401575 0.00656299,-0.00194488 0.000106299,-0.00019685 0.000192913,-0.000401575 0.000275591,-0.000606299l0.0232402 -0.0485315 0.0547323 0.0975315c0.00130315,0.00232677 0.00425197,0.00315748 0.0065748,0.00185433 0.00232677,-0.00130315 0.00315748,-0.00425197 0.00185433,-0.00657874l-0.0591457 -0.105394c-0.00046063,-0.000948819 -0.00123622,-0.00174803 -0.00225591,-0.00224016 -0.00240945,-0.00115354 -0.00529921,-0.000137795 -0.00645669,0.00227165l1.5748e-005 1.1811e-005 -0.0252441 0.0527165 -0.0248189 -0.0134961c-0.0021811,-0.00143701 -0.00512598,-0.000885827 -0.00662992,0.00126378l1.1811e-005 1.5748e-005 -0.0179173 0.0255748 -0.0266181 -0.0395315c-0.000444882,-0.000779528 -0.00111024,-0.00145276 -0.00196457,-0.00189764 -0.00236614,-0.00123622 -0.00529528,-0.000311024 -0.00652756,0.00205512l0 7.87402e-006 -0.0373228 0.0716063z"/>
    </g>
    <g>
     <path id="_382537272" class="fil6" d="M0.926508 0.470366c-0.00372047,0 -0.00673622,0.00301969 -0.00673622,0.00674016 0,0.00372047 0.00301575,0.00674016 0.00673622,0.00674016l0.256902 0c0.00372047,0 0.00674016,-0.00301969 0.00674016,-0.00674016 0,-0.00372047 -0.00301969,-0.00674016 -0.00674016,-0.00674016l-0.256902 0z"/>
     <path id="_382537176" class="fil6" d="M0.926508 0.529055c-0.00372047,0 -0.00673622,0.00301969 -0.00673622,0.00674016 0,0.00372441 0.00301575,0.00674016 0.00673622,0.00674016l0.256902 0c0.00372047,0 0.00674016,-0.00301575 0.00674016,-0.00674016 0,-0.00372047 -0.00301969,-0.00674016 -0.00674016,-0.00674016l-0.256902 0z"/>
     <path id="_382537152" class="fil6" d="M0.926508 0.587748c-0.00372047,0 -0.00673622,0.00301575 -0.00673622,0.00674016 0,0.00372047 0.00301575,0.00674016 0.00673622,0.00674016l0.256902 0c0.00372047,0 0.00674016,-0.00301969 0.00674016,-0.00674016 0,-0.00372441 -0.00301969,-0.00674016 -0.00674016,-0.00674016l-0.256902 0z"/>
    </g>
    <g>
     <g>
      <path id="_382537608" class="fil6" d="M0.918606 0.995126l0 -5.11811e-005 0 -0.253831c0,-0.00111417 -0.00326772,-0.00201969 -0.00729134,-0.00201969l-0.000192913 0 -0.070563 0c-0.00402756,0 -0.00729528,0.000905512 -0.00729528,0.00201969l0 5.11811e-005 0 0.253831c0,0.00111417 0.00326772,0.00201969 0.00729528,0.00201969l0.000188976 0 0.0705669 0c0.00402362,0 0.00729134,-0.000905512 0.00729134,-0.00201969z"/>
      <path id="_382537224" class="fil6" d="M0.795102 0.995126l0 -5.11811e-005 0 -0.205012c0,-0.00111417 -0.00326772,-0.00201969 -0.00729528,-0.00201969l-0.000188976 0 -0.0705669 0c-0.00402362,0 -0.00729134,0.000905512 -0.00729134,0.00201969l0 5.11811e-005 0 0.205012c0,0.00111417 0.00326772,0.00201969 0.00729134,0.00201969l0.000192913 0 0.070563 0c0.00402756,0 0.00729528,-0.000905512 0.00729528,-0.00201969z"/>
      <path id="_382537200" class="fil6" d="M0.671598 0.995126l0 -5.11811e-005 0 -0.169949c0,-0.00111417 -0.00326772,-0.00201969 -0.00729528,-0.00201969l-0.000188976 0 -0.0705669 0c-0.00402362,0 -0.00729134,0.000905512 -0.00729134,0.00201969l0 5.51181e-005 0 0.169945c0,0.00111417 0.00326772,0.00201969 0.00729134,0.00201969l0.000192913 0 0.070563 0c0.00402756,0 0.00729528,-0.000905512 0.00729528,-0.00201969z"/>
      <path id="_382537056" class="fil6" d="M1.04211 0.995126l0 -5.11811e-005 0 -0.31061c0,-0.00111417 -0.00326772,-0.00201969 -0.00729134,-0.00201969l-0.000192913 0 -0.070563 0c-0.00402756,0 -0.00729528,0.000905512 -0.00729528,0.00201969l0 5.11811e-005 0 0.31061c0,0.00111417 0.00326772,0.00201969 0.00729528,0.00201969l0.000188976 0 0.0705669 0c0.00402362,0 0.00729134,-0.000905512 0.00729134,-0.00201969z"/>
      <path id="_382536960" class="fil6" d="M1.16561 0.995126l0 -5.11811e-005 0 -0.36739c0,-0.00111811 -0.00326772,-0.00201969 -0.00729528,-0.00201969l-0.000188976 0 -0.0705669 0c-0.00402362,0 -0.00729134,0.000901575 -0.00729134,0.00201969l0 5.11811e-005 0 0.36739c0,0.00111417 0.00326772,0.00201969 0.00729134,0.00201969l0.000192913 0 0.070563 0c0.00402756,0 0.00729528,-0.000905512 0.00729528,-0.00201969z"/>
     </g>
     <path id="_382536720" class="fil6" d="M1.18463 1.01213l-8.26772e-005 0 -0.617287 0c-0.00176378,0 -0.00319685,0.00155512 -0.00319685,0.00347244l0 9.05512e-005 0 0.0113504c0,0.00191732 0.00143307,0.00347638 0.00319685,0.00347638l8.26772e-005 0 0.617287 0c0.00176378,0 0.00319291,-0.00155906 0.00319291,-0.00347638l0 -9.05512e-005 0 -0.0113504c0,-0.00191732 -0.00142913,-0.00347244 -0.00319291,-0.00347244z"/>
    </g>
   </g>
  </g>
  <g id="_382535856">
   <path id="_382536192" class="fil8" d="M0.0809764 0.892472c-8.26772e-005,0.00285039 -0.00141732,0.0422165 -0.0122008,0.0926299 -0.0108386,0.0506614 -0.0240197,0.105394 -0.0244528,0.107189l3.93701e-006 0 -1.1811e-005 5.11811e-005 3.93701e-006 0 -1.1811e-005 3.93701e-005c-0.000149606,0.000917323 -0.00127953,0.00905906 0.00501969,0.0188346l7.87402e-006 -3.93701e-006c0.000208661,0.000322835 0.000326772,0.000677165 0.000362205,0.00103543l0.00364961 0.0237362 3.93701e-006 0c0.00015748,0.00101181 -0.000358268,0.0019685 -0.0012126,0.00242913 -0.000700787,0.000456693 -0.00477953,0.00288583 -0.00866535,-0.000385827 -0.00209843,-0.00177165 -0.00342126,-0.00682283 -0.00414961,-0.0106339 0.000480315,0.0067126 0.00270866,0.020748 0.00272835,0.020874 6.29921e-005,0.000417323 1.9685e-005,0.000826772 -0.00011811,0.00119685 -0.00042126,0.00127953 -0.00524803,0.0147677 -0.0180787,0.00317717 -0.0115276,-0.0104173 -0.0107992,-0.0265433 -0.0107992,-0.0265866l0 -7.87402e-006c7.87402e-006,-0.000145669 2.75591e-005,-0.000287402 5.90551e-005,-0.000429134l0.0117559 -0.0645512 -3.93701e-006 0 1.1811e-005 -7.08661e-005 0 -1.5748e-005 0.0190394 -0.125555 3.93701e-006 0 3.93701e-006 -3.93701e-006 -7.87402e-006 0 1.9685e-005 -0.000110236 0.00585433 -0.0484213 -1.1811e-005 -3.93701e-006c0.00015748,-0.0012874 0.00133071,-0.00220866 0.00261811,-0.00205118 0.000110236,1.1811e-005 0.000216535,3.93701e-005 0.000322835,6.29921e-005l0.0263504 0.00503937 7.87402e-006 -7.87402e-006c0.00120079,0.000228346 0.00201575,0.00134646 0.00189764,0.00254331z"/>
   <path id="_382536240" class="fil8" d="M0.278217 0.899287l-0.0222047 0.015874c-0.00116142,0.000807087 -0.00148425,0.00240157 -0.000708661,0.00359843l7.87402e-006 -7.87402e-006 0.0272717 0.0421378 7.48031e-005 0.000137795 7.87402e-006 -3.93701e-006 2.75591e-005 3.54331e-005c0.0088937,0.014752 0.0226811,0.00577165 0.0244055,0.00456299l0.0644213 -0.0348031c0.00267717,-0.000330709 0.00612205,-0.00140551 0.00950787,-0.00277559 0.00411417,-0.00166535 0.00824409,-0.00380315 0.0107953,-0.00555512 0.00209843,-0.00144094 0.00418898,-0.00353937 0.00598819,-0.00566929 0.00233858,-0.00277559 0.00425984,-0.00572047 0.00503937,-0.0072874l0.000133858 -0.000251969 -3.93701e-006 -3.93701e-006c0.000665354,-0.00146063 0.00124409,-0.00326378 0.00109055,-0.00514567 -0.000165354,-0.00209449 -0.00115748,-0.00411024 -0.00367323,-0.00559843l-7.87402e-005 -4.72441e-005 -3.93701e-005 -2.3622e-005 -3.93701e-006 0 -3.93701e-006 7.87402e-006c-0.00283858,-0.00162598 -0.00973622,0.000822835 -0.0148661,0.00307874 -9.84252e-005,-0.000610236 -0.000409449,-0.00118898 -0.00092126,-0.00161417l-3.93701e-006 3.93701e-006 -0.00214173 -0.00176378c-0.000669291,-0.000645669 -0.00166535,-0.000913386 -0.00261811,-0.00061811l3.93701e-006 7.87402e-006c-0.0114409,0.00358268 -0.015,0.0125276 -0.0159961,0.016122l-0.0615236 0.0236142 -0.0200787 -0.0370157c-6.69291e-005,-0.000133858 -0.000141732,-0.000259843 -0.000228346,-0.000385827 -0.000846457,-0.0011811 -0.0025,-0.00145669 -0.0036811,-0.000610236z"/>
   <path id="_382536168" class="fil11" d="M0.108311 0.741461c-0.000429134,0.00357087 -0.00194094,0.00910236 -0.00338189,0.0138622 0.000185039,-5.11811e-005 0.000374016,-7.87402e-005 0.000570866,-9.05512e-005 0.00152362,-7.87402e-005 0.00282677,0.00109449 0.00290551,0.00261811l-3.93701e-006 3.93701e-006c0,5.11811e-005 0.000771654,0.0189567 0.00452362,0.0213937 0.00371654,0.00241339 0.00805906,0.00991339 0.0106929,0.0149606l0.00201181 -0.00383465c0.000271654,-0.000606299 0.000771654,-0.00112205 0.00143307,-0.00140551 0.00140157,-0.000598425 0.0030315,5.51181e-005 0.00362992,0.00145669l-3.93701e-006 3.93701e-006c0.000944882,0.0022126 0.00647638,0.00751575 0.00745669,0.00844882 0.000811024,0.000566929 0.00468504,0.00333071 0.00871654,0.00694488 0.00227953,0.00203937 0.00480315,0.00448819 0.00701969,0.0070748 0.00222835,0.00259055 0.00418504,0.00537402 0.00535433,0.00811417l0.000122047 0.000259843 -1.1811e-005 3.93701e-006c0.000464567,0.0011378 -0.000220472,0.00193701 -0.000307087,0.0020315l0.000141732 -0.000129921 1.1811e-005 3.93701e-006 0.00682283 -0.00586614c0.000122047,-0.000122047 0.000251969,-0.000232283 0.000397638,-0.000334646 0.00125591,-0.000866142 0.00298031,-0.000543307 0.00384646,0.000712598l-1.1811e-005 1.1811e-005 0.000952756 0.00138189 0.00307874 -0.00168898c0.000850394,-0.000519685 0.00194488,-0.000562992 0.00285827,-1.9685e-005l-3.93701e-006 0 0.00438976 0.00261024 0.00568504 -0.00512992c0.000862205,-0.00088189 0.00224803,-0.00109843 0.00336614,-0.000452756l-3.93701e-006 3.93701e-006 0.00312598 0.00181496c0.015252,-0.0125591 0.0229606,-0.0331496 0.0237559,-0.0353622 6.29921e-005,-0.000228346 0.000161417,-0.000456693 0.000287402,-0.000673228 0.000783465,-0.00131102 0.00248031,-0.00174016 0.00379134,-0.000956693l-3.93701e-006 3.93701e-006c0.00155512,0.000929134 0.00297638,0.00253937 0.00420079,0.00431102 -6.69291e-005,-0.00106299 -0.000169291,-0.00183465 -0.000224409,-0.00217717l-5.11811e-005 -0.000291339 7.87402e-006 -3.93701e-006 -0.00490945 -0.0374291c-0.000216535,-0.000996063 0.000129921,-0.00207874 0.000976378,-0.00275197 0.0011378,-0.000901575 0.00276378,-0.000771654 0.00374016,0.000267717 -0.00175984,-0.0140118 -0.00831496,-0.0230472 -0.00937402,-0.0244291 -0.000106299,-0.000110236 -0.000200787,-0.00023622 -0.000287402,-0.000366142l7.87402e-006 -3.93701e-006c-0.0222323,-0.0343386 -0.0460748,-0.0308189 -0.0476535,-0.0305433l-1.5748e-005 3.93701e-006 -5.11811e-005 7.87402e-006c-0.00106693,0.000224409 -0.00221654,-0.000208661 -0.00285827,-0.00117323l7.87402e-006 -3.93701e-006 -0.0055748 -0.0083622 -5.11811e-005 -6.29921e-005 3.93701e-006 -3.93701e-006 -1.5748e-005 -2.75591e-005c-0.00965354,-0.0125945 -0.0277913,-0.00727953 -0.0289646,-0.00691732 -0.000208661,7.08661e-005 -0.000429134,0.00011811 -0.000661417,0.000137795l0 0c-3.14961e-005,0 -0.0119606,0.00106693 -0.0206654,0.0137835 -0.00746063,0.0108937 0.00347638,0.0195709 0.00477953,0.0205472 0.00103937,0.000653543 0.00154724,0.00195276 0.00116535,0.00317717l-0.00264173 0.00832677c-0.00202362,0.00638976 -0.00288976,0.0147087 -0.00357874,0.0213307 -0.000192913,0.00189764 -0.00038189,0.00367717 -0.000527559,0.00487795z"/>
   <path id="_382536384" class="fil8" d="M0.140098 0.795705c-0.00150787,-0.000188976 -0.00288976,0.00088189 -0.00307874,0.00238976l-0.00369291 0.0251575c-0.00615748,0.00194882 -0.0297205,0.0114252 -0.0454331,0.0234764 -0.000586614,-0.000200787 0.000216535,0.00170472 0.0010315,0.00305512 0.00526772,0.0104843 0.0113504,0.0170276 0.0232008,0.0229094 0.0183583,0.00424409 0.0344961,0.0113465 0.0537008,0.0113465 0.0192008,0 0.0384528,-0.0037874 0.0537008,-0.0113465 0.0119252,-0.00591732 0.0197402,-0.0126102 0.0249882,-0.023189l3.93701e-006 3.93701e-006c0.000629921,-0.00127165 0.000405512,-0.0020315 -0.00076378,-0.00277953 -0.0156929,-0.0119764 -0.0432756,-0.0215315 -0.0494094,-0.0234764l-0.00104331 -0.0264843c-0.000185039,-0.00150787 -0.00157087,-0.00257874 -0.00307874,-0.00238976l-0.050126 0.00132677z"/>
   <path id="_382536912" class="fil8" d="M0.144346 1.46453c0,0.000929134 -0.000751969,0.0016811 -0.0016811,0.0016811 -0.00115748,0 -0.0080748,-7.87402e-006 -0.00937795,-7.87402e-006 -0.000929134,0 -0.0016811,-0.000751969 -0.0016811,-0.0016811l0 -0.0134055 0 -4.33071e-005c0,-0.000929134 0.000751969,-0.0016811 0.0016811,-0.0016811l0.00933465 0 4.33071e-005 0c0.000929134,0 0.0016811,0.000751969 0.0016811,0.0016811l0 0.0134567z"/>
   <path id="_382536624" class="fil11" d="M0.143705 1.46284l-3.54331e-005 0 -0.0127795 0c-0.00030315,0 -0.000586614,7.87402e-005 -0.000830709,0.000220472l-0.0199961 0.00913386c-0.000366142,0.000165354 -0.000870079,0.000385827 -0.00136614,0.000594488 -0.00394488,0.00168898 -0.00566929,0.00243307 -0.00579921,0.00959449l-7.87402e-006 0c-1.5748e-005,0.000929134 0.000724409,0.00169685 0.00165354,0.0017126l2.75591e-005 0 5.51181e-005 0 0.0394882 0c0.000929134,0 0.0016811,-0.000751969 0.0016811,-0.0016811l-7.87402e-006 -0.000161417 -0.000405512 -0.0177638 3.93701e-006 -7.87402e-006c-1.9685e-005,-0.000913386 -0.000767717,-0.00164173 -0.0016811,-0.00164173z"/>
   <path id="_382536888" class="fil8" d="M0.186673 1.46453c0,0.000929134 0.000751969,0.0016811 0.0016811,0.0016811 0.00115748,0 0.00807087,-7.87402e-006 0.00937795,-7.87402e-006 0.000929134,0 0.0016811,-0.000751969 0.0016811,-0.0016811l0 -0.0134055 0 -4.33071e-005c0,-0.000929134 -0.000751969,-0.0016811 -0.0016811,-0.0016811l-0.00933465 0 -4.33071e-005 0c-0.000929134,0 -0.0016811,0.000751969 -0.0016811,0.0016811l0 0.0134567z"/>
   <path id="_382536864" class="fil11" d="M0.187311 1.46284l3.93701e-005 0 0.0127756 0c0.00030315,0 0.000590551,7.87402e-005 0.000834646,0.000220472l0.0199961 0.00913386c0.000362205,0.000165354 0.000870079,0.000385827 0.0013622,0.000594488 0.00394882,0.00168898 0.00567323,0.00243307 0.00580315,0.00959449l3.93701e-006 0c1.5748e-005,0.000929134 -0.000720472,0.00169685 -0.00164961,0.0017126l-3.14961e-005 0 -5.51181e-005 0 -0.0394882 0c-0.000929134,0 -0.0016811,-0.000751969 -0.0016811,-0.0016811l1.1811e-005 -0.000161417 0.000405512 -0.0177638 -7.87402e-006 -7.87402e-006c2.3622e-005,-0.000913386 0.000771654,-0.00164173 0.0016811,-0.00164173z"/>
   <line id="_382536576" class="fil4" x1="0.0993228" y1="1.19113" x2="0.0987638" y2= "1.19121" />
   <polyline id="_382536768" class="fil4" points="0.165776,1.06733 0.165831,1.06732 0.165831,1.06733 "/>
   <line id="_382536408" class="fil4" x1="0.165823" y1="1.06845" x2="0.165819" y2= "1.06845" />
   <path id="_382535400" class="fil4" d="M0.232323 1.19116c3.93701e-006,-2.75591e-005 7.87402e-006,-5.51181e-005 1.1811e-005,-8.26772e-005l3.93701e-006 0"/>
   <line id="_382536024" class="fil4" x1="0.243598" y1="1.01961" x2="0.243602" y2= "1.01963" />
   <path id="_382536000" class="fil15" d="M0.242894 1.01919l0 -3.93701e-006 0.000555118 0.000531496 0.000267717 0.000448819c0.00344882,0.0057874 0.0138661,0.072937 -0.0102756,0.17115 -0.000149606,0.00104331 -0.0101811,0.0722205 -0.0143898,0.12189 -0.00422441,0.0498622 -0.0135236,0.142012 -0.0135512,0.14228l-0.000559055 -5.51181e-005 0.000559055 5.51181e-005c-2.75591e-005,0.00030315 -0.000295276,0.000527559 -0.000598425,0.000507874l-0.0232402 0.00042126 0 3.93701e-006 -0.000574803 -0.000606299 -0.00464961 -0.387248 -0.0106181 -0.000106299 0 0 -0.0106102 0.000106299 -0.00464961 0.387295 3.93701e-006 0 -0.000622047 0.000555118 -0.0232402 -0.00042126 -3.93701e-006 0c-0.00030315,-3.93701e-006 -0.000547244,-0.000251969 -0.000555118,-0.000555118 -0.000188976,-0.00191339 -0.00935827,-0.0928268 -0.0135472,-0.142232 -0.00420866,-0.0496693 -0.0142402,-0.120846 -0.0143858,-0.12189 -0.0235984,-0.0959921 -0.0149724,-0.162587 -0.0103819,-0.170622l0.000496063 -0.000874016 0.000452756 -0.000625984 0.154118 -3.93701e-006z"/>
   <path id="_382535760" class="fil9" d="M0.0878307 1.02067c0.00313386,-0.00722047 0.00522835,-0.0568976 -0.00285827,-0.0649685 -0.0111969,-0.00449606 -0.0148819,-0.0262008 -0.0157205,-0.0324252 -0.00852362,-0.00167717 -0.0407402,-0.00978346 -0.0236102,-0.0341457 0.0178661,-0.0253976 0.0401614,-0.0409685 0.0402244,-0.0410079l0.00202756 -0.00138976 0.00170079 0.00167323c8.26772e-005,8.26772e-005 0.0306575,0.0302402 0.0762323,0.0315827 0.0455748,-0.00134252 0.0761457,-0.0315 0.0762323,-0.0315827l0.00169291 -0.00167323 0.00203543 0.00138976c6.29921e-005,3.93701e-005 0.0223583,0.0156102 0.0402205,0.0410079 0.0171299,0.0243622 -0.0150866,0.0324685 -0.0236102,0.0341457 -0.000834646,0.00622441 -0.00452362,0.0279291 -0.0157165,0.0324252 -0.00809055,0.00807087 -0.00609843,0.0572323 -0.00296457,0.0644567 -0.0258425,0.00570866 -0.0525984,0.0107323 -0.0778937,0.0103228 -0.0252835,0.000295276 -0.052063,-0.00430709 -0.0779921,-0.00981102z"/>
   <path id="_382535472" class="fil8" d="M0.165327 0.718134c0.0101417,0 0.0192441,0.00580315 0.0257677,0.0151811 0.0063189,0.00907874 0.0102283,0.0215866 0.0102283,0.0353543 0,0.0137638 -0.00390945,0.0262717 -0.0102283,0.0353543 -0.00652362,0.00937402 -0.015626,0.0151772 -0.0257677,0.0151772 -0.0101378,0 -0.0192441,-0.00580315 -0.0257677,-0.0151772 -0.00631496,-0.00908268 -0.0102283,-0.0215906 -0.0102283,-0.0353543 0,-0.0137677 0.00391339,-0.0262756 0.0102283,-0.0353543 0.00652362,-0.00937795 0.0156299,-0.0151811 0.0257677,-0.0151811z"/>
   <path id="_382535952" class="fil10" d="M0.069252 0.923276l0.00112598 -0.0622756c-0.00747244,0.00696063 -0.0165669,0.0165157 -0.0247362,0.0281299 -0.0171299,0.0243583 0.0150866,0.0324685 0.0236102,0.0341457z"/>
   <path id="_382535928" class="fil10" d="M0.262398 0.923276l-0.00112205 -0.0622756c0.0074685,0.00696063 0.0165669,0.0165157 0.0247323,0.0281299 0.0171339,0.0243583 -0.0150866,0.0324685 -0.0236102,0.0341457z"/>
   <path id="_382535880" class="fil9" d="M0.165776 0.949406c0.0142008,0 0.0271102,0.000405512 0.0364882,0.00106299 0.0108976,0.00076378 0.0176417,0.00227559 0.0176417,0.00435433l-0.108264 0c0,-0.00207874 0.00674409,-0.00359055 0.0176417,-0.00435433 0.00937795,-0.00065748 0.0222874,-0.00106299 0.0364921,-0.00106299z"/>
  </g>
  <g id="_382534752">
   <path id="_382535592" class="fil5" d="M1.4622 1.28776l6.29921e-005 0 0.172681 0c0.00169291,0 0.00306299,0.00137008 0.00306299,0.00306299 0,0.000248031 -3.14961e-005,0.000484252 -8.66142e-005,0.000716535l-0.0293661 0.185366 1.1811e-005 0c-0.000240157,0.00150787 -0.00154724,0.00258268 -0.00302362,0.00258268l-9.05512e-005 0 -0.113846 0c-0.00161024,0 -0.00292913,-0.00124409 -0.00305118,-0.00282283l-0.0293661 -0.185362 -1.1811e-005 0c-0.00026378,-0.00167323 0.000874016,-0.00324016 0.00254724,-0.00350394 0.000161417,-2.75591e-005 0.000322835,-3.93701e-005 0.000476378,-3.93701e-005z"/>
   <path id="_382535544" class="fil16" d="M1.64383 1.13486c-0.0163976,0.0358465 -0.0135472,0.0472402 -0.0114803,0.0554803 0.00179528,0.00715748 0.00309055,0.012315 -0.00528346,0.0249094 -0.00915748,0.0137677 -0.018689,0.0260827 -0.0298504,0.0347677 -0.0114134,0.00888583 -0.0244803,0.0139724 -0.0404409,0.0129724l0 3.93701e-006c-0.0012126,-7.87402e-005 -0.0022126,-0.000850394 -0.00264567,-0.00190157 -0.00700394,-0.014248 -0.0101772,-0.0301496 -0.00916929,-0.0459882 0.000972441,-0.015374 0.00588583,-0.0307165 0.0150197,-0.0444606 0.00914567,-0.013748 0.0213976,-0.0242047 0.0352047,-0.0310512 0.0142913,-0.00708268 0.0302559,-0.0103031 0.0461732,-0.00930709l7.87402e-006 -3.93701e-006c0.00168898,0.000102362 0.0029685,0.00155906 0.00286614,0.00324409 -3.14961e-005,0.000488189 -0.000173228,0.000940945 -0.000401575,0.00133465z"/>
   <path id="_382535832" class="fil16" d="M1.45548 1.21672c0.000661417,-0.00847638 0.00157087,-0.0201969 -0.0206378,-0.0528543 -0.00026378,-0.000338583 -0.00046063,-0.000740157 -0.000562992,-0.00118504 -0.000385827,-0.00164567 0.000637795,-0.00329528 0.00228346,-0.0036811l3.93701e-006 3.93701e-006c0.0155315,-0.0036378 0.031811,-0.00312992 0.0470866,0.00146457 0.014748,0.00444094 0.0285787,0.0127008 0.0398898,0.0247283 0.011311,0.0120276 0.0187126,0.0263346 0.0222441,0.0413268 0.00364173,0.0154685 0.00316929,0.0316969 -0.00137402,0.0469331 -0.00026378,0.00108661 -0.00111417,0.00199213 -0.00227953,0.00225984l0 0c-0.015563,0.00364567 -0.0292913,0.000811024 -0.0420354,-0.00603937 -0.0124646,-0.00670866 -0.0239134,-0.017252 -0.0352362,-0.0292874 -0.0103661,-0.0110276 -0.00995669,-0.016315 -0.00938189,-0.0236693z"/>
   <path id="_382535688" class="fil17" d="M1.59595 1.1948c0.00101969,-0.00133858 0.000767717,-0.00325984 -0.000570866,-0.00428346 -0.00134252,-0.00101969 -0.00326378,-0.000767717 -0.00428346,0.000574803 -0.0085315,0.0111457 -0.0247717,0.037252 -0.034874,0.0618031 -0.00689764,0.0167795 -0.0109724,0.033 -0.00798031,0.0437638 0.000448819,0.00162205 0.00213386,0.00257874 0.00375591,0.00212992 0.00162598,-0.000448819 0.00258268,-0.00212992 0.00213386,-0.00375591 -0.00257874,-0.00927953 0.00129921,-0.0241575 0.00773622,-0.039815 0.00988583,-0.0240197 0.025748,-0.0495315 0.0340827,-0.0604173z"/>
   <path id="_382534920" class="fil17" d="M1.49628 1.21056c-0.00123228,-0.00114567 -0.00316929,-0.00107874 -0.00431496,0.000153543 -0.00114567,0.00123622 -0.00107874,0.00317323 0.00015748,0.0043189 0.00799606,0.00744882 0.0222717,0.0232677 0.0347165,0.0405512 0.00879921,0.0122283 0.0166654,0.0251575 0.0206496,0.0362598 0.000562992,0.00158268 0.00231496,0.00240945 0.00389764,0.00184252 0.00158268,-0.000562992 0.00240945,-0.00231496 0.00184646,-0.00389764 -0.00420079,-0.0117008 -0.0123504,-0.0251378 -0.0214409,-0.0377677 -0.0127008,-0.0176457 -0.0273189,-0.0338268 -0.0355118,-0.0414606z"/>
   <path id="_382534824" class="fil7" d="M1.45917 1.2913l0 0zm0.00555512 0.0349843l0.167685 0 0.00550394 -0.034748 8.66142e-005 -0.000716535c0,-0.00169291 -0.00137008,-0.00306299 -0.00306299,-0.00306299l-0.0816142 0 -0.000858268 0 -0.00521654 0 -0.00137008 0 -0.083622 0 -6.29921e-005 0 -0.000476378 3.93701e-005c-0.00167323,0.00026378 -0.00281102,0.00183071 -0.00253543,0.00350394l0.00554331 0.0349843z"/>
   <path id="_382535064" class="fil7" d="M1.46473 1.32628l0.0238228 0.150378c0.000122047,0.00157874 0.00144094,0.00282283 0.00305118,0.00282283l0.113846 0 9.05512e-005 0c0.000791339,0 0.0015315,-0.000311024 0.00209055,-0.000830709 -0.118366,-0.0793661 -0.142902,-0.15237 -0.142902,-0.15237z"/>
  </g>
  <polygon class="fil18" points="1.70666,1.47715 1.70666,1.4841 -0,1.4841 -0,1.47715 "/>
  <g id="_382534080">
   <polygon id="_382535040" class="fil2" points="0.851846,1.19863 0.841961,1.19863 0.841067,1.19863 0.841067,1.19774 0.841067,1.17172 0.841067,1.17083 0.841961,1.17083 0.918016,1.17083 0.918909,1.17083 0.918909,1.17172 0.918909,1.19774 0.918909,1.19863 0.918016,1.19863 0.908134,1.19863 0.90724,1.19863 0.90724,1.19774 0.90724,1.18134 0.85274,1.18134 0.85274,1.19774 0.85274,1.19863 "/>
   <path id="_382534800" class="fil2" d="M0.895811 1.29673c-0.00755118,0.00155512 -0.0215866,0.0019685 -0.0305709,0.000114173l-0.068689 -0.0144134c-2.3622e-005,-7.87402e-006 -4.72441e-005,-1.1811e-005 -7.48031e-005,-1.1811e-005 -0.000141732,0 -0.000259843,0.00011811 -0.000259843,0.000259843l0 0.0649488 0 7.87402e-006c0,0.000141732 0.00011811,0.000255906 0.000259843,0.000255906l0.16702 0 3.93701e-006 0c0.000145669,0 0.000259843,-0.000114173 0.000259843,-0.000255906l0 -0.0649331 0 -7.87402e-006c0,-1.5748e-005 0,-3.54331e-005 -3.93701e-006,-5.11811e-005 -3.14961e-005,-0.000141732 -0.000169291,-0.000232283 -0.000307087,-0.000200787l0 0 -0.0676378 0.0142874z"/>
   <path id="_382535328" class="fil6" d="M0.974752 1.28058l-0.0792835 0.0167441 0 3.93701e-006c-0.000137795,2.75591e-005 -0.000275591,-6.29921e-005 -0.000307087,-0.000200787 -3.93701e-006,-1.9685e-005 -3.93701e-006,-3.54331e-005 -3.93701e-006,-5.51181e-005l0 -3.93701e-006 0 -0.00838583 -0.0297126 0 0 0.00840945c0,0.000145669 -0.000114173,0.000259843 -0.000259843,0.000259843 -2.3622e-005,0 -4.72441e-005,-3.93701e-006 -7.08661e-005,-7.87402e-006l-0.0799055 -0.0167677 5.11811e-005 -0.000255906 -5.51181e-005 0.000255906c-0.000122047,-2.75591e-005 -0.000204724,-0.000133858 -0.000204724,-0.000255906l0 0 0 -0.0841339c0,-0.000141732 0.00011811,-0.000259843 0.000259843,-0.000259843l7.87402e-006 0 0.189453 0c0.000141732,0 0.000259843,0.00011811 0.000259843,0.000259843l0 7.87402e-006 0 0.084126c0,0.000133858 -0.000102362,0.000244094 -0.000228346,0.000259843z"/>
   <polygon id="_382535208" class="fil19" points="0.895157,1.28869 0.865445,1.28869 0.865445,1.31185 0.895157,1.31185 "/>
   <path id="_382534776" class="fil20" d="M0.865185 1.28817l7.87402e-006 0 0.0302244 0c0.000141732,0 0.000259843,0.000114173 0.000259843,0.000255906l0 7.87402e-006 0 0.0236772c0,0.000141732 -0.00011811,0.000259843 -0.000259843,0.000259843l-7.87402e-006 0 -0.0302244 0c-0.000141732,0 -0.000259843,-0.00011811 -0.000259843,-0.000259843l0 -7.87402e-006 0 -0.0236772c0,-0.000141732 0.00011811,-0.000255906 0.000259843,-0.000255906z"/>
   <path id="_382535016" class="fil2" d="M0.83674 1.2227c0.000354331,-0.000354331 0.000791339,-0.000641732 0.00125984,-0.000838583 0.000464567,-0.000192913 0.000972441,-0.000299213 0.00148031,-0.000299213l0.0810197 0c0.000523622,0 0.00101969,0.000110236 0.00147244,0.000291339l1.1811e-005 7.87402e-006c0.000488189,0.000200787 0.000925197,0.0005 0.00127165,0.000846457l2.75591e-005 3.93701e-005c0.000334646,0.000346457 0.000622047,0.000767717 0.000811024,0.00122835l3.93701e-006 0c0.00019685,0.000456693 0.00030315,0.000968504 0.00030315,0.00148819 0,0.000519685 -0.000110236,0.00101969 -0.000291339,0.00147244l-1.1811e-005 3.14961e-005c-0.000200787,0.000468504 -0.000492126,0.000901575 -0.00084252,0.00125197 -0.000346457,0.000346457 -0.000783465,0.000645669 -0.00127165,0.000846457l-1.1811e-005 7.87402e-006c-0.000452756,0.000181102 -0.000948819,0.000291339 -0.00147244,0.000291339l-0.0810197 0c-0.0005,0 -0.00100787,-0.000102362 -0.0014685,-0.000295276l0 3.93701e-006c-0.000444882,-0.000181102 -0.000862205,-0.000456693 -0.00121654,-0.000791339l-7.08661e-005 -6.29921e-005c-0.000350394,-0.000350394 -0.000649606,-0.000787402 -0.000846457,-0.00125984l-7.87402e-006 -1.9685e-005c-0.000181102,-0.000452756 -0.000291339,-0.000952756 -0.000291339,-0.00147638 0,-0.000507874 0.000106299,-0.00100787 0.000295276,-0.0014685l0 -1.1811e-005c0.000192913,-0.000464567 0.000484252,-0.000897638 0.000830709,-0.00124803l3.54331e-005 -3.54331e-005z"/>
   <path id="_382534536" class="fil2" d="M0.83674 1.24388c0.000354331,-0.000354331 0.000791339,-0.000641732 0.00125984,-0.000838583 0.000464567,-0.000192913 0.000972441,-0.000299213 0.00148031,-0.000299213l0.0810197 0c0.000523622,0 0.00101969,0.000110236 0.00147244,0.000291339l1.1811e-005 7.87402e-006c0.000488189,0.000200787 0.000925197,0.0005 0.00127165,0.000846457l2.75591e-005 3.93701e-005c0.000334646,0.000346457 0.000622047,0.000767717 0.000811024,0.00122835l3.93701e-006 0c0.00019685,0.000456693 0.00030315,0.000968504 0.00030315,0.00148819 0,0.000519685 -0.000110236,0.00101969 -0.000291339,0.00147244l-1.1811e-005 3.14961e-005c-0.000200787,0.000468504 -0.000492126,0.000901575 -0.00084252,0.00125197 -0.000346457,0.000346457 -0.000783465,0.000645669 -0.00127165,0.000846457l-1.1811e-005 7.87402e-006c-0.000452756,0.000181102 -0.000948819,0.000291339 -0.00147244,0.000291339l-0.0810197 0c-0.0005,0 -0.00100787,-0.000102362 -0.0014685,-0.000295276l0 3.93701e-006c-0.000444882,-0.000181102 -0.000862205,-0.000456693 -0.00121654,-0.000791339l-7.08661e-005 -6.29921e-005c-0.000350394,-0.000350394 -0.000649606,-0.000787402 -0.000846457,-0.00125984l-7.87402e-006 -1.9685e-005c-0.000181102,-0.000452756 -0.000291339,-0.000952756 -0.000291339,-0.00147638 0,-0.000507874 0.000106299,-0.00100787 0.000295276,-0.0014685l0 -1.1811e-005c0.000192913,-0.000464567 0.000484252,-0.000897638 0.000830709,-0.00124803l3.54331e-005 -3.54331e-005z"/>
   <path id="_382533864" class="fil2" d="M0.83674 1.26506c0.000354331,-0.000354331 0.000791339,-0.000641732 0.00125984,-0.000838583 0.000464567,-0.000192913 0.000972441,-0.000299213 0.00148031,-0.000299213l0.0810197 0c0.000523622,0 0.00101969,0.000110236 0.00147244,0.000291339l1.1811e-005 7.87402e-006c0.000488189,0.000200787 0.000925197,0.0005 0.00127165,0.000846457l2.75591e-005 3.93701e-005c0.000334646,0.000346457 0.000622047,0.000767717 0.000811024,0.00122835l3.93701e-006 0c0.00019685,0.000456693 0.00030315,0.000968504 0.00030315,0.00148819 0,0.000519685 -0.000110236,0.00101969 -0.000291339,0.00147244l-1.1811e-005 3.14961e-005c-0.000200787,0.000468504 -0.000492126,0.000901575 -0.00084252,0.00125197 -0.000346457,0.000346457 -0.000783465,0.000645669 -0.00127165,0.000846457l-1.1811e-005 7.87402e-006c-0.000452756,0.000181102 -0.000948819,0.000291339 -0.00147244,0.000291339l-0.0810197 0c-0.0005,0 -0.00100787,-0.000102362 -0.0014685,-0.000295276l0 3.93701e-006c-0.000444882,-0.000181102 -0.000862205,-0.000456693 -0.00121654,-0.000791339l-7.08661e-005 -6.29921e-005c-0.000350394,-0.000350394 -0.000649606,-0.000787402 -0.000846457,-0.00125984l-7.87402e-006 -1.9685e-005c-0.000181102,-0.000452756 -0.000291339,-0.000952756 -0.000291339,-0.00147638 0,-0.000507874 0.000106299,-0.00100787 0.000295276,-0.0014685l0 -1.1811e-005c0.000192913,-0.000464567 0.000484252,-0.000897638 0.000830709,-0.00124803l3.54331e-005 -3.54331e-005z"/>
  </g>
 </g>
</svg>
