<?xml version="1.0" encoding="UTF-8"?>
<!DOCTYPE svg PUBLIC "-//W3C//DTD SVG 1.1//EN" "http://www.w3.org/Graphics/SVG/1.1/DTD/svg11.dtd">
<!-- Creator: CorelDRAW -->
<svg xmlns="http://www.w3.org/2000/svg" xml:space="preserve" width="1500px" height="1000px" version="1.1" style="shape-rendering:geometricPrecision; text-rendering:geometricPrecision; image-rendering:optimizeQuality; fill-rule:evenodd; clip-rule:evenodd"
viewBox="0 0 1500 1000"
 xmlns:xlink="http://www.w3.org/1999/xlink"
 xmlns:xodm="http://www.corel.com/coreldraw/odm/2003">
 <defs>
  <style type="text/css">
   <![CDATA[
    .fil6 {fill:none}
    .fil12 {fill:#052946}
    .fil5 {fill:#062236}
    .fil15 {fill:#08345B}
    .fil11 {fill:#192531}
    .fil19 {fill:#24355C}
    .fil13 {fill:#325589}
    .fil2 {fill:#348271}
    .fil33 {fill:#5FB8AA}
    .fil21 {fill:#6664A5}
    .fil18 {fill:#8686A2}
    .fil17 {fill:#D4CCDB}
    .fil10 {fill:#D5938C}
    .fil1 {fill:#E2ECFF}
    .fil14 {fill:#E67257}
    .fil9 {fill:#EDA39C}
    .fil25 {fill:#F47459}
    .fil4 {fill:#F67459}
    .fil0 {fill:#F6F9FF}
    .fil23 {fill:#F7CB86}
    .fil7 {fill:#F8CC80}
    .fil16 {fill:#FA795B}
    .fil8 {fill:#FADFAF}
    .fil20 {fill:#FEFEFE}
    .fil22 {fill:#FFDDB1}
    .fil24 {fill:white}
    .fil32 {fill:#062236;fill-rule:nonzero}
    .fil28 {fill:#092945;fill-rule:nonzero}
    .fil3 {fill:#2F7566;fill-rule:nonzero}
    .fil27 {fill:#5FB8AA;fill-rule:nonzero}
    .fil30 {fill:#F47459;fill-rule:nonzero}
    .fil29 {fill:#F67457;fill-rule:nonzero}
    .fil31 {fill:#F7CB86;fill-rule:nonzero}
    .fil26 {fill:#FEFDFF;fill-rule:nonzero}
   ]]>
  </style>
   <clipPath id="id0">
    <path d="M0 0l1500 0 0 1000 -1500 0 0 -1000z"/>
   </clipPath>
 </defs>
 <g id="Layer_x0020_1">
  <metadata id="CorelCorpID_0Corel-Layer"/>
  <polygon class="fil0" points="0,0 1500,0 1500,1000 0,1000 "/>
  <g style="clip-path:url(#id0)">
   <g id="_1856703719264">
    <path id="_1" class="fil1" d="M638.48 994.85c-147.41,0 -499.88,73.24 -462.51,-144.21 19.43,-113.03 -104.54,-61.88 -179.28,-110.16 -124.55,-80.49 -69.01,-193.23 103.46,-233.59 35.11,-8.21 76.81,-35.18 98.68,-111.73 42.21,-147.71 149.49,-124.86 233.9,-105.51 0,0 -177.63,-131.9 70.34,-219.83l724.53 0c0,0 89.69,49.24 65.07,116.07 -39.52,107.28 167.49,89.59 215.97,184.86 62.95,123.72 -46.91,154.24 -121.39,188.9 -89.28,41.55 -113.78,162.7 -22.31,207.99 37.59,18.62 82.61,14.06 122.24,24.38 97.72,25.45 118.81,131.05 14.65,191.58 -5.45,3.16 -11.27,6.33 -17.47,9.49l-845.88 1.76z"/>
    <path class="fil2" d="M1330.77 839.39c0,0 -27.72,-111.76 19.67,-172.56 0,0 46.49,-60.79 50.96,-89.4 0,0 52.75,-33.08 47.39,25.92 0,0 -31.3,84.05 -20.57,126.07 15.1,59.15 -56.3,7.44 -74.21,103.71 -7.15,38.44 -23.24,6.26 -23.24,6.26z"/>
    <path class="fil2" d="M1286.24 809.76c0,0 -1.85,-99.08 -54.79,-139.07 0,0 -52.2,-40.19 -62.29,-62.98 0,0 -51.22,-15.75 -33.62,32.11 0,0 44.74,62.91 45.18,100.23 0.62,52.54 48.47,-6.36 84.8,69.69 14.51,30.37 20.72,0.02 20.72,0.02z"/>
    <path class="fil2" d="M1262.82 488.02c0,0 13.41,48.28 -4.47,77.78 -17.88,29.51 10.73,79.57 24.14,98.35 13.41,18.78 -16.99,119.8 6.26,165.4 23.24,45.6 47.38,-40.23 47.38,-40.23 0,0 31.3,-165.4 6.26,-200.27 -25.03,-34.87 -17.88,-80.47 -17.88,-80.47 0,0 -35.76,-59.9 -61.69,-20.56z"/>
    <path class="fil3" d="M1295.35 534.24c0.03,0.26 12.54,92.27 12.54,139.75 0,10.95 -0.45,26.66 -0.97,44.48 -1.64,56.95 -3.9,135.71 6.15,158.5l-3.92 1.73c-10.44,-23.65 -8.15,-102.99 -6.5,-160.35 0.5,-17.5 0.95,-32.94 0.95,-44.36 0,-47.3 -12.46,-138.94 -12.5,-139.2l4.25 -0.55z"/>
    <path class="fil3" d="M1417.6 614.21c-0.16,0.28 -54.27,101.4 -53.39,124.97 0.33,9.17 -3.91,31 -9.66,55.68 -9.71,41.66 -23.71,91.7 -27.09,102.4l-4.09 -1.3c3.36,-10.66 17.33,-60.54 27.01,-102.07 5.68,-24.39 9.87,-45.83 9.55,-54.56 -0.91,-24.71 53.74,-126.86 53.9,-127.15l3.77 2.03z"/>
    <path class="fil3" d="M1166.32 637.13c0.12,0.21 41.77,71.09 66.32,85.99 10.39,6.31 24.32,31.43 37.41,60.57 19.63,43.7 37.63,96.81 38.72,108.25l-4.26 0.4c-1.06,-11.15 -18.89,-63.55 -38.37,-106.91 -12.78,-28.45 -26.17,-52.86 -35.71,-58.65 -25.51,-15.49 -67.67,-87.26 -67.79,-87.47l3.68 -2.18z"/>
    <polygon class="fil4" points="1240.46,859.06 1272.65,991.38 1315.57,991.38 1358.48,991.38 1390.67,859.06 1315.57,859.06 "/>
    <rect class="fil5" x="-27.31" y="968.45" width="1607.5" height="95"/>
   </g>
  </g>
  <polygon class="fil6" points="0,0 1500,0 1500,1000 0,1000 "/>
  <g id="_1856409443824">
   <polygon class="fil5" points="558.81,767.7 581.09,767.7 517.96,985.87 495.68,985.87 "/>
   <polygon class="fil5" points="945.57,721.54 923.29,721.54 971.57,985.2 993.85,985.2 "/>
   <polygon class="fil5" points="844.81,770.41 862.87,770.41 823.74,984.12 805.68,984.12 "/>
   <polygon class="fil5" points="652.6,766.21 634.54,766.21 673.67,979.92 691.73,979.92 "/>
  </g>
  <path class="fil7" d="M827.44 243.64c388.34,184.15 155.06,807.7 -325.81,500.92l325.81 -500.92z"/>
  <path class="fil8" d="M887.08 305.92c305.84,435.82 -545.81,696.19 -390.84,264.59 26.81,-74.69 170.2,-440.88 333.51,-325.26 18.89,13.37 38.06,33.2 57.33,60.67z"/>
  <polygon class="fil9" points="732.17,317.98 733.77,365.69 688.31,365.04 689.97,348.8 704.2,328.41 "/>
  <path class="fil10" d="M732.17 317.98l0.53 11.29c-7.5,13.08 -19.6,26.1 -37.43,23.53 -1.97,-0.29 -3.81,-0.67 -5.55,-1.13l0.25 -2.87 14.23 -20.39 27.97 -10.43z"/>
  <path class="fil9" d="M690.04 211.01c1.79,-1.91 63.71,-1.67 55.08,65.44 0,0 16.27,-9.66 12.2,14.75 0,0 0,8.64 -12.2,8.14 0,0 -14.05,56.37 -50.75,51.06 -36.7,-5.31 -34.16,-40.39 -34.16,-40.39l0 -59.99c0,0 -7.29,-41.12 29.83,-39.01z"/>
  <path class="fil11" d="M745.5 277.32c4.82,-3.77 9.04,-2.78 11.41,0.95l6.26 -38.57 5.91 5.03c-0.94,-4.05 -2.49,-5.93 -1.57,-8.95 0.34,-1.1 2.55,0.17 -0.57,-6.67 -3.59,-7.86 -4.56,-11.02 -9.98,-15.09 -15.32,-11.53 -7.94,-8.29 -29.61,-20.06 -12.51,-6.79 -43.11,-20.73 -57.05,-9.6l-11.93 12.41 2.9 -8.79c-9.02,5.65 -9.48,25.13 -9.67,33.96 -0.22,10.56 6.48,31.99 8.67,42.17 3.19,-6.29 4.53,-13.73 2.24,-26.52l72.98 -1.8c0.5,3.76 1.67,7.32 2.16,11.08 2.52,19.4 -0.41,9.61 7.85,30.45z"/>
  <path class="fil12" d="M647.25 368.32c0,0 -36.15,-5.13 -45.59,40.32 -9.43,45.45 -36.87,104.62 -36.87,104.62 0,0 70.64,15.15 63.46,14.58 -7.18,-0.56 19,-159.52 19,-159.52z"/>
  <path class="fil9" d="M599.51 936.16c0,0 5.58,12.87 5.58,22.3 0,9.43 -16.72,21.01 -16.72,21.01l-65.18 0 26.16 -17.58c0,0 17.15,-6.65 16.51,-25.94l33.65 0.21z"/>
  <path class="fil13" d="M610.45 959.75l0 30.87 -119.2 0c0,0 5.67,-31.35 62.44,-31.11 0,0 20.73,14.82 51.4,-1.05l5.36 1.29z"/>
  <path class="fil9" d="M721.08 928.87l-10.29 23.59c0,0 35.16,18.86 49.31,-0.86l-3.43 -22.73 -35.59 0z"/>
  <path class="fil13" d="M760.1 951.6c0,0 21.87,22.3 9,33.87 -12.86,11.58 -45.87,2.58 -45.87,2.58 0,0 -21.87,-1.29 -12.44,-35.59l11.15 -1.72c0,0 33.87,-1.28 38.16,0.86z"/>
  <path class="fil14" d="M537.26 635.31l279.75 2.2 -76.2 100.26c0,0 -33.75,6.6 -153.34,-21.48 -119.59,-28.07 -58.7,-24.64 -58.7,-24.64l8.49 -56.34z"/>
  <path class="fil15" d="M611.36 635.89c0,0 21.38,-201.19 17.09,-264.65 0,0 31.53,-11.48 62.4,-8.91 59.38,4.95 129.85,-15.22 140.64,64.32 6.86,50.6 2.57,98.62 2.57,98.62l-54.88 -0.86 9 73.33 -108.48 7.28 -60.14 36.39 -8.2 -5.52z"/>
  <path class="fil6" d="M682.35 362.07c2.83,-0.05 5.67,0.03 8.5,0.26 12.01,1 26.35,0.58 41.11,0.59 -17.75,27.57 -59.04,84.33 -49.61,-0.85z"/>
  <path class="fil9" d="M833.21 524.41c0,0 -2.58,87.48 -22.3,110.63 -19.72,23.15 -157.79,-21.44 -157.79,-21.44l20.58 -18.01 108.05 0 -2.57 -71.18 54.03 0z"/>
  <path class="fil16" d="M555.78 944.74l-63.27 -202.18c-7.28,-23.26 -14.44,-37.92 -11.15,-62.9 9.98,-75.53 103.54,-59.31 107.01,49.83 1.71,54.02 16.29,213.53 16.29,213.53l-48.88 1.72z"/>
  <path class="fil16" d="M714.22 934.02c4.29,-8.58 31.73,-238.83 31.73,-238.83 7.14,-81.27 112.75,-92.25 79.75,17.15 -16.29,54.02 -57.45,225.11 -57.45,225.11l-54.03 -3.43z"/>
  <path class="fil17" d="M707.79 629.33l-20.16 -141.06 -197.78 0 18.85 137.33c-0.03,1.35 -0.01,2.59 0.05,3.73l199.04 0z"/>
  <path class="fil18" d="M707.79 629.33l-199.04 0c0.5,9.93 4.05,11.79 5.91,12.08l1.13 0 283.24 0c11.01,-0.98 11.75,-12.08 11.75,-12.08l-19.67 0 -74.93 0 -8.39 0z"/>
  <path class="fil19" d="M1186.13 86.61c-10.44,0.48 -23.8,4.28 -32.41,9.03 -9.67,5.33 -16.09,10.05 -23.46,18.08 -18.82,20.52 -26.46,51.15 -18.24,78.83 1.54,5.19 3.48,9.87 5.89,14.78 8.65,17.64 25.19,32.13 43.67,39.46 10.86,4.3 22.35,6.16 35.83,5.49 10.38,-0.52 23.56,-4.15 32.41,-9.02 5.89,-3.23 7.46,-4.23 12.63,-8.04 4.07,-3 7.54,-6.41 10.86,-10.02 13.1,-14.28 23.02,-35.87 21.31,-61.27 -2.28,-33.74 -24.04,-60.7 -52.64,-71.87 -11.32,-4.42 -22.11,-6.08 -35.85,-5.45z"/>
  <path class="fil20" d="M1185.57 98.21c-1.29,0.22 -2.73,0.15 -4.08,0.39 -9.11,1.64 -15.25,3.41 -23.61,7.82 -7.99,4.22 -15.03,10.14 -20.01,15.85 -5.77,6.63 -10.28,13.97 -13.44,22.44 -5.46,14.64 -6.08,30.85 -1.36,46.26 2.7,8.78 6.86,16.35 12.38,23.46 8.07,10.39 18.94,17.96 31.17,22.71 11.94,4.64 26.11,5.7 39.31,3.13 13.32,-2.59 25.68,-9.19 35.38,-18.36 7.51,-7.09 14.47,-17.3 17.9,-27.05 7.05,-20.05 5.82,-39.99 -3.97,-58.88 -3.99,-7.71 -10.26,-15.21 -15.81,-20.03 -10.12,-8.81 -22.49,-15.04 -36.67,-17.21 -4.23,-0.64 -12.9,-1.27 -17.19,-0.53z"/>
  <rect class="fil19" transform="matrix(5.20507E-15 0.196532 -0.411414 1.08961E-14 1228.69 166.554)" width="28.93" height="86.23" rx="50" ry="50"/>
  <polygon class="fil21" points="1216.92,143.1 1218.09,144.27 1177.64,186.28 1174.91,183.55 "/>
  <circle class="fil19" cx="1191.79" cy="169.4" r="7.92"/>
  <rect class="fil19" x="1188.95" y="147.84" width="5.69" height="20.72" rx="9.83" ry="12.01"/>
  <path class="fil22" d="M919.59 43.62c66.25,0 119.96,26.5 119.96,59.2 0,32.69 -53.71,59.19 -119.96,59.19 -25.27,0 -48.71,-3.86 -68.05,-10.44l-70.73 55.68c0,0 24.97,-45.17 40.24,-70.67 -13.5,-9.57 -21.43,-21.21 -21.43,-33.76 0,-32.7 53.71,-59.2 119.97,-59.2z"/>
  <circle class="fil23" cx="919.59" cy="102.82" r="37.49"/>
  <path class="fil24" d="M904.59 109.13l30 0 0 0c0,6.58 -5.39,11.97 -11.97,11.97l-6.06 0c-6.59,0 -11.97,-5.39 -11.97,-11.97l0 0z"/>
  <g id="_1856409436240">
   <circle class="fil24" cx="908.58" cy="91.47" r="5.82"/>
   <circle class="fil24" cx="930.59" cy="91.47" r="5.82"/>
  </g>
  <path class="fil25" d="M306.86 366.4l138.12 0c5.62,0 10.23,4.6 10.23,10.23l0 52.2 41.34 36.46 -41.34 -6.74 0 5.04c0,5.63 -4.61,10.23 -10.23,10.23l-138.12 0c-5.62,0 -10.23,-4.6 -10.23,-10.23l0 -86.96c0,-5.63 4.61,-10.23 10.23,-10.23z"/>
  <path class="fil26" d="M375.92 397.93c4.44,-8.87 8.87,-13.31 17.74,-13.31 9.8,0 17.75,7.95 17.75,17.75 0,17.74 -17.75,35.48 -35.49,53.23 -17.74,-17.75 -35.49,-35.49 -35.49,-53.23 0,-9.8 7.95,-17.75 17.75,-17.75 8.87,0 13.31,4.44 17.74,13.31z"/>
  <polygon class="fil27" points="249.61,575.49 223.57,628.07 218.89,628.07 244.94,575.49 "/>
  <polygon class="fil27" points="271.76,575.49 245.72,628.07 241.05,628.07 267.09,575.49 "/>
  <polygon class="fil27" points="277.14,591.5 224.56,591.5 224.56,586.83 277.14,586.83 "/>
  <polygon class="fil27" points="269.69,615.8 217.11,615.8 217.11,611.12 269.69,611.12 "/>
  <polygon class="fil27" points="1348.34,413.84 1322.3,466.42 1317.62,466.42 1343.67,413.84 "/>
  <polygon class="fil27" points="1370.49,413.84 1344.45,466.42 1339.77,466.42 1365.82,413.84 "/>
  <polygon class="fil27" points="1375.87,429.85 1323.29,429.85 1323.29,425.18 1375.87,425.18 "/>
  <polygon class="fil27" points="1368.42,454.15 1315.84,454.15 1315.84,449.47 1368.42,449.47 "/>
  <polygon class="fil14" points="1179.36,520.72 1185.8,530.29 1196.89,533.46 1189.78,542.55 1190.19,554.08 1179.36,550.12 1168.52,554.08 1168.93,542.55 1161.82,533.46 1172.91,530.29 "/>
  <polygon class="fil28" points="374.87,743.62 388.62,729.25 391.24,726.51 394.1,728.98 405.69,738.99 418.25,731.67 420.27,730.48 422.29,731.7 437.92,741.07 433.82,747.92 420.22,739.75 407.25,747.32 404.8,748.75 402.64,746.89 391.75,737.48 380.62,749.12 "/>
  <polygon class="fil27" points="494.37,192.75 514.26,192.31 518.05,192.23 518.33,196 519.44,211.27 533.5,214.97 535.77,215.57 536.34,217.85 540.75,235.53 533.02,237.48 529.17,222.09 514.65,218.26 511.91,217.54 511.7,214.69 510.65,200.35 494.55,200.71 "/>
  <path class="fil29" d="M202.43 395.23c6.55,0 12.47,2.65 16.76,6.94 4.29,4.29 6.95,10.22 6.95,16.76 0,6.55 -2.66,12.47 -6.95,16.76 -4.29,4.29 -10.21,6.95 -16.76,6.95 -6.54,0 -12.47,-2.66 -16.76,-6.95 -4.29,-4.29 -6.94,-10.21 -6.94,-16.76 0,-6.54 2.65,-12.47 6.94,-16.76 4.29,-4.29 10.22,-6.94 16.76,-6.94zm13.09 10.61c-3.35,-3.35 -7.98,-5.42 -13.09,-5.42 -5.11,0 -9.74,2.08 -13.09,5.42 -3.34,3.35 -5.42,7.98 -5.42,13.09 0,5.11 2.08,9.74 5.42,13.09 3.35,3.35 7.98,5.42 13.09,5.42 5.11,0 9.74,-2.07 13.09,-5.42 3.35,-3.35 5.42,-7.98 5.42,-13.09 0,-5.11 -2.07,-9.74 -5.42,-13.09z"/>
  <polygon class="fil23" points="541.91,314.22 548.35,323.79 559.44,326.96 552.33,336.04 552.74,347.57 541.91,343.62 531.07,347.57 531.48,336.04 524.37,326.96 535.46,323.79 "/>
  <polygon class="fil30" points="1041.01,341.79 1060.9,341.35 1064.69,341.26 1064.97,345.04 1066.08,360.31 1080.14,364.01 1082.41,364.6 1082.98,366.89 1087.39,384.57 1079.66,386.51 1075.81,371.12 1061.29,367.3 1058.55,366.58 1058.34,363.73 1057.29,349.38 1041.19,349.74 "/>
  <path class="fil31" d="M1055.14 640.3c6.54,0 12.47,2.66 16.76,6.94 4.29,4.29 6.94,10.22 6.94,16.77 0,6.54 -2.65,12.47 -6.94,16.75 -4.29,4.29 -10.22,6.95 -16.76,6.95 -6.55,0 -12.48,-2.66 -16.76,-6.95 -4.29,-4.28 -6.95,-10.21 -6.95,-16.75 0,-6.55 2.66,-12.48 6.95,-16.77 4.28,-4.28 10.21,-6.94 16.76,-6.94zm13.08 10.62c-3.35,-3.35 -7.97,-5.42 -13.08,-5.42 -5.12,0 -9.75,2.07 -13.09,5.42 -3.35,3.34 -5.42,7.97 -5.42,13.09 0,5.11 2.07,9.73 5.42,13.08 3.34,3.35 7.97,5.42 13.09,5.42 5.11,0 9.73,-2.07 13.08,-5.42 3.35,-3.35 5.42,-7.97 5.42,-13.08 0,-5.12 -2.07,-9.75 -5.42,-13.09z"/>
  <polygon class="fil32" points="189.71,926.88 250.46,793.02 257.41,796.17 196.67,930.04 "/>
  <polygon class="fil32" points="200.49,926.89 200.49,698.44 189.71,698.43 189.71,926.88 "/>
  <circle class="fil25" cx="195.1" cy="698.44" r="21.93"/>
  <circle class="fil23" transform="matrix(4.49163 0.744206 -0.744206 4.49163 253.933 794.594)" r="4.82"/>
  <polygon class="fil32" points="196.67,923.27 126.93,769.58 118.94,773.2 188.68,926.88 "/>
  <circle class="fil33" transform="matrix(-5.15665 0.854391 0.854391 5.15665 122.935 771.389)" r="4.82"/>
  <path class="fil5" d="M228.51 980.25c0,0 38.97,-13.61 35.26,-66.81 0.7,-48.4 -135.55,-48.4 -134.85,0 -3.72,53.2 35.26,66.81 35.26,66.81l64.33 0z"/>
 </g>
</svg>
