<?xml version="1.0" encoding="UTF-8"?>
<!DOCTYPE svg PUBLIC "-//W3C//DTD SVG 1.1//EN" "http://www.w3.org/Graphics/SVG/1.1/DTD/svg11.dtd">
<!-- Creator: CorelDRAW -->
<svg xmlns="http://www.w3.org/2000/svg" xml:space="preserve" width="1.70666in" height="1.70666in" version="1.1" style="shape-rendering:geometricPrecision; text-rendering:geometricPrecision; image-rendering:optimizeQuality; fill-rule:evenodd; clip-rule:evenodd"
viewBox="0 0 1706.66 1706.66"
 xmlns:xlink="http://www.w3.org/1999/xlink"
 xmlns:xodm="http://www.corel.com/coreldraw/odm/2003">
 <defs>
  <style type="text/css">
   <![CDATA[
    .fil0 {fill:black}
   ]]>
  </style>
 </defs>
 <g id="Layer_x0020_1">
  <metadata id="CorelCorpID_0Corel-Layer"/>
  <g id="_1693310114624">
   <g>
    <g>
     <path class="fil0" d="M1518.29 1425.96l-1329.91 0c-103.86,0 -188.36,-84.5 -188.36,-188.37l0 -45.26c0,-29.59 24.07,-53.68 53.67,-53.68l1599.3 0c29.59,0 53.67,24.09 53.67,53.68l0 45.26c-0,103.88 -84.5,188.37 -188.36,188.37zm-1464.6 -247.29c-7.54,0 -13.67,6.13 -13.67,13.67l0 45.26c0,81.8 66.56,148.36 148.36,148.36l1329.91 -0.01c81.8,0 148.36,-66.56 148.36,-148.36l0 -45.27c0,-7.54 -6.11,-13.67 -13.65,-13.67l-1599.31 0.01z"/>
    </g>
    <g>
     <path class="fil0" d="M1520.68 1178.67c-11.04,0 -20,-8.97 -20,-20l0 -791.3c0,-25.74 -20.93,-46.67 -46.65,-46.67l-1201.37 0c-25.74,0 -46.67,20.93 -46.67,46.67l0 791.28c0,11.04 -8.96,20 -20,20 -11.04,0 -20,-8.97 -20,-20l0 -791.28c0,-47.79 38.88,-86.67 86.67,-86.67l1201.35 0c47.78,0 86.67,38.87 86.67,86.67l0 791.28c0,11.04 -8.96,20.02 -20,20.02z"/>
    </g>
    <g>
     <path class="fil0" d="M994.25 1302.34l-281.83 0c-9.7,0 -18.02,-6.99 -19.69,-16.54l-21.68 -123.67c-1.9,-10.89 5.36,-21.25 16.25,-23.16 10.9,-2.04 21.25,5.36 23.15,16.24l18.78 107.12 248.24 0 18.79 -107.12c1.9,-10.89 12.21,-18.29 23.15,-16.24 10.88,1.9 18.15,12.26 16.24,23.16l-21.68 123.67c-1.7,9.56 -10,16.54 -19.72,16.54z"/>
    </g>
    <g>
     <path class="fil0" d="M254.59 1302.32l-118.56 0c-11.04,0 -20,-8.97 -20,-20 0,-11.03 8.96,-20 20,-20l118.56 0c11.04,0 20,8.97 20,20 0,11.03 -8.94,20 -20,20z"/>
    </g>
    <g>
     <path class="fil0" d="M1570.63 1302.32l-118.57 0c-11.04,0 -20,-8.97 -20,-20 0,-11.03 8.97,-20 20,-20l118.57 0c11.04,0 20,8.97 20,20 0,11.03 -8.96,20 -20,20z"/>
    </g>
    <g>
     <g>
      <path class="fil0" d="M894.4 1050.41l-82.14 0c-25.23,0 -45.76,-20.54 -45.76,-45.76l0 -49.2c-3.85,-1.47 -7.65,-3.07 -11.42,-4.74l-34.78 34.8c-17.26,17.22 -47.46,17.22 -64.72,0l-58.1 -58.1c-17.83,-17.85 -17.83,-46.88 0,-64.71l34.79 -34.79c-1.68,-3.76 -3.25,-7.57 -4.73,-11.42l-49.19 0c-25.22,0 -45.75,-20.53 -45.75,-45.76l0 -82.13c0,-25.23 20.53,-45.76 45.75,-45.76l49.2 0c1.47,-3.83 3.06,-7.65 4.74,-11.42l-34.79 -34.8c-8.63,-8.61 -13.38,-20.11 -13.38,-32.36 0,-12.25 4.75,-23.74 13.38,-32.36l58.08 -58.08c17.26,-17.25 47.47,-17.23 64.72,0l34.79 34.8c3.76,-1.68 7.57,-3.25 11.4,-4.74l0 -49.2c0,-25.23 20.53,-45.76 45.76,-45.76l82.13 0c25.22,0 45.76,20.53 45.76,45.76l0 49.2c3.82,1.47 7.64,3.06 11.4,4.74l34.79 -34.79c17.21,-17.25 47.46,-17.27 64.72,0l58.08 58.08c17.83,17.85 17.83,46.87 0,64.72l-34.79 34.78c1.67,3.76 3.24,7.57 4.74,11.42l49.2 0c25.22,0 45.76,20.54 45.76,45.76l0 82.13c0,25.23 -20.54,45.76 -45.76,45.76l-49.21 0c-1.47,3.83 -3.06,7.64 -4.72,11.4l34.79 34.79c17.83,17.85 17.83,46.88 0,64.72l-58.08 58.08c-17.25,17.25 -47.47,17.25 -64.72,0l-34.79 -34.79c-3.76,1.67 -7.57,3.25 -11.4,4.74l0 49.2c0.02,25.23 -20.52,45.76 -45.74,45.76zm-143.41 -143.87c3.15,0 6.32,0.75 9.25,2.28 10.3,5.37 21.15,9.87 32.3,13.4 8.32,2.63 13.96,10.35 13.96,19.07l0 63.38c0,3.12 2.64,5.75 5.76,5.75l82.14 0c3.13,0 5.75,-2.63 5.75,-5.75l0 -63.38c0,-8.72 5.65,-16.44 13.98,-19.07 11.15,-3.53 22.02,-8.02 32.32,-13.4 7.72,-4.02 17.18,-2.58 23.39,3.59l44.83 44.82c2.88,2.9 5.26,2.9 8.14,0l58.08 -58.08c2.21,-2.2 2.21,-5.94 0,-8.14l-44.83 -44.83c-6.17,-6.17 -7.63,-15.64 -3.59,-23.39 5.4,-10.36 9.9,-21.22 13.4,-32.3 2.61,-8.33 10.33,-13.98 19.07,-13.98l63.37 0c3.13,0 5.75,-2.64 5.75,-5.76l0.01 -82.13c0,-3.12 -2.63,-5.78 -5.75,-5.78l-63.38 0.01c-8.72,0 -16.46,-5.65 -19.07,-13.98 -3.51,-11.12 -8.02,-21.98 -13.39,-32.29 -4.04,-7.75 -2.6,-17.22 3.59,-23.39l44.83 -44.82c2.21,-2.21 2.21,-5.94 0,-8.15l-58.09 -58.08c-2.89,-2.9 -5.28,-2.86 -8.13,0l-44.83 44.83c-6.2,6.18 -15.63,7.63 -23.39,3.59 -10.37,-5.4 -21.25,-9.92 -32.3,-13.39 -8.32,-2.63 -13.98,-10.35 -13.98,-19.08l0 -63.37c0,-3.12 -2.62,-5.76 -5.75,-5.76l-82.14 0c-3.12,0 -5.76,2.64 -5.76,5.76l0 63.38c0,8.72 -5.67,16.44 -13.98,19.08 -11.07,3.48 -21.93,8 -32.29,13.39 -7.74,4.06 -17.22,2.58 -23.39,-3.59l-44.83 -44.83c-2.88,-2.86 -5.25,-2.89 -8.15,0l-58.08 58.07c-1.44,1.44 -1.65,3.18 -1.65,4.09 0,0.9 0.21,2.62 1.65,4.07l44.83 44.83c6.17,6.17 7.63,15.64 3.58,23.39 -5.39,10.35 -9.9,21.21 -13.4,32.3 -2.62,8.32 -10.35,13.97 -19.07,13.97l-63.36 -0c-3.12,0 -5.76,2.64 -5.76,5.76l0 82.13c0,3.13 2.64,5.76 5.76,5.76l63.37 0c8.72,0 16.45,5.65 19.07,13.98 3.5,11.1 8.02,21.97 13.39,32.3 4.04,7.75 2.58,17.2 -3.6,23.39l-44.83 44.82c-2.21,2.19 -2.21,5.94 0,8.15l58.09 58.08c2.86,2.86 5.26,2.89 8.15,0l44.82 -44.85c3.87,-3.82 9,-5.85 14.18,-5.85z"/>
     </g>
     <g>
      <path class="fil0" d="M853.33 899.01c-93.36,0 -169.31,-75.96 -169.31,-169.31 0,-93.36 75.96,-169.32 169.31,-169.32 93.36,0 169.32,75.96 169.32,169.32 0,93.35 -75.96,169.31 -169.32,169.31zm0 -298.64c-71.31,0 -129.31,58.02 -129.31,129.31 0,71.31 58.02,129.32 129.31,129.32 71.31,0 129.32,-58.02 129.32,-129.32 0,-71.31 -58.01,-129.31 -129.32,-129.31z"/>
     </g>
    </g>
   </g>
  </g>
 </g>
</svg>
